<?xml version="1.0" encoding="UTF-8" standalone="no"?>
<!-- Created with Inkscape (http://www.inkscape.org/) -->

<svg
   version="1.1"
   id="svg2"
   width="64"
   height="64"
   xml:space="preserve"
   inkscape:export-filename="base.svg"
   inkscape:export-xdpi="96"
   inkscape:export-ydpi="96"
   inkscape:version="1.3.1 (91b66b0783, 2023-11-16, custom)"
   sodipodi:docname="back.svg"
   xmlns:inkscape="http://www.inkscape.org/namespaces/inkscape"
   xmlns:sodipodi="http://sodipodi.sourceforge.net/DTD/sodipodi-0.dtd"
   xmlns="http://www.w3.org/2000/svg"
   xmlns:svg="http://www.w3.org/2000/svg"><defs
   id="defs6" /><sodipodi:namedview
   id="namedview4"
   pagecolor="#505050"
   bordercolor="#eeeeee"
   borderopacity="1"
   inkscape:showpageshadow="0"
   inkscape:pageopacity="0"
   inkscape:pagecheckerboard="0"
   inkscape:deskcolor="#505050"
   showgrid="true"
   inkscape:current-layer="svg2"
   inkscape:zoom="6.8279999"
   inkscape:cx="50.087874"
   inkscape:cy="39.982426"
   inkscape:window-width="5070"
   inkscape:window-height="1440"
   inkscape:window-x="0"
   inkscape:window-y="0"
   inkscape:window-maximized="1"><inkscape:grid
     type="xygrid"
     id="Main Grid"
     originx="0"
     originy="0"
     spacingy="1"
     spacingx="1"
     units="px"
     visible="true"
     empspacing="4"
     snapvisiblegridlinesonly="true" /></sodipodi:namedview>
    
<rect
   style="display:inline;fill:#1e1f29;fill-rule:evenodd;stroke-width:2;stroke-linecap:square;stroke-linejoin:round;stroke-miterlimit:0"
   id="rect50"
   width="60"
   height="60"
   x="2"
   y="2"
   rx="14"
   ry="14"
   inkscape:label="Slot" /><g
   id="g7"
   inkscape:label="Backpack Icon"><path
     style="fill:#3a3f63;stroke-width:0.10356;stroke-linecap:square;stroke-linejoin:round;stroke-miterlimit:0"
     d="M 12,38 V 32 H 14 16 v 6 6 h -2 -2 z"
     id="path1" /><path
     style="fill:#3a3f63;stroke-width:0.10356;stroke-linecap:square;stroke-linejoin:round;stroke-miterlimit:0"
     d="M 16,28 V 24 h 2 2 v 4 4 H 18 16 Z"
     id="path2" /><path
     style="fill:#3a3f63;stroke-width:0.10356;stroke-linecap:square;stroke-linejoin:round;stroke-miterlimit:0"
     d="M 20,20 V 16 h 2 2 v 2 2 h 2 2 V 22 24 H 24 20 Z"
     id="path3" /><path
     style="fill:#3a3f63;stroke-width:0.10356;stroke-linecap:square;stroke-linejoin:round;stroke-miterlimit:0"
     d="M 24,14 V 12 H 32 40 v 2 2 H 32 24 Z"
     id="path4" /><path
     style="fill:#3a3f63;stroke-width:0.10356;stroke-linecap:square;stroke-linejoin:round;stroke-miterlimit:0"
     d="M 20,50 V 48 H 30 40 V 36 24 h -2 -2 v -2 -2 h 2 2 V 18 16 h 2 2 v 2 2 H 46 48 V 22 24 h 2 2 v 4 4 h 2 2 V 36 40 h -2 -2 v 2 2 H 50 48 v 2 2 h -2 -2 v 2 2 H 32 20 Z M 48,34 V 28 H 46 44 V 34 40 H 46 48 Z"
     id="path5" /><path
     style="fill:#3a3f63;stroke-width:0.10356;stroke-linecap:square;stroke-linejoin:round;stroke-miterlimit:0"
     d="M 28,26 V 24 H 32 36 v 2 2 H 32 28 Z"
     id="path6" /><path
     style="fill:#3a3f63;stroke-width:0.10356;stroke-linecap:square;stroke-linejoin:round;stroke-miterlimit:0"
     d="m 16,46 v -2 h 2 2 v 2 2 H 18 16 Z"
     id="path7" /></g></svg>
