<svg xmlns="http://www.w3.org/2000/svg" xmlns:svg="http://www.w3.org/2000/svg" id="svg2" width="64" height="64" version="1.1" xml:space="preserve"><rect style="display:inline;fill:#1e1f29;fill-rule:evenodd;stroke-width:2;stroke-linecap:square;stroke-linejoin:round;stroke-miterlimit:0" id="rect50" width="60" height="60" x="2" y="2" rx="14" ry="14"/><g id="g7"><path style="fill:#3a3f63;stroke-width:.10356;stroke-linecap:square;stroke-linejoin:round;stroke-miterlimit:0" id="path1" d="M 12.012945,38.006472 V 32 H 14.006472 16 v 6.006472 6.006473 h -1.993528 -1.993527 z"/><path style="fill:#3a3f63;stroke-width:.10356;stroke-linecap:square;stroke-linejoin:round;stroke-miterlimit:0" id="path2" d="M 16,28.012945 V 24 h 1.993528 1.993527 v 4.012945 4.012945 H 17.993528 16 Z"/><path style="fill:#3a3f63;stroke-width:.10356;stroke-linecap:square;stroke-linejoin:round;stroke-miterlimit:0" id="path3" d="M 19.987055,19.987055 V 15.97411 h 1.993528 1.993527 v 2.019418 2.019417 h 2.019418 2.019417 V 22.006472 24 H 24 19.987055 Z"/><path style="fill:#3a3f63;stroke-width:.10356;stroke-linecap:square;stroke-linejoin:round;stroke-miterlimit:0" id="path4" d="M 23.97411,13.980583 V 11.987055 H 32 40.02589 v 1.993528 1.993527 H 32 23.97411 Z"/><path style="fill:#3a3f63;stroke-width:.10356;stroke-linecap:square;stroke-linejoin:round;stroke-miterlimit:0" id="path5" d="M 19.987055,50.019417 V 48.02589 H 30.006472 40.02589 V 36.012945 24 h -2.019418 -2.019417 v -1.993528 -1.993527 h 2.019417 2.019418 V 17.993528 15.97411 h 1.993527 1.993528 v 2.019418 2.019417 H 46.006472 48 V 22.006472 24 h 1.993528 1.993527 v 4.012945 4.012945 h 2.019417 2.019418 V 36.012945 40 h -2.019418 -2.019417 v 1.993528 1.993527 H 49.993528 48 v 2.019417 2.019418 h -1.993528 -1.993527 v 1.993527 1.993528 H 32 19.987055 Z M 48,33.993528 V 27.987055 H 46.006472 44.012945 V 33.993528 40 H 46.006472 48 Z"/><path style="fill:#3a3f63;stroke-width:.10356;stroke-linecap:square;stroke-linejoin:round;stroke-miterlimit:0" id="path6" d="M 28.012945,25.993528 V 24 H 32 35.987055 v 1.993528 1.993527 H 32 28.012945 Z"/><path style="fill:#3a3f63;stroke-width:.10356;stroke-linecap:square;stroke-linejoin:round;stroke-miterlimit:0" id="path7" d="m 16,46.006472 v -2.019417 h 1.993528 1.993527 v 2.019417 2.019418 H 17.993528 16 Z"/></g></svg>