<?xml version="1.0" encoding="UTF-8" standalone="no"?>
<!-- Created with Inkscape (http://www.inkscape.org/) -->

<svg
   version="1.1"
   id="svg2"
   width="64"
   height="64"
   xml:space="preserve"
   inkscape:export-filename="base.svg"
   inkscape:export-xdpi="96"
   inkscape:export-ydpi="96"
   inkscape:version="1.3.1 (91b66b0783, 2023-11-16, custom)"
   sodipodi:docname="back.svg"
   xmlns:inkscape="http://www.inkscape.org/namespaces/inkscape"
   xmlns:sodipodi="http://sodipodi.sourceforge.net/DTD/sodipodi-0.dtd"
   xmlns="http://www.w3.org/2000/svg"
   xmlns:svg="http://www.w3.org/2000/svg"><defs
   id="defs6" /><sodipodi:namedview
   id="namedview4"
   pagecolor="#505050"
   bordercolor="#eeeeee"
   borderopacity="1"
   inkscape:showpageshadow="0"
   inkscape:pageopacity="0"
   inkscape:pagecheckerboard="0"
   inkscape:deskcolor="#505050"
   showgrid="true"
   inkscape:current-layer="svg2"
   inkscape:zoom="6.8279999"
   inkscape:cx="50.087874"
   inkscape:cy="39.982426"
   inkscape:window-width="5070"
   inkscape:window-height="1440"
   inkscape:window-x="0"
   inkscape:window-y="0"
   inkscape:window-maximized="1"><inkscape:grid
     type="xygrid"
     id="Main Grid"
     originx="0"
     originy="0"
     spacingy="1"
     spacingx="1"
     units="px"
     visible="true"
     empspacing="4"
     snapvisiblegridlinesonly="true" /></sodipodi:namedview>
    
<rect
   style="display:inline;fill:#1e1f29;fill-rule:evenodd;stroke-width:2;stroke-linecap:square;stroke-linejoin:round;stroke-miterlimit:0"
   id="rect50"
   width="60"
   height="60"
   x="2"
   y="2"
   rx="14"
   ry="14"
   inkscape:label="Slot" /><g
   id="g7"
   inkscape:label="Backpack Icon"><path
     style="fill:#3a3f63;stroke-width:0.10356;stroke-linecap:square;stroke-linejoin:round;stroke-miterlimit:0"
     d="M 12.012945,38.006472 V 32 H 14.006472 16 v 6.006472 6.006473 h -1.993528 -1.993527 z"
     id="path1" /><path
     style="fill:#3a3f63;stroke-width:0.10356;stroke-linecap:square;stroke-linejoin:round;stroke-miterlimit:0"
     d="M 16,28.012945 V 24 h 1.993528 1.993527 v 4.012945 4.012945 H 17.993528 16 Z"
     id="path2" /><path
     style="fill:#3a3f63;stroke-width:0.10356;stroke-linecap:square;stroke-linejoin:round;stroke-miterlimit:0"
     d="M 19.987055,19.987055 V 15.97411 h 1.993528 1.993527 v 2.019418 2.019417 h 2.019418 2.019417 V 22.006472 24 H 24 19.987055 Z"
     id="path3" /><path
     style="fill:#3a3f63;stroke-width:0.10356;stroke-linecap:square;stroke-linejoin:round;stroke-miterlimit:0"
     d="M 23.97411,13.980583 V 11.987055 H 32 40.02589 v 1.993528 1.993527 H 32 23.97411 Z"
     id="path4" /><path
     style="fill:#3a3f63;stroke-width:0.10356;stroke-linecap:square;stroke-linejoin:round;stroke-miterlimit:0"
     d="M 19.987055,50.019417 V 48.02589 H 30.006472 40.02589 V 36.012945 24 h -2.019418 -2.019417 v -1.993528 -1.993527 h 2.019417 2.019418 V 17.993528 15.97411 h 1.993527 1.993528 v 2.019418 2.019417 H 46.006472 48 V 22.006472 24 h 1.993528 1.993527 v 4.012945 4.012945 h 2.019417 2.019418 V 36.012945 40 h -2.019418 -2.019417 v 1.993528 1.993527 H 49.993528 48 v 2.019417 2.019418 h -1.993528 -1.993527 v 1.993527 1.993528 H 32 19.987055 Z M 48,33.993528 V 27.987055 H 46.006472 44.012945 V 33.993528 40 H 46.006472 48 Z"
     id="path5" /><path
     style="fill:#3a3f63;stroke-width:0.10356;stroke-linecap:square;stroke-linejoin:round;stroke-miterlimit:0"
     d="M 28.012945,25.993528 V 24 H 32 35.987055 v 1.993528 1.993527 H 32 28.012945 Z"
     id="path6" /><path
     style="fill:#3a3f63;stroke-width:0.10356;stroke-linecap:square;stroke-linejoin:round;stroke-miterlimit:0"
     d="m 16,46.006472 v -2.019417 h 1.993528 1.993527 v 2.019417 2.019418 H 17.993528 16 Z"
     id="path7" /></g></svg>
