<svg xmlns="http://www.w3.org/2000/svg" xmlns:svg="http://www.w3.org/2000/svg" id="svg2" width="64" height="64" version="1.1" xml:space="preserve"><rect style="display:inline;fill:#1e1f29;fill-rule:evenodd;stroke-width:2;stroke-linecap:square;stroke-linejoin:round;stroke-miterlimit:0" id="rect50" width="60" height="60" x="2" y="2" rx="14" ry="14"/><g id="g12"><path style="fill:#3a3f63;stroke-width:.10356;stroke-linecap:square;stroke-linejoin:round;stroke-miterlimit:0" id="path1" d="m 12.012945,20.012945 h 7.97411 V 24 h -7.97411 z"/><path style="fill:#3a3f63;stroke-width:.10356;stroke-linecap:square;stroke-linejoin:round;stroke-miterlimit:0" id="path2" d="m 7.97411,24 h 4.038835 v 3.987055 H 7.97411 Z"/><path style="fill:#3a3f63;stroke-width:.10356;stroke-linecap:square;stroke-linejoin:round;stroke-miterlimit:0" id="path3" d="M 12.012945,27.987055 H 16 v 4.038835 h -3.987055 z"/><path style="fill:#3a3f63;stroke-width:.10356;stroke-linecap:square;stroke-linejoin:round;stroke-miterlimit:0" id="path4" d="m 19.987055,23.97411 h 8.02589 v 4.038835 h -8.02589 z"/><path style="fill:#3a3f63;stroke-width:.10356;stroke-linecap:square;stroke-linejoin:round;stroke-miterlimit:0" id="path5" d="m 28.012945,27.987055 h 7.97411 v 4.038835 h -7.97411 z"/><path style="fill:#3a3f63;stroke-width:.10356;stroke-linecap:square;stroke-linejoin:round;stroke-miterlimit:0" id="path6" d="m 35.987055,24 h 8.02589 v 3.987055 h -8.02589 z"/><path style="fill:#3a3f63;stroke-width:.10356;stroke-linecap:square;stroke-linejoin:round;stroke-miterlimit:0" id="path7" d="m 44.012945,20.012945 h 7.97411 V 24 h -7.97411 z"/><path style="fill:#3a3f63;stroke-width:.10356;stroke-linecap:square;stroke-linejoin:round;stroke-miterlimit:0" id="path8" d="m 51.987055,24 h 4.038835 v 3.987055 h -4.038835 z"/><path style="fill:#3a3f63;stroke-width:.10356;stroke-linecap:square;stroke-linejoin:round;stroke-miterlimit:0" id="path9" d="m 48,27.987055 h 3.987055 V 32.02589 H 48 Z"/><path style="fill:#3a3f63;stroke-width:.10356;stroke-linecap:square;stroke-linejoin:round;stroke-miterlimit:0" id="path10" d="M 35.987055,32.02589 H 48 v 3.987055 H 40.02589 V 40 h -4.038835 z"/><path style="fill:#3a3f63;stroke-width:.10356;stroke-linecap:square;stroke-linejoin:round;stroke-miterlimit:0" id="path11" d="m 28.012945,40 h 7.97411 v 3.987055 h -7.97411 z"/><path style="fill:#3a3f63;stroke-width:.10356;stroke-linecap:square;stroke-linejoin:round;stroke-miterlimit:0" id="path12" d="M 23.97411,36.012945 H 16 V 32.02589 H 28.012945 V 40 H 23.97411 Z"/></g></svg>