<svg xmlns="http://www.w3.org/2000/svg" xmlns:svg="http://www.w3.org/2000/svg" id="svg2" width="64" height="64" version="1.1" xml:space="preserve"><rect style="display:inline;fill:#1e1f29;fill-rule:evenodd;stroke-width:2;stroke-linecap:square;stroke-linejoin:round;stroke-miterlimit:0" id="rect50" width="60" height="60" x="2" y="2" rx="14" ry="14"/><g id="g7"><path style="fill:#3a3f63;stroke-width:.10356;stroke-linecap:square;stroke-linejoin:round;stroke-miterlimit:0" id="path1" d="M 12.012945,32 V 27.987055 H 14.006472 16 V 32 36.012945 h -1.993528 -1.993527 z"/><path style="fill:#3a3f63;stroke-width:.10356;stroke-linecap:square;stroke-linejoin:round;stroke-miterlimit:0" id="path2" d="M 16,25.993528 V 24 h 3.987055 3.987055 v 1.993528 1.993527 H 19.987055 16 Z"/><path style="fill:#3a3f63;stroke-width:.10356;stroke-linecap:square;stroke-linejoin:round;stroke-miterlimit:0" id="path3" d="M 23.97411,32 V 27.987055 H 32 40.02589 V 32 36.012945 H 38.006472 35.987055 V 34.019417 32.02589 H 32 28.012945 v 1.993527 1.993528 H 25.993528 23.97411 Z"/><path style="fill:#3a3f63;stroke-width:.10356;stroke-linecap:square;stroke-linejoin:round;stroke-miterlimit:0" id="path4" d="m 16,38.006472 v -1.993527 h 3.987055 3.987055 V 38.006472 40 H 19.987055 16 Z"/><path style="fill:#3a3f63;stroke-width:.10356;stroke-linecap:square;stroke-linejoin:round;stroke-miterlimit:0" id="path5" d="M 40.02589,25.993528 V 24 H 44.012945 48 v 1.993528 1.993527 H 44.012945 40.02589 Z"/><path style="fill:#3a3f63;stroke-width:.10356;stroke-linecap:square;stroke-linejoin:round;stroke-miterlimit:0" id="path6" d="m 48,32 v -4.012945 h 1.993528 1.993527 V 32 36.012945 H 49.993528 48 Z"/><path style="fill:#3a3f63;stroke-width:.10356;stroke-linecap:square;stroke-linejoin:round;stroke-miterlimit:0" id="path7" d="M 40.02589,38.006472 V 36.012945 H 44.012945 48 V 38.006472 40 H 44.012945 40.02589 Z"/></g></svg>