<?xml version="1.0" encoding="UTF-8" standalone="no"?>
<!-- Created with Inkscape (http://www.inkscape.org/) -->

<svg
   version="1.1"
   id="svg2"
   width="64"
   height="64"
   xml:space="preserve"
   inkscape:export-filename="base.svg"
   inkscape:export-xdpi="96"
   inkscape:export-ydpi="96"
   inkscape:version="1.3.1 (91b66b0783, 2023-11-16, custom)"
   sodipodi:docname="face.svg"
   xmlns:inkscape="http://www.inkscape.org/namespaces/inkscape"
   xmlns:sodipodi="http://sodipodi.sourceforge.net/DTD/sodipodi-0.dtd"
   xmlns="http://www.w3.org/2000/svg"
   xmlns:svg="http://www.w3.org/2000/svg"><defs
   id="defs6" /><sodipodi:namedview
   id="namedview4"
   pagecolor="#505050"
   bordercolor="#eeeeee"
   borderopacity="1"
   inkscape:showpageshadow="0"
   inkscape:pageopacity="0"
   inkscape:pagecheckerboard="0"
   inkscape:deskcolor="#505050"
   showgrid="true"
   inkscape:current-layer="svg2"
   inkscape:zoom="19.3125"
   inkscape:cx="32"
   inkscape:cy="32"
   inkscape:window-width="5070"
   inkscape:window-height="1440"
   inkscape:window-x="0"
   inkscape:window-y="0"
   inkscape:window-maximized="1"><inkscape:grid
     type="xygrid"
     id="Main Grid"
     originx="0"
     originy="0"
     spacingy="1"
     spacingx="1"
     units="px"
     visible="true"
     empspacing="4"
     snapvisiblegridlinesonly="true" /></sodipodi:namedview>
    
<rect
   style="display:inline;fill:#1e1f29;fill-rule:evenodd;stroke-width:2;stroke-linecap:square;stroke-linejoin:round;stroke-miterlimit:0"
   id="rect50"
   width="60"
   height="60"
   x="2"
   y="2"
   rx="14"
   ry="14"
   inkscape:label="Slot" /><g
   id="g7"
   inkscape:label="Glasses Icon"><path
     style="fill:#3a3f63;stroke-width:0.10356;stroke-linecap:square;stroke-linejoin:round;stroke-miterlimit:0"
     d="M 12,32 V 28 H 14 16 V 32 36 h -2 -2 z"
     id="path1" /><path
     style="fill:#3a3f63;stroke-width:0.10356;stroke-linecap:square;stroke-linejoin:round;stroke-miterlimit:0"
     d="M 16,26 V 24 h 4 4 v 2 2 H 20 16 Z"
     id="path2" /><path
     style="fill:#3a3f63;stroke-width:0.10356;stroke-linecap:square;stroke-linejoin:round;stroke-miterlimit:0"
     d="M 24,32 V 28 H 32 40 V 32 36 H 38 36 V 34 32 H 32 28 v 2 2 H 26 24 Z"
     id="path3" /><path
     style="fill:#3a3f63;stroke-width:0.10356;stroke-linecap:square;stroke-linejoin:round;stroke-miterlimit:0"
     d="m 16,38 v -2 h 4 4 V 38 40 H 20 16 Z"
     id="path4" /><path
     style="fill:#3a3f63;stroke-width:0.10356;stroke-linecap:square;stroke-linejoin:round;stroke-miterlimit:0"
     d="M 40,26 V 24 H 44 48 v 2 2 H 44 40 Z"
     id="path5" /><path
     style="fill:#3a3f63;stroke-width:0.10356;stroke-linecap:square;stroke-linejoin:round;stroke-miterlimit:0"
     d="m 48,32 v -4 h 2 2 V 32 36 H 50 48 Z"
     id="path6" /><path
     style="fill:#3a3f63;stroke-width:0.10356;stroke-linecap:square;stroke-linejoin:round;stroke-miterlimit:0"
     d="M 40,38 V 36 H 44 48 V 38 40 H 44 40 Z"
     id="path7" /></g></svg>
