<svg xmlns="http://www.w3.org/2000/svg" xmlns:svg="http://www.w3.org/2000/svg" id="svg2" width="64" height="64" version="1.1" xml:space="preserve"><rect style="display:inline;fill:#1e1f29;fill-rule:evenodd;stroke-width:2;stroke-linecap:square;stroke-linejoin:round;stroke-miterlimit:0" id="rect50" width="60" height="60" x="1.948" y="2" rx="14" ry="14"/><g id="g6" transform="matrix(-1,0,0,1,66.012945,0.012945)"><path style="fill:#3a3f63;stroke-width:.10356;stroke-linecap:square;stroke-linejoin:round;stroke-miterlimit:0" id="path1" d="M 12.012945,15.97411 H 16 v 28.012945 h 3.987055 V 48.02589 H 16 v 3.987055 h -3.987055 z"/><path style="fill:#3a3f63;stroke-width:.10356;stroke-linecap:square;stroke-linejoin:round;stroke-miterlimit:0" id="path2" d="M 28.012945,11.987055 H 23.97411 v 16 H 19.987055 V 15.97411 H 16 v -3.987055 h 3.987055 V 8 h 8.02589 V 4.012945 H 40.02589 V 8 h 3.987055 v 3.987055 H 40.02589 v 16 H 35.987055 V 8 H 32 v 24.02589 h -3.987055 z"/><path style="fill:#3a3f63;stroke-width:.10356;stroke-linecap:square;stroke-linejoin:round;stroke-miterlimit:0" id="path3" d="M 44.012945,11.987055 H 48 v 8.02589 h 3.987055 V 24 H 48 v 12.012945 h -3.987055 z"/><path style="fill:#3a3f63;stroke-width:.10356;stroke-linecap:square;stroke-linejoin:round;stroke-miterlimit:0" id="path4" d="M 44.012945,52.012945 H 19.987055 V 48.02589 h 24.02589 V 43.987055 H 48 V 40 h 3.987055 V 24 H 56.02589 V 43.987055 H 51.987055 V 48.02589 H 48 V 56 h -3.987055 z"/><path style="fill:#3a3f63;stroke-width:.10356;stroke-linecap:square;stroke-linejoin:round;stroke-miterlimit:0" id="path5" d="m 19.987055,56 h 24.02589 v 3.987055 h -24.02589 z"/><path style="fill:#3a3f63;stroke-width:.10356;stroke-linecap:square;stroke-linejoin:round;stroke-miterlimit:0" id="path6" d="m 16,52.012945 h 3.987055 V 56 H 16 Z"/></g></svg>