<svg xmlns="http://www.w3.org/2000/svg" xmlns:svg="http://www.w3.org/2000/svg" id="svg2" width="64" height="64" version="1.1" xml:space="preserve"><rect style="display:inline;fill:#1e1f29;fill-rule:evenodd;stroke-width:2;stroke-linecap:square;stroke-linejoin:round;stroke-miterlimit:0" id="rect50" width="60" height="60" x="2" y="2" rx="14" ry="14"/><g id="g14"><path style="fill:#3a3f63;stroke-width:.10356;stroke-linecap:square;stroke-linejoin:round;stroke-miterlimit:0" id="path1" d="m 15.97411,19.987055 h 4.038835 v 8.02589 H 15.97411 Z"/><path style="fill:#3a3f63;stroke-width:.10356;stroke-linecap:square;stroke-linejoin:round;stroke-miterlimit:0" id="path2" d="M 20.012945,16 H 24 v 3.987055 h -3.987055 z"/><path style="fill:#3a3f63;stroke-width:.10356;stroke-linecap:square;stroke-linejoin:round;stroke-miterlimit:0" id="path3" d="M 24,12.012945 H 40 V 16 H 24 Z"/><path style="fill:#3a3f63;stroke-width:.10356;stroke-linecap:square;stroke-linejoin:round;stroke-miterlimit:0" id="path4" d="m 40,16 h 3.987055 v 3.987055 H 40 Z"/><path style="fill:#3a3f63;stroke-width:.10356;stroke-linecap:square;stroke-linejoin:round;stroke-miterlimit:0" id="path5" d="m 43.987055,19.987055 h 4.038835 v 8.02589 h -4.038835 z"/><path style="fill:#3a3f63;stroke-width:.10356;stroke-linecap:square;stroke-linejoin:round;stroke-miterlimit:0" id="path6" d="m 40,28.012945 h 3.987055 v 7.97411 H 40 Z"/><path style="fill:#3a3f63;stroke-width:.10356;stroke-linecap:square;stroke-linejoin:round;stroke-miterlimit:0" id="path7" d="M 20.012945,28.012945 H 24 v 7.97411 h -3.987055 z"/><path style="fill:#3a3f63;stroke-width:.10356;stroke-linecap:square;stroke-linejoin:round;stroke-miterlimit:0" id="path8" d="m 24,35.987055 h 3.987055 V 40.02589 H 24 Z"/><path style="fill:#3a3f63;stroke-width:.10356;stroke-linecap:square;stroke-linejoin:round;stroke-miterlimit:0" id="path9" d="m 27.987055,40.02589 h 8.02589 v 3.987055 h -8.02589 z"/><path style="fill:#3a3f63;stroke-width:.10356;stroke-linecap:square;stroke-linejoin:round;stroke-miterlimit:0" id="path10" d="M 36.012945,35.987055 H 40 v 4.038835 h -3.987055 z"/><path style="fill:#3a3f63;stroke-width:.10356;stroke-linecap:square;stroke-linejoin:round;stroke-miterlimit:0" id="path11" d="M 36.012945,44.012945 H 40 v 7.97411 h -3.987055 z"/><path style="fill:#3a3f63;stroke-width:.10356;stroke-linecap:square;stroke-linejoin:round;stroke-miterlimit:0" id="path13" d="m 24,43.987055 h 3.987055 v 8.02589 H 24 Z"/><path style="fill:#3a3f63;stroke-width:.10356;stroke-linecap:square;stroke-linejoin:round;stroke-miterlimit:0" id="path14" d="m 27.987055,51.987055 h 8.02589 v 4.038835 h -8.02589 z"/></g></svg>