<svg xmlns="http://www.w3.org/2000/svg" xmlns:svg="http://www.w3.org/2000/svg" id="svg2" width="64" height="64" version="1.1" xml:space="preserve"><rect style="display:inline;fill:#1e1f29;fill-rule:evenodd;stroke-width:2;stroke-linecap:square;stroke-linejoin:round;stroke-miterlimit:0" id="rect50" width="60" height="60" x="2" y="2" rx="14" ry="14"/><g id="g16"><path style="fill:#3a3f63;stroke-width:.102073;stroke-linecap:square;stroke-linejoin:round;stroke-miterlimit:0" id="path1" d="m 11.99362,23.987241 h 3.980862 V 40.012759 H 11.99362 Z"/><path style="fill:#3a3f63;stroke-width:.102073;stroke-linecap:square;stroke-linejoin:round;stroke-miterlimit:0" id="path2" d="m 15.974482,20.00638 h 4.031898 v 3.980861 h -4.031898 z"/><path style="fill:#3a3f63;stroke-width:.102073;stroke-linecap:square;stroke-linejoin:round;stroke-miterlimit:0" id="path3" d="m 20.00638,15.974482 h 3.980861 V 20.00638 H 20.00638 Z"/><path style="fill:#3a3f63;stroke-width:.102073;stroke-linecap:square;stroke-linejoin:round;stroke-miterlimit:0" id="path4" d="m 23.987241,11.99362 h 16.025518 v 3.980862 H 23.987241 Z"/><path style="fill:#3a3f63;stroke-width:.102073;stroke-linecap:square;stroke-linejoin:round;stroke-miterlimit:0" id="path5" d="m 40.012759,16 h 3.980861 v 3.980861 h -3.980861 z"/><path style="fill:#3a3f63;stroke-width:.102073;stroke-linecap:square;stroke-linejoin:round;stroke-miterlimit:0" id="path6" d="m 43.99362,20.00638 h 4.031898 v 3.980861 H 43.99362 Z"/><path style="fill:#3a3f63;stroke-width:.102073;stroke-linecap:square;stroke-linejoin:round;stroke-miterlimit:0" id="path7" d="M 48.025518,23.987241 H 52.00638 V 40.012759 H 48.025518 Z"/><path style="fill:#3a3f63;stroke-width:.102073;stroke-linecap:square;stroke-linejoin:round;stroke-miterlimit:0" id="path8" d="m 43.99362,40.012759 h 4.031898 V 43.99362 H 43.99362 Z"/><path style="fill:#3a3f63;stroke-width:.102073;stroke-linecap:square;stroke-linejoin:round;stroke-miterlimit:0" id="path9" d="m 40.012759,43.99362 h 3.980861 v 4.031898 h -3.980861 z"/><path style="fill:#3a3f63;stroke-width:.102073;stroke-linecap:square;stroke-linejoin:round;stroke-miterlimit:0" id="path10" d="M 23.987241,48.025518 H 40.012759 V 52.00638 H 23.987241 Z"/><path style="fill:#3a3f63;stroke-width:.102073;stroke-linecap:square;stroke-linejoin:round;stroke-miterlimit:0" id="path11" d="m 20.00638,43.99362 h 3.980861 v 4.031898 H 20.00638 Z"/><path style="fill:#3a3f63;stroke-width:.102073;stroke-linecap:square;stroke-linejoin:round;stroke-miterlimit:0" id="path12" d="M 15.974482,40.012759 H 20.00638 V 43.99362 H 15.974482 Z"/><path style="fill:#3a3f63;stroke-width:.102073;stroke-linecap:square;stroke-linejoin:round;stroke-miterlimit:0" id="path13" d="m 23.987241,28.019139 h 4.031898 v 7.961722 h -4.031898 z"/><path style="fill:#3a3f63;stroke-width:.102073;stroke-linecap:square;stroke-linejoin:round;stroke-miterlimit:0" id="path14" d="m 28.019139,23.987241 h 7.961722 v 4.031898 h -7.961722 z"/><path style="fill:#3a3f63;stroke-width:.102073;stroke-linecap:square;stroke-linejoin:round;stroke-miterlimit:0" id="path15" d="m 35.980861,28.019139 h 4.031898 v 7.961722 h -4.031898 z"/><path style="fill:#3a3f63;stroke-width:.102073;stroke-linecap:square;stroke-linejoin:round;stroke-miterlimit:0" id="path16" d="m 28.019139,35.980861 h 7.961722 v 4.031898 h -7.961722 z"/></g></svg>