<?xml version="1.0" encoding="UTF-8" standalone="no"?>
<!-- Created with Inkscape (http://www.inkscape.org/) -->

<svg
   version="1.1"
   id="svg2"
   width="80"
   height="80"
   xml:space="preserve"
   inkscape:export-filename="base.svg"
   inkscape:export-xdpi="96"
   inkscape:export-ydpi="96"
   inkscape:version="1.3.1 (91b66b0783, 2023-11-16, custom)"
   sodipodi:docname="mouse.svg"
   xmlns:inkscape="http://www.inkscape.org/namespaces/inkscape"
   xmlns:sodipodi="http://sodipodi.sourceforge.net/DTD/sodipodi-0.dtd"
   xmlns="http://www.w3.org/2000/svg"
   xmlns:svg="http://www.w3.org/2000/svg"><defs
   id="defs6" /><sodipodi:namedview
   id="namedview4"
   pagecolor="#505050"
   bordercolor="#eeeeee"
   borderopacity="1"
   inkscape:showpageshadow="0"
   inkscape:pageopacity="0"
   inkscape:pagecheckerboard="0"
   inkscape:deskcolor="#505050"
   showgrid="true"
   inkscape:current-layer="svg2"
   inkscape:zoom="15.45"
   inkscape:cx="40"
   inkscape:cy="40"
   inkscape:window-width="5070"
   inkscape:window-height="1440"
   inkscape:window-x="0"
   inkscape:window-y="0"
   inkscape:window-maximized="1"><inkscape:grid
     type="xygrid"
     id="Main Grid"
     originx="0"
     originy="0"
     spacingy="1"
     spacingx="1"
     units="px"
     visible="true"
     empspacing="4"
     snapvisiblegridlinesonly="true" /></sodipodi:namedview>
    
<g
   id="g51"
   inkscape:label="Mouse 1"
   transform="translate(-784,-8)"><path
     id="path15"
     style="display:inline;fill:#f8f8f2;fill-opacity:1;fill-rule:evenodd;stroke-width:0.25;stroke-linecap:square;stroke-linejoin:round;stroke-miterlimit:0"
     d="m 808,70 2,-44 h 24 l 2,44 z"
     sodipodi:nodetypes="ccccc" /><path
     style="fill:#6272a4;fill-opacity:1;fill-rule:evenodd;stroke-width:0.25;stroke-linecap:square;stroke-linejoin:round;stroke-miterlimit:0"
     d="M 804,64 V 45 26 l 6,-6 h 24 l 6,6 v 19 19 c 0,6 -8,12 -18,12 -10,0 -18,-6 -18,-12 z m 32,-2 V 44 h -8 v 4 l -4,4 h -4 l -4,-4 v -4 h -8 v 18 c 3.88566,4.280906 7.44885,8.953041 14,10 6.23058,-1.938872 14,-6 14,-10 z M 824,32 h -4 v 16 h 4 z m -8,0 4,-4 v -4 h -8 l -4,4 v 12 h 8 z m 20,-4 -4,-4 h -8 v 4 l 4,4 v 8 h 8 z"
     id="path11"
     sodipodi:nodetypes="ccccccccccccccccccccccccccccccccccccccccccc" /><path
     id="path20"
     style="display:inline;fill:#d1d5e3;fill-opacity:1;fill-rule:evenodd;stroke-width:0.25;stroke-linecap:square;stroke-linejoin:round;stroke-miterlimit:0"
     d="M 808,62 V 44 h 2 v 16 c 0,6 6,10 12,10 6,0 12,-4 12,-10 V 44 h 2 v 18 c 0,6 -8,10 -14,10 -6,0 -14,-4 -14,-10 z m 0,-35 3,-3 h 9 v 2 h -8 l -2,2 v 12 h -2 z m 26,1 -2,-2 h -8 v -2 h 9 l 3,3 v 13 h -2 z m -14,18 h 4 v 2 h -4 z m 0,-14 h 4 v 2 h -4 z"
     sodipodi:nodetypes="ccccccccccccccccccccccccccccccccccccccc" /></g></svg>
