<svg xmlns="http://www.w3.org/2000/svg" xmlns:svg="http://www.w3.org/2000/svg" id="svg2" width="80" height="80" version="1.1" xml:space="preserve"><g id="g51" transform="translate(-784,-8)"><path id="path15" style="display:inline;fill:#f8f8f2;fill-opacity:1;fill-rule:evenodd;stroke-width:.25;stroke-linecap:square;stroke-linejoin:round;stroke-miterlimit:0" d="m 808,70 2,-44 h 24 l 2,44 z"/><path style="fill:#6272a4;fill-opacity:1;fill-rule:evenodd;stroke-width:.25;stroke-linecap:square;stroke-linejoin:round;stroke-miterlimit:0" id="path11" d="M 804,64 V 45 26 l 6,-6 h 24 l 6,6 v 19 19 c 0,6 -8,12 -18,12 -10,0 -18,-6 -18,-12 z m 32,-2 V 44 h -8 v 4 l -4,4 h -4 l -4,-4 v -4 h -8 v 18 c 3.88566,4.280906 7.44885,8.953041 14,10 6.23058,-1.938872 14,-6 14,-10 z M 824,32 h -4 v 16 h 4 z m -8,0 4,-4 v -4 h -8 l -4,4 v 12 h 8 z m 20,-4 -4,-4 h -8 v 4 l 4,4 v 8 h 8 z"/><path id="path20" style="display:inline;fill:#d1d5e3;fill-opacity:1;fill-rule:evenodd;stroke-width:.25;stroke-linecap:square;stroke-linejoin:round;stroke-miterlimit:0" d="M 808,62 V 44 h 2 v 16 c 0,6 6,10 12,10 6,0 12,-4 12,-10 V 44 h 2 v 18 c 0,6 -8,10 -14,10 -6,0 -14,-4 -14,-10 z m 0,-35 3,-3 h 9 v 2 h -8 l -2,2 v 12 h -2 z m 26,1 -2,-2 h -8 v -2 h 9 l 3,3 v 13 h -2 z m -14,18 h 4 v 2 h -4 z m 0,-14 h 4 v 2 h -4 z"/></g></svg>