<svg xmlns="http://www.w3.org/2000/svg" xmlns:svg="http://www.w3.org/2000/svg" id="svg2" width="80" height="80" version="1.1" xml:space="preserve"><g id="g10" transform="translate(-704)"><path style="fill:#6272a4;fill-opacity:1;fill-rule:evenodd;stroke-width:.25;stroke-linecap:square;stroke-linejoin:round;stroke-miterlimit:0" id="path2" d="m 708,36 h 16 V 12 h 28 v 24 h 32 v 28 h -76 z m 24,4 h -20 v 20 h 20 z m 24,0 h -20 v 20 h 20 z m 24,0 h -20 v 20 h 20 z M 748,16 h -20 v 20 h 20 z"/><path id="path6" style="display:inline;fill:#f8f8f2;fill-opacity:1;fill-rule:evenodd;stroke-width:.25;stroke-linecap:square;stroke-linejoin:round;stroke-miterlimit:0" d="m 730,18 h 16 v 16 h -16 z m 32,24 h 16 v 16 h -16 z m -24,0 h 16 v 16 h -16 z m -24,0 h 16 v 16 h -16 z"/><path id="path10" style="display:inline;fill:#d1d5e3;fill-opacity:1;fill-rule:evenodd;stroke-width:.25;stroke-linecap:square;stroke-linejoin:round;stroke-miterlimit:0" d="m 760,40 h 20 v 20 h -20 z m 18,2 h -16 v 16 h 16 z m -42,-2 h 20 v 20 h -20 z m 18,2 h -16 v 16 h 16 z M 728,16 h 20 v 20 h -20 z m 18,2 h -16 v 16 h 16 z m -34,22 h 20 v 20 h -20 z m 18,2 h -16 v 16 h 16 z"/></g></svg>