<?xml version="1.0" encoding="UTF-8" standalone="no"?>
<!-- Created with Inkscape (http://www.inkscape.org/) -->

<svg
   version="1.1"
   id="svg2"
   width="80"
   height="80"
   xml:space="preserve"
   inkscape:export-filename="base.svg"
   inkscape:export-xdpi="96"
   inkscape:export-ydpi="96"
   inkscape:version="1.3.1 (91b66b0783, 2023-11-16, custom)"
   sodipodi:docname="movement_keys.svg"
   xmlns:inkscape="http://www.inkscape.org/namespaces/inkscape"
   xmlns:sodipodi="http://sodipodi.sourceforge.net/DTD/sodipodi-0.dtd"
   xmlns="http://www.w3.org/2000/svg"
   xmlns:svg="http://www.w3.org/2000/svg"><defs
   id="defs6" /><sodipodi:namedview
   id="namedview4"
   pagecolor="#505050"
   bordercolor="#eeeeee"
   borderopacity="1"
   inkscape:showpageshadow="0"
   inkscape:pageopacity="0"
   inkscape:pagecheckerboard="0"
   inkscape:deskcolor="#505050"
   showgrid="true"
   inkscape:current-layer="svg2"
   inkscape:zoom="15.45"
   inkscape:cx="40"
   inkscape:cy="40"
   inkscape:window-width="5070"
   inkscape:window-height="1440"
   inkscape:window-x="0"
   inkscape:window-y="0"
   inkscape:window-maximized="1"><inkscape:grid
     type="xygrid"
     id="Main Grid"
     originx="0"
     originy="0"
     spacingy="1"
     spacingx="1"
     units="px"
     visible="true"
     empspacing="4"
     snapvisiblegridlinesonly="true" /></sodipodi:namedview>
    
<g
   id="g10"
   inkscape:label="Keys"
   transform="translate(-704)"><path
     style="fill:#6272a4;fill-opacity:1;fill-rule:evenodd;stroke-width:0.25;stroke-linecap:square;stroke-linejoin:round;stroke-miterlimit:0"
     d="m 708,36 h 16 V 12 h 28 v 24 h 32 v 28 h -76 z m 24,4 h -20 v 20 h 20 z m 24,0 h -20 v 20 h 20 z m 24,0 h -20 v 20 h 20 z M 748,16 h -20 v 20 h 20 z"
     id="path2"
     sodipodi:nodetypes="ccccccccccccccccccccccccccccc" /><path
     id="path6"
     style="display:inline;fill:#f8f8f2;fill-opacity:1;fill-rule:evenodd;stroke-width:0.25;stroke-linecap:square;stroke-linejoin:round;stroke-miterlimit:0"
     d="m 730,18 h 16 v 16 h -16 z m 32,24 h 16 v 16 h -16 z m -24,0 h 16 v 16 h -16 z m -24,0 h 16 v 16 h -16 z"
     sodipodi:nodetypes="cccccccccccccccccccc" /><path
     id="path10"
     style="display:inline;fill:#d1d5e3;fill-opacity:1;fill-rule:evenodd;stroke-width:0.25;stroke-linecap:square;stroke-linejoin:round;stroke-miterlimit:0"
     d="m 760,40 h 20 v 20 h -20 z m 18,2 h -16 v 16 h 16 z m -42,-2 h 20 v 20 h -20 z m 18,2 h -16 v 16 h 16 z M 728,16 h 20 v 20 h -20 z m 18,2 h -16 v 16 h 16 z m -34,22 h 20 v 20 h -20 z m 18,2 h -16 v 16 h 16 z"
     sodipodi:nodetypes="cccccccccccccccccccccccccccccccccccccccc" /></g></svg>
