<?xml version="1.0" encoding="UTF-8" standalone="no"?>
<!-- Created with Inkscape (http://www.inkscape.org/) -->

<svg
   version="1.1"
   id="svg2"
   width="36"
   height="36"
   viewBox="0 0 36 36"
   sodipodi:docname="armor_full.svg"
   xml:space="preserve"
   inkscape:export-filename="slot_many_craftable.png"
   inkscape:export-xdpi="96"
   inkscape:export-ydpi="96"
   inkscape:version="1.3 (0e150ed6c4, 2023-07-21)"
   xmlns:inkscape="http://www.inkscape.org/namespaces/inkscape"
   xmlns:sodipodi="http://sodipodi.sourceforge.net/DTD/sodipodi-0.dtd"
   xmlns="http://www.w3.org/2000/svg"
   xmlns:svg="http://www.w3.org/2000/svg"><defs
     id="defs6" /><sodipodi:namedview
     id="namedview4"
     pagecolor="#505050"
     bordercolor="#eeeeee"
     borderopacity="1"
     inkscape:showpageshadow="0"
     inkscape:pageopacity="0"
     inkscape:pagecheckerboard="0"
     inkscape:deskcolor="#505050"
     showgrid="true"
     inkscape:zoom="20.85965"
     inkscape:cx="15.772077"
     inkscape:cy="18.09714"
     inkscape:window-width="3470"
     inkscape:window-height="1440"
     inkscape:window-x="0"
     inkscape:window-y="0"
     inkscape:window-maximized="0"
     inkscape:current-layer="svg2"><inkscape:grid
       type="xygrid"
       id="grid570"
       snapvisiblegridlinesonly="true"
       originx="0"
       originy="0"
       spacingy="1"
       spacingx="1"
       units="px"
       visible="true"
       empspacing="4" /></sodipodi:namedview><g
     id="g56753"
     inkscape:label="Full"
     transform="translate(-136,-36)"><path
       style="display:inline;fill:#296593;fill-opacity:1;stroke:none;stroke-width:1px;stroke-linecap:butt;stroke-linejoin:miter;stroke-opacity:1"
       d="m 148,36 6,6 6,-6 h 9 l 3,3 v 12 l -4,4 v 10 l -7,7 h -14 l -7,-7 V 55 l -4,-4 V 39 l 3,-3 z"
       id="path2472"
       sodipodi:nodetypes="cccccccccccccccc" /><path
       style="fill:#8be9fd;fill-opacity:1;stroke:none;stroke-width:1px;stroke-linecap:butt;stroke-linejoin:miter;stroke-opacity:1"
       d="m 154,46 -7,-7 h -8 v 11 l 4,4 v 10 l 5,5 h 12 l 5,-5 V 54 l 4,-4 V 39 h -8 z"
       id="path2474"
       sodipodi:nodetypes="cccccccccccccc" /><path
       style="fill:#abfffe;fill-opacity:1;stroke:none;stroke-width:1px;stroke-linecap:butt;stroke-linejoin:miter;stroke-opacity:1"
       d="m 139,45 v 5 l 3,3 V 42 h 8 l -3,-3 h -2 -6 z"
       id="path2726"
       sodipodi:nodetypes="ccccccccc" /><path
       style="fill:#e1fbf9;fill-opacity:1;stroke:none;stroke-width:1px;stroke-linecap:butt;stroke-linejoin:miter;stroke-opacity:1"
       d="m 142,42 v 6 h 3 l 3,-3 v -3 z"
       id="path2693"
       sodipodi:nodetypes="cccccc" /><path
       style="fill:#abfffe;fill-opacity:1;stroke:none;stroke-width:1px;stroke-linecap:butt;stroke-linejoin:miter;stroke-opacity:1"
       d="m 151,50 v -4 l -6,6 h 4 z"
       id="path2693-9"
       sodipodi:nodetypes="ccccc" /><path
       style="fill:#abfffe;fill-opacity:1;stroke:none;stroke-width:1px;stroke-linecap:butt;stroke-linejoin:miter;stroke-opacity:1"
       d="m 169,39 v 3 h -5 l -4,4 h -6 l 7,-7 z"
       id="path2728"
       sodipodi:nodetypes="ccccccc" /><path
       style="fill:#76d4fa;fill-opacity:1;stroke:none;stroke-width:1px;stroke-linecap:butt;stroke-linejoin:miter;stroke-opacity:1"
       d="m 156,65 9,-9 v 4 L 157.97279,67.027212 156,69 h -8 l -4,-4 z"
       id="path2803"
       sodipodi:nodetypes="cccccccc" /><path
       style="fill:#5db6f4;fill-opacity:1;stroke:none;stroke-width:1px;stroke-linecap:butt;stroke-linejoin:miter;stroke-opacity:1"
       d="m 160,69 5,-5 v -4 l -7,7 h -12 l 2,2 z"
       id="path2732"
       sodipodi:nodetypes="ccccccc" /></g></svg>
