<?xml version="1.0" encoding="UTF-8" standalone="no"?>
<!-- Created with Inkscape (http://www.inkscape.org/) -->

<svg
   version="1.1"
   id="svg2"
   width="728"
   height="20"
   viewBox="0 0 728 20"
   sodipodi:docname="experience_bar_progress.svg"
   xml:space="preserve"
   inkscape:export-filename="slot_many_craftable.png"
   inkscape:export-xdpi="96"
   inkscape:export-ydpi="96"
   inkscape:version="1.3 (0e150ed6c4, 2023-07-21)"
   xmlns:inkscape="http://www.inkscape.org/namespaces/inkscape"
   xmlns:sodipodi="http://sodipodi.sourceforge.net/DTD/sodipodi-0.dtd"
   xmlns:xlink="http://www.w3.org/1999/xlink"
   xmlns="http://www.w3.org/2000/svg"
   xmlns:svg="http://www.w3.org/2000/svg"><defs
     id="defs6"><linearGradient
       inkscape:collect="always"
       xlink:href="#linearGradient86856"
       id="linearGradient86850"
       x1="3"
       y1="286"
       x2="725"
       y2="286"
       gradientUnits="userSpaceOnUse" /><linearGradient
       inkscape:collect="always"
       id="linearGradient86856"><stop
         style="stop-color:#50fa7b;stop-opacity:1"
         offset="0"
         id="stop86852" /><stop
         style="stop-color:#71c5e6;stop-opacity:1;"
         offset="0.95229357"
         id="stop86854" /></linearGradient><radialGradient
       inkscape:collect="always"
       xlink:href="#linearGradient26781"
       id="radialGradient24395-6"
       cx="364"
       cy="266"
       fx="364"
       fy="266"
       r="360"
       gradientTransform="matrix(2.9222222,0,0,0.01944446,-699.68889,280.82778)"
       gradientUnits="userSpaceOnUse" /><linearGradient
       inkscape:collect="always"
       id="linearGradient26781"><stop
         style="stop-color:#cffff4;stop-opacity:1;"
         offset="0"
         id="stop26777" /><stop
         style="stop-color:#50fa7b;stop-opacity:0;"
         offset="0.95229357"
         id="stop26779" /></linearGradient><linearGradient
       inkscape:collect="always"
       xlink:href="#linearGradient96510"
       id="linearGradient89799"
       gradientUnits="userSpaceOnUse"
       x1="0"
       y1="266"
       x2="728"
       y2="266"
       gradientTransform="translate(0,20)" /><linearGradient
       inkscape:collect="always"
       id="linearGradient96510"><stop
         style="stop-color:#1b4124;stop-opacity:1"
         offset="0"
         id="stop96506" /><stop
         style="stop-color:#204955;stop-opacity:1;"
         offset="1"
         id="stop96508" /></linearGradient></defs><sodipodi:namedview
     id="namedview4"
     pagecolor="#505050"
     bordercolor="#eeeeee"
     borderopacity="1"
     inkscape:showpageshadow="0"
     inkscape:pageopacity="0"
     inkscape:pagecheckerboard="0"
     inkscape:deskcolor="#505050"
     showgrid="true"
     inkscape:zoom="5.2149125"
     inkscape:cx="177.18418"
     inkscape:cy="7.3826742"
     inkscape:window-width="3470"
     inkscape:window-height="1440"
     inkscape:window-x="0"
     inkscape:window-y="0"
     inkscape:window-maximized="0"
     inkscape:current-layer="svg2"><inkscape:grid
       type="xygrid"
       id="grid570"
       snapvisiblegridlinesonly="true"
       originx="0"
       originy="0"
       spacingy="1"
       spacingx="1"
       units="px"
       visible="true"
       empspacing="4" /></sodipodi:namedview><g
     id="g4"
     style="display:inline"
     inkscape:label="XP Progress"
     transform="translate(0,-276)"><path
       style="display:inline;mix-blend-mode:normal;fill:url(#linearGradient86850);fill-opacity:1;stroke:none;stroke-width:1px;stroke-linecap:butt;stroke-linejoin:miter;stroke-opacity:1"
       d="m 10,279 -7,7 7,7 h 708 l 7,-7 -7,-7 z"
       id="path86847"
       sodipodi:nodetypes="ccccccc" /><path
       style="display:inline;mix-blend-mode:lighten;fill:url(#radialGradient24395-6);fill-opacity:1;stroke:none;stroke-width:1px;stroke-linecap:butt;stroke-linejoin:miter;stroke-opacity:1"
       d="m 10,279 -7,7 7,7 h 708 l 7,-7 -7,-7 z"
       id="path23948-4"
       sodipodi:nodetypes="ccccccc" /><path
       id="path23946-52"
       style="display:inline;fill:url(#linearGradient89799);fill-opacity:1;stroke:none;stroke-width:1px;stroke-linecap:butt;stroke-linejoin:miter;stroke-opacity:1"
       d="m 8,276 -8,8 v 4 l 8,8 h 712 l 8,-8 v -4 l -8,-8 z m 2,3 h 74 l 7,7 -7,7 H 10 l -7,-7 z m 91,0 h 74 l 7,7 -7,7 h -74 l -8,-7 z m 91,0 h 73 l 7,7 -7,7 h -73 l -8,-7 z m 90,0 h 74 l 7,7 -7,7 h -74 l -8,-7 z m 91,0 h 74 l 7,7 -7,7 h -74 l -8,-7 z m 91,0 h 73 l 7,7 -7,7 h -73 l -8,-7 z m 90,0 h 74 l 7,7 -7,7 h -74 l -8,-7 z m 91,0 h 73 l 7,7 -7,7 h -73 l -8,-7 z" /></g></svg>
