<svg xmlns="http://www.w3.org/2000/svg" xmlns:svg="http://www.w3.org/2000/svg" xmlns:xlink="http://www.w3.org/1999/xlink" id="svg2" width="728" height="20" version="1.1" viewBox="0 0 728 20" xml:space="preserve"><defs id="defs6"><linearGradient id="linearGradient97618" x1="3" x2="725" y1="266" y2="266" gradientUnits="userSpaceOnUse" xlink:href="#linearGradient97624"/><linearGradient id="linearGradient97624"><stop style="stop-color:#205540;stop-opacity:1" id="stop97622" offset=".124"/><stop style="stop-color:#12444e;stop-opacity:1" id="stop97620" offset="1"/></linearGradient><radialGradient id="radialGradient24395" cx="364" cy="266" r="360" fx="364" fy="266" gradientTransform="matrix(1.8500001,0,0,0.01944446,-309.40004,260.82778)" gradientUnits="userSpaceOnUse" xlink:href="#linearGradient24393"/><linearGradient id="linearGradient24393"><stop style="stop-color:#1a371f;stop-opacity:1" id="stop24391" offset="0"/><stop style="stop-color:#204242;stop-opacity:0" id="stop24389" offset=".904"/></linearGradient><linearGradient id="linearGradient89755" x1="0" x2="728" y1="266" y2="266" gradientUnits="userSpaceOnUse" xlink:href="#linearGradient89753"/><linearGradient id="linearGradient89753"><stop style="stop-color:#13221b;stop-opacity:1" id="stop89749" offset="0"/><stop style="stop-color:#131e22;stop-opacity:1" id="stop89751" offset="1"/></linearGradient></defs><g id="g5" style="display:inline" transform="translate(0,-256)"><path style="display:inline;fill:url(#linearGradient97618);fill-opacity:1;stroke:none;stroke-width:1px;stroke-linecap:butt;stroke-linejoin:miter;stroke-opacity:1" id="path97616" d="m 10,259 -7,7 7,7 h 708 l 7,-7 -7,-7 z"/><path style="display:inline;mix-blend-mode:darken;fill:url(#radialGradient24395);fill-opacity:1;stroke:none;stroke-width:1px;stroke-linecap:butt;stroke-linejoin:miter;stroke-opacity:1" id="path89743" d="m 10,259 -7,7 7,7 h 708 l 7,-7 -7,-7 z"/><path id="path23946" style="display:inline;fill:url(#linearGradient89755);fill-opacity:1;stroke:none;stroke-width:1px;stroke-linecap:butt;stroke-linejoin:miter;stroke-opacity:1" d="m 8,256 -8,8 v 4 l 8,8 h 712 l 8,-8 v -4 l -8,-8 z m 2,3 h 74 l 7,7 -7,7 H 10 l -7,-7 z m 91,0 h 74 l 7,7 -7,7 h -74 l -8,-7 z m 91,0 h 73 l 7,7 -7,7 h -73 l -8,-7 z m 90,0 h 74 l 7,7 -7,7 h -74 l -8,-7 z m 91,0 h 74 l 7,7 -7,7 h -74 l -8,-7 z m 91,0 h 73 l 7,7 -7,7 h -73 l -8,-7 z m 90,0 h 74 l 7,7 -7,7 h -74 l -8,-7 z m 91,0 h 73 l 7,7 -7,7 h -73 l -8,-7 z"/></g></svg>