<svg xmlns="http://www.w3.org/2000/svg" xmlns:svg="http://www.w3.org/2000/svg" xmlns:xlink="http://www.w3.org/1999/xlink" id="svg2" width="728" height="20" version="1.1" viewBox="0 0 728 20" xml:space="preserve"><defs id="defs6"><linearGradient id="linearGradient86850" x1="3" x2="725" y1="286" y2="286" gradientUnits="userSpaceOnUse" xlink:href="#linearGradient86856"/><linearGradient id="linearGradient86856"><stop style="stop-color:#50fa7b;stop-opacity:1" id="stop86852" offset="0"/><stop style="stop-color:#71c5e6;stop-opacity:1" id="stop86854" offset=".952"/></linearGradient><radialGradient id="radialGradient24395-6" cx="364" cy="266" r="360" fx="364" fy="266" gradientTransform="matrix(2.9222222,0,0,0.01944446,-699.68889,280.82778)" gradientUnits="userSpaceOnUse" xlink:href="#linearGradient26781"/><linearGradient id="linearGradient26781"><stop style="stop-color:#cffff4;stop-opacity:1" id="stop26777" offset="0"/><stop style="stop-color:#50fa7b;stop-opacity:0" id="stop26779" offset=".952"/></linearGradient><linearGradient id="linearGradient89799" x1="0" x2="728" y1="266" y2="266" gradientTransform="translate(0,20)" gradientUnits="userSpaceOnUse" xlink:href="#linearGradient96510"/><linearGradient id="linearGradient96510"><stop style="stop-color:#1b4124;stop-opacity:1" id="stop96506" offset="0"/><stop style="stop-color:#204955;stop-opacity:1" id="stop96508" offset="1"/></linearGradient></defs><g id="g4" style="display:inline" transform="translate(0,-276)"><path style="display:inline;mix-blend-mode:normal;fill:url(#linearGradient86850);fill-opacity:1;stroke:none;stroke-width:1px;stroke-linecap:butt;stroke-linejoin:miter;stroke-opacity:1" id="path86847" d="m 10,279 -7,7 7,7 h 708 l 7,-7 -7,-7 z"/><path style="display:inline;mix-blend-mode:lighten;fill:url(#radialGradient24395-6);fill-opacity:1;stroke:none;stroke-width:1px;stroke-linecap:butt;stroke-linejoin:miter;stroke-opacity:1" id="path23948-4" d="m 10,279 -7,7 7,7 h 708 l 7,-7 -7,-7 z"/><path id="path23946-52" style="display:inline;fill:url(#linearGradient89799);fill-opacity:1;stroke:none;stroke-width:1px;stroke-linecap:butt;stroke-linejoin:miter;stroke-opacity:1" d="m 8,276 -8,8 v 4 l 8,8 h 712 l 8,-8 v -4 l -8,-8 z m 2,3 h 74 l 7,7 -7,7 H 10 l -7,-7 z m 91,0 h 74 l 7,7 -7,7 h -74 l -8,-7 z m 91,0 h 73 l 7,7 -7,7 h -73 l -8,-7 z m 90,0 h 74 l 7,7 -7,7 h -74 l -8,-7 z m 91,0 h 74 l 7,7 -7,7 h -74 l -8,-7 z m 91,0 h 73 l 7,7 -7,7 h -73 l -8,-7 z m 90,0 h 74 l 7,7 -7,7 h -74 l -8,-7 z m 91,0 h 73 l 7,7 -7,7 h -73 l -8,-7 z"/></g></svg>