<?xml version="1.0" encoding="UTF-8" standalone="no"?>
<!-- Created with Inkscape (http://www.inkscape.org/) -->

<svg
   version="1.1"
   id="svg2"
   width="728"
   height="20"
   viewBox="0 0 728 20"
   sodipodi:docname="experience_bar_background.svg"
   xml:space="preserve"
   inkscape:export-filename="slot_many_craftable.png"
   inkscape:export-xdpi="96"
   inkscape:export-ydpi="96"
   inkscape:version="1.3 (0e150ed6c4, 2023-07-21)"
   xmlns:inkscape="http://www.inkscape.org/namespaces/inkscape"
   xmlns:sodipodi="http://sodipodi.sourceforge.net/DTD/sodipodi-0.dtd"
   xmlns:xlink="http://www.w3.org/1999/xlink"
   xmlns="http://www.w3.org/2000/svg"
   xmlns:svg="http://www.w3.org/2000/svg"><defs
     id="defs6"><linearGradient
       inkscape:collect="always"
       xlink:href="#linearGradient97624"
       id="linearGradient97618"
       x1="3"
       y1="266"
       x2="725"
       y2="266"
       gradientUnits="userSpaceOnUse" /><linearGradient
       inkscape:collect="always"
       id="linearGradient97624"><stop
         style="stop-color:#205540;stop-opacity:1;"
         offset="0.12418044"
         id="stop97622" /><stop
         style="stop-color:#12444e;stop-opacity:1;"
         offset="1"
         id="stop97620" /></linearGradient><radialGradient
       inkscape:collect="always"
       xlink:href="#linearGradient24393"
       id="radialGradient24395"
       cx="364"
       cy="266"
       fx="364"
       fy="266"
       r="360"
       gradientTransform="matrix(1.8500001,0,0,0.01944446,-309.40004,260.82778)"
       gradientUnits="userSpaceOnUse" /><linearGradient
       inkscape:collect="always"
       id="linearGradient24393"><stop
         style="stop-color:#1a371f;stop-opacity:1;"
         offset="0"
         id="stop24391" /><stop
         style="stop-color:#204242;stop-opacity:0;"
         offset="0.90390396"
         id="stop24389" /></linearGradient><linearGradient
       inkscape:collect="always"
       xlink:href="#linearGradient89753"
       id="linearGradient89755"
       x1="0"
       y1="266"
       x2="728"
       y2="266"
       gradientUnits="userSpaceOnUse" /><linearGradient
       inkscape:collect="always"
       id="linearGradient89753"><stop
         style="stop-color:#13221b;stop-opacity:1;"
         offset="0"
         id="stop89749" /><stop
         style="stop-color:#131e22;stop-opacity:1;"
         offset="1"
         id="stop89751" /></linearGradient></defs><sodipodi:namedview
     id="namedview4"
     pagecolor="#505050"
     bordercolor="#eeeeee"
     borderopacity="1"
     inkscape:showpageshadow="0"
     inkscape:pageopacity="0"
     inkscape:pagecheckerboard="0"
     inkscape:deskcolor="#505050"
     showgrid="true"
     inkscape:zoom="5.2149125"
     inkscape:cx="76.031956"
     inkscape:cy="-10.834314"
     inkscape:window-width="3470"
     inkscape:window-height="1440"
     inkscape:window-x="0"
     inkscape:window-y="0"
     inkscape:window-maximized="0"
     inkscape:current-layer="svg2"><inkscape:grid
       type="xygrid"
       id="grid570"
       snapvisiblegridlinesonly="true"
       originx="0"
       originy="0"
       spacingy="1"
       spacingx="1"
       units="px"
       visible="true"
       empspacing="4" /></sodipodi:namedview><g
     id="g5"
     inkscape:label="XP"
     style="display:inline"
     transform="translate(0,-256)"><path
       style="display:inline;fill:url(#linearGradient97618);fill-opacity:1;stroke:none;stroke-width:1px;stroke-linecap:butt;stroke-linejoin:miter;stroke-opacity:1"
       d="m 10,259 -7,7 7,7 h 708 l 7,-7 -7,-7 z"
       id="path97616"
       sodipodi:nodetypes="ccccccc" /><path
       style="display:inline;mix-blend-mode:darken;fill:url(#radialGradient24395);fill-opacity:1;stroke:none;stroke-width:1px;stroke-linecap:butt;stroke-linejoin:miter;stroke-opacity:1"
       d="m 10,259 -7,7 7,7 h 708 l 7,-7 -7,-7 z"
       id="path89743"
       sodipodi:nodetypes="ccccccc" /><path
       id="path23946"
       style="display:inline;fill:url(#linearGradient89755);fill-opacity:1;stroke:none;stroke-width:1px;stroke-linecap:butt;stroke-linejoin:miter;stroke-opacity:1"
       d="m 8,256 -8,8 v 4 l 8,8 h 712 l 8,-8 v -4 l -8,-8 z m 2,3 h 74 l 7,7 -7,7 H 10 l -7,-7 z m 91,0 h 74 l 7,7 -7,7 h -74 l -8,-7 z m 91,0 h 73 l 7,7 -7,7 h -73 l -8,-7 z m 90,0 h 74 l 7,7 -7,7 h -74 l -8,-7 z m 91,0 h 74 l 7,7 -7,7 h -74 l -8,-7 z m 91,0 h 73 l 7,7 -7,7 h -73 l -8,-7 z m 90,0 h 74 l 7,7 -7,7 h -74 l -8,-7 z m 91,0 h 73 l 7,7 -7,7 h -73 l -8,-7 z" /></g></svg>
