<svg xmlns="http://www.w3.org/2000/svg" xmlns:svg="http://www.w3.org/2000/svg" id="svg2" width="36" height="36" version="1.1" viewBox="0 0 36 36" xml:space="preserve"><g id="g2402-4-3-6" transform="translate(-209,-107)" style="display:inline"><path style="opacity:.7;fill:#2f2f5e;fill-opacity:1;stroke:none;stroke-width:1px;stroke-linecap:butt;stroke-linejoin:miter;stroke-opacity:1" id="path476-8-1-0" d="m 233,124 8,8 -2,2 -10,-10 z"/><path style="display:inline;opacity:.7;fill:#384c1a;fill-opacity:1;stroke:none;stroke-width:1px;stroke-linecap:butt;stroke-linejoin:miter;stroke-opacity:1" id="path367-7-4-6" d="m 209,118 v 12 l 13,13 h 16 l 7,-7 -4,-4 -2,2 -7,-7 h -10 l -6,-6 v -2 h -4 l 2,-2 -2,-2 z"/><path style="display:none;opacity:.85;fill:#7e813d;fill-opacity:1;stroke:none;stroke-width:1px;stroke-linecap:butt;stroke-linejoin:miter;stroke-opacity:1" id="path8-7-3-2" d="m 388,133 11,11 h 14 l 3,-3 h -14 l -11,-11 z" transform="translate(-179,-1)"/><path style="display:none;opacity:.85;fill:#869942;fill-opacity:1;stroke:none;stroke-width:1px;stroke-linecap:butt;stroke-linejoin:miter;stroke-opacity:1" id="path10-3-5-6" d="m 391,130 -3,3 v -10 l 3,-3 z" transform="translate(-179,-1)"/><path style="fill:#a6be52;fill-opacity:1;stroke:none;stroke-width:1px;stroke-linecap:butt;stroke-linejoin:miter;stroke-opacity:1" id="path466-4-9-1" d="m 214,119 h -2 v 10 l 11,11 h 14 l 4,-4 -9,-9 h -10 z"/><path style="display:inline;fill:#dde0d3;fill-opacity:1;stroke:none;stroke-width:1px;stroke-linecap:butt;stroke-linejoin:miter;stroke-opacity:1" id="path2936-1-2-8" d="m 214,119 v 8 l 6,6 1,-1 -5,-5 v -8 z"/><path style="display:inline;fill:#869942;fill-opacity:1;stroke:none;stroke-width:1px;stroke-linecap:butt;stroke-linejoin:miter;stroke-opacity:1" id="path3084-06-0-7" d="m 226,137 h -2 l -2,2 1,1 h 14 l 4,-4 -2,-2 -3,3 z"/><path style="display:inline;fill:#bed279;fill-opacity:1;stroke:none;stroke-width:1px;stroke-linecap:butt;stroke-linejoin:miter;stroke-opacity:1" id="path3086-3-6-9" d="m 214,119 v 8 l -2,2 v -10 z"/><path style="display:inline;fill:#c0ca9a;fill-opacity:1;stroke:none;stroke-width:1px;stroke-linecap:butt;stroke-linejoin:miter;stroke-opacity:1" id="path16-8-8-2" d="m 221,132 -1,1 4,4 h 12 l 3,-3 -1,-1 -3,3 h -10 z"/><path style="display:inline;fill:#8256c8;fill-opacity:1;stroke:none;stroke-width:1px;stroke-linecap:butt;stroke-linejoin:miter;stroke-opacity:1" id="path474-5-9-0" d="m 222,127 -6,-6 v 6 l 9,9 h 10 l 3,-3 -6,-6 z"/><path style="fill:#7445bd;fill-opacity:1;stroke:none;stroke-width:1px;stroke-linecap:butt;stroke-linejoin:miter;stroke-opacity:1" id="path2212-0-2-2" d="m 222,127 -3,3 4,4 7,-7 z"/><path style="fill:#a178e0;fill-opacity:1;stroke:none;stroke-width:1px;stroke-linecap:butt;stroke-linejoin:miter;stroke-opacity:1" id="path2214-3-6-3" d="m 236,131 -5,5 h 4 l 3,-3 z"/><path style="fill:#a178e0;fill-opacity:1;stroke:none;stroke-width:1px;stroke-linecap:butt;stroke-linejoin:miter;stroke-opacity:1" id="path2216-6-6-7" d="m 222,127 -3,3 -3,-3 v -6 z"/><path style="display:inline;fill:#4f2a88;fill-opacity:1;stroke:none;stroke-width:1px;stroke-linecap:butt;stroke-linejoin:miter;stroke-opacity:1" id="path472-20-4-5" d="m 230,129 -2,2 v 2 h 3 l 2,-2 v -2 z"/></g></svg>