<?xml version="1.0" encoding="UTF-8" standalone="no"?>
<!-- Created with Inkscape (http://www.inkscape.org/) -->

<svg
   version="1.1"
   id="svg2"
   width="36"
   height="36"
   viewBox="0 0 36 36"
   sodipodi:docname="food_half_hunger.svg"
   xml:space="preserve"
   inkscape:export-filename="slot_many_craftable.png"
   inkscape:export-xdpi="96"
   inkscape:export-ydpi="96"
   inkscape:version="1.3.1 (91b66b0783, 2023-11-16, custom)"
   xmlns:inkscape="http://www.inkscape.org/namespaces/inkscape"
   xmlns:sodipodi="http://sodipodi.sourceforge.net/DTD/sodipodi-0.dtd"
   xmlns="http://www.w3.org/2000/svg"
   xmlns:svg="http://www.w3.org/2000/svg"><defs
     id="defs6" /><sodipodi:namedview
     id="namedview4"
     pagecolor="#505050"
     bordercolor="#eeeeee"
     borderopacity="1"
     inkscape:showpageshadow="0"
     inkscape:pageopacity="0"
     inkscape:pagecheckerboard="0"
     inkscape:deskcolor="#505050"
     showgrid="true"
     inkscape:zoom="29.5"
     inkscape:cx="19.762712"
     inkscape:cy="27.186441"
     inkscape:window-width="3470"
     inkscape:window-height="1440"
     inkscape:window-x="0"
     inkscape:window-y="0"
     inkscape:window-maximized="0"
     inkscape:current-layer="svg2"><inkscape:grid
       type="xygrid"
       id="grid570"
       snapvisiblegridlinesonly="true"
       originx="0"
       originy="0"
       spacingy="1"
       spacingx="1"
       units="px"
       visible="true"
       empspacing="4" /></sodipodi:namedview><g
     id="g2402-4-3"
     inkscape:label="Mellon Hunger Half"
     transform="translate(-209,-107)"
     style="display:inline"><path
       style="opacity:0.7;fill:#2f2f5e;fill-opacity:1;stroke:none;stroke-width:1px;stroke-linecap:butt;stroke-linejoin:miter;stroke-opacity:1"
       d="m 233,124 8,8 -2,2 -7,-7 h -10 l -6,-6 h 4 l 3,3 z"
       id="path476-8-1"
       sodipodi:nodetypes="ccccccccc"
       inkscape:label="Outline 2" /><path
       style="display:inline;opacity:0.7;fill:#384c1a;fill-opacity:1;stroke:none;stroke-width:1px;stroke-linecap:butt;stroke-linejoin:miter;stroke-opacity:1"
       d="m 209,118 v 12 l 13,13 h 16 l 7,-7 -4,-4 -2,2 -7,-7 h -10 l -6,-6 v -2 h -4 l 2,-2 -2,-2 z"
       id="path367-7-4"
       sodipodi:nodetypes="ccccccccccccccc"
       inkscape:label="Outline 1" /><path
       style="display:none;opacity:0.85;fill:#7e813d;fill-opacity:1;stroke:none;stroke-width:1px;stroke-linecap:butt;stroke-linejoin:miter;stroke-opacity:1"
       d="m 388,133 11,11 h 14 l 3,-3 h -14 l -11,-11 z"
       id="path8-7-3"
       sodipodi:nodetypes="ccccccc"
       inkscape:label="Drop Shadow"
       transform="translate(-179,-1)" /><path
       style="display:none;opacity:0.85;fill:#869942;fill-opacity:1;stroke:none;stroke-width:1px;stroke-linecap:butt;stroke-linejoin:miter;stroke-opacity:1"
       d="m 391,130 -3,3 v -10 l 3,-3 z"
       id="path10-3-5"
       sodipodi:nodetypes="ccccc"
       inkscape:label="Drop Shadow"
       transform="translate(-179,-1)" /><path
       style="fill:#a6be52;fill-opacity:1;stroke:none;stroke-width:1px;stroke-linecap:butt;stroke-linejoin:miter;stroke-opacity:1"
       d="m 214,119 h -2 v 10 l 11,11 h 14 l 4,-4 -9,-9 h -10 z"
       id="path466-4-9"
       sodipodi:nodetypes="ccccccccc"
       inkscape:label="Shell Fill" /><path
       style="display:inline;fill:#dde0d3;fill-opacity:1;stroke:none;stroke-width:1px;stroke-linecap:butt;stroke-linejoin:miter;stroke-opacity:1"
       d="m 214,119 v 8 l 6,6 1,-1 -5,-5 v -8 z"
       id="path2936-1-2"
       sodipodi:nodetypes="ccccccc"
       inkscape:label="Shell" /><path
       style="display:inline;fill:#869942;fill-opacity:1;stroke:none;stroke-width:1px;stroke-linecap:butt;stroke-linejoin:miter;stroke-opacity:1"
       d="m 226,137 h -2 l -2,2 1,1 h 14 l 4,-4 -2,-2 -3,3 z"
       id="path3084-06-0"
       sodipodi:nodetypes="ccccccccc"
       inkscape:label="Shell" /><path
       style="display:inline;fill:#bed279;fill-opacity:1;stroke:none;stroke-width:1px;stroke-linecap:butt;stroke-linejoin:miter;stroke-opacity:1"
       d="m 214,119 v 8 l -2,2 v -10 z"
       id="path3086-3-6"
       sodipodi:nodetypes="ccccc"
       inkscape:label="Shell" /><path
       style="display:inline;fill:#c0ca9a;fill-opacity:1;stroke:none;stroke-width:1px;stroke-linecap:butt;stroke-linejoin:miter;stroke-opacity:1"
       d="m 221,132 -1,1 4,4 h 12 l 3,-3 -1,-1 -3,3 h -10 z"
       id="path16-8-8"
       sodipodi:nodetypes="ccccccccc"
       inkscape:label="Shell" /><path
       style="display:inline;fill:#8256c8;fill-opacity:1;stroke:none;stroke-width:1px;stroke-linecap:butt;stroke-linejoin:miter;stroke-opacity:1"
       d="m 222,127 -6,-6 v 6 l 9,9 h 10 l 3,-3 -6,-6 z"
       id="path474-5-9"
       sodipodi:nodetypes="cccccccc"
       inkscape:label="Core Fill" /><path
       style="fill:#7445bd;fill-opacity:1;stroke:none;stroke-width:1px;stroke-linecap:butt;stroke-linejoin:miter;stroke-opacity:1"
       d="m 222,127 -3,3 4,4 7,-7 z"
       id="path2212-0-2"
       sodipodi:nodetypes="ccccc"
       inkscape:label="Core" /><path
       style="fill:#a178e0;fill-opacity:1;stroke:none;stroke-width:1px;stroke-linecap:butt;stroke-linejoin:miter;stroke-opacity:1"
       d="m 236,131 -5,5 h 4 l 3,-3 z"
       id="path2214-3-6"
       inkscape:label="Core" /><path
       style="fill:#a178e0;fill-opacity:1;stroke:none;stroke-width:1px;stroke-linecap:butt;stroke-linejoin:miter;stroke-opacity:1"
       d="m 222,127 -3,3 -3,-3 v -6 z"
       id="path2216-6-6"
       sodipodi:nodetypes="ccccc"
       inkscape:label="Core" /><path
       style="display:inline;fill:#4f2a88;fill-opacity:1;stroke:none;stroke-width:1px;stroke-linecap:butt;stroke-linejoin:miter;stroke-opacity:1"
       d="m 230,129 -2,2 v 2 h 3 l 2,-2 v -2 z"
       id="path472-20-4"
       inkscape:label="Seed 3" /></g></svg>
