<?xml version="1.0" encoding="UTF-8" standalone="no"?>
<!-- Created with Inkscape (http://www.inkscape.org/) -->

<svg
   version="1.1"
   id="svg2"
   width="36"
   height="36"
   viewBox="0 0 36 36"
   sodipodi:docname="food_full_hunger.svg"
   xml:space="preserve"
   inkscape:export-filename="slot_many_craftable.png"
   inkscape:export-xdpi="96"
   inkscape:export-ydpi="96"
   inkscape:version="1.3 (0e150ed6c4, 2023-07-21)"
   xmlns:inkscape="http://www.inkscape.org/namespaces/inkscape"
   xmlns:sodipodi="http://sodipodi.sourceforge.net/DTD/sodipodi-0.dtd"
   xmlns="http://www.w3.org/2000/svg"
   xmlns:svg="http://www.w3.org/2000/svg"><defs
     id="defs6" /><sodipodi:namedview
     id="namedview4"
     pagecolor="#505050"
     bordercolor="#eeeeee"
     borderopacity="1"
     inkscape:showpageshadow="0"
     inkscape:pageopacity="0"
     inkscape:pagecheckerboard="0"
     inkscape:deskcolor="#505050"
     showgrid="true"
     inkscape:zoom="29.5"
     inkscape:cx="19.762712"
     inkscape:cy="27.169492"
     inkscape:window-width="3470"
     inkscape:window-height="1440"
     inkscape:window-x="0"
     inkscape:window-y="0"
     inkscape:window-maximized="0"
     inkscape:current-layer="svg2"><inkscape:grid
       type="xygrid"
       id="grid570"
       snapvisiblegridlinesonly="true"
       originx="0"
       originy="0"
       spacingy="1"
       spacingx="1"
       units="px"
       visible="true"
       empspacing="4" /></sodipodi:namedview><g
     id="g363-3-2"
     inkscape:label="Rotten Half"
     style="display:inline"
     transform="translate(-208,-107)"><path
       style="display:inline;fill:#384d1a;fill-opacity:0.699571;stroke:none;stroke-width:1px;stroke-linecap:butt;stroke-linejoin:miter;stroke-opacity:1"
       d="m 219,116 h -10 v 14 l 13,13 h 16 l 6,-6 v -2 l -3,-3 -2,2 2,2 -4,4 h -14 l -11,-11 v -10 h 7 z"
       id="path367-6-8"
       sodipodi:nodetypes="cccccccccccccccc" /><path
       style="display:inline;fill:#30305e;fill-opacity:0.7;stroke:none;stroke-width:1px;stroke-linecap:butt;stroke-linejoin:miter;stroke-opacity:1"
       d="m 219,120 4,4 h 10 l 8,8 -2,2 -7,-7 h -10 l -6,-6 v 0 -2 h 3 z"
       id="path476-7-7"
       sodipodi:nodetypes="cccccccccccc" /><path
       style="fill:#a6be52;fill-opacity:1;stroke:none;stroke-width:1px;stroke-linecap:butt;stroke-linejoin:miter;stroke-opacity:1"
       d="m 212,119 v 10 l 11,11 h 14 l 4,-4 -25,-9 v -8 z"
       id="path466-5-1"
       sodipodi:nodetypes="cccccccc" /><path
       style="fill:#8256c8;fill-opacity:1;stroke:none;stroke-width:1px;stroke-linecap:butt;stroke-linejoin:miter;stroke-opacity:1"
       d="m 226,127 h -4 l -6,-6 v 6 l 9,9 h 10 l 3,-3 -6,-6 z"
       id="path474-3-9"
       sodipodi:nodetypes="ccccccccc" /><path
       style="fill:#7445bd;fill-opacity:1;stroke:none;stroke-width:1px;stroke-linecap:butt;stroke-linejoin:miter;stroke-opacity:1"
       d="m 226,127 -5,5 4,4 8,-8 -1,-1 z"
       id="path2212-5-4"
       sodipodi:nodetypes="cccccc" /><path
       style="fill:#a178e0;fill-opacity:1;stroke:none;stroke-width:1px;stroke-linecap:butt;stroke-linejoin:miter;stroke-opacity:1"
       d="m 236,131 -5,5 h 4 l 3,-3 z"
       id="path2214-6-7" /><path
       style="fill:#4f2a88;fill-opacity:1;stroke:none;stroke-width:1px;stroke-linecap:butt;stroke-linejoin:miter;stroke-opacity:1"
       d="m 230,129 -2,2 v 2 h 3 l 2,-2 v -2 z"
       id="path472-2-8" /><path
       style="fill:#c2eecd;fill-opacity:1;stroke:none;stroke-width:1px;stroke-linecap:butt;stroke-linejoin:miter;stroke-opacity:1"
       d="m 215,119 v 9 l 9,9 h 12 l 3,-3 -1,-1 -3,3 h -10 l -9,-9 v -8 z"
       id="path2936-7-4"
       sodipodi:nodetypes="ccccccccccc" /><path
       style="display:inline;fill:#a178e0;fill-opacity:1;stroke:none;stroke-width:1px;stroke-linecap:butt;stroke-linejoin:miter;stroke-opacity:1"
       d="m 257,127 -3,3 -2,-2 v -6 z"
       id="path2216-3-5"
       sodipodi:nodetypes="ccccc"
       transform="translate(-36,-1)" /><path
       style="fill:#869942;fill-opacity:1;stroke:none;stroke-width:1px;stroke-linecap:butt;stroke-linejoin:miter;stroke-opacity:1"
       d="m 226,137 h -4 l -4,-4 h -2 l 7,7 h 14 l 4,-4 -2,-2 -3,3 z"
       id="path3084-0-0"
       sodipodi:nodetypes="cccccccccc" /><path
       style="display:inline;fill:#bed279;fill-opacity:1;stroke:none;stroke-width:1px;stroke-linecap:butt;stroke-linejoin:miter;stroke-opacity:1"
       d="m 215,119 v 4 l -2,2 h -1 v -6 z"
       id="path3086-9-3"
       sodipodi:nodetypes="cccccc" /></g></svg>
