<svg xmlns="http://www.w3.org/2000/svg" xmlns:svg="http://www.w3.org/2000/svg" xmlns:xlink="http://www.w3.org/1999/xlink" id="svg2" width="96" height="92" version="1.1" viewBox="0 0 96 92" xml:space="preserve"><defs id="defs6"><linearGradient id="linearGradient18675" x1="48" x2="48" y1="200" y2="98" gradientUnits="userSpaceOnUse" xlink:href="#linearGradient18673"/><linearGradient id="linearGradient18673"><stop style="stop-color:#ff79c6;stop-opacity:1" id="stop18669" offset="0"/><stop style="stop-color:#bd93f9;stop-opacity:1" id="stop18671" offset="1"/></linearGradient></defs><g id="g2" style="display:inline" transform="translate(4e-6,-88)"><path d="m 86,117 v 38 c 0,12 -6.999996,19 -19,19 H 29 c -13,0 -19,-7 -19,-19 v -38 c 0,-12 7,-19 19,-19 h 38 c 12,0 19,7 19,19 z" style="display:inline;fill:url(#linearGradient18675);fill-opacity:1;stroke:#000;stroke-width:0;stroke-linecap:butt;stroke-linejoin:miter;stroke-miterlimit:4;stroke-dasharray:none;stroke-opacity:1" id="path3158"/><path style="display:inline;fill:#17171b;fill-opacity:1;stroke:#000;stroke-width:0;stroke-linecap:butt;stroke-linejoin:miter;stroke-miterlimit:4;stroke-dasharray:none;stroke-opacity:.804989" id="path3119" d="m 82,119 -4e-6,34 c -10e-7,11 -6,17 -17.000004,17 h -34 c -11,0 -17.000001,-6 -17,-17 l 4e-6,-34 c 1e-6,-11 6,-17 17,-17 h 34 C 76,102 82.000001,108 82,119 Z"/></g></svg>