<?xml version="1.0" encoding="UTF-8" standalone="no"?>
<!-- Created with Inkscape (http://www.inkscape.org/) -->

<svg
   version="1.1"
   id="svg2"
   width="728"
   height="88"
   viewBox="0 0 728 88"
   sodipodi:docname="hotbar.svg"
   xml:space="preserve"
   inkscape:export-filename="filter_enabled.png"
   inkscape:export-xdpi="96"
   inkscape:export-ydpi="96"
   inkscape:version="1.3 (0e150ed6c4, 2023-07-21)"
   xmlns:inkscape="http://www.inkscape.org/namespaces/inkscape"
   xmlns:sodipodi="http://sodipodi.sourceforge.net/DTD/sodipodi-0.dtd"
   xmlns="http://www.w3.org/2000/svg"
   xmlns:svg="http://www.w3.org/2000/svg"><defs
     id="defs6" /><sodipodi:namedview
     id="namedview4"
     pagecolor="#505050"
     bordercolor="#eeeeee"
     borderopacity="1"
     inkscape:showpageshadow="0"
     inkscape:pageopacity="0"
     inkscape:pagecheckerboard="0"
     inkscape:deskcolor="#505050"
     showgrid="true"
     inkscape:zoom="3.6875"
     inkscape:cx="287.05085"
     inkscape:cy="70.644068"
     inkscape:window-width="3470"
     inkscape:window-height="1440"
     inkscape:window-x="0"
     inkscape:window-y="0"
     inkscape:window-maximized="0"
     inkscape:current-layer="svg2"><inkscape:grid
       type="xygrid"
       id="grid570"
       snapvisiblegridlinesonly="true"
       originx="0"
       originy="0"
       spacingy="1"
       spacingx="1"
       units="px"
       visible="true"
       empspacing="4" /></sodipodi:namedview><g
     id="g2"
     inkscape:label="HUD Slots"
     transform="translate(401,7)"><path
       id="path3158-7-6"
       style="display:inline;fill:#2e3244;fill-opacity:0.503311;stroke:#000000;stroke-width:0;stroke-linecap:butt;stroke-linejoin:miter;stroke-miterlimit:4;stroke-dasharray:none;stroke-opacity:1"
       d="m -376,-1 c -12,0 -19,7 -19,19 v 38 c 0,12 6,19 19,19 h 678 c 12,0 19,-7 19,-19 V 18 C 321,6 314,-1 302,-1 Z m 2,4 h 34 c 11,0 17,6 17,17 h 12 c 0,-11 6,-17 17,-17 h 34 c 11,0 17,6 17,17 h 12 c 0,-11 6,-17 17,-17 h 34 c 11,0 17,6 17,17 h 12 c 0,-11 6,-17 17,-17 h 34 c 11,0 17,6 17,17 h 12 C -71,9 -65,3 -54,3 h 34 c 11,0 17,6 17,17 H 9 C 9,9 15,3 26,3 h 34 c 11,0 17,6 17,17 H 89 C 89,9 95,3 106,3 h 34 c 11,0 17,6 17,17 h 12 C 169,9 175,3 186,3 h 34 c 11,0 17,6 17,17 h 12 C 249,9 255,3 266,3 h 34 c 11,0 17,6 17,17 v 34 c 0,11 -6,17 -17,17 h -34 c -11,0 -17,-6 -17,-17 h -12 c 0,11 -6,17 -17,17 h -34 c -11,0 -17,-6 -17,-17 h -12 c 0,11 -6,17 -17,17 H 106 C 95,71 89,65 89,54 H 77 C 77,65 71,71 60,71 H 26 C 15,71 9,65 9,54 H -3 c 0,11 -6,17 -17,17 h -34 c -11,0 -17,-6 -17,-17 h -12 c 0,11 -6,17 -17,17 h -34 c -11,0 -17,-6 -17,-17 h -12 c 0,11 -6,17 -17,17 h -34 c -11,0 -17,-6 -17,-17 h -12 c 0,11 -6,17 -17,17 h -34 c -11,0 -17,-6 -17,-17 h -12 c 0,11 -6,17 -17,17 h -34 c -11,0 -17,-6 -17,-17 V 20 c 0,-11 6,-17 17,-17 z"
       inkscape:label="Background"
       sodipodi:nodetypes="sssssssssssccssccssccssccssccssccssccssccssssssccssccssccssccssccssccssccssccsssss" /><path
       style="display:inline;fill:#17181c;fill-opacity:0.701249;stroke:#000000;stroke-width:0;stroke-linecap:butt;stroke-linejoin:miter;stroke-miterlimit:4;stroke-dasharray:none;stroke-opacity:1"
       d="m -323,20 v 34 c 0,11 -6,17 -17,17 h -34 c -11,0 -17,-6 -17,-17 V 20 c 0,-11 6,-17 17,-17 L -340,3 c 11,-2e-7 17,6 17,17 z m 80,0 -1e-5,34 c 0,11 -6,17 -17,17 h -34 c -11,0 -17,-6 -17,-17 V 20 c 0,-11 6,-17 17,-17 h 34 C -249,3 -243,9 -243,20 Z m 80,0 -1e-5,34 c 0,11 -6,17 -17,17 h -34 c -11,0 -17,-6 -17,-17 V 20 c 0,-11 6,-17 17,-17 h 34 c 11,0 17,6 17,17 z M -83,20 l -1e-5,34 c -3e-6,11 -6,17 -17,17 h -34 c -11,0 -17,-6 -17,-17 L -151,20 c 0,-11 6,-17 17,-17 h 34 C -89,3 -83,9 -83,20 Z m 80,0 -1e-5,34 c -3e-6,11 -6,17 -17,17 h -34 c -11,0 -17,-6 -17,-17 V 20 c 0,-11 6,-17 17,-17 h 34 C -9,3 -3,9 -3,20 Z m 80,0 -1e-5,34 c -3e-6,11 -6,17 -17,17 h -34 c -11,0 -17,-6 -17,-17 V 20 c 0,-11 6,-17 17,-17 h 34 C 71,3 77,9 77,20 Z m 80,0 -1e-5,34 c 0,11 -6,17 -17,17 h -34 c -11,0 -17,-6 -17,-17 L 89,20 c 3e-6,-11 6,-17 17,-17 h 34 C 151,3 157,9 157,20 Z m 80,0 -1e-5,34 c 0,11 -6,17 -17,17 h -34 c -11,0 -17,-6 -17,-17 l 1e-5,-34 c 0,-11 6,-17 17,-17 h 34 c 11,0 17,6 17,17 z m 80,0 L 317,54 c 0,11 -6,17 -17,17 h -34 c -11,0 -17,-6 -17,-17 l 1e-5,-34 c 0,-11 6,-17 17,-17 h 34 c 11,0 17,6 17,17 z"
       id="path19954-5-7-5-3-6-6-7"
       sodipodi:nodetypes="sssssssssssssssssssssssssssssssssssssssssssssssssssssssssssssssssssssssssssssssss"
       inkscape:label="Slots" /></g></svg>
