<svg xmlns="http://www.w3.org/2000/svg" xmlns:svg="http://www.w3.org/2000/svg" xmlns:xlink="http://www.w3.org/1999/xlink" id="svg2" width="116" height="96" version="1.1" viewBox="0 0 116 96" xml:space="preserve"><defs id="defs6"><linearGradient id="linearGradient17211" x1="139.5" x2="139.5" y1="200" y2="98" gradientTransform="translate(0.5)" gradientUnits="userSpaceOnUse" xlink:href="#linearGradient17209"/><linearGradient id="linearGradient17209"><stop style="stop-color:#8be9fd;stop-opacity:1" id="stop17207" offset="0"/><stop style="stop-color:#50fa7b;stop-opacity:1" id="stop17205" offset="1"/></linearGradient></defs><g id="g3" style="display:inline" transform="translate(-95.99999,-88)"><path d="m 178,117 1e-5,38 c 0,12 -7,19 -19,19 h -38 c -13,0 -19,-7 -19,-19 L 102,117 c 0,-12 7,-19 19,-19 h 38 c 12,0 19,7 19,19 z" style="display:inline;fill:url(#linearGradient17211);fill-opacity:1;stroke:#000;stroke-width:0;stroke-linecap:butt;stroke-linejoin:miter;stroke-miterlimit:4;stroke-dasharray:none;stroke-opacity:1" id="path5473"/><path style="display:inline;fill:#17171b;fill-opacity:1;stroke:#000;stroke-width:0;stroke-linecap:butt;stroke-linejoin:miter;stroke-miterlimit:4;stroke-dasharray:none;stroke-opacity:.804989" id="path1" d="m 174,119 v 34 c 0,11 -6,17 -17,17 h -34 c -11,0 -17,-6 -17,-17 l -1e-5,-34 c 0,-11 6,-17 17,-17 h 34 C 168,102 174,108 174,119 Z"/></g></svg>