<svg xmlns="http://www.w3.org/2000/svg" xmlns:svg="http://www.w3.org/2000/svg" id="svg2" width="728" height="88" version="1.1" viewBox="0 0 728 88" xml:space="preserve"><g id="g2" transform="translate(401,7)"><path id="path3158-7-6" style="display:inline;fill:#2e3244;fill-opacity:.503311;stroke:#000;stroke-width:0;stroke-linecap:butt;stroke-linejoin:miter;stroke-miterlimit:4;stroke-dasharray:none;stroke-opacity:1" d="m -376,-0.9999995 c -11.99998,0 -19,7.000024 -19,18.9999995 v 38 c 0,11.999977 6.00003,19 19,19 h 678 c 11.99998,0 19,-7.000023 19,-19 V 18 C 321,6.0000245 313.99998,-0.9999995 302,-0.9999995 Z m 2,4 h 34 c 10.99999,0 17,6.000011 17,16.9999995 h 12 c 0,-10.9999885 6.00002,-16.9999995 17,-16.9999995 h 34 c 11,0 17,6.000011 17,16.9999995 h 12 c 0,-10.9999885 6.00001,-16.9999995 17,-16.9999995 h 34 c 11,0 17,6.000011 17,16.9999995 h 12 c 0,-10.9999885 6.00002,-16.9999995 17,-16.9999995 h 34 c 11,0 17,6.000011 17,16.9999995 h 12 C -71,9.0000115 -64.99999,3.0000005 -54,3.0000005 h 34 c 11,0 17,6.000011 17,16.9999995 H 9 C 9,9.0000115 15.00001,3.0000005 26,3.0000005 h 34 c 11,0 17,6.000011 17,16.9999995 H 89 C 89,9.0000115 95.00002,3.0000005 106,3.0000005 h 34 c 11,0 17,6.000011 17,16.9999995 h 12 C 169,9.0000115 175.00002,3.0000005 186,3.0000005 h 34 c 11,0 17,6.000011 17,16.9999995 h 12 C 249,9.0000115 255.00002,3.0000005 266,3.0000005 h 34 c 11,0 17,6.000011 17,16.9999995 v 34 c 0,10.999989 -6.00001,17 -17,17 h -34 c -10.99999,0 -17,-6.000011 -17,-17 h -12 c 0,10.999989 -6.00001,17 -17,17 h -34 c -10.99999,0 -17,-6.000011 -17,-17 h -12 c 0,10.999989 -6.00001,17 -17,17 H 106 C 95.00001,71 89,64.999989 89,54 H 77 C 77,64.999989 70.99999,71 60,71 H 26 C 15.00001,71 9,64.999989 9,54 H -3 c 0,10.999989 -6.00001,17 -17,17 h -34 c -10.99999,0 -17,-6.000011 -17,-17 h -12 c 0,10.999989 -6.00001,17 -17,17 h -34 c -10.99999,0 -17,-6.000011 -17,-17 h -12 c 0,10.999989 -6.00001,17 -17,17 h -34 c -10.99999,0 -17,-6.000011 -17,-17 h -12 c 0,10.999989 -6.00001,17 -17,17 h -34 c -10.99999,0 -17,-6.000011 -17,-17 h -12 c 0,10.999989 -6.00001,17 -17,17 h -34 c -10.99999,0 -17,-6.000011 -17,-17 V 20 c 0,-10.9999885 6.00001,-16.9999995 17,-16.9999995 z"/><path style="display:inline;fill:#17181c;fill-opacity:.701249;stroke:#000;stroke-width:0;stroke-linecap:butt;stroke-linejoin:miter;stroke-miterlimit:4;stroke-dasharray:none;stroke-opacity:1" id="path19954-5-7-5-3-6-6-7" d="m -323,20 v 34 c 0,11 -6,16.999999 -17,17 h -34 c -11,0 -17,-6 -17,-17 V 20 c 0,-10.9999995 6,-16.9999993 17,-16.9999995 L -340,3 c 11,-2e-7 17,6 17,17 z m 80,0 -1e-5,34 c 0,11 -6,17 -17,17 h -34 c -11,0 -17,-6 -17,-17 V 20 c 0,-10.9999995 6,-16.9999995 17,-16.9999995 h 34 C -249,3.0000005 -243,9.0000005 -243,20 Z m 80.00001,0 -1e-5,34 c 0,11 -6,17 -17,17 h -34 c -11,0 -17,-6 -17,-17 V 20 c 0,-10.9999995 6,-16.9999995 17,-16.9999995 h 34 c 11.00001,0 17.00001,6 17.00001,16.9999995 z M -83,20 l -1e-5,34 c -3e-6,11 -6,17 -17,17 h -34 c -11,0 -17,-6 -17,-17 L -151,20 c 0,-10.9999995 6,-16.9999995 16.99999,-16.9999995 h 34 C -89,3.0000005 -82.999997,9.0000005 -83,20 Z m 80,0 -1e-5,34 c -3.2e-6,11 -6,17 -17,17 h -34 c -11,0 -17,-6 -17,-17 V 20 c 0,-10.9999995 6,-16.9999998 17,-16.9999998 h 34 C -9,3.0000002 -2.9999968,9.0000005 -3,20 Z m 80,0 -1e-5,34 c -3e-6,11 -6,17 -17,17 h -34 c -11,0 -17,-6 -17,-17 V 20 c 0,-10.9999995 6,-16.9999998 17,-16.9999998 h 34 C 71,3.0000002 77.000003,9.0000005 77,20 Z m 80,0 -1e-5,34 c 0,11 -6,17 -17,17 h -34 c -11,0 -17.000003,-6 -17,-17 L 89,20 c 3e-6,-10.9999995 6,-16.9999995 16.99999,-16.9999995 h 34 C 151,3.0000005 157,9.0000005 157,20 Z m 80.00001,0 -1e-5,34 c 0,11 -6,17 -17,17 h -34 c -11,0 -17,-6 -17,-17 l 1e-5,-34 c 0,-10.9999995 6,-16.9999995 16.99999,-16.9999995 h 34 c 11.00001,0 17.00001,6 17.00001,16.9999995 z m 80,0 L 317,54 c 0,11 -6,17 -17,17 h -34 c -11,0 -17,-6 -17,-17 l 1e-5,-34 c 0,-10.9999995 6,-16.9999995 16.99999,-16.9999995 h 34 c 11.00001,0 17.00001,6 17.00001,16.9999995 z"/></g></svg>