<svg xmlns="http://www.w3.org/2000/svg" xmlns:svg="http://www.w3.org/2000/svg" xmlns:xlink="http://www.w3.org/1999/xlink" id="svg2" width="728" height="20" version="1.1" xml:space="preserve"><defs id="defs6"><linearGradient id="linearGradient86850-3" x1="3" x2="725" y1="286" y2="286" gradientTransform="translate(0,80)" gradientUnits="userSpaceOnUse" xlink:href="#linearGradient115311"/><linearGradient id="linearGradient115311"><stop style="stop-color:#8be9fd;stop-opacity:1" id="stop115307" offset=".682"/><stop style="stop-color:#ffb86c;stop-opacity:1" id="stop115309" offset=".97"/></linearGradient><radialGradient id="radialGradient24395-6-74" cx="364" cy="266" r="360" fx="364" fy="266" gradientTransform="matrix(2.0277778,0,0,0.01944446,-374.11113,360.82778)" gradientUnits="userSpaceOnUse" xlink:href="#linearGradient26781"/><linearGradient id="linearGradient26781"><stop style="stop-color:#cffff4;stop-opacity:1" id="stop26777" offset="0"/><stop style="stop-color:#50fa7b;stop-opacity:0" id="stop26779" offset=".952"/></linearGradient><linearGradient id="linearGradient100231" x1="0" x2="728" y1="266" y2="266" gradientTransform="translate(0,100)" gradientUnits="userSpaceOnUse" xlink:href="#linearGradient100243"/><linearGradient id="linearGradient100243"><stop style="stop-color:#204c53;stop-opacity:1" id="stop100239" offset=".66"/><stop style="stop-color:#533c20;stop-opacity:1" id="stop100241" offset="1"/></linearGradient></defs><g id="g6" style="display:inline" transform="translate(0,-356)"><path style="display:inline;mix-blend-mode:normal;fill:url(#linearGradient86850-3);fill-opacity:1;stroke:none;stroke-width:1px;stroke-linecap:butt;stroke-linejoin:miter;stroke-opacity:1" id="path86847-4" d="m 10,359 -7,7 7,7 h 708 l 7,-7 -7,-7 z"/><path style="display:inline;mix-blend-mode:lighten;fill:url(#radialGradient24395-6-74);fill-opacity:1;stroke:none;stroke-width:1px;stroke-linecap:butt;stroke-linejoin:miter;stroke-opacity:1" id="path23948-4-3" d="m 10,359 -7,7 7,7 h 708 l 7,-7 -7,-7 z"/><path id="path23946-52-7" style="display:inline;fill:url(#linearGradient100231);fill-opacity:1;stroke:none;stroke-width:1px;stroke-linecap:butt;stroke-linejoin:miter;stroke-opacity:1" d="m 8,356 -8,8 v 4 l 8,8 h 712 l 8,-8 v -4 l -8,-8 z m 2,3 h 74 l 7,7 -7,7 H 10 l -7,-7 z m 91,0 h 74 l 7,7 -7,7 h -74 l -8,-7 z m 91,0 h 73 l 7,7 -7,7 h -73 l -8,-7 z m 90,0 h 74 l 7,7 -7,7 h -74 l -8,-7 z m 91,0 h 74 l 7,7 -7,7 h -74 l -8,-7 z m 91,0 h 73 l 7,7 -7,7 h -73 l -8,-7 z m 90,0 h 74 l 7,7 -7,7 h -74 l -8,-7 z m 91,0 h 73 l 7,7 -7,7 h -73 l -8,-7 z"/></g></svg>