<?xml version="1.0" encoding="UTF-8" standalone="no"?>
<!-- Created with Inkscape (http://www.inkscape.org/) -->

<svg
   version="1.1"
   id="svg2"
   width="728"
   height="20"
   xml:space="preserve"
   inkscape:export-filename="base.svg"
   inkscape:export-xdpi="96"
   inkscape:export-ydpi="96"
   inkscape:version="1.3.1 (91b66b0783, 2023-11-16, custom)"
   sodipodi:docname="jump_bar_progress.svg"
   xmlns:inkscape="http://www.inkscape.org/namespaces/inkscape"
   xmlns:sodipodi="http://sodipodi.sourceforge.net/DTD/sodipodi-0.dtd"
   xmlns:xlink="http://www.w3.org/1999/xlink"
   xmlns="http://www.w3.org/2000/svg"
   xmlns:svg="http://www.w3.org/2000/svg"><defs
   id="defs6"><linearGradient
     inkscape:collect="always"
     xlink:href="#linearGradient115311"
     id="linearGradient86850-3"
     x1="3"
     y1="286"
     x2="725"
     y2="286"
     gradientUnits="userSpaceOnUse"
     gradientTransform="translate(0,80)" /><linearGradient
     inkscape:collect="always"
     id="linearGradient115311"><stop
       style="stop-color:#8be9fd;stop-opacity:1"
       offset="0.6817742"
       id="stop115307" /><stop
       style="stop-color:#ffb86c;stop-opacity:1"
       offset="0.97034073"
       id="stop115309" /></linearGradient><radialGradient
     inkscape:collect="always"
     xlink:href="#linearGradient26781"
     id="radialGradient24395-6-74"
     cx="364"
     cy="266"
     fx="364"
     fy="266"
     r="360"
     gradientTransform="matrix(2.0277778,0,0,0.01944446,-374.11113,360.82778)"
     gradientUnits="userSpaceOnUse" /><linearGradient
     inkscape:collect="always"
     id="linearGradient26781"><stop
       style="stop-color:#cffff4;stop-opacity:1;"
       offset="0"
       id="stop26777" /><stop
       style="stop-color:#50fa7b;stop-opacity:0;"
       offset="0.95229357"
       id="stop26779" /></linearGradient><linearGradient
     inkscape:collect="always"
     xlink:href="#linearGradient100243"
     id="linearGradient100231"
     gradientUnits="userSpaceOnUse"
     gradientTransform="translate(0,100)"
     x1="0"
     y1="266"
     x2="728"
     y2="266" /><linearGradient
     inkscape:collect="always"
     id="linearGradient100243"><stop
       style="stop-color:#204c53;stop-opacity:1"
       offset="0.66008222"
       id="stop100239" /><stop
       style="stop-color:#533c20;stop-opacity:1"
       offset="1"
       id="stop100241" /></linearGradient></defs><sodipodi:namedview
   id="namedview4"
   pagecolor="#505050"
   bordercolor="#eeeeee"
   borderopacity="1"
   inkscape:showpageshadow="0"
   inkscape:pageopacity="0"
   inkscape:pagecheckerboard="0"
   inkscape:deskcolor="#505050"
   showgrid="true"
   inkscape:current-layer="svg2"
   inkscape:zoom="14.841472"
   inkscape:cx="381.9702"
   inkscape:cy="11.99342"
   inkscape:window-width="5070"
   inkscape:window-height="1440"
   inkscape:window-x="0"
   inkscape:window-y="0"
   inkscape:window-maximized="1"><inkscape:grid
     type="xygrid"
     id="Main Grid"
     originx="0"
     originy="0"
     spacingy="1"
     spacingx="1"
     units="px"
     visible="true"
     empspacing="4"
     snapvisiblegridlinesonly="true" /></sodipodi:namedview>
    
<g
   id="g6"
   style="display:inline"
   inkscape:label="Mount Progress"
   transform="translate(0,-356)"><path
     style="display:inline;mix-blend-mode:normal;fill:url(#linearGradient86850-3);fill-opacity:1;stroke:none;stroke-width:1px;stroke-linecap:butt;stroke-linejoin:miter;stroke-opacity:1"
     d="m 10,359 -7,7 7,7 h 708 l 7,-7 -7,-7 z"
     id="path86847-4"
     sodipodi:nodetypes="ccccccc"
     inkscape:label="Fill" /><path
     style="display:inline;mix-blend-mode:lighten;fill:url(#radialGradient24395-6-74);fill-opacity:1;stroke:none;stroke-width:1px;stroke-linecap:butt;stroke-linejoin:miter;stroke-opacity:1"
     d="m 10,359 -7,7 7,7 h 708 l 7,-7 -7,-7 z"
     id="path23948-4-3"
     sodipodi:nodetypes="ccccccc"
     inkscape:label="Fill Radial" /><path
     id="path23946-52-7"
     style="display:inline;fill:url(#linearGradient100231);fill-opacity:1;stroke:none;stroke-width:1px;stroke-linecap:butt;stroke-linejoin:miter;stroke-opacity:1"
     d="m 8,356 -8,8 v 4 l 8,8 h 712 l 8,-8 v -4 l -8,-8 z m 2,3 h 74 l 7,7 -7,7 H 10 l -7,-7 z m 91,0 h 74 l 7,7 -7,7 h -74 l -8,-7 z m 91,0 h 73 l 7,7 -7,7 h -73 l -8,-7 z m 90,0 h 74 l 7,7 -7,7 h -74 l -8,-7 z m 91,0 h 74 l 7,7 -7,7 h -74 l -8,-7 z m 91,0 h 73 l 7,7 -7,7 h -73 l -8,-7 z m 90,0 h 74 l 7,7 -7,7 h -74 l -8,-7 z m 91,0 h 73 l 7,7 -7,7 h -73 l -8,-7 z"
     inkscape:label="Overlay" /></g></svg>
