<svg xmlns="http://www.w3.org/2000/svg" xmlns:svg="http://www.w3.org/2000/svg" xmlns:xlink="http://www.w3.org/1999/xlink" id="svg2" width="728" height="20" version="1.1" xml:space="preserve"><defs id="defs6"><linearGradient id="linearGradient100227" x1="3" x2="725" y1="266" y2="266" gradientTransform="translate(0,80)" gradientUnits="userSpaceOnUse" xlink:href="#linearGradient113994"/><linearGradient id="linearGradient113994"><stop style="stop-color:#213646;stop-opacity:1" id="stop113990" offset=".649"/><stop style="stop-color:#4c3720;stop-opacity:1" id="stop113992" offset="1"/></linearGradient><radialGradient id="radialGradient24395-33" cx="364" cy="266" r="360" fx="364" fy="266" gradientTransform="matrix(1.8500001,0,0,0.01944446,-309.40004,340.82778)" gradientUnits="userSpaceOnUse" xlink:href="#linearGradient115317"/><linearGradient id="linearGradient115317"><stop style="stop-color:#222532;stop-opacity:1" id="stop115313" offset="0"/><stop style="stop-color:#204242;stop-opacity:0" id="stop115315" offset=".904"/></linearGradient><linearGradient id="linearGradient100229" x1="0" x2="728" y1="266" y2="266" gradientTransform="translate(0,80)" gradientUnits="userSpaceOnUse" xlink:href="#linearGradient111573"/><linearGradient id="linearGradient111573"><stop style="stop-color:#141d21;stop-opacity:1" id="stop111569" offset=".648"/><stop style="stop-color:#211914;stop-opacity:1" id="stop111571" offset="1"/></linearGradient></defs><g id="g7" style="display:inline" transform="translate(0,-336)"><path style="display:inline;fill:url(#linearGradient100227);fill-opacity:1;stroke:none;stroke-width:1px;stroke-linecap:butt;stroke-linejoin:miter;stroke-opacity:1" id="path97616-8" d="m 10,339 -7,7 7,7 h 708 l 7,-7 -7,-7 z"/><path style="display:inline;mix-blend-mode:darken;fill:url(#radialGradient24395-33);fill-opacity:1;stroke:none;stroke-width:1px;stroke-linecap:butt;stroke-linejoin:miter;stroke-opacity:1" id="path89743-8" d="m 10,339 -7,7 7,7 h 708 l 7,-7 -7,-7 z"/><path id="path23946-58" style="display:inline;fill:url(#linearGradient100229);fill-opacity:1;stroke:none;stroke-width:1px;stroke-linecap:butt;stroke-linejoin:miter;stroke-opacity:1" d="m 8,336 -8,8 v 4 l 8,8 h 712 l 8,-8 v -4 l -8,-8 z m 2,3 h 74 l 7,7 -7,7 H 10 l -7,-7 z m 91,0 h 74 l 7,7 -7,7 h -74 l -8,-7 z m 91,0 h 73 l 7,7 -7,7 h -73 l -8,-7 z m 90,0 h 74 l 7,7 -7,7 h -74 l -8,-7 z m 91,0 h 74 l 7,7 -7,7 h -74 l -8,-7 z m 91,0 h 73 l 7,7 -7,7 h -73 l -8,-7 z m 90,0 h 74 l 7,7 -7,7 h -74 l -8,-7 z m 91,0 h 73 l 7,7 -7,7 h -73 l -8,-7 z"/></g></svg>