<?xml version="1.0" encoding="UTF-8" standalone="no"?>
<!-- Created with Inkscape (http://www.inkscape.org/) -->

<svg
   version="1.1"
   id="svg2"
   width="728"
   height="20"
   xml:space="preserve"
   inkscape:export-filename="base.svg"
   inkscape:export-xdpi="96"
   inkscape:export-ydpi="96"
   inkscape:version="1.3.1 (91b66b0783, 2023-11-16, custom)"
   sodipodi:docname="jump_bar_background.svg"
   xmlns:inkscape="http://www.inkscape.org/namespaces/inkscape"
   xmlns:sodipodi="http://sodipodi.sourceforge.net/DTD/sodipodi-0.dtd"
   xmlns:xlink="http://www.w3.org/1999/xlink"
   xmlns="http://www.w3.org/2000/svg"
   xmlns:svg="http://www.w3.org/2000/svg"><defs
   id="defs6"><linearGradient
     inkscape:collect="always"
     xlink:href="#linearGradient113994"
     id="linearGradient100227"
     gradientUnits="userSpaceOnUse"
     x1="3"
     y1="266"
     x2="725"
     y2="266"
     gradientTransform="translate(0,80)" /><linearGradient
     inkscape:collect="always"
     id="linearGradient113994"><stop
       style="stop-color:#213646;stop-opacity:1"
       offset="0.64905214"
       id="stop113990" /><stop
       style="stop-color:#4c3720;stop-opacity:1"
       offset="1"
       id="stop113992" /></linearGradient><radialGradient
     inkscape:collect="always"
     xlink:href="#linearGradient115317"
     id="radialGradient24395-33"
     cx="364"
     cy="266"
     fx="364"
     fy="266"
     r="360"
     gradientTransform="matrix(1.8500001,0,0,0.01944446,-309.40004,340.82778)"
     gradientUnits="userSpaceOnUse" /><linearGradient
     inkscape:collect="always"
     id="linearGradient115317"><stop
       style="stop-color:#222532;stop-opacity:1;"
       offset="0"
       id="stop115313" /><stop
       style="stop-color:#204242;stop-opacity:0;"
       offset="0.90390396"
       id="stop115315" /></linearGradient><linearGradient
     inkscape:collect="always"
     xlink:href="#linearGradient111573"
     id="linearGradient100229"
     gradientUnits="userSpaceOnUse"
     x1="0"
     y1="266"
     x2="728"
     y2="266"
     gradientTransform="translate(0,80)" /><linearGradient
     inkscape:collect="always"
     id="linearGradient111573"><stop
       style="stop-color:#141d21;stop-opacity:1"
       offset="0.64808959"
       id="stop111569" /><stop
       style="stop-color:#211914;stop-opacity:1"
       offset="1"
       id="stop111571" /></linearGradient></defs><sodipodi:namedview
   id="namedview4"
   pagecolor="#505050"
   bordercolor="#eeeeee"
   borderopacity="1"
   inkscape:showpageshadow="0"
   inkscape:pageopacity="0"
   inkscape:pagecheckerboard="0"
   inkscape:deskcolor="#505050"
   showgrid="true"
   inkscape:current-layer="svg2"
   inkscape:zoom="20.989011"
   inkscape:cx="466.62513"
   inkscape:cy="9.6717278"
   inkscape:window-width="5070"
   inkscape:window-height="1440"
   inkscape:window-x="0"
   inkscape:window-y="0"
   inkscape:window-maximized="1"><inkscape:grid
     type="xygrid"
     id="Main Grid"
     originx="0"
     originy="0"
     spacingy="1"
     spacingx="1"
     units="px"
     visible="true"
     empspacing="4"
     snapvisiblegridlinesonly="true" /></sodipodi:namedview>
    
<g
   id="g7"
   style="display:inline"
   inkscape:label="Mount"
   transform="translate(0,-336)"><path
     style="display:inline;fill:url(#linearGradient100227);fill-opacity:1;stroke:none;stroke-width:1px;stroke-linecap:butt;stroke-linejoin:miter;stroke-opacity:1"
     d="m 10,339 -7,7 7,7 h 708 l 7,-7 -7,-7 z"
     id="path97616-8"
     sodipodi:nodetypes="ccccccc"
     inkscape:label="Fill" /><path
     style="display:inline;mix-blend-mode:darken;fill:url(#radialGradient24395-33);fill-opacity:1;stroke:none;stroke-width:1px;stroke-linecap:butt;stroke-linejoin:miter;stroke-opacity:1"
     d="m 10,339 -7,7 7,7 h 708 l 7,-7 -7,-7 z"
     id="path89743-8"
     sodipodi:nodetypes="ccccccc"
     inkscape:label="Fill Radial" /><path
     id="path23946-58"
     style="display:inline;fill:url(#linearGradient100229);fill-opacity:1;stroke:none;stroke-width:1px;stroke-linecap:butt;stroke-linejoin:miter;stroke-opacity:1"
     d="m 8,336 -8,8 v 4 l 8,8 h 712 l 8,-8 v -4 l -8,-8 z m 2,3 h 74 l 7,7 -7,7 H 10 l -7,-7 z m 91,0 h 74 l 7,7 -7,7 h -74 l -8,-7 z m 91,0 h 73 l 7,7 -7,7 h -73 l -8,-7 z m 90,0 h 74 l 7,7 -7,7 h -74 l -8,-7 z m 91,0 h 74 l 7,7 -7,7 h -74 l -8,-7 z m 91,0 h 73 l 7,7 -7,7 h -73 l -8,-7 z m 90,0 h 74 l 7,7 -7,7 h -74 l -8,-7 z m 91,0 h 73 l 7,7 -7,7 h -73 l -8,-7 z"
     inkscape:label="Overlay" /></g></svg>
