<svg xmlns="http://www.w3.org/2000/svg" xmlns:svg="http://www.w3.org/2000/svg" id="svg2" width="64" height="64" version="1.1" viewBox="0 0 64 64"><path id="path367" style="fill:#17181c;stroke:none;stroke-width:1px;stroke-linecap:butt;stroke-linejoin:miter;stroke-opacity:1" d="M 13 8 L 4 17 L 4 38 L 14 38 L 14 49 L 23 58 L 41 58 L 50 49 L 50 38 L 60 38 L 60 17 L 51 8 L 13 8 z M 15 12 L 49 12 L 56 19 L 56 34 L 50 34 L 50 27 L 45 22 L 42 25 L 46 29 L 46 47 L 39 54 L 25 54 L 18 47 L 18 29 L 22 25 L 19 22 L 14 27 L 14 34 L 8 34 L 8 19 L 15 12 z"/></svg>