<svg xmlns="http://www.w3.org/2000/svg" xmlns:svg="http://www.w3.org/2000/svg" id="svg2" width="64" height="64" version="1.1" viewBox="0 0 64 64"><path id="path306" style="fill:#17181c;stroke:none;stroke-width:1px;stroke-linecap:butt;stroke-linejoin:miter;stroke-opacity:1" d="M 19 12 L 14 17 L 14 33 L 6 41 L 6 52 L 25 52 L 30 47 L 30 12 L 19 12 z M 34 12 L 34 47 L 39 52 L 58 52 L 58 41 L 50 33 L 50 17 L 45 12 L 34 12 z M 21 16 L 26 16 L 26 45 L 23 48 L 10 48 L 10 43 L 18 35 L 18 19 L 21 16 z M 38 16 L 43 16 L 46 19 L 46 35 L 54 43 L 54 48 L 41 48 L 38 45 L 38 16 z"/></svg>