<svg xmlns="http://www.w3.org/2000/svg" xmlns:svg="http://www.w3.org/2000/svg" xmlns:xlink="http://www.w3.org/1999/xlink" id="svg2" width="208" height="208" version="1.1" viewBox="0 0 208 208" xml:space="preserve"><defs id="defs6"><linearGradient id="linearGradient2" x1="324" x2="324" y1="1082" y2="806" gradientTransform="translate(-216,-794)" gradientUnits="userSpaceOnUse" xlink:href="#linearGradient1"/><linearGradient id="linearGradient1"><stop style="stop-color:#ff79c6;stop-opacity:1" id="stop1" offset="0"/><stop style="stop-color:#bd93f9;stop-opacity:1" id="stop2" offset="1"/></linearGradient></defs><path style="display:inline;fill:url(#linearGradient2);fill-opacity:1;stroke:#000;stroke-width:0;stroke-linecap:butt;stroke-linejoin:miter;stroke-miterlimit:4;stroke-dasharray:none;stroke-opacity:1" id="path24389-0-9-3-5-5-6" d="M 196,39.999999 V 168 c 0,16 -12,28 -28,28 H 40 C 24,196 12,184 12,168 V 39.999999 c 0,-16 12,-28 28,-28 h 128 c 16,0 28,12 28,28 z"/><path style="display:inline;fill:#17181c;fill-opacity:1;stroke:#000;stroke-width:0;stroke-linecap:butt;stroke-linejoin:miter;stroke-miterlimit:4;stroke-dasharray:none;stroke-opacity:1" id="path24389-0-9-3-5-5-9" d="M 188,43.999999 V 164 c 0,16 -8,24 -24,24 H 44 C 28,188 20,180 20,164 V 43.999999 c 0,-16 8,-24 24,-24 h 120 c 16,0 24,8 24,24 z"/></svg>