<svg xmlns="http://www.w3.org/2000/svg" xmlns:svg="http://www.w3.org/2000/svg" id="svg2" width="72" height="72" version="1.1" xml:space="preserve"><g id="g51" style="display:inline" transform="translate(-28,-332)"><rect style="display:inline;opacity:1;fill:#2e3242;fill-rule:evenodd;stroke-width:2;stroke-linecap:square;stroke-linejoin:round;stroke-miterlimit:0" id="rect1" width="64" height="64" x="4" y="884" rx="0" ry="0" transform="translate(28,-548)"/><rect style="display:inline;fill:#1e1f29;fill-rule:evenodd;stroke-width:2;stroke-linecap:square;stroke-linejoin:round;stroke-miterlimit:0" id="rect50" width="60" height="60" x="34" y="338" rx="14" ry="14"/><path id="path6" style="display:inline;fill:#17181c;fill-opacity:1;fill-rule:evenodd;stroke-width:0;stroke-linecap:square;stroke-linejoin:round;stroke-miterlimit:0" d="m 48,900 v -4 h 2 2 v 2 2 h 4 4 v 2 2 h -6 -6 z m -4,6 v -2 h 2 2 v 2 2 h -2 -2 z m -4,6 v -4 h 2 2 v 4 4 h -2 -2 z m 12,2 v -2 h 4 4 v -4 -4 h 2 2 v 6 6 h -6 -6 z m -4,6 v -4 h 2 2 v 4 4 H 50 48 Z M 8,930 v -10 h 2 2 v -2 -2 h 14 14 v 10 10 h 6 6 v -6 -6 h 2 2 v 8 8 H 32 8 Z m 16,-2 v -8 h -6 -6 v 8 8 h 6 6 z m 12,0 v -8 h -4 -4 v 8 8 h 4 4 z" transform="translate(28,-548)"/></g></svg>