<?xml version="1.0" encoding="UTF-8" standalone="no"?>
<!-- Created with Inkscape (http://www.inkscape.org/) -->

<svg
   version="1.1"
   id="svg2"
   width="72"
   height="72"
   xml:space="preserve"
   inkscape:export-filename="base.svg"
   inkscape:export-xdpi="96"
   inkscape:export-ydpi="96"
   inkscape:version="1.3.1 (91b66b0783, 2023-11-16, custom)"
   sodipodi:docname="armor_slot.svg"
   xmlns:inkscape="http://www.inkscape.org/namespaces/inkscape"
   xmlns:sodipodi="http://sodipodi.sourceforge.net/DTD/sodipodi-0.dtd"
   xmlns="http://www.w3.org/2000/svg"
   xmlns:svg="http://www.w3.org/2000/svg"><defs
   id="defs6" /><sodipodi:namedview
   id="namedview4"
   pagecolor="#505050"
   bordercolor="#eeeeee"
   borderopacity="1"
   inkscape:showpageshadow="0"
   inkscape:pageopacity="0"
   inkscape:pagecheckerboard="0"
   inkscape:deskcolor="#505050"
   showgrid="true"
   inkscape:current-layer="svg2"
   inkscape:zoom="17.166667"
   inkscape:cx="36.058252"
   inkscape:cy="36.058252"
   inkscape:window-width="5070"
   inkscape:window-height="1440"
   inkscape:window-x="0"
   inkscape:window-y="0"
   inkscape:window-maximized="1"><inkscape:grid
     type="xygrid"
     id="Main Grid"
     originx="0"
     originy="0"
     spacingy="1"
     spacingx="1"
     units="px"
     visible="true"
     empspacing="4"
     snapvisiblegridlinesonly="true" /></sodipodi:namedview>
    
<g
   id="g51"
   inkscape:label="Armor Slot"
   style="display:inline"
   transform="translate(-28,-332)"><rect
     style="display:inline;opacity:1;fill:#2e3242;fill-rule:evenodd;stroke-width:2;stroke-linecap:square;stroke-linejoin:round;stroke-miterlimit:0"
     id="rect1"
     width="64"
     height="64"
     x="4"
     y="884"
     rx="0"
     ry="0"
     inkscape:label="Border"
     transform="translate(28,-548)" /><rect
     style="display:inline;fill:#1e1f29;fill-rule:evenodd;stroke-width:2;stroke-linecap:square;stroke-linejoin:round;stroke-miterlimit:0"
     id="rect50"
     width="60"
     height="60"
     x="34"
     y="338"
     rx="14"
     ry="14"
     inkscape:label="Slot" /><path
     id="path6"
     style="display:inline;fill:#17181c;fill-opacity:1;fill-rule:evenodd;stroke-width:0;stroke-linecap:square;stroke-linejoin:round;stroke-miterlimit:0"
     d="m 48,900 v -4 h 2 2 v 2 2 h 4 4 v 2 2 h -6 -6 z m -4,6 v -2 h 2 2 v 2 2 h -2 -2 z m -4,6 v -4 h 2 2 v 4 4 h -2 -2 z m 12,2 v -2 h 4 4 v -4 -4 h 2 2 v 6 6 h -6 -6 z m -4,6 v -4 h 2 2 v 4 4 H 50 48 Z M 8,930 v -10 h 2 2 v -2 -2 h 14 14 v 10 10 h 6 6 v -6 -6 h 2 2 v 8 8 H 32 8 Z m 16,-2 v -8 h -6 -6 v 8 8 h 6 6 z m 12,0 v -8 h -4 -4 v 8 8 h 4 4 z"
     inkscape:label="Armor"
     transform="translate(28,-548)" /></g></svg>
