<svg xmlns="http://www.w3.org/2000/svg" xmlns:svg="http://www.w3.org/2000/svg" id="svg2" width="72" height="72" version="1.1" xml:space="preserve"><g id="g51-2-3" style="display:inline" transform="translate(-28,-332)"><rect style="display:inline;fill:#2e3242;fill-rule:evenodd;stroke-width:2;stroke-linecap:square;stroke-linejoin:round;stroke-miterlimit:0" id="rect1-6-5" width="64" height="64" x="76" y="884" rx="0" ry="0" transform="translate(-44,-548)"/><rect style="display:inline;fill:#1e1f29;fill-rule:evenodd;stroke-width:2;stroke-linecap:square;stroke-linejoin:round;stroke-miterlimit:0" id="rect50-6-6" width="60" height="60" x="34" y="338" rx="14" ry="14"/><path id="path24-2" style="display:inline;fill:#17181c;fill-opacity:1;fill-rule:evenodd;stroke-width:0;stroke-linecap:square;stroke-linejoin:round;stroke-miterlimit:0" d="m 84,922 v -6 h 2 2 v 2 2 h 2 2 v 2 2 h -2 -2 v 2 2 h -2 -2 z m 4,8 v -2 h 2 2 v -2 -2 h 2 2 v 2 2 h 2 2 v 2 2 h -6 -6 z m 12,6 v -4 h 2 2 v 2 2 h 4 4 v 2 2 h -6 -6 z m 28,6 v -2 h 2 2 v 2 2 h -2 -2 z m -16,-8 v -2 h 4 4 v 2 2 h -4 -4 z m 12,2 v -4 h -2 -2 v -2 -2 h 4 4 v 6 6 h -2 -2 z m -16,-8 v -4 h 2 2 v 4 4 h -2 -2 z m -4,-6 v -2 h 2 2 v 2 2 h -2 -2 z m -4,-4 v -2 h 2 2 v 2 2 h -2 -2 z m -12,-4 v -2 h 6 6 v 2 2 h -6 -6 z m 12,-4 v -2 h 4 4 v 2 2 h -4 -4 z m 8,-4 v -2 h 2 2 v 2 2 h -2 -2 z m 4,-4 v -2 h 8 8 v 2 2 h -8 -8 z m 16,4 v -2 h 2 2 v 2 2 h -2 -2 z m -8,4 v -2 h 2 2 v 2 2 h -2 -2 z m 4,8 v -6 h 2 2 v 6 6 h -2 -2 z m 4,8 v -2 h 2 2 v 2 2 h -2 -2 z m 4,-10 v -8 h 2 2 v 8 8 h -2 -2 z" transform="translate(-44,-548)"/></g></svg>