<svg xmlns="http://www.w3.org/2000/svg" xmlns:svg="http://www.w3.org/2000/svg" id="svg2" width="728" height="20" version="1.1" xml:space="preserve"><g id="g415" style="opacity:.7;fill:#000;fill-opacity:1" transform="translate(0,-360)"><path style="fill:#000;fill-opacity:1;stroke:none;stroke-width:1px;stroke-linecap:butt;stroke-linejoin:miter;stroke-opacity:1" id="use271" d="m 429,363 7,7 -7,7 h 18 l -7,-7 7,-7 z"/><path style="fill:#000;fill-opacity:1;stroke:none;stroke-width:1px;stroke-linecap:butt;stroke-linejoin:miter;stroke-opacity:1" id="use272" d="m 501,363 7,7 -7,7 h 18 l -7,-7 7,-7 z"/><path style="fill:#000;fill-opacity:1;stroke:none;stroke-width:1px;stroke-linecap:butt;stroke-linejoin:miter;stroke-opacity:1" id="use273" d="m 573,363 7,7 -7,7 h 18 l -7,-7 7,-7 z"/><path style="fill:#000;fill-opacity:1;stroke:none;stroke-width:1px;stroke-linecap:butt;stroke-linejoin:miter;stroke-opacity:1" id="use274" d="m 645,363 7,7 -7,7 h 18 l -7,-7 7,-7 z"/><path style="fill:#000;fill-opacity:1;stroke:none;stroke-width:1px;stroke-linecap:butt;stroke-linejoin:miter;stroke-opacity:1" id="use283" d="m 355,363 7,7 -7,7 h 18 l -7,-7 7,-7 z"/><path style="fill:#000;fill-opacity:1;stroke:none;stroke-width:1px;stroke-linecap:butt;stroke-linejoin:miter;stroke-opacity:1" id="use289" d="m 65,363 7,7 -7,7 h 18 l -7,-7 7,-7 z"/><path style="fill:#000;fill-opacity:1;stroke:none;stroke-width:1px;stroke-linecap:butt;stroke-linejoin:miter;stroke-opacity:1" id="use290" d="m 137,363 7,7 -7,7 h 18 l -7,-7 7,-7 z"/><path style="fill:#000;fill-opacity:1;stroke:none;stroke-width:1px;stroke-linecap:butt;stroke-linejoin:miter;stroke-opacity:1" id="use300" d="m 209,363 7,7 -7,7 h 18 l -7,-7 7,-7 z"/><path style="fill:#000;fill-opacity:1;stroke:none;stroke-width:1px;stroke-linecap:butt;stroke-linejoin:miter;stroke-opacity:1" id="use301" d="m 281,363 7,7 -7,7 h 18 l -7,-7 7,-7 z"/></g></svg>