<svg xmlns="http://www.w3.org/2000/svg" xmlns:svg="http://www.w3.org/2000/svg" id="svg2" width="728" height="20" version="1.1" xml:space="preserve"><g id="g418" style="opacity:.7;fill:#000;fill-opacity:1" transform="translate(0,-440)"><path style="fill:#000;fill-opacity:1;stroke:none;stroke-width:1px;stroke-linecap:butt;stroke-linejoin:miter;stroke-opacity:1" id="use249" d="m 29,443 7,7 -7,7 h 18 l -7,-7 7,-7 z"/><path style="fill:#000;fill-opacity:1;stroke:none;stroke-width:1px;stroke-linecap:butt;stroke-linejoin:miter;stroke-opacity:1" id="use253" d="m 65,443 7,7 -7,7 h 18 l -7,-7 7,-7 z"/><path style="fill:#000;fill-opacity:1;stroke:none;stroke-width:1px;stroke-linecap:butt;stroke-linejoin:miter;stroke-opacity:1" id="use258" d="m 501,443 7,7 -7,7 h 18 l -7,-7 7,-7 z"/><path style="fill:#000;fill-opacity:1;stroke:none;stroke-width:1px;stroke-linecap:butt;stroke-linejoin:miter;stroke-opacity:1" id="use259" d="m 537,443 7,7 -7,7 h 18 l -7,-7 7,-7 z"/><path style="fill:#000;fill-opacity:1;stroke:none;stroke-width:1px;stroke-linecap:butt;stroke-linejoin:miter;stroke-opacity:1" id="use260" d="m 573,443 7,7 -7,7 h 18 l -7,-7 7,-7 z"/><path style="fill:#000;fill-opacity:1;stroke:none;stroke-width:1px;stroke-linecap:butt;stroke-linejoin:miter;stroke-opacity:1" id="use261" d="m 609,443 7,7 -7,7 h 18 l -7,-7 7,-7 z"/><path style="fill:#000;fill-opacity:1;stroke:none;stroke-width:1px;stroke-linecap:butt;stroke-linejoin:miter;stroke-opacity:1" id="use262" d="m 645,443 7,7 -7,7 h 18 l -7,-7 7,-7 z"/><path style="fill:#000;fill-opacity:1;stroke:none;stroke-width:1px;stroke-linecap:butt;stroke-linejoin:miter;stroke-opacity:1" id="use263" d="m 681,443 7,7 -7,7 h 18 l -7,-7 7,-7 z"/><path style="fill:#000;fill-opacity:1;stroke:none;stroke-width:1px;stroke-linecap:butt;stroke-linejoin:miter;stroke-opacity:1" id="use293" d="m 465,443 7,7 -7,7 h 18 l -7,-7 7,-7 z"/><path style="fill:#000;fill-opacity:1;stroke:none;stroke-width:1px;stroke-linecap:butt;stroke-linejoin:miter;stroke-opacity:1" id="use295" d="m 429,443 7,7 -7,7 h 18 l -7,-7 7,-7 z"/><path style="fill:#000;fill-opacity:1;stroke:none;stroke-width:1px;stroke-linecap:butt;stroke-linejoin:miter;stroke-opacity:1" id="use296" d="m 393,443 7,7 -7,7 h 18 l -7,-7 7,-7 z"/><path style="fill:#000;fill-opacity:1;stroke:none;stroke-width:1px;stroke-linecap:butt;stroke-linejoin:miter;stroke-opacity:1" id="use304" d="m 355,443 7,7 -7,7 h 18 l -7,-7 7,-7 z"/><path style="fill:#000;fill-opacity:1;stroke:none;stroke-width:1px;stroke-linecap:butt;stroke-linejoin:miter;stroke-opacity:1" id="use305" d="m 317,443 7,7 -7,7 h 18 l -7,-7 7,-7 z"/><path style="fill:#000;fill-opacity:1;stroke:none;stroke-width:1px;stroke-linecap:butt;stroke-linejoin:miter;stroke-opacity:1" id="use306" d="m 281,443 7,7 -7,7 h 18 l -7,-7 7,-7 z"/><path style="fill:#000;fill-opacity:1;stroke:none;stroke-width:1px;stroke-linecap:butt;stroke-linejoin:miter;stroke-opacity:1" id="use307" d="m 245,443 7,7 -7,7 h 18 l -7,-7 7,-7 z"/><path style="fill:#000;fill-opacity:1;stroke:none;stroke-width:1px;stroke-linecap:butt;stroke-linejoin:miter;stroke-opacity:1" id="use308" d="m 209,443 7,7 -7,7 h 18 l -7,-7 7,-7 z"/><path style="fill:#000;fill-opacity:1;stroke:none;stroke-width:1px;stroke-linecap:butt;stroke-linejoin:miter;stroke-opacity:1" id="use309" d="m 173,443 7,7 -7,7 h 18 l -7,-7 7,-7 z"/><path style="fill:#000;fill-opacity:1;stroke:none;stroke-width:1px;stroke-linecap:butt;stroke-linejoin:miter;stroke-opacity:1" id="use310" d="m 137,443 7,7 -7,7 h 18 l -7,-7 7,-7 z"/><path style="fill:#000;fill-opacity:1;stroke:none;stroke-width:1px;stroke-linecap:butt;stroke-linejoin:miter;stroke-opacity:1" id="use311" d="m 101,443 7,7 -7,7 h 18 l -7,-7 7,-7 z"/></g></svg>