<svg xmlns="http://www.w3.org/2000/svg" xmlns:svg="http://www.w3.org/2000/svg" id="svg2" width="728" height="20" version="1.1" xml:space="preserve"><g id="g417" style="opacity:.7;fill:#000;fill-opacity:1" transform="translate(0,-400)"><path style="fill:#000;fill-opacity:1;stroke:none;stroke-width:1px;stroke-linecap:butt;stroke-linejoin:miter;stroke-opacity:1" id="use238" d="m 477,403 7,7 -7,7 h 18 l -7,-7 7,-7 z"/><path style="fill:#000;fill-opacity:1;stroke:none;stroke-width:1px;stroke-linecap:butt;stroke-linejoin:miter;stroke-opacity:1" id="use239" d="m 417,403 7,7 -7,7 h 18 l -7,-7 7,-7 z"/><path style="fill:#000;fill-opacity:1;stroke:none;stroke-width:1px;stroke-linecap:butt;stroke-linejoin:miter;stroke-opacity:1" id="use240" d="m 355,403 7,7 -7,7 h 18 l -7,-7 7,-7 z"/><path style="fill:#000;fill-opacity:1;stroke:none;stroke-width:1px;stroke-linecap:butt;stroke-linejoin:miter;stroke-opacity:1" id="use242" d="m 293,403 7,7 -7,7 h 18 l -7,-7 7,-7 z"/><path style="fill:#000;fill-opacity:1;stroke:none;stroke-width:1px;stroke-linecap:butt;stroke-linejoin:miter;stroke-opacity:1" id="use243" d="m 233,403 7,7 -7,7 h 18 l -7,-7 7,-7 z"/><path style="fill:#000;fill-opacity:1;stroke:none;stroke-width:1px;stroke-linecap:butt;stroke-linejoin:miter;stroke-opacity:1" id="use244" d="m 173,403 7,7 -7,7 h 18 l -7,-7 7,-7 z"/><path style="fill:#000;fill-opacity:1;stroke:none;stroke-width:1px;stroke-linecap:butt;stroke-linejoin:miter;stroke-opacity:1" id="use245" d="m 113,403 7,7 -7,7 h 18 l -7,-7 7,-7 z"/><path style="fill:#000;fill-opacity:1;stroke:none;stroke-width:1px;stroke-linecap:butt;stroke-linejoin:miter;stroke-opacity:1" id="use246" d="m 53,403 7,7 -7,7 h 18 l -7,-7 7,-7 z"/><path style="fill:#000;fill-opacity:1;stroke:none;stroke-width:1px;stroke-linecap:butt;stroke-linejoin:miter;stroke-opacity:1" id="use267" d="m 537,403 7,7 -7,7 h 18 l -7,-7 7,-7 z"/><path style="fill:#000;fill-opacity:1;stroke:none;stroke-width:1px;stroke-linecap:butt;stroke-linejoin:miter;stroke-opacity:1" id="use268" d="m 597,403 7,7 -7,7 h 18 l -7,-7 7,-7 z"/><path style="fill:#000;fill-opacity:1;stroke:none;stroke-width:1px;stroke-linecap:butt;stroke-linejoin:miter;stroke-opacity:1" id="use269" d="m 657,403 7,7 -7,7 h 18 l -7,-7 7,-7 z"/></g></svg>