<?xml version="1.0" encoding="UTF-8" standalone="no"?>
<!-- Created with Inkscape (http://www.inkscape.org/) -->

<svg
   version="1.1"
   id="svg2"
   width="728"
   height="20"
   xml:space="preserve"
   inkscape:export-filename="base.svg"
   inkscape:export-xdpi="96"
   inkscape:export-ydpi="96"
   inkscape:version="1.3.1 (91b66b0783, 2023-11-16, custom)"
   sodipodi:docname="notched_20_progress.svg"
   xmlns:inkscape="http://www.inkscape.org/namespaces/inkscape"
   xmlns:sodipodi="http://sodipodi.sourceforge.net/DTD/sodipodi-0.dtd"
   xmlns="http://www.w3.org/2000/svg"
   xmlns:svg="http://www.w3.org/2000/svg"><defs
   id="defs6" /><sodipodi:namedview
   id="namedview4"
   pagecolor="#505050"
   bordercolor="#eeeeee"
   borderopacity="1"
   inkscape:showpageshadow="0"
   inkscape:pageopacity="0"
   inkscape:pagecheckerboard="0"
   inkscape:deskcolor="#505050"
   showgrid="true"
   inkscape:current-layer="svg2"
   inkscape:zoom="2.6236264"
   inkscape:cx="377.34031"
   inkscape:cy="54.12356"
   inkscape:window-width="5070"
   inkscape:window-height="1440"
   inkscape:window-x="0"
   inkscape:window-y="0"
   inkscape:window-maximized="1"><inkscape:grid
     type="xygrid"
     id="Main Grid"
     originx="0"
     originy="0"
     spacingy="1"
     spacingx="1"
     units="px"
     visible="true"
     empspacing="4"
     snapvisiblegridlinesonly="true" /></sodipodi:namedview>
    
<g
   id="g419"
   inkscape:label="20 Progress"
   style="opacity:0.45"
   transform="translate(0,-460)"><path
     style="fill:#000000;fill-opacity:1;stroke:none;stroke-width:1px;stroke-linecap:butt;stroke-linejoin:miter;stroke-opacity:1"
     d="m 29,463 7,7 -7,7 h 18 l -7,-7 7,-7 z"
     id="use250"
     inkscape:label="Divider"
     sodipodi:nodetypes="ccccccc"
     inkscape:tile-x0="361"
     inkscape:tile-y0="543" /><path
     style="fill:#000000;fill-opacity:1;stroke:none;stroke-width:1px;stroke-linecap:butt;stroke-linejoin:miter;stroke-opacity:1"
     d="m 65,463 7,7 -7,7 h 18 l -7,-7 7,-7 z"
     id="use251"
     inkscape:label="Divider"
     sodipodi:nodetypes="ccccccc"
     inkscape:tile-x0="361"
     inkscape:tile-y0="543" /><path
     style="fill:#000000;fill-opacity:1;stroke:none;stroke-width:1px;stroke-linecap:butt;stroke-linejoin:miter;stroke-opacity:1"
     d="m 101,463 7,7 -7,7 h 18 l -7,-7 7,-7 z"
     id="use252"
     inkscape:label="Divider"
     sodipodi:nodetypes="ccccccc"
     inkscape:tile-x0="361"
     inkscape:tile-y0="543" /><path
     style="fill:#000000;fill-opacity:1;stroke:none;stroke-width:1px;stroke-linecap:butt;stroke-linejoin:miter;stroke-opacity:1"
     d="m 681,463 7,7 -7,7 h 18 l -7,-7 7,-7 z"
     id="use297"
     inkscape:label="Divider"
     sodipodi:nodetypes="ccccccc"
     inkscape:tile-x0="361"
     inkscape:tile-y0="543" /><path
     style="fill:#000000;fill-opacity:1;stroke:none;stroke-width:1px;stroke-linecap:butt;stroke-linejoin:miter;stroke-opacity:1"
     d="m 645,463 7,7 -7,7 h 18 l -7,-7 7,-7 z"
     id="use298"
     inkscape:label="Divider"
     sodipodi:nodetypes="ccccccc"
     inkscape:tile-x0="361"
     inkscape:tile-y0="543" /><path
     style="fill:#000000;fill-opacity:1;stroke:none;stroke-width:1px;stroke-linecap:butt;stroke-linejoin:miter;stroke-opacity:1"
     d="m 609,463 7,7 -7,7 h 18 l -7,-7 7,-7 z"
     id="use299"
     inkscape:label="Divider"
     sodipodi:nodetypes="ccccccc"
     inkscape:tile-x0="361"
     inkscape:tile-y0="543" /><path
     style="fill:#000000;fill-opacity:1;stroke:none;stroke-width:1px;stroke-linecap:butt;stroke-linejoin:miter;stroke-opacity:1"
     d="m 317,463 7,7 -7,7 h 18 l -7,-7 7,-7 z"
     id="use313"
     inkscape:label="Divider"
     sodipodi:nodetypes="ccccccc"
     inkscape:tile-x0="361"
     inkscape:tile-y0="543" /><path
     style="fill:#000000;fill-opacity:1;stroke:none;stroke-width:1px;stroke-linecap:butt;stroke-linejoin:miter;stroke-opacity:1"
     d="m 281,463 7,7 -7,7 h 18 l -7,-7 7,-7 z"
     id="use314"
     inkscape:label="Divider"
     sodipodi:nodetypes="ccccccc"
     inkscape:tile-x0="361"
     inkscape:tile-y0="543" /><path
     style="fill:#000000;fill-opacity:1;stroke:none;stroke-width:1px;stroke-linecap:butt;stroke-linejoin:miter;stroke-opacity:1"
     d="m 245,463 7,7 -7,7 h 18 l -7,-7 7,-7 z"
     id="use315"
     inkscape:label="Divider"
     sodipodi:nodetypes="ccccccc"
     inkscape:tile-x0="361"
     inkscape:tile-y0="543" /><path
     style="fill:#000000;fill-opacity:1;stroke:none;stroke-width:1px;stroke-linecap:butt;stroke-linejoin:miter;stroke-opacity:1"
     d="m 209,463 7,7 -7,7 h 18 l -7,-7 7,-7 z"
     id="use316"
     inkscape:label="Divider"
     sodipodi:nodetypes="ccccccc"
     inkscape:tile-x0="361"
     inkscape:tile-y0="543" /><path
     style="fill:#000000;fill-opacity:1;stroke:none;stroke-width:1px;stroke-linecap:butt;stroke-linejoin:miter;stroke-opacity:1"
     d="m 173,463 7,7 -7,7 h 18 l -7,-7 7,-7 z"
     id="use317"
     inkscape:label="Divider"
     sodipodi:nodetypes="ccccccc"
     inkscape:tile-x0="361"
     inkscape:tile-y0="543" /><path
     style="fill:#000000;fill-opacity:1;stroke:none;stroke-width:1px;stroke-linecap:butt;stroke-linejoin:miter;stroke-opacity:1"
     d="m 429,463 7,7 -7,7 h 18 l -7,-7 7,-7 z"
     id="use318"
     inkscape:label="Divider"
     sodipodi:nodetypes="ccccccc"
     inkscape:tile-x0="361"
     inkscape:tile-y0="543" /><path
     style="fill:#000000;fill-opacity:1;stroke:none;stroke-width:1px;stroke-linecap:butt;stroke-linejoin:miter;stroke-opacity:1"
     d="m 465,463 7,7 -7,7 h 18 l -7,-7 7,-7 z"
     id="use319"
     inkscape:label="Divider"
     sodipodi:nodetypes="ccccccc"
     inkscape:tile-x0="361"
     inkscape:tile-y0="543" /><path
     style="fill:#000000;fill-opacity:1;stroke:none;stroke-width:1px;stroke-linecap:butt;stroke-linejoin:miter;stroke-opacity:1"
     d="m 501,463 7,7 -7,7 h 18 l -7,-7 7,-7 z"
     id="use320"
     inkscape:label="Divider"
     sodipodi:nodetypes="ccccccc"
     inkscape:tile-x0="361"
     inkscape:tile-y0="543" /><path
     style="fill:#000000;fill-opacity:1;stroke:none;stroke-width:1px;stroke-linecap:butt;stroke-linejoin:miter;stroke-opacity:1"
     d="m 537,463 7,7 -7,7 h 18 l -7,-7 7,-7 z"
     id="use321"
     inkscape:label="Divider"
     sodipodi:nodetypes="ccccccc"
     inkscape:tile-x0="361"
     inkscape:tile-y0="543" /><path
     style="fill:#000000;fill-opacity:1;stroke:none;stroke-width:1px;stroke-linecap:butt;stroke-linejoin:miter;stroke-opacity:1"
     d="m 573,463 7,7 -7,7 h 18 l -7,-7 7,-7 z"
     id="use322"
     inkscape:label="Divider"
     sodipodi:nodetypes="ccccccc"
     inkscape:tile-x0="361"
     inkscape:tile-y0="543" /><path
     style="fill:#000000;fill-opacity:1;stroke:none;stroke-width:1px;stroke-linecap:butt;stroke-linejoin:miter;stroke-opacity:1"
     d="m 393,463 7,7 -7,7 h 18 l -7,-7 7,-7 z"
     id="use323"
     inkscape:label="Divider"
     sodipodi:nodetypes="ccccccc"
     inkscape:tile-x0="361"
     inkscape:tile-y0="543" /><path
     style="fill:#000000;fill-opacity:1;stroke:none;stroke-width:1px;stroke-linecap:butt;stroke-linejoin:miter;stroke-opacity:1"
     d="m 355,463 7,7 -7,7 h 18 l -7,-7 7,-7 z"
     id="use324"
     inkscape:label="Divider"
     sodipodi:nodetypes="ccccccc"
     inkscape:tile-x0="361"
     inkscape:tile-y0="543" /><path
     style="fill:#000000;fill-opacity:1;stroke:none;stroke-width:1px;stroke-linecap:butt;stroke-linejoin:miter;stroke-opacity:1"
     d="m 137,463 7,7 -7,7 h 18 l -7,-7 7,-7 z"
     id="use325"
     inkscape:label="Divider"
     sodipodi:nodetypes="ccccccc"
     inkscape:tile-x0="361"
     inkscape:tile-y0="543" /></g></svg>
