<?xml version="1.0" encoding="UTF-8" standalone="no"?>
<!-- Created with Inkscape (http://www.inkscape.org/) -->

<svg
   version="1.1"
   id="svg2"
   width="728"
   height="20"
   xml:space="preserve"
   inkscape:export-filename="base.svg"
   inkscape:export-xdpi="96"
   inkscape:export-ydpi="96"
   inkscape:version="1.3.1 (91b66b0783, 2023-11-16, custom)"
   sodipodi:docname="notched_20_background.svg"
   xmlns:inkscape="http://www.inkscape.org/namespaces/inkscape"
   xmlns:sodipodi="http://sodipodi.sourceforge.net/DTD/sodipodi-0.dtd"
   xmlns="http://www.w3.org/2000/svg"
   xmlns:svg="http://www.w3.org/2000/svg"><defs
   id="defs6" /><sodipodi:namedview
   id="namedview4"
   pagecolor="#505050"
   bordercolor="#eeeeee"
   borderopacity="1"
   inkscape:showpageshadow="0"
   inkscape:pageopacity="0"
   inkscape:pagecheckerboard="0"
   inkscape:deskcolor="#505050"
   showgrid="true"
   inkscape:current-layer="svg2"
   inkscape:zoom="2.6236264"
   inkscape:cx="390.68063"
   inkscape:cy="1.9057592"
   inkscape:window-width="5070"
   inkscape:window-height="1440"
   inkscape:window-x="0"
   inkscape:window-y="0"
   inkscape:window-maximized="1"><inkscape:grid
     type="xygrid"
     id="Main Grid"
     originx="0"
     originy="0"
     spacingy="1"
     spacingx="1"
     units="px"
     visible="true"
     empspacing="4"
     snapvisiblegridlinesonly="true" /></sodipodi:namedview>
    
<g
   id="g418"
   inkscape:label="20"
   style="opacity:0.7;fill:#000000;fill-opacity:1"
   transform="translate(0,-440)"><path
     style="fill:#000000;fill-opacity:1;stroke:none;stroke-width:1px;stroke-linecap:butt;stroke-linejoin:miter;stroke-opacity:1"
     d="m 29,443 7,7 -7,7 h 18 l -7,-7 7,-7 z"
     id="use249"
     inkscape:label="Divider"
     sodipodi:nodetypes="ccccccc"
     inkscape:tile-x0="361"
     inkscape:tile-y0="543" /><path
     style="fill:#000000;fill-opacity:1;stroke:none;stroke-width:1px;stroke-linecap:butt;stroke-linejoin:miter;stroke-opacity:1"
     d="m 65,443 7,7 -7,7 h 18 l -7,-7 7,-7 z"
     id="use253"
     inkscape:label="Divider"
     sodipodi:nodetypes="ccccccc"
     inkscape:tile-x0="361"
     inkscape:tile-y0="543" /><path
     style="fill:#000000;fill-opacity:1;stroke:none;stroke-width:1px;stroke-linecap:butt;stroke-linejoin:miter;stroke-opacity:1"
     d="m 501,443 7,7 -7,7 h 18 l -7,-7 7,-7 z"
     id="use258"
     inkscape:label="Divider"
     sodipodi:nodetypes="ccccccc"
     inkscape:tile-x0="361"
     inkscape:tile-y0="543" /><path
     style="fill:#000000;fill-opacity:1;stroke:none;stroke-width:1px;stroke-linecap:butt;stroke-linejoin:miter;stroke-opacity:1"
     d="m 537,443 7,7 -7,7 h 18 l -7,-7 7,-7 z"
     id="use259"
     inkscape:label="Divider"
     sodipodi:nodetypes="ccccccc"
     inkscape:tile-x0="361"
     inkscape:tile-y0="543" /><path
     style="fill:#000000;fill-opacity:1;stroke:none;stroke-width:1px;stroke-linecap:butt;stroke-linejoin:miter;stroke-opacity:1"
     d="m 573,443 7,7 -7,7 h 18 l -7,-7 7,-7 z"
     id="use260"
     inkscape:label="Divider"
     sodipodi:nodetypes="ccccccc"
     inkscape:tile-x0="361"
     inkscape:tile-y0="543" /><path
     style="fill:#000000;fill-opacity:1;stroke:none;stroke-width:1px;stroke-linecap:butt;stroke-linejoin:miter;stroke-opacity:1"
     d="m 609,443 7,7 -7,7 h 18 l -7,-7 7,-7 z"
     id="use261"
     inkscape:label="Divider"
     sodipodi:nodetypes="ccccccc"
     inkscape:tile-x0="361"
     inkscape:tile-y0="543" /><path
     style="fill:#000000;fill-opacity:1;stroke:none;stroke-width:1px;stroke-linecap:butt;stroke-linejoin:miter;stroke-opacity:1"
     d="m 645,443 7,7 -7,7 h 18 l -7,-7 7,-7 z"
     id="use262"
     inkscape:label="Divider"
     sodipodi:nodetypes="ccccccc"
     inkscape:tile-x0="361"
     inkscape:tile-y0="543" /><path
     style="fill:#000000;fill-opacity:1;stroke:none;stroke-width:1px;stroke-linecap:butt;stroke-linejoin:miter;stroke-opacity:1"
     d="m 681,443 7,7 -7,7 h 18 l -7,-7 7,-7 z"
     id="use263"
     inkscape:label="Divider"
     sodipodi:nodetypes="ccccccc"
     inkscape:tile-x0="361"
     inkscape:tile-y0="543" /><path
     style="fill:#000000;fill-opacity:1;stroke:none;stroke-width:1px;stroke-linecap:butt;stroke-linejoin:miter;stroke-opacity:1"
     d="m 465,443 7,7 -7,7 h 18 l -7,-7 7,-7 z"
     id="use293"
     inkscape:label="Divider"
     sodipodi:nodetypes="ccccccc"
     inkscape:tile-x0="361"
     inkscape:tile-y0="543" /><path
     style="fill:#000000;fill-opacity:1;stroke:none;stroke-width:1px;stroke-linecap:butt;stroke-linejoin:miter;stroke-opacity:1"
     d="m 429,443 7,7 -7,7 h 18 l -7,-7 7,-7 z"
     id="use295"
     inkscape:label="Divider"
     sodipodi:nodetypes="ccccccc"
     inkscape:tile-x0="361"
     inkscape:tile-y0="543" /><path
     style="fill:#000000;fill-opacity:1;stroke:none;stroke-width:1px;stroke-linecap:butt;stroke-linejoin:miter;stroke-opacity:1"
     d="m 393,443 7,7 -7,7 h 18 l -7,-7 7,-7 z"
     id="use296"
     inkscape:label="Divider"
     sodipodi:nodetypes="ccccccc"
     inkscape:tile-x0="361"
     inkscape:tile-y0="543" /><path
     style="fill:#000000;fill-opacity:1;stroke:none;stroke-width:1px;stroke-linecap:butt;stroke-linejoin:miter;stroke-opacity:1"
     d="m 355,443 7,7 -7,7 h 18 l -7,-7 7,-7 z"
     id="use304"
     inkscape:label="Divider"
     sodipodi:nodetypes="ccccccc"
     inkscape:tile-x0="361"
     inkscape:tile-y0="543" /><path
     style="fill:#000000;fill-opacity:1;stroke:none;stroke-width:1px;stroke-linecap:butt;stroke-linejoin:miter;stroke-opacity:1"
     d="m 317,443 7,7 -7,7 h 18 l -7,-7 7,-7 z"
     id="use305"
     inkscape:label="Divider"
     sodipodi:nodetypes="ccccccc"
     inkscape:tile-x0="361"
     inkscape:tile-y0="543" /><path
     style="fill:#000000;fill-opacity:1;stroke:none;stroke-width:1px;stroke-linecap:butt;stroke-linejoin:miter;stroke-opacity:1"
     d="m 281,443 7,7 -7,7 h 18 l -7,-7 7,-7 z"
     id="use306"
     inkscape:label="Divider"
     sodipodi:nodetypes="ccccccc"
     inkscape:tile-x0="361"
     inkscape:tile-y0="543" /><path
     style="fill:#000000;fill-opacity:1;stroke:none;stroke-width:1px;stroke-linecap:butt;stroke-linejoin:miter;stroke-opacity:1"
     d="m 245,443 7,7 -7,7 h 18 l -7,-7 7,-7 z"
     id="use307"
     inkscape:label="Divider"
     sodipodi:nodetypes="ccccccc"
     inkscape:tile-x0="361"
     inkscape:tile-y0="543" /><path
     style="fill:#000000;fill-opacity:1;stroke:none;stroke-width:1px;stroke-linecap:butt;stroke-linejoin:miter;stroke-opacity:1"
     d="m 209,443 7,7 -7,7 h 18 l -7,-7 7,-7 z"
     id="use308"
     inkscape:label="Divider"
     sodipodi:nodetypes="ccccccc"
     inkscape:tile-x0="361"
     inkscape:tile-y0="543" /><path
     style="fill:#000000;fill-opacity:1;stroke:none;stroke-width:1px;stroke-linecap:butt;stroke-linejoin:miter;stroke-opacity:1"
     d="m 173,443 7,7 -7,7 h 18 l -7,-7 7,-7 z"
     id="use309"
     inkscape:label="Divider"
     sodipodi:nodetypes="ccccccc"
     inkscape:tile-x0="361"
     inkscape:tile-y0="543" /><path
     style="fill:#000000;fill-opacity:1;stroke:none;stroke-width:1px;stroke-linecap:butt;stroke-linejoin:miter;stroke-opacity:1"
     d="m 137,443 7,7 -7,7 h 18 l -7,-7 7,-7 z"
     id="use310"
     inkscape:label="Divider"
     sodipodi:nodetypes="ccccccc"
     inkscape:tile-x0="361"
     inkscape:tile-y0="543" /><path
     style="fill:#000000;fill-opacity:1;stroke:none;stroke-width:1px;stroke-linecap:butt;stroke-linejoin:miter;stroke-opacity:1"
     d="m 101,443 7,7 -7,7 h 18 l -7,-7 7,-7 z"
     id="use311"
     inkscape:label="Divider"
     sodipodi:nodetypes="ccccccc"
     inkscape:tile-x0="361"
     inkscape:tile-y0="543" /></g></svg>
