<svg xmlns="http://www.w3.org/2000/svg" xmlns:svg="http://www.w3.org/2000/svg" id="svg2" width="728" height="20" version="1.1" xml:space="preserve"><g id="g420" style="opacity:.45" transform="translate(0,-420)"><path style="fill:#000;fill-opacity:1;stroke:none;stroke-width:1px;stroke-linecap:butt;stroke-linejoin:miter;stroke-opacity:1" id="use247" d="m 173,423 7,7 -7,7 h 18 l -7,-7 7,-7 z"/><path style="fill:#000;fill-opacity:1;stroke:none;stroke-width:1px;stroke-linecap:butt;stroke-linejoin:miter;stroke-opacity:1" id="use248" d="m 113,423 7,7 -7,7 h 18 l -7,-7 7,-7 z"/><path style="fill:#000;fill-opacity:1;stroke:none;stroke-width:1px;stroke-linecap:butt;stroke-linejoin:miter;stroke-opacity:1" id="use254" d="m 53,423 7,7 -7,7 h 18 l -7,-7 7,-7 z"/><path style="fill:#000;fill-opacity:1;stroke:none;stroke-width:1px;stroke-linecap:butt;stroke-linejoin:miter;stroke-opacity:1" id="use255" d="m 233,423 7,7 -7,7 h 18 l -7,-7 7,-7 z"/><path style="fill:#000;fill-opacity:1;stroke:none;stroke-width:1px;stroke-linecap:butt;stroke-linejoin:miter;stroke-opacity:1" id="use256" d="m 293,423 7,7 -7,7 h 18 l -7,-7 7,-7 z"/><path style="fill:#000;fill-opacity:1;stroke:none;stroke-width:1px;stroke-linecap:butt;stroke-linejoin:miter;stroke-opacity:1" id="use257" d="m 355,423 7,7 -7,7 h 18 l -7,-7 7,-7 z"/><path style="fill:#000;fill-opacity:1;stroke:none;stroke-width:1px;stroke-linecap:butt;stroke-linejoin:miter;stroke-opacity:1" id="use264" d="m 537,423 7,7 -7,7 h 18 l -7,-7 7,-7 z"/><path style="fill:#000;fill-opacity:1;stroke:none;stroke-width:1px;stroke-linecap:butt;stroke-linejoin:miter;stroke-opacity:1" id="use265" d="m 597,423 7,7 -7,7 h 18 l -7,-7 7,-7 z"/><path style="fill:#000;fill-opacity:1;stroke:none;stroke-width:1px;stroke-linecap:butt;stroke-linejoin:miter;stroke-opacity:1" id="use286" d="m 477,423 7,7 -7,7 h 18 l -7,-7 7,-7 z"/><path style="fill:#000;fill-opacity:1;stroke:none;stroke-width:1px;stroke-linecap:butt;stroke-linejoin:miter;stroke-opacity:1" id="use287" d="m 417,423 7,7 -7,7 h 18 l -7,-7 7,-7 z"/><path style="fill:#000;fill-opacity:1;stroke:none;stroke-width:1px;stroke-linecap:butt;stroke-linejoin:miter;stroke-opacity:1" id="use266" d="m 657,423 7,7 -7,7 h 18 l -7,-7 7,-7 z"/></g></svg>