<svg xmlns="http://www.w3.org/2000/svg" xmlns:svg="http://www.w3.org/2000/svg" id="svg2" width="728" height="20" version="1.1" xml:space="preserve"><g id="g416" style="opacity:.45" transform="translate(0,-380)"><path style="fill:#000;fill-opacity:1;stroke:none;stroke-width:1px;stroke-linecap:butt;stroke-linejoin:miter;stroke-opacity:1" id="use241" d="m 355,383 7,7 -7,7 h 18 l -7,-7 7,-7 z"/><path style="fill:#000;fill-opacity:1;stroke:none;stroke-width:1px;stroke-linecap:butt;stroke-linejoin:miter;stroke-opacity:1" id="use270" d="m 501,383 7,7 -7,7 h 18 l -7,-7 7,-7 z"/><path style="fill:#000;fill-opacity:1;stroke:none;stroke-width:1px;stroke-linecap:butt;stroke-linejoin:miter;stroke-opacity:1" id="use288" d="m 65,383 7,7 -7,7 h 18 l -7,-7 7,-7 z"/><path style="fill:#000;fill-opacity:1;stroke:none;stroke-width:1px;stroke-linecap:butt;stroke-linejoin:miter;stroke-opacity:1" id="use291" d="m 281,383 7,7 -7,7 h 18 l -7,-7 7,-7 z"/><path style="fill:#000;fill-opacity:1;stroke:none;stroke-width:1px;stroke-linecap:butt;stroke-linejoin:miter;stroke-opacity:1" id="use292" d="m 137,383 7,7 -7,7 h 18 l -7,-7 7,-7 z"/><path style="fill:#000;fill-opacity:1;stroke:none;stroke-width:1px;stroke-linecap:butt;stroke-linejoin:miter;stroke-opacity:1" id="use294" d="m 429,383 7,7 -7,7 h 18 l -7,-7 7,-7 z"/><path style="fill:#000;fill-opacity:1;stroke:none;stroke-width:1px;stroke-linecap:butt;stroke-linejoin:miter;stroke-opacity:1" id="use302" d="m 573,383 7,7 -7,7 h 18 l -7,-7 7,-7 z"/><path style="fill:#000;fill-opacity:1;stroke:none;stroke-width:1px;stroke-linecap:butt;stroke-linejoin:miter;stroke-opacity:1" id="use303" d="m 645,383 7,7 -7,7 h 18 l -7,-7 7,-7 z"/><path style="fill:#000;fill-opacity:1;stroke:none;stroke-width:1px;stroke-linecap:butt;stroke-linejoin:miter;stroke-opacity:1" id="use312" d="m 209,383 7,7 -7,7 h 18 l -7,-7 7,-7 z"/></g></svg>