<svg xmlns="http://www.w3.org/2000/svg" xmlns:svg="http://www.w3.org/2000/svg" xmlns:xlink="http://www.w3.org/1999/xlink" id="svg2" width="80" height="80" version="1.1" xml:space="preserve"><defs id="defs6"><linearGradient id="linearGradient20-1" x1="40" x2="40" y1="246" y2="314" gradientUnits="userSpaceOnUse" xlink:href="#linearGradient19"/><linearGradient id="linearGradient19"><stop style="stop-color:#3a3f63;stop-opacity:1" id="stop19" offset="0"/><stop style="stop-color:#423a63;stop-opacity:1" id="stop20" offset="1"/></linearGradient></defs><g id="g6-1-2-0" transform="translate(0,-240)" style="display:inline"><rect style="display:inline;fill:#282a36;fill-rule:evenodd;stroke-width:2;stroke-linecap:square;stroke-linejoin:round;stroke-miterlimit:0" id="rect5-8-3-9" width="80" height="80" x="0" y="240" rx="18" ry="18"/><rect style="display:inline;fill:url(#linearGradient20-1);fill-rule:evenodd;stroke-width:2;stroke-linecap:square;stroke-linejoin:round;stroke-miterlimit:0" id="rect6-7-7-3" width="68" height="68" x="6" y="246" rx="14" ry="14"/></g><g id="g3" style="fill:#f8f8f2"><path id="path28-6" style="display:inline;fill:#f8f8f2;fill-opacity:1;fill-rule:evenodd;stroke-width:.305003;stroke-linecap:square;stroke-linejoin:round;stroke-miterlimit:0" d="M 30,16 16,30 V 50 L 21.998047,56.011719 22,68 h 4 L 38,56 H 50 L 64,42 V 22 l -6,-6 z m -2,9 5,-5 h 9 V 32 L 38,28 26,40 v 4 l 5,5 -3,3 -6,-6 V 38 L 35,25 Z m 24,-5 6,6 v 8 L 45,47 h 7 l -5,5 H 38 V 40 l 4,4 12,-12 v -4 l -5,-5 z"/></g></svg>