<svg xmlns="http://www.w3.org/2000/svg" xmlns:svg="http://www.w3.org/2000/svg" id="svg2" width="80" height="80" version="1.1" xml:space="preserve"><g id="g2" style="display:inline"><rect style="display:inline;fill:#1e1f29;fill-opacity:.699393;fill-rule:evenodd;stroke-width:2;stroke-linecap:square;stroke-linejoin:round;stroke-miterlimit:0" id="rect4" width="68" height="68" x="6" y="6" rx="16" ry="16"/></g><g id="g3"><path id="path28" style="display:inline;fill:#a8a8a8;fill-opacity:1;fill-rule:evenodd;stroke-width:.305003;stroke-linecap:square;stroke-linejoin:round;stroke-miterlimit:0" d="M 30,16 16,30 V 50 L 21.998047,56.011719 22,68 h 4 L 38,56 H 50 L 64,42 V 22 l -6,-6 z m -2,9 5,-5 h 9 V 32 L 38,28 26,40 v 4 l 5,5 -3,3 -6,-6 V 38 L 35,25 Z m 24,-5 6,6 v 8 L 45,47 h 7 l -5,5 H 38 V 40 l 4,4 12,-12 v -4 l -5,-5 z"/></g></svg>