<?xml version="1.0" encoding="UTF-8" standalone="no"?>
<!-- Created with Inkscape (http://www.inkscape.org/) -->

<svg
   version="1.1"
   id="svg2"
   width="80"
   height="80"
   xml:space="preserve"
   inkscape:export-filename="base.svg"
   inkscape:export-xdpi="96"
   inkscape:export-ydpi="96"
   inkscape:version="1.3.2 (091e20ef0f, 2023-11-25)"
   sodipodi:docname="config_reload_button_disabled.svg"
   xmlns:inkscape="http://www.inkscape.org/namespaces/inkscape"
   xmlns:sodipodi="http://sodipodi.sourceforge.net/DTD/sodipodi-0.dtd"
   xmlns="http://www.w3.org/2000/svg"
   xmlns:svg="http://www.w3.org/2000/svg"><defs
   id="defs6" /><sodipodi:namedview
   id="namedview4"
   pagecolor="#505050"
   bordercolor="#eeeeee"
   borderopacity="1"
   inkscape:showpageshadow="0"
   inkscape:pageopacity="0"
   inkscape:pagecheckerboard="0"
   inkscape:deskcolor="#505050"
   showgrid="true"
   inkscape:current-layer="g3"
   inkscape:zoom="10.783378"
   inkscape:cx="57.635001"
   inkscape:cy="22.905624"
   inkscape:window-width="3463"
   inkscape:window-height="1380"
   inkscape:window-x="81"
   inkscape:window-y="30"
   inkscape:window-maximized="0"><inkscape:grid
     type="xygrid"
     id="Main Grid"
     originx="0"
     originy="0"
     spacingy="1"
     spacingx="1"
     units="px"
     visible="true"
     empspacing="4"
     snapvisiblegridlinesonly="true" /></sodipodi:namedview>
    
<g
   id="g2"
   inkscape:label="Button Disabled"
   style="display:inline"><rect
     style="display:inline;fill:#1e1f29;fill-opacity:0.699393;fill-rule:evenodd;stroke-width:2;stroke-linecap:square;stroke-linejoin:round;stroke-miterlimit:0"
     id="rect4"
     width="68"
     height="68"
     x="6"
     y="6"
     rx="16"
     ry="16"
     inkscape:label="Fill" /></g><g
   id="g3"
   inkscape:label="Text Bubble Reload Icon"><path
     id="path28"
     style="display:inline;fill:#a8a8a8;fill-opacity:1;fill-rule:evenodd;stroke-width:0.305003;stroke-linecap:square;stroke-linejoin:round;stroke-miterlimit:0"
     inkscape:label="Bubble Reload"
     d="M 30,16 16,30 V 50 L 22,56 22,68 h 4 L 38,56 H 50 L 64,42 V 22 l -6,-6 z m -2,9 5,-5 h 9 V 32 L 38,28 26,40 v 4 l 5,5 -3,3 -6,-6 V 38 L 35,25 Z m 24,-5 6,6 v 8 L 45,47 h 7 l -5,5 H 38 V 40 l 4,4 12,-12 v -4 l -5,-5 z"
     sodipodi:nodetypes="cccccccccccccccccccccccccccccccccccccc" /></g></svg>
