<svg xmlns="http://www.w3.org/2000/svg" xmlns:svg="http://www.w3.org/2000/svg" xmlns:xlink="http://www.w3.org/1999/xlink" id="svg2" width="80" height="80" version="1.1" xml:space="preserve"><defs id="defs6"><linearGradient id="linearGradient11-6-9-6" x1="40" x2="40" y1="240" y2="320" gradientUnits="userSpaceOnUse" xlink:href="#linearGradient6"/><linearGradient id="linearGradient6"><stop style="stop-color:#bd93f9;stop-opacity:1" id="stop8-2" offset="0"/><stop style="stop-color:#f281d1;stop-opacity:1" id="stop7-1" offset="1"/></linearGradient><linearGradient id="linearGradient20-1" x1="40" x2="40" y1="246" y2="314" gradientUnits="userSpaceOnUse" xlink:href="#linearGradient19"/><linearGradient id="linearGradient19"><stop style="stop-color:#3a3f63;stop-opacity:1" id="stop19" offset="0"/><stop style="stop-color:#423a63;stop-opacity:1" id="stop20" offset="1"/></linearGradient></defs><g id="g6-1-2-0" transform="translate(0,-240)" style="display:inline"><rect style="display:inline;fill:url(#linearGradient11-6-9-6);fill-rule:evenodd;stroke-width:2;stroke-linecap:square;stroke-linejoin:round;stroke-miterlimit:0" id="rect5-8-3-9" width="80" height="80" x="0" y="240" rx="18" ry="18"/><rect style="display:inline;fill:url(#linearGradient20-1);fill-rule:evenodd;stroke-width:2;stroke-linecap:square;stroke-linejoin:round;stroke-miterlimit:0" id="rect6-7-7-3" width="68" height="68" x="6" y="246" rx="14" ry="14"/></g><g id="g1"><path id="path1-3-7" style="display:inline;fill:#f8f8f2;fill-opacity:1;fill-rule:evenodd;stroke-width:.305003;stroke-linecap:square;stroke-linejoin:round;stroke-miterlimit:0" d="M 21.99995,56 16.0016,49.98789 16,30 30,16 l 28.00165,-0.01211 6,6 L 63.99995,42 l -14,14 -11.99837,-0.0121 -12,12 h -4 z M 56.00779,39.98734 H 23.98247 l 0.0191,6.00055 L 49.99995,46 Z m -0.006,-13.99945 -25.994,-5.5e-4 -6,6 32.00022,-0.0063 z"/></g></svg>