<svg xmlns="http://www.w3.org/2000/svg" xmlns:svg="http://www.w3.org/2000/svg" xmlns:xlink="http://www.w3.org/1999/xlink" id="svg2" width="56" height="56" version="1.1" viewBox="0 0 56 56" xml:space="preserve"><defs id="defs6"><linearGradient id="linearGradient2" x1="542" x2="542" y1="268" y2="320" gradientTransform="translate(-512,-268)" gradientUnits="userSpaceOnUse" xlink:href="#linearGradient1"/><linearGradient id="linearGradient1"><stop style="stop-color:#f55;stop-opacity:1" id="stop1" offset="0"/><stop style="stop-color:#ffab6c;stop-opacity:1" id="stop2" offset="1"/></linearGradient></defs><path style="display:inline;fill:url(#linearGradient2);fill-opacity:1;stroke:none;stroke-width:1px;stroke-linecap:butt;stroke-linejoin:miter;stroke-opacity:1" id="path2308-2-3-7" d="m 32,0 -8,8 v 4 l 4,4 v 8 L 20,16 V 12 L 12,4 v 12 l 4,4 v 8 l -4,4 v 12 l 8,8 h 6 v -2 l -6,-6 v -8 l 4,-4 v 8 l 4,4 v -8 l 4,-4 v -4 l 4,-4 v 12 l -2,2 v 6 l 8,-8 V 37.21149 44 l -4,4 v 4 h 6 l 8,-8 V 32 L 48,28 V 18 L 42,12 V 24 L 32,14 V 8 l 8,-8 z"/></svg>