<svg xmlns="http://www.w3.org/2000/svg" xmlns:svg="http://www.w3.org/2000/svg" id="svg2" width="72" height="72" version="1.1" xml:space="preserve"><g id="g3" transform="translate(-144,-72)"><path style="fill:#282a36;stroke:none;stroke-width:1px;stroke-linecap:butt;stroke-linejoin:miter;stroke-opacity:1" id="path35" d="m 156,84 -4,4 v 48 h 52 l 4,-4 h -52 z"/><path style="fill:#282a36;fill-opacity:1;stroke:none;stroke-width:1px;stroke-linecap:butt;stroke-linejoin:miter;stroke-opacity:1" id="path36" d="m 160,88 v 4 h 40 v 36 h 4 V 88 Z"/><path id="rect20" style="fill:#3a3f63;fill-opacity:1;stroke:none;stroke-width:2;stroke-linecap:square;stroke-linejoin:round;stroke-miterlimit:0" d="m 156,84 v 48 h 52 V 84 Z m 4,4 h 44 v 40 h -44 z"/><g id="g4"><rect style="fill:#f8f8f2;fill-opacity:1;stroke:none;stroke-width:2;stroke-linecap:square;stroke-linejoin:round;stroke-miterlimit:0" id="rect36" width="16" height="12" x="160" y="96"/><rect style="fill:#f8f8f2;fill-opacity:1;stroke:none;stroke-width:2;stroke-linecap:square;stroke-linejoin:round;stroke-miterlimit:0" id="rect37" width="12" height="12" x="160" y="112"/><rect style="fill:#f8f8f2;fill-opacity:1;stroke:none;stroke-width:2;stroke-linecap:square;stroke-linejoin:round;stroke-miterlimit:0" id="rect38" width="4" height="12" x="192" y="112"/><rect style="fill:#f8f8f2;fill-opacity:1;stroke:none;stroke-width:2;stroke-linecap:square;stroke-linejoin:round;stroke-miterlimit:0" id="rect39" width="4" height="12" x="186" y="96"/><rect style="fill:#f8f8f2;fill-opacity:1;stroke:none;stroke-width:2;stroke-linecap:square;stroke-linejoin:round;stroke-miterlimit:0" id="rect40" width="4" height="12" x="196" y="96"/></g><g id="g6"><path style="fill:#a8a8a8;stroke:none;stroke-width:1px;stroke-linecap:butt;stroke-linejoin:miter;stroke-opacity:1" id="path40" d="m 176,108 -4,4 h -12 v -4 z"/><path style="fill:#a8a8a8;stroke:none;stroke-width:1px;stroke-linecap:butt;stroke-linejoin:miter;stroke-opacity:1" id="path41" d="m 172,124 -4,4 h -8 v -4 z"/><path style="fill:#a8a8a8;stroke:none;stroke-width:1px;stroke-linecap:butt;stroke-linejoin:miter;stroke-opacity:1" id="path42" d="m 200,108 -4,4 h -4 v -12 l 4,-4 v 12 z"/><path style="fill:#a8a8a8;stroke:none;stroke-width:1px;stroke-linecap:butt;stroke-linejoin:miter;stroke-opacity:1" id="path42-1" d="m 190,108 -4,4 h -4 v -12 l 4,-4 v 12 z"/><path style="fill:#a8a8a8;stroke:none;stroke-width:1px;stroke-linecap:butt;stroke-linejoin:miter;stroke-opacity:1" id="path42-5" d="m 196,124 -4,4 h -4 v -12 l 4,-4 v 12 z"/></g><g id="g7"><path style="fill:#3a3f63;stroke:none;stroke-width:1px;stroke-linecap:butt;stroke-linejoin:miter;stroke-opacity:1" id="path43" d="m 172,118 h 18 v 4 h -18 z"/><path style="fill:#3a3f63;stroke:none;stroke-width:1px;stroke-linecap:butt;stroke-linejoin:miter;stroke-opacity:1" id="path43-8" d="m 176,102 h 8 v 4 h -8 z"/><path style="fill:#3a3f63;stroke:none;stroke-width:1px;stroke-linecap:butt;stroke-linejoin:miter;stroke-opacity:1" id="path43-8-8" d="m 190,102 h 4 v 4 h -4 z"/><path style="fill:#3a3f63;stroke:none;stroke-width:1px;stroke-linecap:butt;stroke-linejoin:miter;stroke-opacity:1" id="path43-8-8-0" d="m 196,118 h 6 v 4 h -6 z"/></g><g id="g8"><path style="fill:#282a36;stroke:none;stroke-width:1px;stroke-linecap:butt;stroke-linejoin:miter;stroke-opacity:1" id="path44" d="m 190,122 -2,2 h -16 v -2 z"/><path style="fill:#282a36;stroke:none;stroke-width:1px;stroke-linecap:butt;stroke-linejoin:miter;stroke-opacity:1" id="path44-0" d="m 184,106 -2,2 h -6 v -2 z"/><path style="fill:#282a36;stroke:none;stroke-width:1px;stroke-linecap:butt;stroke-linejoin:miter;stroke-opacity:1" id="path44-0-4" d="m 194,106 -2,2 h -2 v -2 z"/><path style="fill:#282a36;stroke:none;stroke-width:1px;stroke-linecap:butt;stroke-linejoin:miter;stroke-opacity:1" id="path44-0-4-6" d="m 202,122 -2,2 h -4 v -2 z"/></g></g></svg>