<svg xmlns="http://www.w3.org/2000/svg" xmlns:svg="http://www.w3.org/2000/svg" id="svg2" width="72" height="72" version="1.1" xml:space="preserve"><g id="g9" transform="translate(-71.999997,-73.999997)"><path style="fill:#282a36;fill-opacity:1;stroke:none;stroke-width:1px;stroke-linecap:butt;stroke-linejoin:miter;stroke-opacity:1" id="path1-77" d="m 20.940301,14.686568 v 8.328358 L 32.970152,35.044777 45.000003,23.014926 V 16.537314 L 33.895525,27.641792 Z" transform="matrix(2.1612903,0,0,2.1612903,38.74193,68.258063)"/><rect style="fill:#3a3f63;fill-opacity:1;stroke-width:2;stroke-linecap:square;stroke-linejoin:round;stroke-miterlimit:0" id="rect1-1" width="18.321" height="15.704" x="25.192" y="-20.126" rx="0" ry="0" transform="matrix(1.528263,1.528263,-1.528263,1.528263,38.74193,68.258063)"/><g id="g10"><rect style="fill:#282a36;fill-opacity:1;stroke-width:2;stroke-linecap:square;stroke-linejoin:round;stroke-miterlimit:0" id="rect1-8" width="12.728" height="9.899" x="133.643" y="-19.092" rx="0" ry="0" transform="rotate(45)"/><rect style="fill:#282a36;fill-opacity:1;stroke-width:2;stroke-linecap:square;stroke-linejoin:round;stroke-miterlimit:0" id="rect1-8-3" width="12.728" height="9.899" x="152.028" y="-19.092" rx="0" ry="0" transform="rotate(45)"/><rect style="fill:#282a36;fill-opacity:1;stroke-width:2;stroke-linecap:square;stroke-linejoin:round;stroke-miterlimit:0" id="rect1-8-8" width="12.728" height="9.899" x="133.643" y="-3.536" rx="0" ry="0" transform="rotate(45)"/><rect style="fill:#282a36;fill-opacity:1;stroke-width:2;stroke-linecap:square;stroke-linejoin:round;stroke-miterlimit:0" id="rect1-8-6" width="12.728" height="9.899" x="152.028" y="-3.536" rx="0" ry="0" transform="rotate(45)"/></g></g></svg>