<svg xmlns="http://www.w3.org/2000/svg" xmlns:svg="http://www.w3.org/2000/svg" xmlns:xlink="http://www.w3.org/1999/xlink" id="svg2" width="72" height="72" version="1.1" xml:space="preserve"><defs id="defs6"><linearGradient id="linearGradient5-9" x1="22.627" x2="39.598" y1="-16.971" y2="0" gradientUnits="userSpaceOnUse" xlink:href="#linearGradient11"/><linearGradient id="linearGradient11"><stop style="stop-color:#50fa7b;stop-opacity:1" id="stop11" offset="0"/><stop style="stop-color:#68e34f;stop-opacity:1" id="stop12" offset="1"/></linearGradient><linearGradient id="linearGradient6-6" x1="28" x2="28" y1="15" y2="35" gradientUnits="userSpaceOnUse" xlink:href="#linearGradient7"/><linearGradient id="linearGradient7"><stop style="stop-color:#826137;stop-opacity:1" id="stop7" offset="0"/><stop style="stop-color:#764c28;stop-opacity:1" id="stop8" offset="1"/></linearGradient></defs><g id="g16" transform="translate(-356,-75)"><g id="g2-4-6" transform="translate(369,78.000001)" style="display:inline"><rect style="fill:url(#linearGradient5-9);stroke-width:2;stroke-linecap:square;stroke-linejoin:round;stroke-miterlimit:0" id="rect1-7-6" width="18.385" height="15.556" x="25.456" y="-19.799" rx="0" ry="0" transform="rotate(45)"/><path style="fill:url(#linearGradient6-6);fill-opacity:1;stroke:none;stroke-width:1px;stroke-linecap:butt;stroke-linejoin:miter;stroke-opacity:1" id="path1-8-4" d="m 21,15 v 8 L 33,35 45,23 V 17 L 34.000001,27.999999 Z"/></g><g id="g13"><path style="fill:#3a3f63;stroke:none;stroke-width:1px;stroke-linecap:butt;stroke-linejoin:miter;stroke-opacity:1" id="path13" d="m 364,124 20,-20 12,12 -20,20 z"/><path style="fill:#2e3242;stroke:none;stroke-width:1px;stroke-linecap:butt;stroke-linejoin:miter;stroke-opacity:1" id="path14" d="m 364,124 v 8 l 11,11 21,-21 v -6 l -20,20 z"/><path style="fill:#6272a4;stroke:none;stroke-width:1px;stroke-linecap:butt;stroke-linejoin:miter;stroke-opacity:1" id="path15" d="m 384,104 6,-6 12,12 -6,6 z"/><path style="fill:#44475a;stroke:none;stroke-width:1px;stroke-linecap:butt;stroke-linejoin:miter;stroke-opacity:1" id="path16" d="m 402,110 v 6 l -6,6 v -6 z"/></g></g></svg>