<svg xmlns="http://www.w3.org/2000/svg" xmlns:svg="http://www.w3.org/2000/svg" id="svg2" width="1024" height="1024" version="1.1" xml:space="preserve"><g id="g47" transform="translate(-345,-510)" style="display:inline"><g id="g41" transform="translate(-260,-8)"><path style="color:#000;display:inline;fill:#282a36;-inkscape-stroke:none" id="path40" d="m 619,526 -5,5 v 110 l 5,5 h 917 l 5,-5 V 531 l -5,-5 z"/><path style="color:#000;display:inline;fill:#1e1f29;-inkscape-stroke:none" id="path41" d="m 618,524 -6,6 v 112 l 6,6 h 919 l 6,-6 V 530 l -6,-6 z m 2,4 h 915 l 4,4 v 108 l -4,4 H 620 l -4,-4 V 532 Z"/></g></g><g id="g2" style="display:inline"><rect style="fill:#f8f8f2;fill-rule:evenodd;stroke-width:100;stroke-linecap:square;stroke-linejoin:round;stroke-miterlimit:0" id="rect2-5" width="16" height="16" x="960" y="16" rx="0" ry="0"/><rect style="fill:#b4b4ab;fill-rule:evenodd;stroke-width:100;stroke-linecap:square;stroke-linejoin:round;stroke-miterlimit:0" id="rect2-5-3-5" width="16" height="16" x="944" y="16" rx="0" ry="0"/><rect style="fill:#b4b4ab;fill-rule:evenodd;stroke-width:100;stroke-linecap:square;stroke-linejoin:round;stroke-miterlimit:0" id="rect2-5-3" width="16" height="16" x="960" y="0" rx="0" ry="0"/><rect style="fill:#f8f8f2;fill-rule:evenodd;stroke-width:100;stroke-linecap:square;stroke-linejoin:round;stroke-miterlimit:0" id="rect2" width="16" height="16" x="944" y="0" rx="0" ry="0"/></g></svg>