<svg xmlns="http://www.w3.org/2000/svg" xmlns:svg="http://www.w3.org/2000/svg" id="svg2" width="48" height="60" version="1.1" viewBox="0 0 48 60" xml:space="preserve"><g id="g1533" transform="translate(-1273.8228,-288.35388)"><path d="m 490.64407,247.59322 v 0 c 10,0 20,11 20,24 v 8 c 0,13 -10,24 -20,24 v 0 c -10,0 -20,-11 -20,-24 v -8 c 0,-13 10,-24 20,-24 z" style="display:inline;fill:#17181c;fill-opacity:1;stroke:#000;stroke-width:0;stroke-linecap:butt;stroke-linejoin:miter;stroke-miterlimit:4;stroke-dasharray:none;stroke-opacity:1" id="path1119-5" transform="translate(805.17868,42.76066)"/><path d="m 1295.8228,290.35388 v 0 c 10,0 20,12.006 20,24 v 8 c 0,11.994 -10,24 -20,24 v 0 c -10,0 -20,-12.02694 -20,-24 v -8 c 0,-11.97306 10,-24 20,-24 z" style="display:inline;fill:#7c60a3;fill-opacity:1;stroke:#000;stroke-width:0;stroke-linecap:butt;stroke-linejoin:miter;stroke-miterlimit:4;stroke-dasharray:none;stroke-opacity:1" id="path1119-5-6"/><path d="m 490.64407,253.59322 c 7,0 14,9 14,18 v 8 c 0,9 -7,18 -14,18 -7,0 -14,-9 -14,-18 v -8 c 0,-9 7,-18 14,-18 z" style="display:inline;fill:#17181c;fill-opacity:1;stroke:#000;stroke-width:0;stroke-linecap:butt;stroke-linejoin:miter;stroke-miterlimit:4;stroke-dasharray:none;stroke-opacity:1" id="path485" transform="translate(805.17868,42.76066)"/></g></svg>