<?xml version="1.0" encoding="UTF-8" standalone="no"?>
<!-- Created with Inkscape (http://www.inkscape.org/) -->

<svg
   version="1.1"
   id="svg2"
   width="48"
   height="60"
   viewBox="0 0 48 60"
   sodipodi:docname="scroller.svg"
   inkscape:version="1.3 (0e150ed6c4, 2023-07-21)"
   inkscape:export-filename="scroller.png"
   inkscape:export-xdpi="96"
   inkscape:export-ydpi="96"
   xml:space="preserve"
   xmlns:inkscape="http://www.inkscape.org/namespaces/inkscape"
   xmlns:sodipodi="http://sodipodi.sourceforge.net/DTD/sodipodi-0.dtd"
   xmlns="http://www.w3.org/2000/svg"
   xmlns:svg="http://www.w3.org/2000/svg"><defs
     id="defs6" /><sodipodi:namedview
     id="namedview4"
     pagecolor="#505050"
     bordercolor="#eeeeee"
     borderopacity="1"
     inkscape:showpageshadow="0"
     inkscape:pageopacity="0"
     inkscape:pagecheckerboard="0"
     inkscape:deskcolor="#505050"
     showgrid="true"
     inkscape:zoom="13.744388"
     inkscape:cx="32.049444"
     inkscape:cy="25.501317"
     inkscape:window-width="3490"
     inkscape:window-height="1440"
     inkscape:window-x="0"
     inkscape:window-y="0"
     inkscape:window-maximized="0"
     inkscape:current-layer="svg2"><inkscape:grid
       snapvisiblegridlinesonly="true"
       type="xygrid"
       id="grid302"
       originx="-4"
       originy="-704"
       spacingy="1"
       spacingx="1"
       units="px"
       visible="true"
       empspacing="4" /></sodipodi:namedview><g
     id="g1533"
     transform="translate(-1273.8228,-288.35388)"
     inkscape:label="Slider"><path
       d="m 490.64407,247.59322 v 0 c 10,0 20,11 20,24 v 8 c 0,13 -10,24 -20,24 v 0 c -10,0 -20,-11 -20,-24 v -8 c 0,-13 10,-24 20,-24 z"
       style="display:inline;fill:#17181c;fill-opacity:1;stroke:#000000;stroke-width:0;stroke-linecap:butt;stroke-linejoin:miter;stroke-miterlimit:4;stroke-dasharray:none;stroke-opacity:1"
       id="path1119-5"
       sodipodi:nodetypes="ccccccccc"
       inkscape:label="Antialias"
       transform="translate(805.17868,42.76066)" /><path
       d="m 1295.8228,290.35388 v 0 c 10,0 20,12.006 20,24 v 8 c 0,11.994 -10,24 -20,24 v 0 c -10,0 -20,-12.02694 -20,-24 v -8 c 0,-11.97306 10,-24 20,-24 z"
       style="display:inline;fill:#7c60a3;fill-opacity:1;stroke:#000000;stroke-width:0;stroke-linecap:butt;stroke-linejoin:miter;stroke-miterlimit:4;stroke-dasharray:none;stroke-opacity:1"
       id="path1119-5-6"
       sodipodi:nodetypes="ccccccccc"
       inkscape:label="Outline" /><path
       d="m 490.64407,253.59322 c 7,0 14,9 14,18 v 8 c 0,9 -7,18 -14,18 -7,0 -14,-9 -14,-18 v -8 c 0,-9 7,-18 14,-18 z"
       style="display:inline;fill:#17181c;fill-opacity:1;stroke:#000000;stroke-width:0;stroke-linecap:butt;stroke-linejoin:miter;stroke-miterlimit:4;stroke-dasharray:none;stroke-opacity:1"
       id="path485"
       sodipodi:nodetypes="ccccccc"
       inkscape:label="Fill"
       transform="translate(805.17868,42.76066)" /></g></svg>
