<?xml version="1.0" encoding="UTF-8" standalone="no"?>
<!-- Created with Inkscape (http://www.inkscape.org/) -->

<svg
   version="1.1"
   id="svg2"
   width="40"
   height="112"
   viewBox="0 0 40 112"
   sodipodi:docname="expired.svg"
   inkscape:version="1.3.2 (091e20ef0f, 2023-11-25)"
   inkscape:export-filename="icons.png"
   inkscape:export-xdpi="96"
   inkscape:export-ydpi="96"
   xml:space="preserve"
   xmlns:inkscape="http://www.inkscape.org/namespaces/inkscape"
   xmlns:sodipodi="http://sodipodi.sourceforge.net/DTD/sodipodi-0.dtd"
   xmlns="http://www.w3.org/2000/svg"
   xmlns:svg="http://www.w3.org/2000/svg"><defs
     id="defs6" /><sodipodi:namedview
     id="namedview4"
     pagecolor="#505050"
     bordercolor="#eeeeee"
     borderopacity="1"
     inkscape:showpageshadow="0"
     inkscape:pageopacity="0"
     inkscape:pagecheckerboard="0"
     inkscape:deskcolor="#505050"
     showgrid="true"
     inkscape:zoom="3.436097"
     inkscape:cx="19.789895"
     inkscape:cy="67.227439"
     inkscape:window-width="3490"
     inkscape:window-height="1440"
     inkscape:window-x="0"
     inkscape:window-y="0"
     inkscape:window-maximized="0"
     inkscape:current-layer="svg2"><inkscape:grid
       snapvisiblegridlinesonly="true"
       type="xygrid"
       id="grid302"
       originx="-4"
       originy="-704"
       spacingy="1"
       spacingx="1"
       units="px"
       visible="true"
       empspacing="4" /><inkscape:page
       x="0"
       y="0"
       width="40"
       height="112"
       id="page1"
       margin="0"
       bleed="0" /></sodipodi:namedview><g
     id="g2"
     inkscape:label="Realms Expired"
     transform="translate(-50)"
     style="fill:#a81b55"><path
       id="rect2-3"
       style="display:inline;fill:#651241;fill-rule:evenodd;stroke-width:2;stroke-linecap:square;stroke-linejoin:round;stroke-miterlimit:0;fill-opacity:1"
       d="M 66,4 C 59.352007,4 54,9.3520066 54,16 v 32 l 4,4 H 90 V 17 L 83,8 Z M 54,68 v 24 l 4,13 7,7 h 13 c 6.647993,0 12,-5.35201 12,-12 V 72 l -4,-4 z"
       sodipodi:nodetypes="csccccccccccssccc"
       inkscape:label="Shadow" /><path
       id="rect2-6"
       style="display:inline;fill:#a81b55;fill-rule:evenodd;stroke-width:2;stroke-linecap:square;stroke-linejoin:round;stroke-miterlimit:0"
       d="M 66,4 C 59.352007,4 54,9.3520066 54,16 V 48 H 86 V 16 C 86,9.3520066 80.647993,4 74,4 Z M 54,68 v 28 c 0,6.64799 5.352007,12 12,12 h 8 c 6.647993,0 12,-5.35201 12,-12 V 68 Z"
       inkscape:label="Fill" /></g></svg>
