<svg xmlns="http://www.w3.org/2000/svg" xmlns:svg="http://www.w3.org/2000/svg" id="svg2" width="40" height="112" version="1.1" viewBox="0 0 40 112" xml:space="preserve"><g id="g2" transform="translate(-50)" style="fill:#a81b55"><path id="rect2-3" style="display:inline;fill:#651241;fill-rule:evenodd;stroke-width:2;stroke-linecap:square;stroke-linejoin:round;stroke-miterlimit:0;fill-opacity:1" d="M 66,4 C 59.352007,4 54,9.3520066 54,16 v 32 l 4,4 H 90 V 17 L 83,8 Z M 54,68 v 24 l 4,13 7,7 h 13 c 6.647993,0 12,-5.35201 12,-12 V 72 l -4,-4 z"/><path id="rect2-6" style="display:inline;fill:#a81b55;fill-rule:evenodd;stroke-width:2;stroke-linecap:square;stroke-linejoin:round;stroke-miterlimit:0" d="M 66,4 C 59.352007,4 54,9.3520066 54,16 V 48 H 86 V 16 C 86,9.3520066 80.647993,4 74,4 Z M 54,68 v 28 c 0,6.64799 5.352007,12 12,12 h 8 c 6.647993,0 12,-5.35201 12,-12 V 68 Z"/></g></svg>