<svg xmlns="http://www.w3.org/2000/svg" xmlns:svg="http://www.w3.org/2000/svg" id="svg2" width="80" height="80" version="1.1" xml:space="preserve"><g id="g66-78-4-5" transform="translate(0,-240)" style="display:inline"><rect style="display:inline;fill:#282a36;fill-rule:evenodd;stroke-width:2;stroke-linecap:square;stroke-linejoin:round;stroke-miterlimit:0" id="rect65-4-9-9" width="80" height="80" x="0" y="240" rx="18" ry="18"/><rect style="display:inline;fill:#3a3f63;fill-rule:evenodd;stroke-width:2;stroke-linecap:square;stroke-linejoin:round;stroke-miterlimit:0" id="rect66-5-5-7" width="68" height="68" x="6" y="246" rx="14" ry="14"/><g id="g7" transform="translate(-160,240)"><rect style="fill:#f8f8f2;fill-opacity:1;stroke:none;stroke-width:2;stroke-linecap:square;stroke-linejoin:round;stroke-miterlimit:0" id="rect6-6-1" width="8" height="32" x="212" y="32" rx="0" ry="0"/><rect style="fill:#f8f8f2;fill-opacity:1;stroke:none;stroke-width:2;stroke-linecap:square;stroke-linejoin:round;stroke-miterlimit:0" id="rect6-6" width="8" height="24" x="196" y="40" rx="0" ry="0"/><rect style="fill:#f8f8f2;fill-opacity:1;stroke:none;stroke-width:2;stroke-linecap:square;stroke-linejoin:round;stroke-miterlimit:0" id="rect6" width="8" height="16" x="180" y="48" rx="0" ry="0"/><path style="fill:#f8f8f2;stroke:none;stroke-width:1px;stroke-linecap:butt;stroke-linejoin:miter;stroke-opacity:1" id="path7" d="m 179,22 4,4 -4,4 3,3 4,-4 4,4 3,-3 -4,-4 4,-4 -3,-3 -4,4 -4,-4 z"/></g></g></svg>