<?xml version="1.0" encoding="UTF-8" standalone="no"?>
<!-- Created with Inkscape (http://www.inkscape.org/) -->

<svg
   version="1.1"
   id="svg2"
   width="56"
   height="56"
   viewBox="0 0 56 56"
   sodipodi:docname="lit_progress.svg"
   inkscape:version="1.3.1 (91b66b0783, 2023-11-16, custom)"
   inkscape:export-filename="ping_unknown.png"
   inkscape:export-xdpi="96"
   inkscape:export-ydpi="96"
   xml:space="preserve"
   xmlns:inkscape="http://www.inkscape.org/namespaces/inkscape"
   xmlns:sodipodi="http://sodipodi.sourceforge.net/DTD/sodipodi-0.dtd"
   xmlns:xlink="http://www.w3.org/1999/xlink"
   xmlns="http://www.w3.org/2000/svg"
   xmlns:svg="http://www.w3.org/2000/svg"><defs
     id="defs6"><linearGradient
       inkscape:collect="always"
       xlink:href="#linearGradient1"
       id="linearGradient2"
       x1="542"
       y1="268"
       x2="542"
       y2="320"
       gradientUnits="userSpaceOnUse"
       gradientTransform="translate(-512,-268)" /><linearGradient
       id="linearGradient1"
       inkscape:collect="always"><stop
         style="stop-color:#ff5555;stop-opacity:1;"
         offset="0"
         id="stop1" /><stop
         style="stop-color:#ffab6c;stop-opacity:1;"
         offset="1"
         id="stop2" /></linearGradient></defs><sodipodi:namedview
     id="namedview4"
     pagecolor="#505050"
     bordercolor="#eeeeee"
     borderopacity="1"
     inkscape:showpageshadow="0"
     inkscape:pageopacity="0"
     inkscape:pagecheckerboard="0"
     inkscape:deskcolor="#505050"
     showgrid="true"
     inkscape:zoom="19.4375"
     inkscape:cx="34.983923"
     inkscape:cy="31.33119"
     inkscape:window-width="3490"
     inkscape:window-height="1440"
     inkscape:window-x="0"
     inkscape:window-y="0"
     inkscape:window-maximized="0"
     inkscape:current-layer="svg2"><inkscape:grid
       snapvisiblegridlinesonly="true"
       type="xygrid"
       id="grid302"
       originx="-4"
       originy="-864"
       spacingy="1"
       spacingx="1"
       units="px"
       visible="true"
       empspacing="4" /></sodipodi:namedview><path
     style="display:inline;fill:url(#linearGradient2);fill-opacity:1;stroke:none;stroke-width:1px;stroke-linecap:butt;stroke-linejoin:miter;stroke-opacity:1"
     d="m 32,0 -8,8 v 4 l 4,4 v 8 L 20,16 V 12 L 12,4 v 12 l 4,4 v 8 l -4,4 v 12 l 8,8 h 6 v -2 l -6,-6 v -8 l 4,-4 v 8 l 4,4 v -8 l 4,-4 v -4 l 4,-4 v 12 l -2,2 v 6 l 8,-8 V 37 44 l -4,4 v 4 h 6 l 8,-8 V 32 L 48,28 V 18 L 42,12 V 24 L 32,14 V 8 l 8,-8 z"
     id="path2308-2-3-7"
     sodipodi:nodetypes="cccccccccccccccccccccccccccccccccccccccccccc"
     inkscape:label="Fuel Progress" /></svg>
