<?xml version="1.0" encoding="UTF-8" standalone="no"?>
<!-- Created with Inkscape (http://www.inkscape.org/) -->

<svg
   version="1.1"
   id="svg2"
   width="56"
   height="56"
   viewBox="0 0 56 56"
   sodipodi:docname="lit_progress.svg"
   inkscape:version="1.3 (0e150ed6c4, 2023-07-21)"
   inkscape:export-filename="ping_unknown.png"
   inkscape:export-xdpi="96"
   inkscape:export-ydpi="96"
   xml:space="preserve"
   xmlns:inkscape="http://www.inkscape.org/namespaces/inkscape"
   xmlns:sodipodi="http://sodipodi.sourceforge.net/DTD/sodipodi-0.dtd"
   xmlns:xlink="http://www.w3.org/1999/xlink"
   xmlns="http://www.w3.org/2000/svg"
   xmlns:svg="http://www.w3.org/2000/svg"><defs
     id="defs6"><linearGradient
       inkscape:collect="always"
       xlink:href="#linearGradient11305"
       id="linearGradient12761"
       x1="735"
       y1="68"
       x2="735"
       y2="2"
       gradientUnits="userSpaceOnUse"
       gradientTransform="translate(-703)" /><linearGradient
       inkscape:collect="always"
       id="linearGradient11305"><stop
         style="stop-color:#ffb86c;stop-opacity:1;"
         offset="0"
         id="stop11301" /><stop
         style="stop-color:#ff5555;stop-opacity:1;"
         offset="1"
         id="stop11303" /></linearGradient></defs><sodipodi:namedview
     id="namedview4"
     pagecolor="#505050"
     bordercolor="#eeeeee"
     borderopacity="1"
     inkscape:showpageshadow="0"
     inkscape:pageopacity="0"
     inkscape:pagecheckerboard="0"
     inkscape:deskcolor="#505050"
     showgrid="true"
     inkscape:zoom="27.488776"
     inkscape:cx="28.066"
     inkscape:cy="35.341697"
     inkscape:window-width="3490"
     inkscape:window-height="1440"
     inkscape:window-x="0"
     inkscape:window-y="0"
     inkscape:window-maximized="0"
     inkscape:current-layer="svg2"><inkscape:grid
       snapvisiblegridlinesonly="true"
       type="xygrid"
       id="grid302"
       originx="-4"
       originy="-864"
       spacingy="1"
       spacingx="1"
       units="px"
       visible="true"
       empspacing="4" /></sodipodi:namedview><path
     style="display:inline;fill:url(#linearGradient12761);fill-opacity:1;stroke:none;stroke-width:1px;stroke-linecap:butt;stroke-linejoin:miter;stroke-opacity:1"
     d="m 33,4 -8,8 v 5 l 3,3 v 7 l -6,-6 -8,-8 v 8 l 3,3 v 6 l -4,4 v 10 l 8,8 h 5 v -3 l -5,-5 v -5 l 3,-3 h 2 v 6 h 3 v -4 l 3,-3 v -3 l 4,-4 v 10 l -3,3 v 5 l 8,-8 v 8 l -3,3 v 3 h 5 l 8,-8 V 32 l -5,-5 v -5 l -5,-5 v 9 l -7,-7 v -8 l 6,-7 z"
     id="path2308-2"
     sodipodi:nodetypes="ccccccccccccccccccccccccccccccccccccccccccc"
     inkscape:label="Fuel Full" /></svg>
