<svg xmlns="http://www.w3.org/2000/svg" xmlns:svg="http://www.w3.org/2000/svg" xmlns:xlink="http://www.w3.org/1999/xlink" id="svg2" width="80" height="80" version="1.1" xml:space="preserve"><defs id="defs6"><linearGradient id="linearGradient11" x1="40" x2="40" y1="240" y2="356" gradientUnits="userSpaceOnUse" xlink:href="#linearGradient6"/><linearGradient id="linearGradient6"><stop style="stop-color:#bd93f9;stop-opacity:1" id="stop7" offset="0"/><stop style="stop-color:#ff79c6;stop-opacity:1" id="stop8" offset="1"/></linearGradient><linearGradient id="linearGradient2" x1="40" x2="40" y1="0" y2="112" gradientUnits="userSpaceOnUse" xlink:href="#linearGradient6"/></defs><g id="g6" transform="translate(0,-240)" style="display:inline"><rect style="display:inline;fill:url(#linearGradient11);fill-opacity:1;fill-rule:evenodd;stroke-width:2;stroke-linecap:square;stroke-linejoin:round;stroke-miterlimit:0" id="rect5" width="80" height="80" x="0" y="240" rx="20" ry="20"/><rect style="display:inline;fill:#3a3f63;fill-rule:evenodd;stroke-width:2;stroke-linecap:square;stroke-linejoin:round;stroke-miterlimit:0" id="rect6" width="68" height="68" x="6" y="246" rx="16" ry="16"/><path id="path25943" style="display:inline;fill:url(#linearGradient2);fill-opacity:1;stroke:none;stroke-width:1px;stroke-linecap:butt;stroke-linejoin:miter;stroke-opacity:1" d="M 30,14 20,24 v 15 l -4,4 v 18 l 5,5 h 38 l 5,-5 V 43 L 60,39 V 24 L 50,14 Z m 4,8 h 12 l 6,6 V 38 H 28 V 28 Z m 6,19 8,8 h 3 v -7 h 4 l 4,4 v 15 h -4 v -3 l -4,-4 h -2 l -9,9 -9,-9 h -2 l -4,4 v 3 H 21 V 46 l 4,-4 h 4 v 7 h 3 z" transform="translate(0,240)"/></g></svg>