<?xml version="1.0" encoding="UTF-8" standalone="no"?>
<!-- Created with Inkscape (http://www.inkscape.org/) -->

<svg
   version="1.1"
   id="svg2"
   width="80"
   height="80"
   xml:space="preserve"
   inkscape:export-filename="base.svg"
   inkscape:export-xdpi="96"
   inkscape:export-ydpi="96"
   inkscape:version="1.3.2 (091e20ef0f, 2023-11-25)"
   sodipodi:docname="inactive_button.svg"
   xmlns:inkscape="http://www.inkscape.org/namespaces/inkscape"
   xmlns:sodipodi="http://sodipodi.sourceforge.net/DTD/sodipodi-0.dtd"
   xmlns="http://www.w3.org/2000/svg"
   xmlns:svg="http://www.w3.org/2000/svg"><defs
   id="defs6" /><sodipodi:namedview
   id="namedview4"
   pagecolor="#505050"
   bordercolor="#eeeeee"
   borderopacity="1"
   inkscape:showpageshadow="0"
   inkscape:pageopacity="0"
   inkscape:pagecheckerboard="0"
   inkscape:deskcolor="#505050"
   showgrid="true"
   inkscape:current-layer="svg2"
   inkscape:zoom="15.25"
   inkscape:cx="39.967213"
   inkscape:cy="39.967213"
   inkscape:window-width="2273"
   inkscape:window-height="1383"
   inkscape:window-x="81"
   inkscape:window-y="30"
   inkscape:window-maximized="0"><inkscape:grid
     type="xygrid"
     id="Main Grid"
     originx="0"
     originy="0"
     spacingy="1"
     spacingx="1"
     units="px"
     visible="true"
     empspacing="4"
     snapvisiblegridlinesonly="true" /></sodipodi:namedview>
    
<g
   id="g6"
   inkscape:label="Unlocked Button"
   transform="translate(-0,-240)"
   style="display:inline"><rect
     style="display:inline;fill:#282a36;fill-opacity:1;fill-rule:evenodd;stroke-width:2;stroke-linecap:square;stroke-linejoin:round;stroke-miterlimit:0"
     id="rect5"
     width="80"
     height="80"
     x="0"
     y="240"
     rx="20"
     ry="20"
     inkscape:label="Outline" /><rect
     style="display:inline;fill:#3a3f63;fill-rule:evenodd;stroke-width:2;stroke-linecap:square;stroke-linejoin:round;stroke-miterlimit:0"
     id="rect6"
     width="68"
     height="68"
     x="6"
     y="246"
     rx="16"
     ry="16"
     inkscape:label="Fill" /><path
     id="path25344"
     style="display:inline;fill:#f8f8f2;fill-opacity:1;stroke:none;stroke-width:1px;stroke-linecap:butt;stroke-linejoin:miter;stroke-opacity:1"
     class="UnoptimicedTransforms"
     d="m 30,252 -10,10 v 10 l 8,8 v -14 l 6,-6 h 12 l 6,6 v 18 H 21 l -5,5 v 14 l 5,5 h 38 l 5,-5 v -14 l -4,-4 V 262 L 50,252 Z m -9,36 h 11 v 4 h -6 l 5,5 h 3 l 6,-6 6,6 h 3 l 5,-5 h -6 v -4 h 11 v 8 l -8,8 H 29 l -8,-8 z"
     sodipodi:nodetypes="cccccccccccccccccccccccccccccccccccccc"
     inkscape:label="Icon" /></g></svg>
