<svg xmlns="http://www.w3.org/2000/svg" xmlns:svg="http://www.w3.org/2000/svg" xmlns:xlink="http://www.w3.org/1999/xlink" id="svg2" width="92" height="80" version="1.1" xml:space="preserve"><defs id="defs6"><linearGradient id="linearGradient11" x1="40" x2="40" y1="240" y2="356" gradientUnits="userSpaceOnUse" xlink:href="#linearGradient6"/><linearGradient id="linearGradient6"><stop style="stop-color:#bd93f9;stop-opacity:1" id="stop7" offset="0"/><stop style="stop-color:#ff79c6;stop-opacity:1" id="stop8" offset="1"/></linearGradient></defs><g id="g6" transform="translate(5.9672131,-240)" style="display:inline"><rect style="display:inline;fill:url(#linearGradient11);fill-opacity:1;fill-rule:evenodd;stroke-width:2;stroke-linecap:square;stroke-linejoin:round;stroke-miterlimit:0" id="rect5" width="80" height="80" x="0" y="240" rx="20" ry="20"/><rect style="display:inline;fill:#3a3f63;fill-rule:evenodd;stroke-width:2;stroke-linecap:square;stroke-linejoin:round;stroke-miterlimit:0" id="rect6" width="68" height="68" x="6" y="246" rx="16" ry="16"/></g><g id="g2" style="display:inline"><path id="path2" style="display:inline;fill:#b4b4ab;stroke:none;stroke-width:1px;stroke-linecap:butt;stroke-linejoin:miter;stroke-opacity:1" d="M 50,16 V 64 H 72 V 16 Z m 4,8 h 5 v 8 h -5 z m 9,0 h 5 v 8 h -5 z m -9,24 h 5 v 8 h -5 z m 9,0 h 5 v 8 h -5 z"/><path id="path1" style="fill:#f8f8f2;stroke:none;stroke-width:1px;stroke-linecap:butt;stroke-linejoin:miter;stroke-opacity:1" d="M 20,16 V 64 H 50 V 16 Z m 20,8 h 6 v 8 h -6 z m -8,12 h 6 v 8 h -6 z m -8,12 h 6 v 8 h -6 z"/></g></svg>