<?xml version="1.0" encoding="UTF-8" standalone="no"?>
<!-- Created with Inkscape (http://www.inkscape.org/) -->

<svg
   version="1.1"
   id="svg2"
   width="96"
   height="96"
   xml:space="preserve"
   inkscape:export-filename="base.svg"
   inkscape:export-xdpi="96"
   inkscape:export-ydpi="96"
   inkscape:version="1.3.2 (091e20ef0f, 2023-11-25)"
   sodipodi:docname="crafting_overlay_disabled.svg"
   xmlns:inkscape="http://www.inkscape.org/namespaces/inkscape"
   xmlns:sodipodi="http://sodipodi.sourceforge.net/DTD/sodipodi-0.dtd"
   xmlns="http://www.w3.org/2000/svg"
   xmlns:svg="http://www.w3.org/2000/svg"><defs
   id="defs6" /><sodipodi:namedview
   id="namedview4"
   pagecolor="#505050"
   bordercolor="#eeeeee"
   borderopacity="1"
   inkscape:showpageshadow="0"
   inkscape:pageopacity="0"
   inkscape:pagecheckerboard="0"
   inkscape:deskcolor="#505050"
   showgrid="true"
   inkscape:current-layer="svg2"
   inkscape:zoom="12.708333"
   inkscape:cx="47.960656"
   inkscape:cy="47.960656"
   inkscape:window-width="3451"
   inkscape:window-height="1389"
   inkscape:window-x="81"
   inkscape:window-y="30"
   inkscape:window-maximized="0"><inkscape:grid
     type="xygrid"
     id="Main Grid"
     originx="0"
     originy="0"
     spacingy="1"
     spacingx="1"
     units="px"
     visible="true"
     empspacing="4"
     snapvisiblegridlinesonly="true" /></sodipodi:namedview>
    
<path
   id="rect66-5-7-8"
   style="display:inline;fill:#17181c;fill-opacity:1;fill-rule:evenodd;stroke-width:2;stroke-linecap:square;stroke-linejoin:round;stroke-miterlimit:0"
   inkscape:label="Crafting Disabled"
   d="m 19.960656,5.9606557 c -7.75599,0 -14.0000003,6.2440103 -14.0000003,14.0000003 v 12 H 31.960656 V 5.9606557 Z m 16,0 V 31.960656 h 24 V 5.9606557 Z m 28,0 V 31.960656 h 26 v -12 c 0,-7.75599 -6.24401,-14.0000003 -14,-14.0000003 z M 5.9606557,35.960656 v 24 H 31.960656 v -24 z m 30.0000003,0 v 24 h 24 v -24 z m 28,0 v 24 h 26 v -24 z m -58.0000003,28 v 12 c 0,7.75599 6.2440103,14 14.0000003,14 h 12 v -26 z m 30.0000003,0 v 26 h 24 v -26 z m 28,0 v 26 h 12 c 7.75599,0 14,-6.24401 14,-14 v -12 z" /></svg>
