<?xml version="1.0" encoding="UTF-8" standalone="no"?>
<!-- Created with Inkscape (http://www.inkscape.org/) -->

<svg
   version="1.1"
   id="svg2"
   width="96"
   height="96"
   xml:space="preserve"
   inkscape:export-filename="base.svg"
   inkscape:export-xdpi="96"
   inkscape:export-ydpi="96"
   inkscape:version="1.3.2 (091e20ef0f, 2023-11-25)"
   sodipodi:docname="crafting_overlay_disabled_highlighted.svg"
   xmlns:inkscape="http://www.inkscape.org/namespaces/inkscape"
   xmlns:sodipodi="http://sodipodi.sourceforge.net/DTD/sodipodi-0.dtd"
   xmlns="http://www.w3.org/2000/svg"
   xmlns:svg="http://www.w3.org/2000/svg"><defs
   id="defs6" /><sodipodi:namedview
   id="namedview4"
   pagecolor="#505050"
   bordercolor="#eeeeee"
   borderopacity="1"
   inkscape:showpageshadow="0"
   inkscape:pageopacity="0"
   inkscape:pagecheckerboard="0"
   inkscape:deskcolor="#505050"
   showgrid="true"
   inkscape:current-layer="svg2"
   inkscape:zoom="12.708333"
   inkscape:cx="48"
   inkscape:cy="48"
   inkscape:window-width="3468"
   inkscape:window-height="1386"
   inkscape:window-x="81"
   inkscape:window-y="30"
   inkscape:window-maximized="0"><inkscape:grid
     type="xygrid"
     id="Main Grid"
     originx="0"
     originy="0"
     spacingy="1"
     spacingx="1"
     units="px"
     visible="true"
     empspacing="4"
     snapvisiblegridlinesonly="true" /></sodipodi:namedview>
    
<path
   id="rect66-5-1"
   style="display:inline;fill:#3a324e;fill-rule:evenodd;stroke-width:2;stroke-linecap:square;stroke-linejoin:round;stroke-miterlimit:0"
   inkscape:label="Crafting Disabled Highlighted"
   d="M 20,6 C 12,6 6,12 6,20 V 32 H 32 V 6 Z M 36,6 V 32 H 60 V 6 Z M 64,6 V 32 H 90 V 20 C 90,12 84,6 76,6 Z M 6,36 V 60 H 32 V 36 Z m 30,0 V 60 H 60 V 36 Z m 28,0 V 60 H 90 V 36 Z M 6,64 v 12 c 0,8 6,14 14,14 H 32 V 64 Z m 30,0 V 90 H 60 V 64 Z m 28,0 v 26 h 12 c 8,0 14,-6 14,-14 V 64 Z" /></svg>
