<?xml version="1.0" encoding="UTF-8" standalone="no"?>
<!-- Created with Inkscape (http://www.inkscape.org/) -->

<svg
   version="1.1"
   id="svg2"
   width="1024"
   height="1024"
   viewBox="0 0 1024 1024"
   sodipodi:docname="enchanting_table.svg"
   xml:space="preserve"
   inkscape:export-filename="enchanting_table.png"
   inkscape:export-xdpi="96"
   inkscape:export-ydpi="96"
   inkscape:version="1.3 (0e150ed6c4, 2023-07-21)"
   xmlns:inkscape="http://www.inkscape.org/namespaces/inkscape"
   xmlns:sodipodi="http://sodipodi.sourceforge.net/DTD/sodipodi-0.dtd"
   xmlns:xlink="http://www.w3.org/1999/xlink"
   xmlns="http://www.w3.org/2000/svg"
   xmlns:svg="http://www.w3.org/2000/svg"><defs
     id="defs6"><linearGradient
       inkscape:collect="always"
       id="linearGradient17338"><stop
         style="stop-color:#00972c;stop-opacity:1;"
         offset="0"
         id="stop17332" /><stop
         style="stop-color:#95f076;stop-opacity:1;"
         offset="0.77480251"
         id="stop17334" /><stop
         style="stop-color:#f5ff8f;stop-opacity:1;"
         offset="1"
         id="stop17336" /></linearGradient><linearGradient
       inkscape:collect="always"
       id="linearGradient17330"><stop
         style="stop-color:#067426;stop-opacity:1;"
         offset="0"
         id="stop17324" /><stop
         style="stop-color:#73ca55;stop-opacity:1;"
         offset="0.80933541"
         id="stop17326" /></linearGradient><linearGradient
       inkscape:collect="always"
       id="linearGradient17322"><stop
         style="stop-color:#057826;stop-opacity:1;"
         offset="0"
         id="stop17316" /><stop
         style="stop-color:#7acc5d;stop-opacity:1;"
         offset="0.67453033"
         id="stop17318" /></linearGradient><linearGradient
       inkscape:collect="always"
       id="linearGradient17314"><stop
         style="stop-color:#036e21;stop-opacity:1;"
         offset="0"
         id="stop17308" /><stop
         style="stop-color:#6dc94d;stop-opacity:1;"
         offset="0.57645768"
         id="stop17310" /></linearGradient><linearGradient
       inkscape:collect="always"
       id="linearGradient11407"><stop
         style="stop-color:#00972c;stop-opacity:1;"
         offset="0"
         id="stop11401" /><stop
         style="stop-color:#95f076;stop-opacity:1;"
         offset="0.67453033"
         id="stop11403" /><stop
         style="stop-color:#f5ff8f;stop-opacity:1;"
         offset="1"
         id="stop11405" /></linearGradient><linearGradient
       inkscape:collect="always"
       id="linearGradient3713"><stop
         style="stop-color:#00972c;stop-opacity:1;"
         offset="0"
         id="stop3709" /><stop
         style="stop-color:#95f076;stop-opacity:1;"
         offset="0.57645768"
         id="stop4443" /><stop
         style="stop-color:#f5ff8f;stop-opacity:1;"
         offset="1"
         id="stop3711" /></linearGradient><radialGradient
       inkscape:collect="always"
       xlink:href="#linearGradient3713"
       id="radialGradient3715"
       cx="30"
       cy="922"
       fx="30"
       fy="922"
       r="18"
       gradientUnits="userSpaceOnUse"
       spreadMethod="pad"
       gradientTransform="translate(0,4)" /><radialGradient
       inkscape:collect="always"
       xlink:href="#linearGradient11407"
       id="radialGradient3715-1"
       cx="30"
       cy="926"
       fx="30"
       fy="926"
       r="18"
       gradientUnits="userSpaceOnUse"
       spreadMethod="pad"
       gradientTransform="translate(64)" /><radialGradient
       inkscape:collect="always"
       xlink:href="#linearGradient17338"
       id="radialGradient3715-1-6"
       cx="33.712341"
       cy="929.60876"
       fx="33.712341"
       fy="929.60876"
       r="18"
       gradientUnits="userSpaceOnUse"
       spreadMethod="pad"
       gradientTransform="rotate(-45,91.500029,777.7759)" /><radialGradient
       inkscape:collect="always"
       xlink:href="#linearGradient17314"
       id="radialGradient3715-0"
       cx="30"
       cy="922"
       fx="30"
       fy="922"
       r="18"
       gradientUnits="userSpaceOnUse"
       spreadMethod="pad"
       gradientTransform="translate(0,68)" /><radialGradient
       inkscape:collect="always"
       xlink:href="#linearGradient17322"
       id="radialGradient3715-1-5"
       cx="30"
       cy="926"
       fx="30"
       fy="926"
       r="18"
       gradientUnits="userSpaceOnUse"
       spreadMethod="pad"
       gradientTransform="translate(64,64)" /><radialGradient
       inkscape:collect="always"
       xlink:href="#linearGradient17330"
       id="radialGradient3715-1-6-8"
       cx="33.712341"
       cy="929.60876"
       fx="33.712341"
       fy="929.60876"
       r="18"
       gradientUnits="userSpaceOnUse"
       spreadMethod="pad"
       gradientTransform="rotate(-45,168.75487,809.77589)" /></defs><sodipodi:namedview
     id="namedview4"
     pagecolor="#505050"
     bordercolor="#eeeeee"
     borderopacity="1"
     inkscape:showpageshadow="0"
     inkscape:pageopacity="0"
     inkscape:pagecheckerboard="0"
     inkscape:deskcolor="#505050"
     showgrid="true"
     inkscape:zoom="3.6874999"
     inkscape:cx="147.79661"
     inkscape:cy="221.96611"
     inkscape:window-width="3635"
     inkscape:window-height="1440"
     inkscape:window-x="0"
     inkscape:window-y="0"
     inkscape:window-maximized="0"
     inkscape:current-layer="svg2"><inkscape:grid
       type="xygrid"
       id="grid239"
       dotted="false"
       snapvisiblegridlinesonly="true"
       originx="0"
       originy="0"
       spacingy="1"
       spacingx="1"
       units="px"
       visible="true"
       empspacing="4" /></sodipodi:namedview><g
     id="g1134"
     inkscape:label="Inventory"
     style="display:inline"><path
       style="display:inline;opacity:1;fill:#282a36;fill-opacity:1;stroke:#1e1f29;stroke-width:4;stroke-linecap:butt;stroke-linejoin:miter;stroke-miterlimit:4;stroke-dasharray:none;stroke-opacity:1"
       d="m 14,314 -4,4 v 332 l 4,4 h 676 l 4,-4 V 318 l -4,-4 H 398 Z"
       id="path6627-6"
       sodipodi:nodetypes="cccccccccc"
       inkscape:label="Panel" /><path
       style="display:inline;fill:#2e3242;fill-opacity:1;stroke:#000000;stroke-width:0;stroke-linecap:butt;stroke-linejoin:miter;stroke-miterlimit:4;stroke-dasharray:none;stroke-opacity:1"
       d="m 676,350 v 268 c 0,11 -7,18 -18,18 H 46 C 35,636 28,629 28,618 V 350 c 0,-11 7,-18 18,-18 h 612 c 11,0 18,7 18,18 z"
       id="path24389-0-9-3"
       sodipodi:nodetypes="ccccccccc"
       inkscape:label="Slot Outline" /><path
       id="path19954-5-61-2-7-1-0-6"
       clip-path="none"
       style="display:inline;fill:#1e1f29;fill-opacity:1;stroke:#000000;stroke-width:0;stroke-linecap:butt;stroke-linejoin:miter;stroke-miterlimit:4;stroke-dasharray:none;stroke-opacity:1"
       transform="translate(432)"
       d="m 94,587 v 26 c 0,11 -6,17 -17,17 H 51 c -11,0 -17,-6 -17,-17 v -26 c 0,-11 6,-17 17,-17 h 26 c 11,0 17,6 17,17 z m 72,0 v 26 c 0,11 -6,17 -17,17 h -26 c -11,0 -17,-6 -17,-17 v -26 c 0,-11 6,-17 17,-17 h 26 c 11,0 17,6 17,17 z m 72,0 v 26 c 0,11 -6,17 -17,17 h -26 c -11,0 -17,-6 -17,-17 v -26 c 0,-11 6,-17 17,-17 h 26 c 11,0 17,6 17,17 z m -216,0 v 26 c 0,11 -6,17 -17,17 h -26 c -11,0 -17,-6 -17,-17 v -26 c 0,-11 6,-17 17,-17 H 5 c 11,0 17,6 17,17 z m -72,0 v 26 c 0,11 -6,17 -17,17 h -26 c -11,0 -17,-6 -17,-17 v -26 c 0,-11 6,-17 17,-17 h 26 c 11,0 17,6 17,17 z m -72,0 v 26 c 0,11 -6,17 -17,17 h -26 c -11,0 -17,-6 -17,-17 v -26 c 0,-11 6,-17 17,-17 h 26 c 11,0 17,6 17,17 z M 22,499 v 26 c 0,11 -6,17 -17,17 h -26 c -11,0 -17,-6 -17,-17 v -26 c 0,-11 6,-17 17,-17 H 5 c 11,0 17,6 17,17 z m -72,0 v 26 c 0,11 -6,17 -17,17 h -26 c -11,0 -17,-6 -17,-17 v -26 c 0,-11 6,-17 17,-17 h 26 c 11,0 17,6 17,17 z m -72,0 v 26 c 0,11 -6,17 -17,17 h -26 c -11,0 -17,-6 -17,-17 v -26 c 0,-11 6,-17 17,-17 h 26 c 11,0 17,6 17,17 z m -72,88 v 26 c 0,11 -6,17 -17,17 h -26 c -11,0 -17,-6 -17,-17 v -26 c 0,-11 6,-17 17,-17 h 26 c 11,0 17,6 17,17 z m -72,0 v 26 c 0,11 -6,17 -17,17 h -26 c -11,0 -17,-6 -17,-17 v -26 c 0,-11 6,-17 17,-17 h 26 c 11,0 17,6 17,17 z m -72,0 v 26 c 0,11 -6,17 -17,17 h -26 c -11,0 -17,-6 -17,-17 v -26 c 0,-11 6,-17 17,-17 h 26 c 11,0 17,6 17,17 z m 576,-88 v 26 c 0,11 -6,17 -17,17 h -26 c -11,0 -17,-6 -17,-17 v -26 c 0,-11 6,-17 17,-17 h 26 c 11,0 17,6 17,17 z m -72,0 v 26 c 0,11 -6,17 -17,17 h -26 c -11,0 -17,-6 -17,-17 v -26 c 0,-11 6,-17 17,-17 h 26 c 11,0 17,6 17,17 z m -72,0 v 26 c 0,11 -6,17 -17,17 H 51 c -11,0 -17,-6 -17,-17 v -26 c 0,-11 6,-17 17,-17 h 26 c 11,0 17,6 17,17 z m -288,0 v 26 c 0,11 -6,17 -17,17 h -26 c -11,0 -17,-6 -17,-17 v -26 c 0,-11 6,-17 17,-17 h 26 c 11,0 17,6 17,17 z m -72,0 v 26 c 0,11 -6,17 -17,17 h -26 c -11,0 -17,-6 -17,-17 v -26 c 0,-11 6,-17 17,-17 h 26 c 11,0 17,6 17,17 z m -72,0 v 26 c 0,11 -6,17 -17,17 h -26 c -11,0 -17,-6 -17,-17 v -26 c 0,-11 6,-17 17,-17 h 26 c 11,0 17,6 17,17 z m 576,-72 v 26 c 0,11 -6,17 -17,17 h -26 c -11,0 -17,-6 -17,-17 v -26 c 0,-11 6,-17 17,-17 h 26 c 11,0 17,6 17,17 z m -72,0 v 26 c 0,11 -6,17 -17,17 h -26 c -11,0 -17,-6 -17,-17 v -26 c 0,-11 6,-17 17,-17 h 26 c 11,0 17,6 17,17 z m -72,0 v 26 c 0,11 -6,17 -17,17 H 51 c -11,0 -17,-6 -17,-17 v -26 c 0,-11 6,-17 17,-17 h 26 c 11,0 17,6 17,17 z m -72,0 v 26 c 0,11 -6,17 -17,17 h -26 c -11,0 -17,-6 -17,-17 v -26 c 0,-11 6,-17 17,-17 H 5 c 11,0 17,6 17,17 z m -72,0 v 26 c 0,11 -6,17 -17,17 h -26 c -11,0 -17,-6 -17,-17 v -26 c 0,-11 6,-17 17,-17 h 26 c 11,0 17,6 17,17 z m -72,0 v 26 c 0,11 -6,17 -17,17 h -26 c -11,0 -17,-6 -17,-17 v -26 c 0,-11 6,-17 17,-17 h 26 c 11,0 17,6 17,17 z m -72,0 v 26 c 0,11 -6,17 -17,17 h -26 c -11,0 -17,-6 -17,-17 v -26 c 0,-11 6,-17 17,-17 h 26 c 11,0 17,6 17,17 z m -72,0 v 26 c 0,11 -6,17 -17,17 h -26 c -11,0 -17,-6 -17,-17 v -26 c 0,-11 6,-17 17,-17 h 26 c 11,0 17,6 17,17 z m -72,0 v 26 c 0,11 -6,17 -17,17 h -26 c -11,0 -17,-6 -17,-17 v -26 c 0,-11 6,-17 17,-17 h 26 c 11,0 17,6 17,17 z m 576,-72 v 26 c 0,11 -6,17 -17,17 h -26 c -11,0 -17,-6 -17,-17 v -26 c 0,-11 6,-17 17,-17 h 26 c 11,0 17,6 17,17 z m -72,0 v 26 c 0,11 -6,17 -17,17 h -26 c -11,0 -17,-6 -17,-17 v -26 c 0,-11 6,-17 17,-17 h 26 c 11,0 17,6 17,17 z m -72,0 v 26 c 0,11 -6,17 -17,17 H 51 c -11,0 -17,-6 -17,-17 v -26 c 0,-11 6,-17 17,-17 h 26 c 11,0 17,6 17,17 z m -216,0 v 26 c 0,11 -6,17 -17,17 h -26 c -11,0 -17,-6 -17,-17 v -26 c 0,-11 6,-17 17,-17 h 26 c 11,0 17,6 17,17 z m 72,0 v 26 c 0,11 -6,17 -17,17 h -26 c -11,0 -17,-6 -17,-17 v -26 c 0,-11 6,-17 17,-17 h 26 c 11,0 17,6 17,17 z m 72,0 v 26 c 0,11 -6,17 -17,17 h -26 c -11,0 -17,-6 -17,-17 v -26 c 0,-11 6,-17 17,-17 H 5 c 11,0 17,6 17,17 z m -360,0 v 26 c 0,11 -6,17 -17,17 h -26 c -11,0 -17,-6 -17,-17 v -26 c 0,-11 6,-17 17,-17 h 26 c 11,0 17,6 17,17 z m 72,0 v 26 c 0,11 -6,17 -17,17 h -26 c -11,0 -17,-6 -17,-17 v -26 c 0,-11 6,-17 17,-17 h 26 c 11,0 17,6 17,17 z m 72,0 v 26 c 0,11 -6,17 -17,17 h -26 c -11,0 -17,-6 -17,-17 v -26 c 0,-11 6,-17 17,-17 h 26 c 11,0 17,6 17,17 z"
       inkscape:label="Slot"
       sodipodi:nodetypes="ssssssssssssssssssssssssssssssssssssssssssssssssssssssssssssssssssssssssssssssssssssssssssssssssssssssssssssssssssssssssssssssssssssssssssssssssssssssssssssssssssssssssssssssssssssssssssssssssssssssssssssssssssssssssssssssssssssssssssssssssssssssssssssssssssssssssssssssssssssssssssssssssssssssssssssssssssssssssssssssssssss" /></g><g
     id="g23875"
     style="display:inline"
     inkscape:label="Table"><path
       style="fill:#282a36;stroke:#1e1f29;stroke-width:4;stroke-linecap:butt;stroke-linejoin:miter;stroke-dasharray:none;stroke-opacity:1"
       d="m 26,46 -4,4 v 240 l 4,4 h 652 l 4,-4 V 50 l -4,-4 z"
       id="path898"
       inkscape:label="Panel" /><path
       d="m 56,202 c 0,-11 7,-18 18,-18 h 116 c 11,0 18,7 18,18 v 36 c 0,11 -7,18 -18,18 H 74 C 68.5,256 64,254.25 60.875,251.125 57.75,248 56,243.5 56,238 Z"
       style="display:inline;fill:#2e3242;fill-opacity:1;stroke:#000000;stroke-width:0;stroke-linecap:butt;stroke-linejoin:miter;stroke-miterlimit:4;stroke-dasharray:none;stroke-opacity:1"
       id="path813"
       sodipodi:nodetypes="cssssssscc"
       inkscape:label="Slot Outline" /><path
       id="path23869"
       clip-path="none"
       style="display:inline;fill:#1e1f29;fill-opacity:1;stroke:#000000;stroke-width:0;stroke-linecap:butt;stroke-linejoin:miter;stroke-miterlimit:4;stroke-dasharray:none;stroke-opacity:1"
       transform="translate(432)"
       d="m -310,207 v 26 c 0,11 -6,17 -17,17 h -26 c -11,0 -17,-6 -17,-17 v -26 c 0,-11 6,-17 17,-17 h 26 c 11,0 17,6 17,17 z m 80,0 v 26 c 0,11 -6,17 -17,17 h -26 c -11,0 -17,-6 -17,-17 v -26 c 0,-11 6,-17 17,-17 h 26 c 11,0 17,6 17,17 z"
       inkscape:label="Slot"
       sodipodi:nodetypes="ssssssssssssssssss" /></g><g
     id="g23745"
     inkscape:label="Buttons"
     style="display:inline"><path
       id="rect22007"
       style="display:inline;opacity:1;fill:#282a36;stroke-width:3;paint-order:stroke markers fill"
       d="M 8,668 H 428 V 888 H 8 Z"
       sodipodi:nodetypes="ccccc"
       inkscape:label="Background" /><path
       d="m 428,685 v 34 c 0,11 -6,17 -17,17 H 25 C 14,736 8,730 8,719 v -34 c 0,-11 6,-17 17,-17 h 386 c 11,0 17,6 17,17 z"
       style="display:inline;fill:#17181c;fill-opacity:1;stroke:#000000;stroke-width:0;stroke-linecap:butt;stroke-linejoin:miter;stroke-miterlimit:4;stroke-dasharray:none;stroke-opacity:1"
       id="path19526"
       sodipodi:nodetypes="sssssssss"
       inkscape:label="Empty" /><path
       d="m 428,761 v 34 c 0,11 -6,17 -17,17 H 25 C 14,812 8,806 8,795 v -34 c 0,-11 6,-17 17,-17 h 386 c 11,0 17,6 17,17 z"
       style="display:inline;fill:#17181c;fill-opacity:1;stroke:#000000;stroke-width:0;stroke-linecap:butt;stroke-linejoin:miter;stroke-miterlimit:4;stroke-dasharray:none;stroke-opacity:1"
       id="path19526-1"
       sodipodi:nodetypes="sssssssss"
       inkscape:label="Availible" /><path
       d="m 428,837 v 34 c 0,11 -6,17 -17,17 H 25 C 14,888 8,882 8,871 v -34 c 0,-11 6,-17 17,-17 h 386 c 11,0 17,6 17,17 z"
       style="display:inline;fill:#3a324e;fill-opacity:1;stroke:#000000;stroke-width:0;stroke-linecap:butt;stroke-linejoin:miter;stroke-miterlimit:4;stroke-dasharray:none;stroke-opacity:1"
       id="path19526-9"
       sodipodi:nodetypes="sssssssss"
       inkscape:label="Selected" /></g><g
     id="g23766"
     inkscape:label="Icons"
     style="display:inline"
     sodipodi:insensitive="true"><g
       id="g6"
       inkscape:label="Unavail. 1"
       style="display:inline"><path
         id="path1505-97"
         style="display:inline;fill:url(#radialGradient3715-0);fill-opacity:1;fill-rule:nonzero;stroke:none;stroke-width:1px;stroke-linecap:butt;stroke-linejoin:miter;stroke-opacity:1;paint-order:fill markers stroke"
         inkscape:label="1 Fill"
         d="m 27,976 c -3.552079,3.55208 -7.447921,7.44792 -11,11 v 6 c 3.552079,3.55208 7.447921,7.4479 11,11 h 6 l 11,-11 v -5 L 33,976 Z" /><path
         id="path6725-3-8-1"
         style="display:inline;fill:none;fill-opacity:1;stroke:#590c0c;stroke-width:3;stroke-linecap:butt;stroke-linejoin:miter;stroke-dasharray:none;stroke-opacity:1;paint-order:fill markers stroke"
         inkscape:label="1 Outline"
         d="m 16,987 v 6 l 11,11 h 6 l 11,-11 v -5 L 33,976 h -6 z"
         sodipodi:nodetypes="ccccccccc" /><path
         style="display:inline;fill:#ff5555;stroke:#590c0c;stroke-width:8;stroke-linecap:butt;stroke-linejoin:miter;stroke-dasharray:none;stroke-opacity:1;paint-order:stroke markers fill"
         d="m 51,976 h -3 l -5,5 v 3 h 4 v 16 h -6 v 4 h 16 v -4 h -6 z"
         id="path4"
         inkscape:label="Number 1" /></g><g
       id="g5"
       inkscape:label="Unavail. 2"
       style="display:inline"><path
         id="path1505-9-3"
         style="display:inline;fill:url(#radialGradient3715-1-5);fill-opacity:1;fill-rule:nonzero;stroke:none;stroke-width:1px;stroke-linecap:butt;stroke-linejoin:miter;stroke-opacity:1;paint-order:fill markers stroke"
         inkscape:label="2 Fill"
         d="m 91,972 -11,11 v 14 c 0.44401,0.44401 10.55599,10.556 11,11 h 6 l 11,-11 V 983 L 97,972 Z"
         sodipodi:nodetypes="ccccccccc" /><path
         id="path6725-3-6"
         style="display:inline;fill:none;fill-opacity:1;stroke:#590c0c;stroke-width:3;stroke-linecap:butt;stroke-linejoin:miter;stroke-dasharray:none;stroke-opacity:1;paint-order:fill markers stroke"
         inkscape:label="2 Outline"
         d="m 80,983 v 14 l 11,11 h 6 l 11,-11 V 983 L 97,972 h -6 z"
         sodipodi:nodetypes="ccccccccc" /><path
         style="display:inline;fill:#ff5555;stroke:#590c0c;stroke-width:8;stroke-linecap:butt;stroke-linejoin:miter;stroke-dasharray:none;stroke-opacity:1;paint-order:stroke markers fill"
         d="m 104,976 -5,5 3,3 4,-4 h 6 l 3,3 v 2 l -3,3 h -6 l -7,7 v 9 h 20 v -8 h -4 v 4 h -12 v -3 l 5,-5 h 6 l 5,-5 v -6 l -5,-5 z"
         id="path3"
         inkscape:label="Number 2" /></g><g
       id="g4"
       inkscape:label="Unavail. 3"
       style="display:inline"><path
         id="path1505-9-6-2"
         style="display:inline;fill:url(#radialGradient3715-1-6-8);fill-opacity:1;fill-rule:nonzero;stroke:none;stroke-width:1px;stroke-linecap:butt;stroke-linejoin:miter;stroke-opacity:1;paint-order:fill markers stroke"
         inkscape:label="3 Fill"
         d="m 150,973 -9,9 v 14 c 3.52083,3.25 7.47917,7.75 11,11 h 14 c 1.42381,-1.4238 7.57617,-7.5762 9,-9 v -14 l -11,-11 z"
         sodipodi:nodetypes="ccccccccc" /><path
         id="path11520-9"
         style="display:inline;fill:none;fill-opacity:1;fill-rule:nonzero;stroke:#590c0c;stroke-width:3;stroke-linecap:butt;stroke-linejoin:miter;stroke-dasharray:none;stroke-opacity:1;paint-order:fill markers stroke"
         inkscape:label="3 Outline"
         d="m 141,982 v 14 l 11,11 h 14 l 9,-9 v -14 l -11,-11 h -14 z"
         sodipodi:nodetypes="ccccccccc" /><path
         style="display:inline;fill:#ff5555;stroke:#590c0c;stroke-width:8;stroke-linecap:butt;stroke-linejoin:miter;stroke-dasharray:none;stroke-opacity:1;paint-order:stroke markers fill"
         d="m 163,981 3,3 4,-4 h 6 l 3,3 v 2 l -3,3 h -5 v 4 h 5 l 3,3 v 2 l -3,3 h -6 l -4,-4 -3,3 5,5 h 10 l 5,-5 v -6 l -3,-3 3,-3 v -6 l -5,-5 h -10 z"
         id="path1483-3"
         inkscape:label="Number 3" /></g><g
       id="g10"
       inkscape:label="Avail. 1"><path
         style="display:inline;fill:url(#radialGradient3715);fill-opacity:1;fill-rule:nonzero;stroke:none;stroke-width:1px;stroke-linecap:butt;stroke-linejoin:miter;stroke-opacity:1;paint-order:fill markers stroke"
         d="M 48,931 35,944 H 25 L 12,931 v -10 l 13,-13 h 10 l 13,13 z"
         id="path1505"
         inkscape:label="1 Fill" /><path
         id="path6725-3-8"
         style="display:inline;fill:none;fill-opacity:1;stroke:#2d2c04;stroke-width:3;stroke-linecap:butt;stroke-linejoin:miter;stroke-dasharray:none;stroke-opacity:1;paint-order:fill markers stroke"
         inkscape:label="1 Outline"
         d="m 16,923 v 6 l 11,11 h 6 l 11,-11 v -5 L 33,912 h -6 z"
         sodipodi:nodetypes="ccccccccc" /><path
         style="display:inline;fill:#50fa7b;stroke:#2d2c04;stroke-width:8;stroke-linecap:butt;stroke-linejoin:miter;stroke-dasharray:none;stroke-opacity:1;paint-order:stroke markers fill"
         d="m 51,912 h -3 l -5,5 v 3 h 4 v 16 h -6 v 4 h 16 v -4 h -6 z"
         id="path2"
         inkscape:label="Number 1" /></g><g
       id="g8"
       inkscape:label="Avail. 2"><path
         style="display:inline;fill:url(#radialGradient3715-1);fill-opacity:1;fill-rule:nonzero;stroke:none;stroke-width:1px;stroke-linecap:butt;stroke-linejoin:miter;stroke-opacity:1;paint-order:fill markers stroke"
         d="M 112,935 99,948 H 89 L 76,935 v -18 l 13,-13 h 10 l 13,13 z"
         id="path1505-9"
         inkscape:label="2 Fill"
         sodipodi:nodetypes="ccccccccc" /><path
         id="path6725-3"
         style="display:inline;fill:none;fill-opacity:1;stroke:#2d2c04;stroke-width:3;stroke-linecap:butt;stroke-linejoin:miter;stroke-dasharray:none;stroke-opacity:1;paint-order:fill markers stroke"
         inkscape:label="2 Outline"
         d="m 80,919 v 14 l 11,11 h 6 l 11,-11 V 919 L 97,908 h -6 z"
         sodipodi:nodetypes="ccccccccc" /><path
         style="display:inline;fill:#50fa7b;stroke:#2d2c04;stroke-width:8;stroke-linecap:butt;stroke-linejoin:miter;stroke-dasharray:none;stroke-opacity:1;paint-order:stroke markers fill"
         d="m 104,912 -5,5 3,3 4,-4 h 6 l 3,3 v 2 l -3,3 h -6 l -7,7 v 9 h 20 v -8 h -4 v 4 h -12 v -3 l 5,-5 h 6 l 5,-5 v -6 l -5,-5 z"
         id="path1"
         inkscape:label="Number 2" /></g><g
       id="g7"
       inkscape:label="Avail. 3"><path
         style="display:inline;fill:url(#radialGradient3715-1-6);fill-opacity:1;fill-rule:nonzero;stroke:none;stroke-width:1px;stroke-linecap:butt;stroke-linejoin:miter;stroke-opacity:1;paint-order:fill markers stroke"
         d="m 179,918 v 18 l -11,11 h -18 l -13,-13 v -18 l 11,-11 h 18 z"
         id="path1505-9-6"
         inkscape:label="3 Fill"
         sodipodi:nodetypes="ccccccccc" /><path
         id="path11520"
         style="display:inline;fill:none;fill-opacity:1;fill-rule:nonzero;stroke:#2d2c04;stroke-width:3;stroke-linecap:butt;stroke-linejoin:miter;stroke-dasharray:none;stroke-opacity:1;paint-order:fill markers stroke"
         inkscape:label="3 Outline"
         d="m 141,918 v 14 l 11,11 h 14 l 9,-9 v -14 l -11,-11 h -14 z"
         sodipodi:nodetypes="ccccccccc" /><path
         style="display:inline;fill:#50fa7b;stroke:#2d2c04;stroke-width:8;stroke-linecap:butt;stroke-linejoin:miter;stroke-dasharray:none;stroke-opacity:1;paint-order:stroke markers fill"
         d="m 163,917 3,3 4,-4 h 6 l 3,3 v 2 l -3,3 h -5 v 4 h 5 l 3,3 v 2 l -3,3 h -6 l -4,-4 -3,3 5,5 h 10 l 5,-5 v -6 l -3,-3 3,-3 v -6 l -5,-5 h -10 z"
         id="path1483"
         inkscape:label="Number 3" /></g><path
       id="path23914"
       style="fill:#17181c;stroke:none;stroke-width:1px;stroke-linecap:butt;stroke-linejoin:miter;stroke-opacity:1"
       d="m 177,216 -9,9 v 7 h 4 v -5 l 8,-8 z m -5,-8 h -8 v 8 h 4 v -4 h 4 z m -3,-12 -13,13 v 8 l -8,8 v 14 l 5,5 h 14 l 4,-4 h 8 l 13,-13 v -4 l 4,-4 v -14 l -9,-9 z m 2,4 h 14 v 4 l -5,5 3,3 5,-5 h 4 v 10 l -4,4 v 4 l -4,4 -7,7 h -8 l -4,4 h -10 l -3,-3 v -5 l 4,4 h 8 v -4 h -5 l -6,-6 7,-7 v -8 z"
       inkscape:label="Lapis" /></g></svg>
