<?xml version="1.0" encoding="UTF-8" standalone="no"?>
<!-- Created with Inkscape (http://www.inkscape.org/) -->

<svg
   version="1.1"
   id="svg2"
   width="1024"
   height="1024"
   viewBox="0 0 1024 1024"
   sodipodi:docname="generic_54.svg"
   xml:space="preserve"
   inkscape:version="1.3 (0e150ed6c4, 2023-07-21)"
   inkscape:export-filename="generic_54.png"
   inkscape:export-xdpi="96"
   inkscape:export-ydpi="96"
   xmlns:inkscape="http://www.inkscape.org/namespaces/inkscape"
   xmlns:sodipodi="http://sodipodi.sourceforge.net/DTD/sodipodi-0.dtd"
   xmlns="http://www.w3.org/2000/svg"
   xmlns:svg="http://www.w3.org/2000/svg"><defs
     id="defs6" /><sodipodi:namedview
     id="namedview4"
     pagecolor="#505050"
     bordercolor="#eeeeee"
     borderopacity="1"
     inkscape:showpageshadow="0"
     inkscape:pageopacity="0"
     inkscape:pagecheckerboard="0"
     inkscape:deskcolor="#505050"
     showgrid="true"
     inkscape:zoom="1.3037281"
     inkscape:cx="26.079058"
     inkscape:cy="474.40874"
     inkscape:window-width="5070"
     inkscape:window-height="1440"
     inkscape:window-x="0"
     inkscape:window-y="0"
     inkscape:window-maximized="1"
     inkscape:current-layer="svg2"><inkscape:grid
       type="xygrid"
       id="grid793"
       snapvisiblegridlinesonly="false"
       originx="0"
       originy="0"
       spacingy="1"
       spacingx="1"
       units="px"
       visible="true" /></sodipodi:namedview><g
     id="g1134"
     inkscape:label="Inventory"
     style="display:inline"
     transform="translate(0,224)"><path
       style="display:inline;opacity:1;fill:#282a36;fill-opacity:1;stroke:#1e1f29;stroke-width:4;stroke-linecap:butt;stroke-linejoin:miter;stroke-miterlimit:4;stroke-dasharray:none;stroke-opacity:1"
       d="m 14,314 -4,4 v 332 l 4,4 h 676 l 4,-4 V 318 l -4,-4 H 398 Z"
       id="path6627-6"
       sodipodi:nodetypes="cccccccccc"
       inkscape:label="Panel" /><path
       style="display:inline;fill:#2e3242;fill-opacity:1;stroke:#000000;stroke-width:0;stroke-linecap:butt;stroke-linejoin:miter;stroke-miterlimit:4;stroke-dasharray:none;stroke-opacity:1"
       d="m 676,350 v 268 c 0,11 -7,18 -18,18 H 46 C 35,636 28,629 28,618 V 350 c 0,-11 7,-18 18,-18 h 612 c 11,0 18,7 18,18 z"
       id="path24389-0-9-3"
       sodipodi:nodetypes="ccccccccc"
       inkscape:label="Slot Outline" /><path
       id="path19954-5-61-2-7-1-0-6"
       clip-path="none"
       style="display:inline;fill:#1e1f29;fill-opacity:1;stroke:#000000;stroke-width:0;stroke-linecap:butt;stroke-linejoin:miter;stroke-miterlimit:4;stroke-dasharray:none;stroke-opacity:1"
       transform="translate(432)"
       d="m 94,587 v 26 c 0,11 -6,17 -17,17 H 51 c -11,0 -17,-6 -17,-17 v -26 c 0,-11 6,-17 17,-17 h 26 c 11,0 17,6 17,17 z m 72,0 v 26 c 0,11 -6,17 -17,17 h -26 c -11,0 -17,-6 -17,-17 v -26 c 0,-11 6,-17 17,-17 h 26 c 11,0 17,6 17,17 z m 72,0 v 26 c 0,11 -6,17 -17,17 h -26 c -11,0 -17,-6 -17,-17 v -26 c 0,-11 6,-17 17,-17 h 26 c 11,0 17,6 17,17 z m -216,0 v 26 c 0,11 -6,17 -17,17 h -26 c -11,0 -17,-6 -17,-17 v -26 c 0,-11 6,-17 17,-17 H 5 c 11,0 17,6 17,17 z m -72,0 v 26 c 0,11 -6,17 -17,17 h -26 c -11,0 -17,-6 -17,-17 v -26 c 0,-11 6,-17 17,-17 h 26 c 11,0 17,6 17,17 z m -72,0 v 26 c 0,11 -6,17 -17,17 h -26 c -11,0 -17,-6 -17,-17 v -26 c 0,-11 6,-17 17,-17 h 26 c 11,0 17,6 17,17 z M 22,499 v 26 c 0,11 -6,17 -17,17 h -26 c -11,0 -17,-6 -17,-17 v -26 c 0,-11 6,-17 17,-17 H 5 c 11,0 17,6 17,17 z m -72,0 v 26 c 0,11 -6,17 -17,17 h -26 c -11,0 -17,-6 -17,-17 v -26 c 0,-11 6,-17 17,-17 h 26 c 11,0 17,6 17,17 z m -72,0 v 26 c 0,11 -6,17 -17,17 h -26 c -11,0 -17,-6 -17,-17 v -26 c 0,-11 6,-17 17,-17 h 26 c 11,0 17,6 17,17 z m -72,88 v 26 c 0,11 -6,17 -17,17 h -26 c -11,0 -17,-6 -17,-17 v -26 c 0,-11 6,-17 17,-17 h 26 c 11,0 17,6 17,17 z m -72,0 v 26 c 0,11 -6,17 -17,17 h -26 c -11,0 -17,-6 -17,-17 v -26 c 0,-11 6,-17 17,-17 h 26 c 11,0 17,6 17,17 z m -72,0 v 26 c 0,11 -6,17 -17,17 h -26 c -11,0 -17,-6 -17,-17 v -26 c 0,-11 6,-17 17,-17 h 26 c 11,0 17,6 17,17 z m 576,-88 v 26 c 0,11 -6,17 -17,17 h -26 c -11,0 -17,-6 -17,-17 v -26 c 0,-11 6,-17 17,-17 h 26 c 11,0 17,6 17,17 z m -72,0 v 26 c 0,11 -6,17 -17,17 h -26 c -11,0 -17,-6 -17,-17 v -26 c 0,-11 6,-17 17,-17 h 26 c 11,0 17,6 17,17 z m -72,0 v 26 c 0,11 -6,17 -17,17 H 51 c -11,0 -17,-6 -17,-17 v -26 c 0,-11 6,-17 17,-17 h 26 c 11,0 17,6 17,17 z m -288,0 v 26 c 0,11 -6,17 -17,17 h -26 c -11,0 -17,-6 -17,-17 v -26 c 0,-11 6,-17 17,-17 h 26 c 11,0 17,6 17,17 z m -72,0 v 26 c 0,11 -6,17 -17,17 h -26 c -11,0 -17,-6 -17,-17 v -26 c 0,-11 6,-17 17,-17 h 26 c 11,0 17,6 17,17 z m -72,0 v 26 c 0,11 -6,17 -17,17 h -26 c -11,0 -17,-6 -17,-17 v -26 c 0,-11 6,-17 17,-17 h 26 c 11,0 17,6 17,17 z m 576,-72 v 26 c 0,11 -6,17 -17,17 h -26 c -11,0 -17,-6 -17,-17 v -26 c 0,-11 6,-17 17,-17 h 26 c 11,0 17,6 17,17 z m -72,0 v 26 c 0,11 -6,17 -17,17 h -26 c -11,0 -17,-6 -17,-17 v -26 c 0,-11 6,-17 17,-17 h 26 c 11,0 17,6 17,17 z m -72,0 v 26 c 0,11 -6,17 -17,17 H 51 c -11,0 -17,-6 -17,-17 v -26 c 0,-11 6,-17 17,-17 h 26 c 11,0 17,6 17,17 z m -72,0 v 26 c 0,11 -6,17 -17,17 h -26 c -11,0 -17,-6 -17,-17 v -26 c 0,-11 6,-17 17,-17 H 5 c 11,0 17,6 17,17 z m -72,0 v 26 c 0,11 -6,17 -17,17 h -26 c -11,0 -17,-6 -17,-17 v -26 c 0,-11 6,-17 17,-17 h 26 c 11,0 17,6 17,17 z m -72,0 v 26 c 0,11 -6,17 -17,17 h -26 c -11,0 -17,-6 -17,-17 v -26 c 0,-11 6,-17 17,-17 h 26 c 11,0 17,6 17,17 z m -72,0 v 26 c 0,11 -6,17 -17,17 h -26 c -11,0 -17,-6 -17,-17 v -26 c 0,-11 6,-17 17,-17 h 26 c 11,0 17,6 17,17 z m -72,0 v 26 c 0,11 -6,17 -17,17 h -26 c -11,0 -17,-6 -17,-17 v -26 c 0,-11 6,-17 17,-17 h 26 c 11,0 17,6 17,17 z m -72,0 v 26 c 0,11 -6,17 -17,17 h -26 c -11,0 -17,-6 -17,-17 v -26 c 0,-11 6,-17 17,-17 h 26 c 11,0 17,6 17,17 z m 576,-72 v 26 c 0,11 -6,17 -17,17 h -26 c -11,0 -17,-6 -17,-17 v -26 c 0,-11 6,-17 17,-17 h 26 c 11,0 17,6 17,17 z m -72,0 v 26 c 0,11 -6,17 -17,17 h -26 c -11,0 -17,-6 -17,-17 v -26 c 0,-11 6,-17 17,-17 h 26 c 11,0 17,6 17,17 z m -72,0 v 26 c 0,11 -6,17 -17,17 H 51 c -11,0 -17,-6 -17,-17 v -26 c 0,-11 6,-17 17,-17 h 26 c 11,0 17,6 17,17 z m -216,0 v 26 c 0,11 -6,17 -17,17 h -26 c -11,0 -17,-6 -17,-17 v -26 c 0,-11 6,-17 17,-17 h 26 c 11,0 17,6 17,17 z m 72,0 v 26 c 0,11 -6,17 -17,17 h -26 c -11,0 -17,-6 -17,-17 v -26 c 0,-11 6,-17 17,-17 h 26 c 11,0 17,6 17,17 z m 72,0 v 26 c 0,11 -6,17 -17,17 h -26 c -11,0 -17,-6 -17,-17 v -26 c 0,-11 6,-17 17,-17 H 5 c 11,0 17,6 17,17 z m -360,0 v 26 c 0,11 -6,17 -17,17 h -26 c -11,0 -17,-6 -17,-17 v -26 c 0,-11 6,-17 17,-17 h 26 c 11,0 17,6 17,17 z m 72,0 v 26 c 0,11 -6,17 -17,17 h -26 c -11,0 -17,-6 -17,-17 v -26 c 0,-11 6,-17 17,-17 h 26 c 11,0 17,6 17,17 z m 72,0 v 26 c 0,11 -6,17 -17,17 h -26 c -11,0 -17,-6 -17,-17 v -26 c 0,-11 6,-17 17,-17 h 26 c 11,0 17,6 17,17 z"
       inkscape:label="Slot" /></g><g
     id="g2179"
     style="display:inline"
     transform="translate(0,224)"
     inkscape:label="Storage"><path
       style="fill:#282a36;stroke:#1e1f29;stroke-width:4;stroke-linecap:butt;stroke-linejoin:miter;stroke-opacity:1;stroke-dasharray:none"
       d="m 14,50 -4,4 v 464 l 4,4 h 676 l 4,-4 V 54 l -4,-4 z"
       id="path858"
       transform="translate(0,-224)"
       inkscape:label="Panel" /><path
       style="display:inline;fill:#2e3242;fill-opacity:1;stroke:#000000;stroke-width:0;stroke-linecap:butt;stroke-linejoin:miter;stroke-miterlimit:4;stroke-dasharray:none;stroke-opacity:1"
       d="m 674,-140 v 398 c 0,11 -7,18 -18,18 H 44 c -11,0 -18,-7 -18,-18 l 2,-398 c 0,-11 7,-18 18,-18 h 610 c 11,0 18,7 18,18 z"
       id="path24389-0-9-3-5"
       sodipodi:nodetypes="ccccccccc"
       inkscape:label="Slot Outline" /><path
       id="path19954-5-61-2-7-1-0-6-3"
       clip-path="none"
       style="display:inline;fill:#1e1f29;fill-opacity:1;stroke:#000000;stroke-width:0;stroke-linecap:butt;stroke-linejoin:miter;stroke-miterlimit:4;stroke-dasharray:none;stroke-opacity:1"
       d="m 524,81 v 26 c 0,11 -6,17 -17,17 h -26 c -11,0 -17,-6 -17,-17 V 81 c 0,-11 6,-17 17,-17 h 26 c 11,0 17,6 17,17 z m 72,0 v 26 c 0,11 -6,17 -17,17 h -26 c -11,0 -17,-6 -17,-17 V 81 c 0,-11 6,-17 17,-17 h 26 c 11,0 17,6 17,17 z m 72,0 v 26 c 0,11 -6,17 -17,17 h -26 c -11,0 -17,-6 -17,-17 V 81 c 0,-11 6,-17 17,-17 h 26 c 11,0 17,6 17,17 z m -216,0 v 26 c 0,11 -6,17 -17,17 h -26 c -11,0 -17,-6 -17,-17 V 81 c 0,-11 6,-17 17,-17 h 26 c 11,0 17,6 17,17 z m -72,0 v 26 c 0,11 -6,17 -17,17 h -26 c -11,0 -17,-6 -17,-17 V 81 c 0,-11 6,-17 17,-17 h 26 c 11,0 17,6 17,17 z m -72,0 v 26 c 0,11 -6,17 -17,17 h -26 c -11,0 -17,-6 -17,-17 V 81 c 0,-11 6,-17 17,-17 h 26 c 11,0 17,6 17,17 z M 452,9.000001 V 35 c 0,11 -6,17 -17,17 H 409 C 398,52 392,46 392,35 V 9.000001 c 0,-10.9999995 6,-16.9999995 17,-16.9999995 h 26 c 11,0 17,6 17,16.9999995 z m -72,0 V 35 c 0,11 -6,17 -17,17 H 337 C 326,52 320,46 320,35 V 9.000001 c 0,-10.9999995 6,-16.9999995 17,-16.9999995 h 26 c 11,0 17,6 17,16.9999995 z m -72,0 V 35 c 0,11 -6,17 -17,17 H 265 C 254,52 248,46 248,35 V 9.000001 c 0,-10.9999995 6,-16.9999995 17,-16.9999995 h 26 c 11,0 17,6 17,16.9999995 z M 236,81 v 26 c 0,11 -6,17 -17,17 h -26 c -11,0 -17,-6 -17,-17 V 81 c 0,-11 6,-17 17,-17 h 26 c 11,0 17,6 17,17 z m -72,0 v 26 c 0,11 -6,17 -17,17 h -26 c -11,0 -17,-6 -17,-17 V 81 c 0,-11 6,-17 17,-17 h 26 c 11,0 17,6 17,17 z m -72,0 v 26 c 0,11 -6,17 -17,17 H 49 C 38,124 32,118 32,107 V 81 C 32,70 38,64 49,64 h 26 c 11,0 17,6 17,17 z M 668,9.000001 V 35 c 0,11 -6,17 -17,17 H 625 C 614,52 608,46 608,35 V 9.000001 c 0,-10.9999995 6,-16.9999995 17,-16.9999995 h 26 c 11,0 17,6 17,16.9999995 z m -72,0 V 35 c 0,11 -6,17 -17,17 H 553 C 542,52 536,46 536,35 V 9.000001 c 0,-10.9999995 6,-16.9999995 17,-16.9999995 h 26 c 11,0 17,6 17,16.9999995 z m -72,0 V 35 c 0,11 -6,17 -17,17 H 481 C 470,52 464,46 464,35 V 9.000001 c 0,-10.9999995 6,-16.9999995 17,-16.9999995 h 26 c 11,0 17,6 17,16.9999995 z m -288,0 V 35 c 0,11 -6,17 -17,17 H 193 C 182,52 176,46 176,35 V 9.000001 c 0,-10.9999995 6,-16.9999995 17,-16.9999995 h 26 c 11,0 17,6 17,16.9999995 z m -72,0 V 35 c 0,11 -6,17 -17,17 H 121 C 110,52 104,46 104,35 V 9.000001 c 0,-10.9999995 6,-16.9999995 17,-16.9999995 h 26 c 11,0 17,6 17,16.9999995 z m -72,0 V 35 C 92,46 86,52 75,52 H 49 C 38,52 32,46 32,35 V 9.000001 C 32,-1.9999985 38,-7.9999985 49,-7.9999985 h 26 c 11,0 17,6 17,16.9999995 z M 668,-63 v 26 c 0,11 -6,17.000002 -17,17.000002 H 625 C 614,-19.999998 608,-26 608,-37 v -26 c 0,-11 6,-17 17,-17 h 26 c 11,0 17,6 17,17 z m -72,0 v 26 c 0,11 -6,17.000002 -17,17.000002 H 553 C 542,-19.999998 536,-26 536,-37 v -26 c 0,-11 6,-17 17,-17 h 26 c 11,0 17,6 17,17 z m -72,0 v 26 c 0,11 -6,17.000002 -17,17.000002 H 481 C 470,-19.999998 464,-26 464,-37 v -26 c 0,-11 6,-17 17,-17 h 26 c 11,0 17,6 17,17 z m -72,0 v 26 c 0,11 -6,17.000002 -17,17.000002 H 409 C 398,-19.999998 392,-26 392,-37 v -26 c 0,-11 6,-17 17,-17 h 26 c 11,0 17,6 17,17 z m -72,0 v 26 c 0,11 -6,17.000002 -17,17.000002 H 337 C 326,-19.999998 320,-26 320,-37 v -26 c 0,-11 6,-17 17,-17 h 26 c 11,0 17,6 17,17 z m -72,0 v 26 c 0,11 -6,17.000002 -17,17.000002 H 265 C 254,-19.999998 248,-26 248,-37 v -26 c 0,-11 6,-17 17,-17 h 26 c 11,0 17,6 17,17 z m -72,0 v 26 c 0,11 -6,17.000002 -17,17.000002 H 193 C 182,-19.999998 176,-26 176,-37 v -26 c 0,-11 6,-17 17,-17 h 26 c 11,0 17,6 17,17 z m -72,0 v 26 c 0,11 -6,17.000002 -17,17.000002 H 121 C 110,-19.999998 104,-26 104,-37 v -26 c 0,-11 6,-17 17,-17 h 26 c 11,0 17,6 17,17 z m -72,0 v 26 c 0,11 -6,17.000002 -17,17.000002 H 49 C 38,-19.999998 32,-26 32,-37 v -26 c 0,-11 6,-17 17,-17 h 26 c 11,0 17,6 17,17 z m 576,-72 v 26 c 0,11 -6,17 -17,17 h -26 c -11,0 -17,-6 -17,-17 v -26 c 0,-11 6,-17 17,-17 h 26 c 11,0 17,6 17,17 z m -72,0 v 26 c 0,11 -6,17 -17,17 h -26 c -11,0 -17,-6 -17,-17 v -26 c 0,-11 6,-17 17,-17 h 26 c 11,0 17,6 17,17 z m -72,0 v 26 c 0,11 -6,17 -17,17 h -26 c -11,0 -17,-6 -17,-17 v -26 c 0,-11 6,-17 17,-17 h 26 c 11,0 17,6 17,17 z m -216,0 v 26 c 0,11 -6,17 -17,17 h -26 c -11,0 -17,-6 -17,-17 v -26 c 0,-11 6,-17 17,-17 h 26 c 11,0 17,6 17,17 z m 72,0 v 26 c 0,11 -6,17 -17,17 h -26 c -11,0 -17,-6 -17,-17 v -26 c 0,-11 6,-17 17,-17 h 26 c 11,0 17,6 17,17 z m 72,0 v 26 c 0,11 -6,17 -17,17 h -26 c -11,0 -17,-6 -17,-17 v -26 c 0,-11 6,-17 17,-17 h 26 c 11,0 17,6 17,17 z m -360,0 v 26 c 0,11 -6,17 -17,17 H 49 c -11,0 -17,-6 -17,-17 v -26 c 0,-11 6,-17 17,-17 h 26 c 11,0 17,6 17,17 z m 72,0 v 26 c 0,11 -6,17 -17,17 h -26 c -11,0 -17,-6 -17,-17 v -26 c 0,-11 6,-17 17,-17 h 26 c 11,0 17,6 17,17 z m 72,0 v 26 c 0,11 -6,17 -17,17 h -26 c -11,0 -17,-6 -17,-17 v -26 c 0,-11 6,-17 17,-17 h 26 c 11,0 17,6 17,17 z m 288,362 v 26 c 0,11 -6,17 -17,17 h -26 c -11,0 -17,-6 -17,-17 v -26 c 0,-11 6,-17 17,-17 h 26 c 11,0 17,6 17,17 z m 72,0 v 26 c 0,11 -6,17 -17,17 h -26 c -11,0 -17,-6 -17,-17 v -26 c 0,-11 6,-17 17,-17 h 26 c 11,0 17,6 17,17 z m 72,0 v 26 c 0,11 -6,17 -17,17 h -26 c -11,0 -17,-6 -17,-17 v -26 c 0,-11 6,-17 17,-17 h 26 c 11,0 17,6 17,17 z m -216,0 v 26 c 0,11 -6,17 -17,17 h -26 c -11,0 -17,-6 -17,-17 v -26 c 0,-11 6,-17 17,-17 h 26 c 11,0 17,6 17,17 z m -72,0 v 26 c 0,11 -6,17 -17,17 h -26 c -11,0 -17,-6 -17,-17 v -26 c 0,-11 6,-17 17,-17 h 26 c 11,0 17,6 17,17 z m -72,0 v 26 c 0,11 -6,17 -17,17 h -26 c -11,0 -17,-6 -17,-17 v -26 c 0,-11 6,-17 17,-17 h 26 c 11,0 17,6 17,17 z m 144,-72 v 26 c 0,11 -6,17 -17,17 h -26 c -11,0 -17,-6 -17,-17 v -26 c 0,-11 6,-17 17,-17 h 26 c 11,0 17,6 17,17 z m -72,0 v 26 c 0,11 -6,17 -17,17 h -26 c -11,0 -17,-6 -17,-17 v -26 c 0,-11 6,-17 17,-17 h 26 c 11,0 17,6 17,17 z m -72,0 v 26 c 0,11 -6,17 -17,17 h -26 c -11,0 -17,-6 -17,-17 v -26 c 0,-11 6,-17 17,-17 h 26 c 11,0 17,6 17,17 z m -72,72 v 26 c 0,11 -6,17 -17,17 h -26 c -11,0 -17,-6 -17,-17 v -26 c 0,-11 6,-17 17,-17 h 26 c 11,0 17,6 17,17 z m -72,0 v 26 c 0,11 -6,17 -17,17 h -26 c -11,0 -17,-6 -17,-17 v -26 c 0,-11 6,-17 17,-17 h 26 c 11,0 17,6 17,17 z m -72,0 v 26 c 0,11 -6,17 -17,17 H 49 c -11,0 -17,-6 -17,-17 v -26 c 0,-11 6,-17 17,-17 h 26 c 11,0 17,6 17,17 z m 576,-72 v 26 c 0,11 -6,17 -17,17 h -26 c -11,0 -17,-6 -17,-17 v -26 c 0,-11 6,-17 17,-17 h 26 c 11,0 17,6 17,17 z m -72,0 v 26 c 0,11 -6,17 -17,17 h -26 c -11,0 -17,-6 -17,-17 v -26 c 0,-11 6,-17 17,-17 h 26 c 11,0 17,6 17,17 z m -72,0 v 26 c 0,11 -6,17 -17,17 h -26 c -11,0 -17,-6 -17,-17 v -26 c 0,-11 6,-17 17,-17 h 26 c 11,0 17,6 17,17 z m -288,0 v 26 c 0,11 -6,17 -17,17 h -26 c -11,0 -17,-6 -17,-17 v -26 c 0,-11 6,-17 17,-17 h 26 c 11,0 17,6 17,17 z m -72,0 v 26 c 0,11 -6,17 -17,17 h -26 c -11,0 -17,-6 -17,-17 v -26 c 0,-11 6,-17 17,-17 h 26 c 11,0 17,6 17,17 z m -72,0 v 26 c 0,11 -6,17 -17,17 H 49 c -11,0 -17,-6 -17,-17 v -26 c 0,-11 6,-17 17,-17 h 26 c 11,0 17,6 17,17 z"
       inkscape:label="Slot"
       sodipodi:nodetypes="ssssssssssssssssssssssssssssssssssssssssssssssssssssssssssssssssssssssssssssssssssssssssssssssssssssssssssssssssssssssssssssssssssssssssssssssssssssssssssssssssssssssssssssssssssssssssssssssssssssssssssssssssssssssssssssssssssssssssssssssssssssssssssssssssssssssssssssssssssssssssssssssssssssssssssssssssssssssssssssssssssssssssssssssssssssssssssssssssssssssssssssssssssssssssssssssssssssssssssssssssssssssssssssssssssssssssssssssssssssssssssssssssssssssssssssssssssssssssssssssssssssss" /></g></svg>
