<?xml version="1.0" encoding="UTF-8" standalone="no"?>
<!-- Created with Inkscape (http://www.inkscape.org/) -->

<svg
   version="1.1"
   id="svg2"
   width="1024"
   height="1024"
   viewBox="0 0 1024 1024"
   sodipodi:docname="smithingnew.svg"
   xml:space="preserve"
   inkscape:version="1.3 (0e150ed6c4, 2023-07-21)"
   inkscape:export-filename="smithingnew.png"
   inkscape:export-xdpi="96"
   inkscape:export-ydpi="96"
   xmlns:inkscape="http://www.inkscape.org/namespaces/inkscape"
   xmlns:sodipodi="http://sodipodi.sourceforge.net/DTD/sodipodi-0.dtd"
   xmlns="http://www.w3.org/2000/svg"
   xmlns:svg="http://www.w3.org/2000/svg"><defs
     id="defs6" /><sodipodi:namedview
     id="namedview4"
     pagecolor="#505050"
     bordercolor="#eeeeee"
     borderopacity="1"
     inkscape:showpageshadow="0"
     inkscape:pageopacity="0"
     inkscape:pagecheckerboard="0"
     inkscape:deskcolor="#505050"
     showgrid="true"
     inkscape:zoom="1.6393276"
     inkscape:cx="236.68241"
     inkscape:cy="287.61792"
     inkscape:window-width="3470"
     inkscape:window-height="1440"
     inkscape:window-x="0"
     inkscape:window-y="0"
     inkscape:window-maximized="0"
     inkscape:current-layer="svg2"><inkscape:grid
       snapvisiblegridlinesonly="true"
       type="xygrid"
       id="grid135"
       originx="0"
       originy="0"
       spacingy="1"
       spacingx="1"
       units="px"
       visible="true"
       empspacing="4" /></sodipodi:namedview><g
     id="g1134"
     inkscape:label="Inventory"
     style="display:inline"><path
       style="display:inline;opacity:1;fill:#282a36;fill-opacity:1;stroke:#1e1f29;stroke-width:4;stroke-linecap:butt;stroke-linejoin:miter;stroke-miterlimit:4;stroke-dasharray:none;stroke-opacity:1"
       d="m 14,314 -4,4 v 332 l 4,4 h 676 l 4,-4 V 318 l -4,-4 H 398 Z"
       id="path6627-6"
       sodipodi:nodetypes="cccccccccc"
       inkscape:label="Panel" /><path
       style="display:inline;fill:#2e3242;fill-opacity:1;stroke:#000000;stroke-width:0;stroke-linecap:butt;stroke-linejoin:miter;stroke-miterlimit:4;stroke-dasharray:none;stroke-opacity:1"
       d="m 676,350 v 268 c 0,11 -7,18 -18,18 H 46 C 35,636 28,629 28,618 V 350 c 0,-11 7,-18 18,-18 h 612 c 11,0 18,7 18,18 z"
       id="path24389-0-9-3"
       sodipodi:nodetypes="ccccccccc"
       inkscape:label="Slot Outline" /><path
       id="path19954-5-61-2-7-1-0-6"
       clip-path="none"
       style="display:inline;fill:#1e1f29;fill-opacity:1;stroke:#000000;stroke-width:0;stroke-linecap:butt;stroke-linejoin:miter;stroke-miterlimit:4;stroke-dasharray:none;stroke-opacity:1"
       transform="translate(432)"
       d="m 94,587 v 26 c 0,11 -6,17 -17,17 H 51 c -11,0 -17,-6 -17,-17 v -26 c 0,-11 6,-17 17,-17 h 26 c 11,0 17,6 17,17 z m 72,0 v 26 c 0,11 -6,17 -17,17 h -26 c -11,0 -17,-6 -17,-17 v -26 c 0,-11 6,-17 17,-17 h 26 c 11,0 17,6 17,17 z m 72,0 v 26 c 0,11 -6,17 -17,17 h -26 c -11,0 -17,-6 -17,-17 v -26 c 0,-11 6,-17 17,-17 h 26 c 11,0 17,6 17,17 z m -216,0 v 26 c 0,11 -6,17 -17,17 h -26 c -11,0 -17,-6 -17,-17 v -26 c 0,-11 6,-17 17,-17 H 5 c 11,0 17,6 17,17 z m -72,0 v 26 c 0,11 -6,17 -17,17 h -26 c -11,0 -17,-6 -17,-17 v -26 c 0,-11 6,-17 17,-17 h 26 c 11,0 17,6 17,17 z m -72,0 v 26 c 0,11 -6,17 -17,17 h -26 c -11,0 -17,-6 -17,-17 v -26 c 0,-11 6,-17 17,-17 h 26 c 11,0 17,6 17,17 z M 22,499 v 26 c 0,11 -6,17 -17,17 h -26 c -11,0 -17,-6 -17,-17 v -26 c 0,-11 6,-17 17,-17 H 5 c 11,0 17,6 17,17 z m -72,0 v 26 c 0,11 -6,17 -17,17 h -26 c -11,0 -17,-6 -17,-17 v -26 c 0,-11 6,-17 17,-17 h 26 c 11,0 17,6 17,17 z m -72,0 v 26 c 0,11 -6,17 -17,17 h -26 c -11,0 -17,-6 -17,-17 v -26 c 0,-11 6,-17 17,-17 h 26 c 11,0 17,6 17,17 z m -72,88 v 26 c 0,11 -6,17 -17,17 h -26 c -11,0 -17,-6 -17,-17 v -26 c 0,-11 6,-17 17,-17 h 26 c 11,0 17,6 17,17 z m -72,0 v 26 c 0,11 -6,17 -17,17 h -26 c -11,0 -17,-6 -17,-17 v -26 c 0,-11 6,-17 17,-17 h 26 c 11,0 17,6 17,17 z m -72,0 v 26 c 0,11 -6,17 -17,17 h -26 c -11,0 -17,-6 -17,-17 v -26 c 0,-11 6,-17 17,-17 h 26 c 11,0 17,6 17,17 z m 576,-88 v 26 c 0,11 -6,17 -17,17 h -26 c -11,0 -17,-6 -17,-17 v -26 c 0,-11 6,-17 17,-17 h 26 c 11,0 17,6 17,17 z m -72,0 v 26 c 0,11 -6,17 -17,17 h -26 c -11,0 -17,-6 -17,-17 v -26 c 0,-11 6,-17 17,-17 h 26 c 11,0 17,6 17,17 z m -72,0 v 26 c 0,11 -6,17 -17,17 H 51 c -11,0 -17,-6 -17,-17 v -26 c 0,-11 6,-17 17,-17 h 26 c 11,0 17,6 17,17 z m -288,0 v 26 c 0,11 -6,17 -17,17 h -26 c -11,0 -17,-6 -17,-17 v -26 c 0,-11 6,-17 17,-17 h 26 c 11,0 17,6 17,17 z m -72,0 v 26 c 0,11 -6,17 -17,17 h -26 c -11,0 -17,-6 -17,-17 v -26 c 0,-11 6,-17 17,-17 h 26 c 11,0 17,6 17,17 z m -72,0 v 26 c 0,11 -6,17 -17,17 h -26 c -11,0 -17,-6 -17,-17 v -26 c 0,-11 6,-17 17,-17 h 26 c 11,0 17,6 17,17 z m 576,-72 v 26 c 0,11 -6,17 -17,17 h -26 c -11,0 -17,-6 -17,-17 v -26 c 0,-11 6,-17 17,-17 h 26 c 11,0 17,6 17,17 z m -72,0 v 26 c 0,11 -6,17 -17,17 h -26 c -11,0 -17,-6 -17,-17 v -26 c 0,-11 6,-17 17,-17 h 26 c 11,0 17,6 17,17 z m -72,0 v 26 c 0,11 -6,17 -17,17 H 51 c -11,0 -17,-6 -17,-17 v -26 c 0,-11 6,-17 17,-17 h 26 c 11,0 17,6 17,17 z m -72,0 v 26 c 0,11 -6,17 -17,17 h -26 c -11,0 -17,-6 -17,-17 v -26 c 0,-11 6,-17 17,-17 H 5 c 11,0 17,6 17,17 z m -72,0 v 26 c 0,11 -6,17 -17,17 h -26 c -11,0 -17,-6 -17,-17 v -26 c 0,-11 6,-17 17,-17 h 26 c 11,0 17,6 17,17 z m -72,0 v 26 c 0,11 -6,17 -17,17 h -26 c -11,0 -17,-6 -17,-17 v -26 c 0,-11 6,-17 17,-17 h 26 c 11,0 17,6 17,17 z m -72,0 v 26 c 0,11 -6,17 -17,17 h -26 c -11,0 -17,-6 -17,-17 v -26 c 0,-11 6,-17 17,-17 h 26 c 11,0 17,6 17,17 z m -72,0 v 26 c 0,11 -6,17 -17,17 h -26 c -11,0 -17,-6 -17,-17 v -26 c 0,-11 6,-17 17,-17 h 26 c 11,0 17,6 17,17 z m -72,0 v 26 c 0,11 -6,17 -17,17 h -26 c -11,0 -17,-6 -17,-17 v -26 c 0,-11 6,-17 17,-17 h 26 c 11,0 17,6 17,17 z m 576,-72 v 26 c 0,11 -6,17 -17,17 h -26 c -11,0 -17,-6 -17,-17 v -26 c 0,-11 6,-17 17,-17 h 26 c 11,0 17,6 17,17 z m -72,0 v 26 c 0,11 -6,17 -17,17 h -26 c -11,0 -17,-6 -17,-17 v -26 c 0,-11 6,-17 17,-17 h 26 c 11,0 17,6 17,17 z m -72,0 v 26 c 0,11 -6,17 -17,17 H 51 c -11,0 -17,-6 -17,-17 v -26 c 0,-11 6,-17 17,-17 h 26 c 11,0 17,6 17,17 z m -216,0 v 26 c 0,11 -6,17 -17,17 h -26 c -11,0 -17,-6 -17,-17 v -26 c 0,-11 6,-17 17,-17 h 26 c 11,0 17,6 17,17 z m 72,0 v 26 c 0,11 -6,17 -17,17 h -26 c -11,0 -17,-6 -17,-17 v -26 c 0,-11 6,-17 17,-17 h 26 c 11,0 17,6 17,17 z m 72,0 v 26 c 0,11 -6,17 -17,17 h -26 c -11,0 -17,-6 -17,-17 v -26 c 0,-11 6,-17 17,-17 H 5 c 11,0 17,6 17,17 z m -360,0 v 26 c 0,11 -6,17 -17,17 h -26 c -11,0 -17,-6 -17,-17 v -26 c 0,-11 6,-17 17,-17 h 26 c 11,0 17,6 17,17 z m 72,0 v 26 c 0,11 -6,17 -17,17 h -26 c -11,0 -17,-6 -17,-17 v -26 c 0,-11 6,-17 17,-17 h 26 c 11,0 17,6 17,17 z m 72,0 v 26 c 0,11 -6,17 -17,17 h -26 c -11,0 -17,-6 -17,-17 v -26 c 0,-11 6,-17 17,-17 h 26 c 11,0 17,6 17,17 z"
       inkscape:label="Slot"
       sodipodi:nodetypes="ssssssssssssssssssssssssssssssssssssssssssssssssssssssssssssssssssssssssssssssssssssssssssssssssssssssssssssssssssssssssssssssssssssssssssssssssssssssssssssssssssssssssssssssssssssssssssssssssssssssssssssssssssssssssssssssssssssssssssssssssssssssssssssssssssssssssssssssssssssssssssssssssssssssssssssssssssssssssssssssssssss" /></g><g
     id="g886"
     inkscape:label="Smithing"
     transform="translate(-76,4)"
     style="display:inline"><path
       style="fill:#282a36;fill-opacity:1;stroke:#1e1f29;stroke-width:4;stroke-linecap:butt;stroke-linejoin:miter;stroke-dasharray:none;stroke-opacity:1"
       d="m 90,166 -4,4 v 100 l 4,4 h 460 l 4,-4 V 170 l -4,-4 z"
       id="path306"
       inkscape:label="Panel"
       sodipodi:nodetypes="ccccccccc" /><path
       id="path666-7-7"
       style="display:inline;fill:#2e3242;fill-opacity:1;stroke:#000000;stroke-width:0;stroke-linecap:butt;stroke-linejoin:miter;stroke-miterlimit:4;stroke-dasharray:none;stroke-opacity:1;paint-order:stroke markers fill"
       inkscape:label="Slot Outline"
       d="m 300,185 v 25 h -56 v -4 c 0,-10.99999 -7.00001,-18 -18,-18 H 46 c -10.999989,0 -18,7.00001 -18,18 v 36 c 0,10.99999 7.000011,18 18,18 h 180 c 10.99999,0 18,-7.00001 18,-18 v -4 h 56 v 25 h 7 l 25,-25 h 56 v 4 c 0,10.99999 7.00001,18 18,18 h 36 c 10.99999,0 18,-7.00001 18,-18 v -36 c 0,-10.99999 -7.00001,-18 -18,-18 h -36 c -10.99999,0 -18,7.00001 -18,18 v 4 h -57 l -25,-25 z"
       transform="translate(76,-4)"
       sodipodi:nodetypes="cccssssssssccccccsssssssscccc" /><path
       id="path1"
       style="display:inline;fill:#1e1f29;fill-opacity:1;stroke:#000000;stroke-width:0;stroke-linecap:butt;stroke-linejoin:miter;stroke-miterlimit:4;stroke-dasharray:none;stroke-opacity:1"
       d="m 314,207 v 26 c 0,11 -6,17 -17,17 h -26 c -11,0 -17,-6 -17,-17 v -26 c 0,-11 6,-17 17,-17 h 26 c 11,0 17,6 17,17 z m 216,0 v 26 c 0,11 -6,17 -17,17 h -26 c -11,0 -17,-6 -17,-17 v -26 c 0,-11 6,-17 17,-17 h 26 c 11,0 17,6 17,17 z m -288,0 v 26 c 0,11 -6,17 -17,17 h -26 c -11,0 -17,-6 -17,-17 v -26 c 0,-11 6,-17 17,-17 h 26 c 11,0 17,6 17,17 z m -72,0 v 26 c 0,11 -6,17 -17,17 h -26 c -11,0 -17,-6 -17,-17 v -26 c 0,-11 6,-17 17,-17 h 26 c 11,0 17,6 17,17 z"
       sodipodi:nodetypes="ssssssssssssssssssssssssssssssssssss" /><path
       style="display:inline;fill:#1e1f29;fill-opacity:1;stroke:#000000;stroke-width:0;stroke-linecap:butt;stroke-linejoin:miter;stroke-miterlimit:4;stroke-dasharray:none;stroke-opacity:1"
       d="m 306,194 30,30 -30,30 z"
       id="path1606-6-5"
       inkscape:label="Arrow Slot"
       sodipodi:nodetypes="cccc"
       transform="translate(76,-4)" /></g><path
     style="fill:#282a36;fill-opacity:1;stroke:none;stroke-width:1px;stroke-linecap:butt;stroke-linejoin:miter;stroke-opacity:1"
     d="m 728,0 h 64 v 84 h -64 z"
     id="path2632"
     sodipodi:nodetypes="ccccc"
     inkscape:label="Unavailible 1" /><path
     style="fill:#2e3242;fill-opacity:1;stroke:none;stroke-width:1px;stroke-linecap:butt;stroke-linejoin:miter;stroke-opacity:1"
     d="m 728,26 h 64 v 28 h -64 z"
     id="path2634"
     sodipodi:nodetypes="ccccc"
     inkscape:label="Unavailible 2" /></svg>
