<?xml version="1.0" encoding="UTF-8" standalone="no"?>
<!-- Created with Inkscape (http://www.inkscape.org/) -->

<svg
   version="1.1"
   id="svg2"
   width="128"
   height="256"
   viewBox="0 0 128 256"
   sodipodi:docname="accessibility.svg"
   xml:space="preserve"
   inkscape:export-filename="accessibility.png"
   inkscape:export-xdpi="96"
   inkscape:export-ydpi="96"
   inkscape:version="1.3 (0e150ed6c4, 2023-07-21)"
   xmlns:inkscape="http://www.inkscape.org/namespaces/inkscape"
   xmlns:sodipodi="http://sodipodi.sourceforge.net/DTD/sodipodi-0.dtd"
   xmlns:xlink="http://www.w3.org/1999/xlink"
   xmlns="http://www.w3.org/2000/svg"
   xmlns:svg="http://www.w3.org/2000/svg"><defs
     id="defs6"><linearGradient
       inkscape:collect="always"
       xlink:href="#linearGradient18673"
       id="linearGradient1827"
       gradientUnits="userSpaceOnUse"
       gradientTransform="translate(1365.4806,18.404136)"
       x1="102"
       y1="628"
       x2="102"
       y2="519" /><linearGradient
       inkscape:collect="always"
       id="linearGradient18673"><stop
         style="stop-color:#ff79c6;stop-opacity:1;"
         offset="0"
         id="stop18669" /><stop
         style="stop-color:#bd93f9;stop-opacity:1;"
         offset="1"
         id="stop18671" /></linearGradient></defs><sodipodi:namedview
     id="namedview4"
     pagecolor="#505050"
     bordercolor="#eeeeee"
     borderopacity="1"
     inkscape:showpageshadow="0"
     inkscape:pageopacity="0"
     inkscape:pagecheckerboard="0"
     inkscape:deskcolor="#505050"
     showgrid="true"
     inkscape:zoom="5.6568543"
     inkscape:cx="-3.9774756"
     inkscape:cy="100.49755"
     inkscape:window-width="5070"
     inkscape:window-height="1440"
     inkscape:window-x="0"
     inkscape:window-y="0"
     inkscape:window-maximized="1"
     inkscape:current-layer="g1839"><inkscape:grid
       type="xygrid"
       id="grid570"
       snapvisiblegridlinesonly="true"
       originx="0"
       originy="0"
       spacingy="1"
       spacingx="1"
       units="px"
       visible="true"
       empspacing="4" /></sodipodi:namedview><g
     id="g1839"
     style="display:inline"
     transform="translate(-1428,-457)"
     inkscape:label="Button"><path
       d="m 1446,617 c -11,0 -18,-7 -18,-18 v -44 c 0,-11 7,-18 18,-18 h 44 c 11,0 18,7 18,18 v 44 c 0,11 -7,18 -18,18 h -44"
       style="display:inline;fill:url(#linearGradient1827);fill-opacity:1;fill-rule:evenodd;stroke:#000000;stroke-width:0;stroke-linecap:butt;stroke-linejoin:miter;stroke-miterlimit:4;stroke-dasharray:none;stroke-opacity:1"
       id="path5989-9-7-2-3-6"
       sodipodi:nodetypes="csccsccsc"
       inkscape:label="Selected Outline" /><path
       d="m 1446,537 c -11,0 -18,-7 -18,-18 v -44 c 0,-11 7,-18 18,-18 h 44 c 11,0 18,7 18,18 v 44 c 0,11 -7,18 -18,18 h -44"
       style="display:inline;fill:#282a36;fill-opacity:1;stroke:#000000;stroke-width:0;stroke-linecap:butt;stroke-linejoin:miter;stroke-miterlimit:4;stroke-dasharray:none;stroke-opacity:1"
       id="path26164-9"
       sodipodi:nodetypes="csccsccsc"
       inkscape:label="Unselected Outline" /><path
       id="path26166-1"
       style="display:inline;fill:#3b3e63;fill-opacity:1;stroke:#000000;stroke-width:0;stroke-linecap:butt;stroke-linejoin:miter;stroke-miterlimit:4;stroke-dasharray:none;stroke-opacity:1"
       d="m 1502,480 v 34 c 0,11 -6,17 -17,17 h -33 c -11,0 -17,-6 -17,-17 v -34 c 0,-11 6,-17 17,-17 h 33 c 11,0 17,6 17,17 z m -0,80 v 34 c 0,11 -6,17 -17,17 h -33 c -11,0 -17,-6 -17,-17 v -34 c 0,-11 6,-17 17,-17 h 33 c 11,0 17,6 17,17 z"
       inkscape:label="Fill" /><path
       id="path1128-5"
       style="fill:#f8f8f2;stroke:none;stroke-width:1px;stroke-linecap:butt;stroke-linejoin:miter;stroke-opacity:1"
       d="M 64,112 H 16 v 8 h 12 v 28 h 8 v -16 h 8 v 16 h 8 V 120 H 64 Z M 48,92 H 32 v 16 H 48 Z M 64,32 H 16 v 8 h 12 v 28 h 8 V 52 h 8 v 16 h 8 V 40 H 64 Z M 48,12 H 32 v 16 h 16 z"
       inkscape:label="Icon"
       transform="translate(1428,457)" /></g></svg>
