<svg xmlns="http://www.w3.org/2000/svg" xmlns:svg="http://www.w3.org/2000/svg" xmlns:xlink="http://www.w3.org/1999/xlink" id="svg2" width="128" height="256" version="1.1" viewBox="0 0 128 256" xml:space="preserve"><defs id="defs6"><linearGradient id="linearGradient1827" x1="102" x2="102" y1="628" y2="519" gradientTransform="translate(1365.4806,18.404136)" gradientUnits="userSpaceOnUse" xlink:href="#linearGradient18673"/><linearGradient id="linearGradient18673"><stop style="stop-color:#ff79c6;stop-opacity:1" id="stop18669" offset="0"/><stop style="stop-color:#bd93f9;stop-opacity:1" id="stop18671" offset="1"/></linearGradient></defs><g id="g1839" style="display:inline" transform="translate(-1428.4806,-457.40414)"><path d="m 1446.4807,617.40414 c -11,0 -18.0001,-7 -18.0001,-18 v -44 c 0,-11 7.0001,-18 18.0001,-18 h 44 c 11,0 18,7 18,18 v 44 c 0,11 -7,18 -18,18 h -44" style="display:inline;fill:url(#linearGradient1827);fill-opacity:1;fill-rule:evenodd;stroke:#000;stroke-width:0;stroke-linecap:butt;stroke-linejoin:miter;stroke-miterlimit:4;stroke-dasharray:none;stroke-opacity:1" id="path5989-9-7-2-3-6"/><path d="m 1446.4807,537.40414 c -11,0 -18.0001,-7 -18.0001,-18 v -44 c 0,-11 7.0001,-18 18.0001,-18 h 44 c 11,0 18,7 18,18 v 44 c 0,11 -7,18 -18,18 h -44" style="display:inline;fill:#282a36;fill-opacity:1;stroke:#000;stroke-width:0;stroke-linecap:butt;stroke-linejoin:miter;stroke-miterlimit:4;stroke-dasharray:none;stroke-opacity:1" id="path26164-9"/><path id="path26166-1" style="display:inline;fill:#3b3e63;fill-opacity:1;stroke:#000;stroke-width:0;stroke-linecap:butt;stroke-linejoin:miter;stroke-miterlimit:4;stroke-dasharray:none;stroke-opacity:1" d="m 1501.9807,480.40414 v 34 c 0,11 -6,17 -17,17 h -33 c -11,0 -17,-6 -17,-17 v -34 c 0,-11 6,-17 17,-17 h 33 c 11,0 17,6 17,17 z m -0.5,80 v 34 c 0,11 -6,17 -17,17 h -33 c -11,0 -17,-6 -17,-17 v -34 c 0,-11 6,-17 17,-17 h 33 c 11,0 17,6 17,17 z"/><path id="path1128-5" style="fill:#f8f8f2;stroke:none;stroke-width:1px;stroke-linecap:butt;stroke-linejoin:miter;stroke-opacity:1" d="M 64,112 H 16 v 8 h 12 v 28 h 8 v -16 h 8 v 16 h 8 V 120 H 64 Z M 48,92 H 32 v 16 H 48 Z M 64,32 H 16 v 8 h 12 v 28 h 8 V 52 h 8 v 16 h 8 V 40 H 64 Z M 48,12 H 32 v 16 h 16 z" transform="translate(1428.4806,457.40414)"/></g></svg>