<svg xmlns="http://www.w3.org/2000/svg" xmlns:svg="http://www.w3.org/2000/svg" id="svg2" width="1024" height="1024" version="1.1" viewBox="0 0 1024 1024" xml:space="preserve"><g id="g1"><path d="m 21,86.000006 c -7,0 -11,4 -11,10.999997 V 123 c 0,7 4,11 11,11 h 38 c 7,0 11,-4 11,-11 V 97.000003 C 70,90.000006 66,86.000006 59,86.000006 Z" style="display:inline;fill:#124749;fill-opacity:1;stroke:none;stroke-width:0;stroke-linecap:butt;stroke-linejoin:miter;stroke-miterlimit:4;stroke-dasharray:none;stroke-opacity:1" id="path1793"/><path d="m 34,122 h 26 m 0,-12 H 34 M 60,98.000005 H 34 M 26,122 h -6 m 6,-12 h -6 m 6,-11.999996 h -6" style="display:inline;fill:none;stroke:#f8f8f2;stroke-width:4;stroke-linecap:butt;stroke-linejoin:miter;stroke-dasharray:none;stroke-opacity:1" id="path1"/></g><g id="g2"><path d="m 21,10.000003 c -7,0 -11,4 -11,10.999997 v 25.999997 c 0,7 4,11 11,11 h 38 c 7,0 11,-4 11,-11 V 21 C 70,14.000003 66,10.000003 59,10.000003 Z" style="display:inline;fill:#2c2f3f;fill-opacity:1;stroke:none;stroke-width:0;stroke-linecap:butt;stroke-linejoin:miter;stroke-miterlimit:4;stroke-dasharray:none;stroke-opacity:1" id="path1793-3"/><path id="path2412" style="display:inline;fill:none;stroke:#f8f8f2;stroke-width:4;stroke-linecap:butt;stroke-linejoin:miter;stroke-dasharray:none;stroke-opacity:1" d="M 34,46 H 60 M 60,34 H 34 M 60,22 H 34 m -8,24 h -6 m 6,-12 h -6 m 6,-12 h -6"/></g></svg>