<?xml version="1.0" encoding="UTF-8" standalone="no"?>
<!-- Created with Inkscape (http://www.inkscape.org/) -->

<svg
   version="1.1"
   id="svg2"
   width="1024"
   height="1024"
   viewBox="0 0 1024 1024"
   sodipodi:docname="recipe_button.svg"
   xml:space="preserve"
   inkscape:version="1.3 (0e150ed6c4, 2023-07-21)"
   xmlns:inkscape="http://www.inkscape.org/namespaces/inkscape"
   xmlns:sodipodi="http://sodipodi.sourceforge.net/DTD/sodipodi-0.dtd"
   xmlns="http://www.w3.org/2000/svg"
   xmlns:svg="http://www.w3.org/2000/svg"><defs
     id="defs6" /><sodipodi:namedview
     id="namedview4"
     pagecolor="#505050"
     bordercolor="#eeeeee"
     borderopacity="1"
     inkscape:showpageshadow="0"
     inkscape:pageopacity="0"
     inkscape:pagecheckerboard="0"
     inkscape:deskcolor="#505050"
     showgrid="true"
     inkscape:zoom="2.6074563"
     inkscape:cx="-128.28595"
     inkscape:cy="135.18923"
     inkscape:window-width="5070"
     inkscape:window-height="1440"
     inkscape:window-x="0"
     inkscape:window-y="0"
     inkscape:window-maximized="1"
     inkscape:current-layer="svg2"><inkscape:grid
       type="xygrid"
       id="grid1865"
       snapvisiblegridlinesonly="true"
       originx="0"
       originy="0"
       spacingy="1"
       spacingx="1"
       units="px"
       visible="true"
       empspacing="4" /></sodipodi:namedview><g
     id="g1"
     inkscape:label="Crafting Button Highlighted"><path
       d="m 21,86 c -7,0 -11,4 -11,11 V 123 c 0,7 4,11 11,11 h 38 c 7,0 11,-4 11,-11 V 97 C 70,90 66,86 59,86 Z"
       style="display:inline;fill:#124749;fill-opacity:1;stroke:none;stroke-width:0;stroke-linecap:butt;stroke-linejoin:miter;stroke-miterlimit:4;stroke-dasharray:none;stroke-opacity:1"
       id="path1793"
       sodipodi:nodetypes="sssssssss"
       inkscape:label="Selected" /><path
       d="m 34,122 h 26 m 0,-12 H 34 M 60,98 H 34 M 26,122 h -6 m 6,-12 h -6 m 6,-12 h -6"
       style="display:inline;fill:none;stroke:#f8f8f2;stroke-width:4;stroke-linecap:butt;stroke-linejoin:miter;stroke-dasharray:none;stroke-opacity:1"
       id="path1"
       inkscape:label="Selected Icon" /></g><g
     id="g2"
     inkscape:label="Crafting Button"><path
       d="m 21,10 c -7,0 -11,4 -11,11 v 26 c 0,7 4,11 11,11 h 38 c 7,0 11,-4 11,-11 V 21 C 70,14 66,10 59,10 Z"
       style="display:inline;fill:#2c2f3f;fill-opacity:1;stroke:none;stroke-width:0;stroke-linecap:butt;stroke-linejoin:miter;stroke-miterlimit:4;stroke-dasharray:none;stroke-opacity:1"
       id="path1793-3"
       sodipodi:nodetypes="sssssssss"
       inkscape:label="Unselected" /><path
       id="path2412"
       style="display:inline;fill:none;stroke:#f8f8f2;stroke-width:4;stroke-linecap:butt;stroke-linejoin:miter;stroke-dasharray:none;stroke-opacity:1"
       d="M 34,46 H 60 M 60,34 H 34 M 60,22 H 34 m -8,24 h -6 m 6,-12 h -6 m 6,-12 h -6"
       inkscape:label="Unselected Icon"
       sodipodi:nodetypes="cccccccccccc" /></g></svg>
