<svg xmlns="http://www.w3.org/2000/svg" xmlns:svg="http://www.w3.org/2000/svg" xmlns:xlink="http://www.w3.org/1999/xlink" id="svg2" width="1024" height="1024" version="1.1" viewBox="0 0 1024 1024" xml:space="preserve"><defs id="defs6"><linearGradient id="linearGradient5063"><stop style="stop-color:#ff79c6;stop-opacity:1" id="stop5061" offset="0"/><stop style="stop-color:#bd93f9;stop-opacity:1" id="stop5059" offset="1"/></linearGradient><linearGradient id="linearGradient4284"><stop style="stop-color:#bd93f9;stop-opacity:1" id="stop4280" offset="0"/><stop style="stop-color:#ff79c6;stop-opacity:1" id="stop4282" offset="1"/></linearGradient><linearGradient id="linearGradient1808" x1="45" x2="45" y1="142" y2="300" gradientUnits="userSpaceOnUse" xlink:href="#linearGradient4284"/><linearGradient id="linearGradient3438" x1="45" x2="45" y1="142" y2="300" gradientTransform="matrix(-1,0,0,1,208,0)" gradientUnits="userSpaceOnUse" xlink:href="#linearGradient4284"/><linearGradient id="linearGradient4286" x1="350" x2="350" y1="208" y2="259" gradientTransform="translate(-84)" gradientUnits="userSpaceOnUse" xlink:href="#linearGradient4284"/><linearGradient id="linearGradient5056" x1="350" x2="350" y1="186" y2="237" gradientTransform="matrix(1,0,0,-1,44,383.99999)" gradientUnits="userSpaceOnUse" xlink:href="#linearGradient5063"/></defs><g id="g896" transform="translate(24)"><path style="fill:url(#linearGradient4286);fill-opacity:1;stroke:#282a36;stroke-width:4;stroke-linecap:butt;stroke-linejoin:miter;stroke-dasharray:none;stroke-opacity:1" id="path3492-2-0" d="m 244,210 h 44 v 2 l -22,22 -22,-22 z"/><path style="fill:url(#linearGradient5056);fill-opacity:1;stroke:#282a36;stroke-width:4;stroke-linecap:butt;stroke-linejoin:miter;stroke-dasharray:none;stroke-opacity:1" id="path3492-2-0-6" d="m 372,174 h 44 v -2 l -22,-22 -22,22 z"/><path style="fill:#3b3e63;fill-opacity:1;stroke:#282a36;stroke-width:4;stroke-linecap:butt;stroke-linejoin:miter;stroke-dasharray:none;stroke-opacity:1" id="path3492-2" d="m 244,82 h 44 v 2 l -22,22 -22,-22 z"/><path style="fill:#3b3e63;fill-opacity:1;stroke:#282a36;stroke-width:4;stroke-linecap:butt;stroke-linejoin:miter;stroke-dasharray:none;stroke-opacity:1" id="path3492" d="m 372,46 h 44 V 44 L 394,22 372,44 Z"/></g><g id="g1077" transform="translate(24)"><path style="fill:url(#linearGradient3438);fill-opacity:1;stroke:#282a36;stroke-width:8;stroke-linecap:butt;stroke-linejoin:miter;stroke-dasharray:none;stroke-opacity:1" id="path1067" d="m 164,146 v 92 h -4 l -46,-46 46,-46 z"/><path style="fill:url(#linearGradient1808);fill-opacity:1;stroke:#282a36;stroke-width:8;stroke-linecap:butt;stroke-linejoin:miter;stroke-dasharray:none;stroke-opacity:1" id="path1065" d="m 44,146 v 92 h 4 L 94,192 48,146 Z"/><path style="fill:#3b3e63;fill-opacity:1;stroke:#282a36;stroke-width:8;stroke-linecap:butt;stroke-linejoin:miter;stroke-dasharray:none;stroke-opacity:1" id="path1063" d="m 164,18 v 92 h -4 L 114,64 160,18 Z"/><path style="fill:#3b3e63;fill-opacity:1;stroke:#282a36;stroke-width:8;stroke-linecap:butt;stroke-linejoin:miter;stroke-dasharray:none;stroke-opacity:1" id="path1061" d="m 44,18 v 92 h 4 L 94,64 48,18 Z"/></g></svg>