<svg xmlns="http://www.w3.org/2000/svg" xmlns:svg="http://www.w3.org/2000/svg" xmlns:xlink="http://www.w3.org/1999/xlink" id="svg2" width="1024" height="1024" version="1.1" viewBox="0 0 1024 1024" xml:space="preserve"><defs id="defs6"><linearGradient id="linearGradient4284"><stop style="stop-color:#bd93f9;stop-opacity:1" id="stop4280" offset="0"/><stop style="stop-color:#ff79c6;stop-opacity:1" id="stop4282" offset="1"/></linearGradient><linearGradient id="linearGradient1808" x1="45" x2="45" y1="142" y2="300" gradientUnits="userSpaceOnUse" xlink:href="#linearGradient4284"/><linearGradient id="linearGradient3438" x1="45" x2="45" y1="142" y2="300" gradientTransform="translate(152)" gradientUnits="userSpaceOnUse" xlink:href="#linearGradient4284"/></defs><g id="g391"><path style="fill:url(#linearGradient3438);fill-opacity:1;stroke:#282a36;stroke-width:8;stroke-linecap:butt;stroke-linejoin:miter;stroke-dasharray:none;stroke-opacity:1" id="path434-6-5" d="m 196,146 v 92 h 4 l 46,-46 -46,-46 z"/><path style="fill:url(#linearGradient1808);fill-opacity:1;stroke:#282a36;stroke-width:8;stroke-linecap:butt;stroke-linejoin:miter;stroke-dasharray:none;stroke-opacity:1" id="path434-6" d="m 44,146 v 92 h 4 L 94,192 48,146 Z"/><path style="fill:#3b3e63;fill-opacity:1;stroke:#282a36;stroke-width:8;stroke-linecap:butt;stroke-linejoin:miter;stroke-dasharray:none;stroke-opacity:1" id="path434-3" d="m 196,18 v 92 h 4 L 246,64 200,18 Z"/><path style="fill:#3b3e63;fill-opacity:1;stroke:#282a36;stroke-width:8;stroke-linecap:butt;stroke-linejoin:miter;stroke-dasharray:none;stroke-opacity:1" id="path434" d="m 44,18 v 92 h 4 L 94,64 48,18 Z"/></g><g id="g2016"><rect style="fill:#3c1a21;fill-opacity:1;display:inline;fill-rule:evenodd;stroke:none;stroke-width:4;paint-order:stroke markers fill" id="rect2071" width="24" height="88" x="280" y="20" transform="translate(128,128)"/><path id="path2075" style="fill:#3c1a21;fill-opacity:1;stroke:#f55;stroke-width:8;stroke-linecap:butt;stroke-linejoin:miter;stroke-dasharray:none;stroke-opacity:1" d="m 292,100 v -8 m 0,-64 v 56" transform="translate(128,128)"/><rect style="display:inline;fill:#413013;fill-opacity:1;fill-rule:evenodd;stroke:none;stroke-width:4;paint-order:stroke markers fill;stroke-opacity:1" id="rect2063" width="24" height="88" x="280" y="20" transform="translate(0,128)"/><path id="path2067" style="display:inline;fill:#413013;fill-opacity:1;stroke:#f1fa8c;stroke-width:8;stroke-linecap:butt;stroke-linejoin:miter;stroke-dasharray:none;stroke-opacity:1" d="m 292,100 v -8 m 0,-64 v 56" transform="translate(0,128)"/><rect style="display:inline;fill:#2e3242;fill-rule:evenodd;stroke:none;stroke-width:4;paint-order:stroke markers fill" id="rect445-7" width="24" height="88" x="280" y="20" transform="translate(128)"/><path id="path731-9" style="fill:none;stroke:#6272a4;stroke-width:8;stroke-linecap:butt;stroke-linejoin:miter;stroke-dasharray:none;stroke-opacity:1" d="m 292,100 v -8 m 0,-64 v 56" transform="translate(128)"/><rect style="display:inline;fill:#2e3242;fill-rule:evenodd;stroke:none;stroke-width:4;paint-order:stroke markers fill" id="rect445" width="24" height="88" x="280" y="20"/><path id="path731" style="fill:none;stroke:#6272a4;stroke-width:8;stroke-linecap:butt;stroke-linejoin:miter;stroke-opacity:1;stroke-dasharray:none" d="m 292,100 v -8 m 0,-64 v 56"/></g></svg>