<svg xmlns="http://www.w3.org/2000/svg" xmlns:svg="http://www.w3.org/2000/svg" xmlns:xlink="http://www.w3.org/1999/xlink" id="svg2" width="104" height="104" version="1.1" viewBox="0 0 104 104" xml:space="preserve"><defs id="defs6"><linearGradient id="linearGradient7703" x1="156" x2="156" y1="616" y2="512" gradientUnits="userSpaceOnUse" xlink:href="#linearGradient7709"/><linearGradient id="linearGradient7709"><stop style="stop-color:#ff79c6;stop-opacity:1" id="stop7707" offset="0"/><stop style="stop-color:#bd93f9;stop-opacity:1" id="stop7705" offset="1"/></linearGradient><linearGradient id="linearGradient7739" x1="156" x2="156" y1="610" y2="518" gradientUnits="userSpaceOnUse" xlink:href="#linearGradient7737"/><linearGradient id="linearGradient7737"><stop style="stop-color:#6d2c51;stop-opacity:1" id="stop7735" offset="0"/><stop style="stop-color:#523d6f;stop-opacity:1" id="stop7733" offset="1"/></linearGradient></defs><g id="g9" transform="translate(-104,-512)"><path style="display:inline;fill:url(#linearGradient7703);fill-opacity:1;stroke:none;stroke-width:1px;stroke-linecap:butt;stroke-linejoin:miter;stroke-opacity:1" id="path1249" d="m 120,528 v 21 l -15,15 15,14 v 22 h 21 l 15,15 15,-15 h 21 v -22 l 15,-14 -15,-15 v -21 h -21 l -15,-15 -15,15 z"/><path id="path1251" style="display:inline;fill:url(#linearGradient7739);fill-opacity:1;stroke:none;stroke-width:1px;stroke-linecap:butt;stroke-linejoin:miter;stroke-opacity:1" d="m 156,519 -13,13 h -19 v 19 l -13,13 13,12 v 20 h 19 l 13,13 13,-13 h 19 v -20 l 13,-12 -13,-13 v -19 h -19 z"/></g></svg>