<?xml version="1.0" encoding="UTF-8" standalone="no"?>
<!-- Created with Inkscape (http://www.inkscape.org/) -->

<svg
   version="1.1"
   id="svg2"
   width="104"
   height="104"
   viewBox="0 0 104 104"
   sodipodi:docname="goal_frame_unobtained.svg"
   xml:space="preserve"
   inkscape:export-filename="goal_frame_unobtained.png"
   inkscape:export-xdpi="96"
   inkscape:export-ydpi="96"
   inkscape:version="1.3.1 (91b66b0783, 2023-11-16, custom)"
   xmlns:inkscape="http://www.inkscape.org/namespaces/inkscape"
   xmlns:sodipodi="http://sodipodi.sourceforge.net/DTD/sodipodi-0.dtd"
   xmlns="http://www.w3.org/2000/svg"
   xmlns:svg="http://www.w3.org/2000/svg"><defs
     id="defs6" /><sodipodi:namedview
     id="namedview4"
     pagecolor="#505050"
     bordercolor="#eeeeee"
     borderopacity="1"
     inkscape:showpageshadow="0"
     inkscape:pageopacity="0"
     inkscape:pagecheckerboard="0"
     inkscape:deskcolor="#505050"
     showgrid="true"
     inkscape:zoom="10.429825"
     inkscape:cx="50.000839"
     inkscape:cy="58.390241"
     inkscape:window-width="3470"
     inkscape:window-height="1440"
     inkscape:window-x="0"
     inkscape:window-y="0"
     inkscape:window-maximized="0"
     inkscape:current-layer="svg2"><inkscape:grid
       type="xygrid"
       id="grid570"
       snapvisiblegridlinesonly="true"
       originx="0"
       originy="0"
       spacingy="1"
       spacingx="1"
       units="px"
       visible="true"
       empspacing="4" /></sodipodi:namedview><g
     id="g4-9-7"
     inkscape:label="Goal Locked"
     transform="rotate(44.370099,680.82214,308.38196)"><path
       id="rect4-9-7"
       style="display:inline;fill:#1e1f29;fill-opacity:1;fill-rule:evenodd;stroke-width:3.99205;stroke-linecap:square;stroke-linejoin:round;stroke-miterlimit:0"
       inkscape:label="Outline"
       d="m 29.840191,524.99539 45.252099,0.49752 c 9.898891,0.10883 16.891802,7.25721 16.782971,17.15611 l -0.497517,45.25209 c -0.10881,9.89693 -7.257209,16.8918 -17.156105,16.78297 L 28.96954,604.18657 c -9.898891,-0.10883 -16.891799,-7.25721 -16.782968,-17.15611 l 0.497513,-45.2521 c 0.108809,-9.89693 7.257212,-16.8918 17.156106,-16.78297 z"
       sodipodi:nodetypes="sssssssss" /><path
       id="rect50-1-6"
       style="display:inline;fill:#2e3242;fill-opacity:1;fill-rule:evenodd;stroke-width:2;stroke-linecap:square;stroke-linejoin:round;stroke-miterlimit:0"
       inkscape:label="Slot"
       d="m 29.094258,528.52294 46.666227,0.51306 c 7.07064,0.0777 12.664964,5.79644 12.587227,12.86708 l -0.513062,46.66623 c -0.07774,7.07064 -5.796435,12.66496 -12.867079,12.58722 l -46.666227,-0.51306 c -7.070641,-0.0777 -12.664963,-5.79644 -12.587227,-12.86708 l 0.513062,-46.66622 c 0.07735,-7.03505 5.796436,-12.66497 12.867079,-12.58723 z"
       sodipodi:nodetypes="sssssssss" /></g></svg>
