<svg xmlns="http://www.w3.org/2000/svg" xmlns:svg="http://www.w3.org/2000/svg" xmlns:xlink="http://www.w3.org/1999/xlink" id="svg2" width="112" height="128" version="1.1" xml:space="preserve"><defs id="defs6"><linearGradient id="linearGradient13-2" x1="1100" x2="1004" y1="-456" y2="-456" gradientUnits="userSpaceOnUse" xlink:href="#linearGradient4"/><linearGradient id="linearGradient4"><stop style="stop-color:#4a3a5e;stop-opacity:1" id="stop4" offset="0"/><stop style="stop-color:#1e1f29;stop-opacity:1" id="stop3" offset="1"/></linearGradient></defs><g id="g34-1-6-3-4" style="display:inline" transform="rotate(90,286,-686)"><path id="path33-2-2-5-7" style="display:inline;fill:#292936;fill-opacity:1;stroke:none;stroke-width:4;stroke-linecap:butt;stroke-linejoin:miter;stroke-miterlimit:4;stroke-dasharray:none;stroke-opacity:1;paint-order:normal" d="m 1098,-434.99999 -25,25 -88,-10e-6 -7,7 v 3 h -6 v -112 h 6 v 3 l 7,7 88,10e-6 25,25 z"/><path id="path34-7-6-6-8" style="color:#000;fill:url(#linearGradient13-2);-inkscape-stroke:none" d="m 1100,-433.99999 -26,26 -88,-10e-6 -6.00001,6 v 2 H 976 v -4 l 8,-8 88,10e-6 24,-24 v -40 l -24,-24 -88,-10e-6 -8,-8 v -4 h 4 v 2 l 6,6 88,10e-6 26,26 z"/></g></svg>