<?xml version="1.0" encoding="UTF-8" standalone="no"?>
<!-- Created with Inkscape (http://www.inkscape.org/) -->

<svg
   version="1.1"
   id="svg2"
   width="104"
   height="104"
   viewBox="0 0 104 104"
   sodipodi:docname="task_frame_unobtained.svg"
   xml:space="preserve"
   inkscape:export-filename="task_frame_obtained.png"
   inkscape:export-xdpi="96"
   inkscape:export-ydpi="96"
   inkscape:version="1.3 (0e150ed6c4, 2023-07-21)"
   xmlns:inkscape="http://www.inkscape.org/namespaces/inkscape"
   xmlns:sodipodi="http://sodipodi.sourceforge.net/DTD/sodipodi-0.dtd"
   xmlns="http://www.w3.org/2000/svg"
   xmlns:svg="http://www.w3.org/2000/svg"><defs
     id="defs6" /><sodipodi:namedview
     id="namedview4"
     pagecolor="#505050"
     bordercolor="#eeeeee"
     borderopacity="1"
     inkscape:showpageshadow="0"
     inkscape:pageopacity="0"
     inkscape:pagecheckerboard="0"
     inkscape:deskcolor="#505050"
     showgrid="true"
     inkscape:zoom="7.375"
     inkscape:cx="49.559322"
     inkscape:cy="45.627119"
     inkscape:window-width="3470"
     inkscape:window-height="1440"
     inkscape:window-x="0"
     inkscape:window-y="0"
     inkscape:window-maximized="0"
     inkscape:current-layer="svg2"><inkscape:grid
       type="xygrid"
       id="grid570"
       snapvisiblegridlinesonly="true"
       originx="0"
       originy="0"
       spacingy="1"
       spacingx="1"
       units="px"
       visible="true"
       empspacing="4" /></sodipodi:namedview><path
     d="M 12,32 C 12,19.77778 19.777778,12 32,12 h 40 c 12.22222,0 20,7.77778 20,20 V 72 C 92,84.22222 84.22222,92 72,92 H 32 C 19.777778,92 12,84.22222 12,72 Z"
     style="display:inline;fill:#1e1f29;fill-opacity:1;stroke:#000000;stroke-width:0;stroke-linecap:butt;stroke-linejoin:miter;stroke-miterlimit:4;stroke-dasharray:none;stroke-opacity:1"
     id="path1082-1"
     sodipodi:nodetypes="csssssscc"
     inkscape:label="Advancement Outline" /><path
     d="M 88,36 V 68 C 88,82 82,88 68,88 H 36 C 22,88 16,82 16,68 V 36 C 16,22 22,16 36,16 h 32 c 14,0 20,6 20,20 z"
     style="display:inline;fill:#2c2f3f;fill-opacity:1;stroke:#000000;stroke-width:0;stroke-linecap:butt;stroke-linejoin:miter;stroke-miterlimit:4;stroke-dasharray:none;stroke-opacity:1"
     id="path1054-2"
     inkscape:label="Advancement Fill"
     sodipodi:nodetypes="sssssssss" /></svg>
