<?xml version="1.0" encoding="UTF-8" standalone="no"?>
<!-- Created with Inkscape (http://www.inkscape.org/) -->

<svg
   version="1.1"
   id="svg1261"
   width="64"
   height="64"
   viewBox="0 0 64 64"
   sodipodi:docname="empty_slot_axe.svg"
   inkscape:version="1.3 (0e150ed6c4, 2023-07-21)"
   xml:space="preserve"
   xmlns:inkscape="http://www.inkscape.org/namespaces/inkscape"
   xmlns:sodipodi="http://sodipodi.sourceforge.net/DTD/sodipodi-0.dtd"
   xmlns="http://www.w3.org/2000/svg"
   xmlns:svg="http://www.w3.org/2000/svg"><defs
     id="defs1265" /><sodipodi:namedview
     id="namedview1263"
     pagecolor="#505050"
     bordercolor="#eeeeee"
     borderopacity="1"
     inkscape:showpageshadow="0"
     inkscape:pageopacity="0"
     inkscape:pagecheckerboard="0"
     inkscape:deskcolor="#505050"
     showgrid="true"
     inkscape:zoom="10.429825"
     inkscape:cx="-2.492851"
     inkscape:cy="31.927669"
     inkscape:window-width="3470"
     inkscape:window-height="1440"
     inkscape:window-x="0"
     inkscape:window-y="0"
     inkscape:window-maximized="0"
     inkscape:current-layer="svg1261"><inkscape:grid
       type="xygrid"
       id="grid1388"
       snapvisiblegridlinesonly="true"
       originx="0"
       originy="0"
       spacingy="1"
       spacingx="1"
       units="px"
       visible="true"
       empspacing="4" /></sodipodi:namedview><path
     id="path26"
     style="fill:#17181c;fill-rule:evenodd;stroke-width:0.0958789;stroke-linecap:square;stroke-linejoin:round;stroke-miterlimit:0"
     d="m 8.005887,55.993269 v -4.002943 h 1.9894868 1.9894872 v 2.013456 2.013457 h 2.013456 2.013457 v 1.989487 1.989487 H 12.00883 8.005887 Z m 3.978974,-5.99243 v -1.989487 h 2.013456 2.013457 v 1.989487 1.989487 h -2.013457 -2.013456 z m 4.026913,4.002943 v -2.013456 h 1.989487 1.989487 v 2.013456 2.013457 h -1.989487 -1.989487 z m 3.978974,-4.002943 v -1.989487 h 2.013456 2.013457 v 1.989487 1.989487 h -2.013457 -2.013456 z m -3.978974,-4.002944 v -2.013456 h 1.989487 1.989487 v 2.013456 2.013457 h -1.989487 -1.989487 z m 3.978974,-4.002943 v -1.989487 h 2.013456 2.013457 v 1.989487 1.989487 h -2.013457 -2.013456 z m 4.026913,4.002943 v -2.013456 h 1.989487 1.989487 v 2.013456 2.013457 h -1.989487 -1.989487 z m 3.978974,-4.002943 v -1.989487 h 1.989487 1.989486 v 1.989487 1.989487 h -1.989486 -1.989487 z m -3.978974,-4.002944 v -2.013456 h 1.989487 1.989487 v 2.013456 2.013457 h -1.989487 -1.989487 z m 3.978974,-4.002943 v -1.989487 h 1.989487 1.989486 v 1.989487 1.989487 h -1.989486 -1.989487 z m 3.978973,4.002943 v -2.013456 h 2.013457 2.013457 v 2.013456 2.013457 h -2.013457 -2.013457 z m 4.026914,-4.002943 v -1.989487 h 1.989486 1.989487 v 1.989487 1.989487 h -1.989487 -1.989486 z m -4.026914,-3.978974 v -1.989487 h -1.989486 -1.989487 v -2.013456 -2.013457 h 5.99243 5.99243 v 2.013457 2.013456 h -1.989487 -1.989486 v 1.989487 1.989487 h -2.013457 -2.013457 z m 8.005887,0 v -1.989487 h 2.013457 2.013457 v 1.989487 1.989487 h -2.013457 -2.013457 z m 4.026914,3.978974 v -1.989487 h 4.002943 4.002944 v 1.989487 1.989487 h -4.002944 -4.002943 z m 8.005887,-5.99243 v -4.002944 h 1.989486 1.989487 v 4.002944 4.002943 h -1.989487 -1.989486 z m -4.026914,-8.005887 v -4.002944 h 2.013457 2.013457 v 4.002944 4.002943 H 50.000839 47.987382 Z M 44.008409,11.984861 V 7.9819172 h 1.989486 1.989487 v 4.0029438 4.002943 H 45.997895 44.008409 Z M 36.002522,5.9924304 V 4.0029435 h 4.002943 4.002944 V 5.9924304 7.9819172 H 40.005465 36.002522 Z M 31.975608,9.9953738 V 7.9819172 h 2.013457 2.013457 V 9.9953738 12.00883 H 33.989065 31.975608 Z M 27.996635,13.998317 V 12.00883 h 1.989487 1.989486 v 1.989487 1.989487 h -1.989486 -1.989487 z m -3.978974,5.992431 v -4.002944 h 1.989487 1.989487 v 4.002944 4.002943 h -1.989487 -1.989487 z"
     inkscape:label="Axe" /></svg>
