<?xml version="1.0" encoding="UTF-8" standalone="no"?>
<!-- Created with Inkscape (http://www.inkscape.org/) -->

<svg
   version="1.1"
   id="svg1261"
   width="64"
   height="64"
   viewBox="0 0 64 64"
   sodipodi:docname="empty_slot_axe.svg"
   inkscape:version="1.3 (0e150ed6c4, 2023-07-21)"
   xml:space="preserve"
   xmlns:inkscape="http://www.inkscape.org/namespaces/inkscape"
   xmlns:sodipodi="http://sodipodi.sourceforge.net/DTD/sodipodi-0.dtd"
   xmlns="http://www.w3.org/2000/svg"
   xmlns:svg="http://www.w3.org/2000/svg"><defs
     id="defs1265" /><sodipodi:namedview
     id="namedview1263"
     pagecolor="#505050"
     bordercolor="#eeeeee"
     borderopacity="1"
     inkscape:showpageshadow="0"
     inkscape:pageopacity="0"
     inkscape:pagecheckerboard="0"
     inkscape:deskcolor="#505050"
     showgrid="true"
     inkscape:zoom="10.429825"
     inkscape:cx="-2.492851"
     inkscape:cy="31.927669"
     inkscape:window-width="3470"
     inkscape:window-height="1440"
     inkscape:window-x="0"
     inkscape:window-y="0"
     inkscape:window-maximized="0"
     inkscape:current-layer="svg1261"><inkscape:grid
       type="xygrid"
       id="grid1388"
       snapvisiblegridlinesonly="true"
       originx="0"
       originy="0"
       spacingy="1"
       spacingx="1"
       units="px"
       visible="true"
       empspacing="4" /></sodipodi:namedview><path
     id="path26"
     style="fill:#17181c;fill-rule:evenodd;stroke-width:0.0958789;stroke-linecap:square;stroke-linejoin:round;stroke-miterlimit:0"
     d="m 8,56 v -4 h 2 2 v 2 2 h 2 2 v 2 2 H 12 8 Z m 4,-6 v -2 h 2 2 v 2 2 h -2 -2 z m 4,4 v -2 h 2 2 v 2 2 h -2 -2 z m 4,-4 v -2 h 2 2 v 2 2 h -2 -2 z m -4,-4 v -2 h 2 2 v 2 2 h -2 -2 z m 4,-4 v -2 h 2 2 v 2 2 h -2 -2 z m 4,4 v -2 h 2 2 v 2 2 h -2 -2 z m 4,-4 v -2 h 2 2 v 2 2 h -2 -2 z m -4,-4 v -2 h 2 2 v 2 2 h -2 -2 z m 4,-4 v -2 h 2 2 v 2 2 h -2 -2 z m 4,4 v -2 h 2 2 v 2 2 h -2 -2 z m 4,-4 v -2 h 2 2 v 2 2 h -2 -2 z m -4,-4 v -2 h -2 -2 v -2 -2 h 6 6 v 2 2 h -2 -2 v 2 2 h -2 -2 z m 8,0 v -2 h 2 2 v 2 2 h -2 -2 z m 4,4 v -2 h 4 4 v 2 2 h -4 -4 z m 8,-6 v -4 h 2 2 v 4 4 h -2 -2 z m -4,-8 v -4 h 2 2 v 4 4 H 50 48 Z M 44,12 V 8 h 2 2 v 4 4 H 46 44 Z M 36,6 V 4 h 4 4 V 6 8 H 40 36 Z M 32,10 V 8 h 2 2 V 10 12 H 34 32 Z M 28,14 V 12 h 2 2 v 2 2 h -2 -2 z m -4,6 v -4 h 2 2 v 4 4 h -2 -2 z"
     inkscape:label="Axe" /></svg>
