<svg xmlns="http://www.w3.org/2000/svg" xmlns:svg="http://www.w3.org/2000/svg" id="svg1261" width="64" height="64" version="1.1" viewBox="0 0 64 64" xml:space="preserve"><path id="path14" style="fill:#17181c;fill-rule:evenodd;stroke-width:.135593;stroke-linecap:square;stroke-linejoin:round;stroke-miterlimit:0" d="m 36,18.033898 v -2 h 2 2 v 2 2 h -2 -2 z m 4,4 v -2 h 2 2 v 2 2 H 42 40 Z M 36,30 v -1.966102 h 2 2 V 30 31.966102 h -2 -2 z m -8,3.966102 v -2 h 2 2 v 2 2 h -2 -2 z m 4,8 v -2 h 2 2 v 2 2 h -2 -2 z m -8,12 v -2 h 2 2 v -2 -2 h -2 -2 v -2 -2 h 4 4 v 2 2 h 2 2 v -2 -2 h 2 2 v -4 -4 h 2 2 v 2 2 h 2 2 v -4 -4 H 46 44 V 28 24.033898 h 2 2 v 2 2 h 2 2 V 30 31.966102 h 2 2 v 6 6 h -2 -2 v 2 2 h -2 -2 v 2 2 h -4 -4 v 2 2 h -8 -8 z m -8,-4 v -2 h 4 4 v 2 2 h -4 -4 z m -4,-4 v -2 h 2 2 v 2 2 h -2 -2 z m -4,-8 v -6 h 2 2 v 6 6 H 10 8 Z M 12,30 v -1.966102 h 2 2 V 30 31.966102 h -2 -2 z m 4,-3.966102 v -2 h 2 2 v 2 2 h -2 -2 z m 4,-4 v -2 h 2 2 v 2 2 h -2 -2 z m 4,-4 v -2 h 2 2 v 2 2 H 26 24 Z M 28,14 v -2 h 4 4 v 2 2 h -4 -4 z"/></svg>