<svg xmlns="http://www.w3.org/2000/svg" xmlns:svg="http://www.w3.org/2000/svg" id="svg1261" width="64" height="64" version="1.1" viewBox="0 0 64 64" xml:space="preserve"><path id="path24" style="fill:#17181c;fill-rule:evenodd;stroke-width:.0958789;stroke-linecap:square;stroke-linejoin:round;stroke-miterlimit:0" d="m 19.990748,41.994952 v -1.989487 h 2.013456 2.013457 v 1.989487 1.989487 h -2.013457 -2.013456 z m 4.026913,-4.002944 v -2.013456 h 1.989487 1.989487 v 2.013456 2.013457 h -1.989487 -1.989487 z m 3.978974,-4.002943 v -1.989487 h 1.989487 1.989486 v 1.989487 1.989487 h -1.989486 -1.989487 z m 3.978973,-3.978974 v -1.989487 h 2.013457 2.013457 v 1.989487 1.989487 h -2.013457 -2.013457 z m 4.026914,-4.002943 v -2.013457 h 1.989486 1.989487 v 2.013457 2.013456 h -1.989487 -1.989486 z m 3.978973,-4.002944 v -1.989487 h 2.013457 2.013457 v 1.989487 1.989487 h -2.013457 -2.013457 z m 4.026914,-4.002943 v -2.013457 h 1.989486 1.989487 v 2.013457 2.013456 h -1.989487 -1.989486 z m 3.978973,12.00883 v -1.989487 h 2.013457 2.013457 v 1.989487 1.989487 h -2.013457 -2.013457 z m -3.978973,3.978974 v -1.989487 h 1.989486 1.989487 v 1.989487 1.989487 h -1.989487 -1.989486 z m -4.026914,4.002943 v -2.013456 h 2.013457 2.013457 v 2.013456 2.013457 h -2.013457 -2.013457 z m -3.978973,4.002944 v -1.989487 h 1.989486 1.989487 v 1.989487 1.989487 h -1.989487 -1.989486 z m -4.026914,4.002943 v -2.013456 h 2.013457 2.013457 v 2.013456 2.013457 h -2.013457 -2.013457 z m -3.978973,4.002944 v -1.989487 h 1.989487 1.989486 v 1.989487 1.989487 h -1.989486 -1.989487 z m -3.978974,4.002943 v -2.013456 h 1.989487 1.989487 v 2.013456 2.013457 h -1.989487 -1.989487 z m -8.005887,4.002944 v -1.989487 h 4.002943 4.002944 v 1.989487 1.989487 h -4.002944 -4.002943 z m -4.026913,-4.002944 v -2.013456 h 2.013456 2.013457 v 2.013456 2.013457 H 13.998317 11.984861 Z M 8.005887,43.984439 v -8.005887 h 1.9894868 1.9894872 v 8.005887 8.005887 H 9.9953738 8.005887 Z m 3.978974,-9.995374 v -1.989487 h 2.013456 2.013457 v 1.989487 1.989487 h -2.013457 -2.013456 z m 4.026913,-3.978974 v -1.989487 h 1.989487 1.989487 v 1.989487 1.989487 h -1.989487 -1.989487 z m 3.978974,-4.002943 v -2.013457 h 2.013456 2.013457 v 2.013457 2.013456 h -2.013457 -2.013456 z m 4.026913,-4.002944 v -1.989487 h 1.989487 1.989487 v 1.989487 1.989487 h -1.989487 -1.989487 z m 3.978974,-4.002943 v -2.013457 h 1.989487 1.989486 v 2.013457 2.013456 h -1.989486 -1.989487 z m 3.978973,-4.002944 V 12.00883 h 2.013457 2.013457 v 1.989487 1.989487 h -2.013457 -2.013457 z m 20.038688,8.005887 v -6.0164 H 50.000839 47.987382 V 13.998317 12.00883 h -5.99243 -5.99243 V 9.9953738 7.9819172 h 9.995373 9.995374 V 18.001261 28.020604 h -1.989487 -1.989486 z"/></svg>