<svg xmlns="http://www.w3.org/2000/svg" xmlns:svg="http://www.w3.org/2000/svg" id="svg1261" width="64" height="64" version="1.1" viewBox="0 0 64 64" xml:space="preserve"><path id="path12" style="fill:#17181c;fill-rule:evenodd;stroke-width:.0958789;stroke-linecap:square;stroke-linejoin:round;stroke-miterlimit:0" d="m 19.990748,50.000839 v -1.989487 h -1.989487 -1.989487 v -2.013457 -2.013456 h 4.002943 4.002944 v 4.002943 4.002944 h -2.013457 -2.013456 z m 4.026913,4.002943 v -2.013456 h 7.981917 7.981917 v 2.013456 2.013457 h -7.981917 -7.981917 z m 3.978974,-8.005887 v -2.013456 h 4.002943 4.002944 v 2.013456 2.013457 h -4.002944 -4.002943 z m 11.98486,1.989487 v -4.002943 h 4.002944 4.002943 v 2.013456 2.013457 h -1.989487 -1.989486 v 1.989487 1.989487 H 41.994952 39.981495 Z M 36.002522,33.989065 v -9.995374 h 5.99243 5.99243 v -1.989487 -1.989487 h 2.013457 2.013457 v 11.984861 11.984861 h -2.013457 -2.013457 v -7.981917 -7.981918 h -4.002943 -4.002944 v 7.981918 7.981917 h -1.989487 -1.989486 z m 8.005887,-15.987804 v -2.013457 h 1.989486 1.989487 v 2.013457 2.013456 H 45.997895 44.008409 Z M 39.981495,13.998317 V 12.00883 h 2.013457 2.013457 v 1.989487 1.989487 h -2.013457 -2.013457 z m -11.98486,8.005887 v -1.989487 h 4.002943 4.002944 v 1.989487 1.989487 H 31.999578 27.996635 Z M 11.984861,31.999578 V 20.014717 h 2.013456 2.013457 v 1.989487 1.989487 h 5.99243 5.992431 v 9.995374 9.995374 h -1.989487 -1.989487 v -7.981917 -7.981918 h -4.002944 -4.002943 v 7.981918 7.981917 h -2.013457 -2.013456 z m 4.026913,-13.998317 v -2.013457 h 1.989487 1.989487 v 2.013457 2.013456 h -1.989487 -1.989487 z m 3.978974,-4.002944 V 12.00883 h 2.013456 2.013457 v 1.989487 1.989487 H 22.004204 19.990748 Z M 24.017661,9.9953738 V 7.9819172 h 7.981917 7.981917 V 9.9953738 12.00883 h -7.981917 -7.981917 z"/></svg>