<svg xmlns="http://www.w3.org/2000/svg" xmlns:svg="http://www.w3.org/2000/svg" id="svg1261" width="64" height="64" version="1.1" viewBox="0 0 64 64" xml:space="preserve"><path id="path24" style="fill:#17181c;fill-rule:evenodd;stroke-width:.0958789;stroke-linecap:square;stroke-linejoin:round;stroke-miterlimit:0" d="M 7.9819172,55.993269 V 51.990326 H 9.9953738 12.00883 v 2.013456 2.013457 h 1.989487 1.989487 v 1.989487 1.989487 H 11.984861 7.9819172 Z m 4.0269128,-5.99243 v -1.989487 h 1.989487 1.989487 v 1.989487 1.989487 H 13.998317 12.00883 Z m 3.978974,4.002943 v -2.013456 h 2.013457 2.013456 v 2.013456 2.013457 h -2.013456 -2.013457 z m 4.026913,-4.002943 v -1.989487 h 1.989487 1.989487 v 1.989487 1.989487 h -1.989487 -1.989487 z m -4.026913,-4.002944 v -2.013456 h 2.013457 2.013456 v 2.013456 2.013457 h -2.013456 -2.013457 z m 4.026913,-4.002943 v -1.989487 h 1.989487 1.989487 v 1.989487 1.989487 h -1.989487 -1.989487 z m 3.978974,4.002943 v -2.013456 h 2.013457 2.013456 v 2.013456 2.013457 h -2.013456 -2.013457 z m 4.026913,-4.002943 v -1.989487 h 1.989487 1.989487 v 1.989487 1.989487 h -1.989487 -1.989487 z m -4.026913,-4.002944 v -2.013456 h 2.013457 2.013456 v 2.013456 2.013457 h -2.013456 -2.013457 z m 4.026913,-4.002943 v -1.989487 h 1.989487 1.989487 v 1.989487 1.989487 h -1.989487 -1.989487 z m 3.978974,4.002943 v -2.013456 h 1.989487 1.989487 v 2.013456 2.013457 h -1.989487 -1.989487 z m 0,-7.981917 v -1.989487 h 1.989487 1.989487 v 1.989487 1.989487 h -1.989487 -1.989487 z m 3.978974,3.978974 v -1.989487 h 2.013456 2.013457 v 1.989487 1.989487 h -2.013457 -2.013456 z m 4.026913,-3.978974 v -1.989487 h 1.989487 1.989487 v 1.989487 1.989487 h -1.989487 -1.989487 z m -4.026913,-4.002943 v -2.013457 h 2.013456 2.013457 v 2.013457 2.013456 h -2.013457 -2.013456 z m 4.026913,-4.002944 v -1.989487 h 1.989487 1.989487 v 1.989487 1.989487 h -1.989487 -1.989487 z m 3.978974,4.002944 v -2.013457 h 2.013456 2.013457 v 2.013457 2.013456 h -2.013457 -2.013456 z m 8.005887,19.990747 v -2.013456 h 2.013456 2.013457 v 2.013456 2.013457 h -2.013457 -2.013456 z m 4.026913,-12.00883 v -9.995374 h 1.989487 1.989487 v 9.995374 9.995374 h -1.989487 -1.989487 z m -8.005887,2.013457 v -7.981918 h 1.989487 1.989487 v 7.981918 7.981917 H 50.000839 48.011352 Z M 51.990326,19.990748 V 15.987804 H 47.987382 43.984439 V 13.998317 12.00883 h 6.0164 6.0164 v 5.992431 5.99243 H 54.003782 51.990326 Z M 23.993691,18.001261 v -2.013457 h 8.005887 8.005887 v 2.013457 2.013456 H 31.999578 23.993691 Z M 20.014717,13.998317 V 12.00883 h 1.989487 1.989487 v 1.989487 1.989487 H 22.004204 20.014717 Z M 23.993691,9.9953738 V 8.005887 h 9.995374 9.995374 v 1.9894868 1.9894872 h -9.995374 -9.995374 z"/></svg>