<?xml version="1.0" encoding="UTF-8" standalone="no"?>
<!-- Created with Inkscape (http://www.inkscape.org/) -->

<svg
   version="1.1"
   id="svg1261"
   width="64"
   height="64"
   viewBox="0 0 64 64"
   sodipodi:docname="empty_slot_smithing_template_armor_trim.svg"
   inkscape:version="1.3 (0e150ed6c4, 2023-07-21)"
   xml:space="preserve"
   xmlns:inkscape="http://www.inkscape.org/namespaces/inkscape"
   xmlns:sodipodi="http://sodipodi.sourceforge.net/DTD/sodipodi-0.dtd"
   xmlns="http://www.w3.org/2000/svg"
   xmlns:svg="http://www.w3.org/2000/svg"><defs
     id="defs1265" /><sodipodi:namedview
     id="namedview1263"
     pagecolor="#505050"
     bordercolor="#eeeeee"
     borderopacity="1"
     inkscape:showpageshadow="0"
     inkscape:pageopacity="0"
     inkscape:pagecheckerboard="0"
     inkscape:deskcolor="#505050"
     showgrid="true"
     inkscape:zoom="16"
     inkscape:cx="20.53125"
     inkscape:cy="30.875"
     inkscape:window-width="3470"
     inkscape:window-height="1440"
     inkscape:window-x="0"
     inkscape:window-y="0"
     inkscape:window-maximized="0"
     inkscape:current-layer="svg1261"><inkscape:grid
       type="xygrid"
       id="grid1388"
       snapvisiblegridlinesonly="true"
       originx="0"
       originy="0"
       spacingy="1"
       spacingx="1"
       units="px"
       visible="true"
       empspacing="4" /></sodipodi:namedview><path
     id="path21"
     style="fill:#17181c;fill-rule:evenodd;stroke-width:0.125;stroke-linecap:square;stroke-linejoin:round;stroke-miterlimit:0"
     d="m 8.03125,54.03125 v -2 h 4 4 v 2 2 h -4 -4 z m 8,4 v -2 h 4 4 v 2 2 h -4 -4 z m 20,-10 v -4 h 2 2 v 4 4 h -2 -2 z M 24.03125,62 v -1.96875 h 4 4 v -4 -4 h 2 2 v 4 4 h 4 4 V 62 63.96875 h -10 -10 z m 20,-5.96875 v -4 h 2 2 v 4 4 h -2 -2 z m 4,-8 v -4 h 2 2 v 4 4 h -2 -2 z m -8,-8 v -4 h 2 2 v 4 4 h -2 -2 z m 4,-8 v -4 h 2 2 v 4 4 h -2 -2 z m 8,8 v -4 h 2 2 v 4 4 h -2 -2 z m -4,-14 v -2 h 2 2 v 2 2 h -2 -2 z m 8,6 v -4 h 2 2 v 4 4 h -2 -2 z m 3.962341,-10.022551 v -5.988311 h 1.988738 1.988737 v 5.988311 5.98831 h -1.988737 -1.988738 z m -7.999146,-3.999573 v -6.010408 h 3.999573 3.999573 v 2.010835 2.010835 h -1.988738 -1.988738 v 3.999573 3.999572 H 54.00528 51.994445 Z M 43.9953,9.9878833 V 7.9770484 h 3.999573 3.999572 V 9.9878833 11.998718 H 47.994873 43.9953 Z M 35.996155,5.9883105 V 3.9995727 H 39.995727 43.9953 V 5.9883105 7.9770484 H 39.995727 35.996155 Z M 24.019533,2.0108349 V 0.02209709 h 5.988311 5.988311 V 2.0108349 3.9995727 H 30.007844 24.019533 Z M 19.997864,7.9991454 V 3.9995727 h 2.010835 2.010834 v 3.9995727 3.9995726 h -2.010834 -2.010835 z m -4.02167,7.9991456 v -3.999573 h 2.010835 2.010835 v 3.999573 3.999573 h -2.010835 -2.010835 z m -3.977476,7.999145 v -3.999572 h 1.988738 1.988738 v 3.999572 3.999573 h -1.988738 -1.988738 z m -4.0216696,7.999146 v -3.999573 h 2.0108349 2.0108347 v 3.999573 3.999573 H 9.9878833 7.9770484 Z M 3.9995727,43.9953 V 35.996155 H 5.9883105 7.9770484 V 43.9953 51.994445 H 5.9883105 3.9995727 Z"
     inkscape:label="Trim Template" /></svg>
