<svg xmlns="http://www.w3.org/2000/svg" xmlns:svg="http://www.w3.org/2000/svg" id="svg1261" width="64" height="64" version="1.1" viewBox="0 0 64 64" xml:space="preserve"><path id="path16" style="fill:#17181c;fill-rule:evenodd;stroke-width:.0883883;stroke-linecap:square;stroke-linejoin:round;stroke-miterlimit:0" d="m 23.997436,42.006562 v -1.988738 h 7.999146 7.999145 V 42.006562 43.9953 H 31.996582 23.997436 Z M 20.019961,58.004853 V 56.016115 H 18.009126 15.998291 V 54.00528 51.994445 h 2.010835 2.010835 V 47.994873 43.9953 h 1.988738 1.988737 v 6.010408 6.010407 h 7.999146 7.999145 V 50.005708 43.9953 h 2.010835 2.010835 v 3.999573 3.999572 h 1.988738 1.988738 v 2.010835 2.010835 h -1.988738 -1.988738 v 1.988738 1.988738 H 32.018679 20.019961 Z M 47.994873,46.006135 v -5.988311 h 2.010835 2.010834 v -6.010407 -6.010408 h 1.988738 1.988738 V 35.996155 43.9953 H 54.00528 52.016542 v 3.999573 3.999572 H 50.005708 47.994873 Z M 39.995727,34.007417 v -6.010408 h 2.010835 2.010835 v 3.999573 3.999573 h 1.988738 1.988738 v 2.010834 2.010835 H 43.9953 39.995727 Z m 4.02167,-7.999146 v -1.988738 h 1.988738 1.988738 v -2.010834 -2.010835 h 2.010835 2.010834 v 3.999572 3.999573 H 48.01697 44.017397 Z m 0,-7.999145 v -1.988738 h 1.988738 1.988738 v 1.988738 1.988738 h -1.988738 -1.988738 z m -15.998291,0 v -1.988738 h 3.999573 3.999573 v 1.988738 1.988738 h -3.999573 -3.999573 z m -7.999145,-3.999573 v -2.010835 h 1.988738 1.988737 V 9.9878833 7.9770484 h 7.999146 7.999145 v 2.0108349 2.0108347 h 2.010835 2.010835 v 2.010835 2.010835 h -3.999573 -3.999572 v -2.010835 -2.010835 h -3.999573 -3.999573 v 2.010835 2.010835 h -3.999573 -3.999572 z m -4.02167,3.999573 v -1.988738 h 2.010835 2.010835 v 1.988738 1.988738 h -2.010835 -2.010835 z m 7.999145,5.98831 v -3.999572 h 2.010835 2.010835 v 2.010835 2.010834 h 3.999573 3.999573 v -2.010834 -2.010835 h 1.988737 1.988738 v 3.999572 3.999573 h -7.999145 -7.999146 z m -7.999145,14.009553 v -2.010834 h 2.010835 2.010835 v -3.999573 -3.999573 h 1.988738 1.988737 v 6.010408 6.010407 h -3.999572 -3.999573 z m -4.02167,9.987884 V 43.9953 H 9.9878833 7.9991454 v -7.999145 -7.999146 h 1.9887379 1.9887377 v 6.010408 6.010407 h 2.010835 2.010835 v 5.988311 5.98831 h -2.010835 -2.010835 z m 0,-23.97534 v -3.999572 h 2.010835 2.010835 v 1.988738 1.988737 h 2.010835 2.010835 v 2.010835 2.010835 h -4.02167 -4.02167 z"/></svg>