<svg xmlns="http://www.w3.org/2000/svg" xmlns:svg="http://www.w3.org/2000/svg" id="svg1261" width="64" height="64" version="1.1" viewBox="0 0 64 64" xml:space="preserve"><path id="path31" style="fill:#17181c;fill-rule:evenodd;stroke-width:.135593;stroke-linecap:square;stroke-linejoin:round;stroke-miterlimit:0" d="m 55.966102,14.033898 v -2 h 2 2 v 2 2 h -2 -2 z m -4,4 v -2 h 2 2 v 2 2 h -2 -2 z m -4,4 v -2 h 2 2 v 2 2 h -2 -2 z m -4,4 v -2 h 2 2 v 2 2 h -2 -2 z m -4,3.966102 v -1.966102 h 2 2 V 30 31.966102 h -2 -2 z m -4,3.966102 v -2 h 2 2 v 2 2 h -2 -2 z m -3.932204,4 v -2 H 34 35.966102 v 2 2 H 34 32.033898 Z m -8,-7.966102 v -1.966102 h 2 2 V 30 31.966102 h -2 -2 z m 4,-3.966102 v -2 h 2 2 v 2 2 h -2 -2 z m 4,-4 v -2 H 34 35.966102 v 2 2 H 34 32.033898 Z m 3.932204,-4 v -2 h 2 2 v 2 2 h -2 -2 z m 4,-4 v -2 h 2 2 v 2 2 h -2 -2 z m 4,-4 V 8.0338983 h 2 2 v 1.9999997 2 h -2 -2 z m 4,-3.9999997 v -2 h 2 2 v 2 2 h -2 -2 z m 12,2 v -4 h -4 -4 v -2 -1.99999999 h 6 6 V 6.0338983 12.033898 h -2 -2 z M 23.993691,50.000839 v -1.989487 h 4.002944 4.002943 v 1.989487 1.989487 h -4.002943 -4.002944 z m 8.005887,4.002943 v -2.013456 h 1.989487 1.989487 v -1.989487 -1.989487 h 2.013456 2.013457 v 4.002944 4.002943 h -4.002943 -4.002944 z m 0,-8.005887 v -2.013456 h 1.989487 1.989487 v 2.013456 2.013457 h -1.989487 -1.989487 z m -3.978974,-4.002943 v -1.989487 h 1.989487 1.989487 v 1.989487 1.989487 h -1.989487 -1.989487 z m -4.026913,-4.002944 v -2.013456 h 2.013457 2.013456 v 2.013456 2.013457 h -2.013456 -2.013457 z m -3.978974,-4.002943 v -1.989487 h 1.989487 1.989487 v 1.989487 1.989487 h -1.989487 -1.989487 z m -4.026913,-3.978974 v -1.989487 h 2.013457 2.013456 v 1.989487 1.989487 H 18.001261 15.987804 Z M 7.9819172,27.996635 v -4.002944 h 4.0029438 4.002943 v 2.013457 2.013456 H 13.998317 12.00883 v 1.989487 1.989487 H 9.9953738 7.9819172 Z m 4.0269128,8.005887 v -4.002944 h 1.989487 1.989487 v 4.002944 4.002943 H 13.998317 12.00883 Z m 3.978974,5.99243 v -1.989487 h 2.013457 2.013456 v 1.989487 1.989487 h -2.013456 -2.013457 z m 4.026913,4.002943 v -2.013456 h 1.989487 1.989487 v 2.013456 2.013457 h -1.989487 -1.989487 z m -4.026913,4.002944 v -1.989487 h 2.013457 2.013456 v 1.989487 1.989487 H 18.001261 15.987804 Z M 12.00883,45.997895 v -2.013456 h 1.989487 1.989487 v 2.013456 2.013457 H 13.998317 12.00883 Z M 7.9819172,50.000839 V 48.011352 H 9.9953738 12.00883 v 1.989487 1.989487 H 9.9953738 7.9819172 Z m 4.0269128,4.002943 v -2.013456 h 1.989487 1.989487 v 2.013456 2.013457 H 13.998317 12.00883 Z M 0.02396972,57.982756 v -5.99243 H 4.0029435 7.9819172 v 2.013456 2.013457 H 9.9953738 12.00883 v 3.978974 3.978974 H 6.0164001 0.02396972 Z m 7.95794748,0.02397 V 56.017239 H 5.9924304 4.0029435 v 1.989487 1.989487 h 1.9894869 1.9894868 z"/></svg>