<?xml version="1.0" encoding="UTF-8" standalone="no"?>
<!-- Created with Inkscape (http://www.inkscape.org/) -->

<svg
   version="1.1"
   id="svg1261"
   width="64"
   height="64"
   viewBox="0 0 64 64"
   sodipodi:docname="empty_slot_sword.svg"
   inkscape:version="1.3 (0e150ed6c4, 2023-07-21)"
   xml:space="preserve"
   xmlns:inkscape="http://www.inkscape.org/namespaces/inkscape"
   xmlns:sodipodi="http://sodipodi.sourceforge.net/DTD/sodipodi-0.dtd"
   xmlns="http://www.w3.org/2000/svg"
   xmlns:svg="http://www.w3.org/2000/svg"><defs
     id="defs1265" /><sodipodi:namedview
     id="namedview1263"
     pagecolor="#505050"
     bordercolor="#eeeeee"
     borderopacity="1"
     inkscape:showpageshadow="0"
     inkscape:pageopacity="0"
     inkscape:pagecheckerboard="0"
     inkscape:deskcolor="#505050"
     showgrid="true"
     inkscape:zoom="14.75"
     inkscape:cx="43.525424"
     inkscape:cy="22.644068"
     inkscape:window-width="3470"
     inkscape:window-height="1440"
     inkscape:window-x="0"
     inkscape:window-y="0"
     inkscape:window-maximized="0"
     inkscape:current-layer="svg1261"><inkscape:grid
       type="xygrid"
       id="grid1388"
       snapvisiblegridlinesonly="true"
       originx="0"
       originy="0"
       spacingy="1"
       spacingx="1"
       units="px"
       visible="true"
       empspacing="4" /></sodipodi:namedview><path
     id="path31"
     style="fill:#17181c;fill-rule:evenodd;stroke-width:0.135593;stroke-linecap:square;stroke-linejoin:round;stroke-miterlimit:0"
     d="m 56,14 v -2 h 2 2 v 2 2 h -2 -2 z m -4,4 v -2 h 2 2 v 2 2 h -2 -2 z m -4,4 v -2 h 2 2 v 2 2 h -2 -2 z m -4,4 v -2 h 2 2 v 2 2 h -2 -2 z m -4,4 v -2 h 2 2 V 30 32 h -2 -2 z m -4,4 v -2 h 2 2 v 2 2 h -2 -2 z m -4,4 v -2 H 34 36 v 2 2 H 34 32 Z m -8,-8 v -2 h 2 2 V 30 32 h -2 -2 z m 4,-4 v -2 h 2 2 v 2 2 h -2 -2 z m 4,-4 v -2 H 34 36 v 2 2 H 34 32 Z m 4,-4 v -2 h 2 2 v 2 2 h -2 -2 z m 4,-4 v -2 h 2 2 v 2 2 h -2 -2 z m 4,-4 V 8 h 2 2 v 2 2 h -2 -2 z m 4,-4 v -2 h 2 2 v 2 2 h -2 -2 z m 12,2 v -4 h -4 -4 v -2 -2 h 6 6 V 6 12 h -2 -2 z M 24,50 v -2 h 4 4 v 2 2 h -4 -4 z m 8,4 v -2 h 2 2 v -2 -2 h 2 2 v 4 4 h -4 -4 z m 0,-8 v -2 h 2 2 v 2 2 h -2 -2 z m -4,-4 v -2 h 2 2 v 2 2 h -2 -2 z m -4,-4 v -2 h 2 2 v 2 2 h -2 -2 z m -4,-4 v -2 h 2 2 v 2 2 h -2 -2 z m -4,-4 v -2 h 2 2 v 2 2 H 18 16 Z M 8,28 v -4 h 4 4 v 2 2 H 14 12 v 2 2 H 10 8 Z m 4,8 v -4 h 2 2 v 4 4 H 14 12 Z m 4,6 v -2 h 2 2 v 2 2 h -2 -2 z m 4,4 v -2 h 2 2 v 2 2 h -2 -2 z m -4,4 v -2 h 2 2 v 2 2 H 18 16 Z M 12,46 v -2 h 2 2 v 2 2 H 14 12 Z M 8,50 V 48 H 10 12 v 2 2 H 10 8 Z m 4,4 v -2 h 2 2 v 2 2 H 14 12 Z M 0,58 v -6 H 4 8 v 2 2 H 10 12 v 4 4 H 6 0 Z m 8,0 V 56 H 6 4 v 2 2 h 2 2 z"
     inkscape:label="Sword" /></svg>
