<svg xmlns="http://www.w3.org/2000/svg" xmlns:svg="http://www.w3.org/2000/svg" id="svg1261" width="64" height="64" version="1.1" viewBox="0 0 64 64" xml:space="preserve"><path id="path26" style="fill:#17181c;fill-rule:evenodd;stroke-width:.0958789;stroke-linecap:square;stroke-linejoin:round;stroke-miterlimit:0" d="m 8.005887,55.993269 v -4.002943 h 1.9894868 1.9894872 v 2.013456 2.013457 h 2.013456 2.013457 v 1.989487 1.989487 H 12.00883 8.005887 Z m 3.978974,-5.99243 v -1.989487 h 2.013456 2.013457 v 1.989487 1.989487 h -2.013457 -2.013456 z m 4.026913,4.002943 v -2.013456 h 1.989487 1.989487 v 2.013456 2.013457 h -1.989487 -1.989487 z m 3.978974,-4.002943 v -1.989487 h 2.013456 2.013457 v 1.989487 1.989487 h -2.013457 -2.013456 z m -3.978974,-4.002944 v -2.013456 h 1.989487 1.989487 v 2.013456 2.013457 h -1.989487 -1.989487 z m 3.978974,-4.002943 v -1.989487 h 2.013456 2.013457 v 1.989487 1.989487 h -2.013457 -2.013456 z m 4.026913,4.002943 v -2.013456 h 1.989487 1.989487 v 2.013456 2.013457 h -1.989487 -1.989487 z m 3.978974,-4.002943 v -1.989487 h 1.989487 1.989486 v 1.989487 1.989487 h -1.989486 -1.989487 z m -3.978974,-4.002944 v -2.013456 h 1.989487 1.989487 v 2.013456 2.013457 h -1.989487 -1.989487 z m 3.978974,-4.002943 v -1.989487 h 1.989487 1.989486 v 1.989487 1.989487 h -1.989486 -1.989487 z m 3.978973,4.002943 v -2.013456 h 2.013457 2.013457 v 2.013456 2.013457 h -2.013457 -2.013457 z m 4.026914,-4.002943 v -1.989487 h 1.989486 1.989487 v 1.989487 1.989487 h -1.989487 -1.989486 z m -4.026914,-3.978974 v -1.989487 h -1.989486 -1.989487 v -2.013456 -2.013457 h 5.99243 5.99243 v 2.013457 2.013456 h -1.989487 -1.989486 v 1.989487 1.989487 h -2.013457 -2.013457 z m 8.005887,0 v -1.989487 h 2.013457 2.013457 v 1.989487 1.989487 h -2.013457 -2.013457 z m 4.026914,3.978974 v -1.989487 h 4.002943 4.002944 v 1.989487 1.989487 h -4.002944 -4.002943 z m 8.005887,-5.99243 v -4.002944 h 1.989486 1.989487 v 4.002944 4.002943 h -1.989487 -1.989486 z m -4.026914,-8.005887 v -4.002944 h 2.013457 2.013457 v 4.002944 4.002943 H 50.000839 47.987382 Z M 44.008409,11.984861 V 7.9819172 h 1.989486 1.989487 v 4.0029438 4.002943 H 45.997895 44.008409 Z M 36.002522,5.9924304 V 4.0029435 h 4.002943 4.002944 V 5.9924304 7.9819172 H 40.005465 36.002522 Z M 31.975608,9.9953738 V 7.9819172 h 2.013457 2.013457 V 9.9953738 12.00883 H 33.989065 31.975608 Z M 27.996635,13.998317 V 12.00883 h 1.989487 1.989486 v 1.989487 1.989487 h -1.989486 -1.989487 z m -3.978974,5.992431 v -4.002944 h 1.989487 1.989487 v 4.002944 4.002943 h -1.989487 -1.989487 z"/></svg>