<?xml version="1.0" encoding="UTF-8" standalone="no"?>
<!-- Created with Inkscape (http://www.inkscape.org/) -->

<svg
   version="1.1"
   id="svg1261"
   width="64"
   height="64"
   viewBox="0 0 64 64"
   sodipodi:docname="empty_slot_amethyst_shard.svg"
   inkscape:version="1.3 (0e150ed6c4, 2023-07-21)"
   xml:space="preserve"
   xmlns:inkscape="http://www.inkscape.org/namespaces/inkscape"
   xmlns:sodipodi="http://sodipodi.sourceforge.net/DTD/sodipodi-0.dtd"
   xmlns="http://www.w3.org/2000/svg"
   xmlns:svg="http://www.w3.org/2000/svg"><defs
     id="defs1265" /><sodipodi:namedview
     id="namedview1263"
     pagecolor="#505050"
     bordercolor="#eeeeee"
     borderopacity="1"
     inkscape:showpageshadow="0"
     inkscape:pageopacity="0"
     inkscape:pagecheckerboard="0"
     inkscape:deskcolor="#505050"
     showgrid="true"
     inkscape:zoom="10.429825"
     inkscape:cx="-15.292682"
     inkscape:cy="34.037004"
     inkscape:window-width="3470"
     inkscape:window-height="1440"
     inkscape:window-x="0"
     inkscape:window-y="0"
     inkscape:window-maximized="0"
     inkscape:current-layer="svg1261"><inkscape:grid
       type="xygrid"
       id="grid1388"
       snapvisiblegridlinesonly="true"
       originx="0"
       originy="0"
       spacingy="1"
       spacingx="1"
       units="px"
       visible="true"
       empspacing="4" /></sodipodi:namedview><path
     id="path24"
     style="fill:#17181c;fill-rule:evenodd;stroke-width:0.0958789;stroke-linecap:square;stroke-linejoin:round;stroke-miterlimit:0"
     d="m 19.990748,41.994952 v -1.989487 h 2.013456 2.013457 v 1.989487 1.989487 h -2.013457 -2.013456 z m 4.026913,-4.002944 v -2.013456 h 1.989487 1.989487 v 2.013456 2.013457 h -1.989487 -1.989487 z m 3.978974,-4.002943 v -1.989487 h 1.989487 1.989486 v 1.989487 1.989487 h -1.989486 -1.989487 z m 3.978973,-3.978974 v -1.989487 h 2.013457 2.013457 v 1.989487 1.989487 h -2.013457 -2.013457 z m 4.026914,-4.002943 v -2.013457 h 1.989486 1.989487 v 2.013457 2.013456 h -1.989487 -1.989486 z m 3.978973,-4.002944 v -1.989487 h 2.013457 2.013457 v 1.989487 1.989487 h -2.013457 -2.013457 z m 4.026914,-4.002943 v -2.013457 h 1.989486 1.989487 v 2.013457 2.013456 h -1.989487 -1.989486 z m 3.978973,12.00883 v -1.989487 h 2.013457 2.013457 v 1.989487 1.989487 h -2.013457 -2.013457 z m -3.978973,3.978974 v -1.989487 h 1.989486 1.989487 v 1.989487 1.989487 h -1.989487 -1.989486 z m -4.026914,4.002943 v -2.013456 h 2.013457 2.013457 v 2.013456 2.013457 h -2.013457 -2.013457 z m -3.978973,4.002944 v -1.989487 h 1.989486 1.989487 v 1.989487 1.989487 h -1.989487 -1.989486 z m -4.026914,4.002943 v -2.013456 h 2.013457 2.013457 v 2.013456 2.013457 h -2.013457 -2.013457 z m -3.978973,4.002944 v -1.989487 h 1.989487 1.989486 v 1.989487 1.989487 h -1.989486 -1.989487 z m -3.978974,4.002943 v -2.013456 h 1.989487 1.989487 v 2.013456 2.013457 h -1.989487 -1.989487 z m -8.005887,4.002944 v -1.989487 h 4.002943 4.002944 v 1.989487 1.989487 h -4.002944 -4.002943 z m -4.026913,-4.002944 v -2.013456 h 2.013456 2.013457 v 2.013456 2.013457 H 13.998317 11.984861 Z M 8.005887,43.984439 v -8.005887 h 1.9894868 1.9894872 v 8.005887 8.005887 H 9.9953738 8.005887 Z m 3.978974,-9.995374 v -1.989487 h 2.013456 2.013457 v 1.989487 1.989487 h -2.013457 -2.013456 z m 4.026913,-3.978974 v -1.989487 h 1.989487 1.989487 v 1.989487 1.989487 h -1.989487 -1.989487 z m 3.978974,-4.002943 v -2.013457 h 2.013456 2.013457 v 2.013457 2.013456 h -2.013457 -2.013456 z m 4.026913,-4.002944 v -1.989487 h 1.989487 1.989487 v 1.989487 1.989487 h -1.989487 -1.989487 z m 3.978974,-4.002943 v -2.013457 h 1.989487 1.989486 v 2.013457 2.013456 h -1.989486 -1.989487 z m 3.978973,-4.002944 V 12.00883 h 2.013457 2.013457 v 1.989487 1.989487 h -2.013457 -2.013457 z m 20.038688,8.005887 v -6.0164 H 50.000839 47.987382 V 13.998317 12.00883 h -5.99243 -5.99243 V 9.9953738 7.9819172 h 9.995373 9.995374 V 18.001261 28.020604 h -1.989487 -1.989486 z"
     inkscape:label="Amethyst" /></svg>
