<?xml version="1.0" encoding="UTF-8" standalone="no"?>
<!-- Created with Inkscape (http://www.inkscape.org/) -->

<svg
   version="1.1"
   id="svg1261"
   width="64"
   height="64"
   viewBox="0 0 64 64"
   sodipodi:docname="empty_slot_diamond.svg"
   inkscape:version="1.3 (0e150ed6c4, 2023-07-21)"
   xml:space="preserve"
   xmlns:inkscape="http://www.inkscape.org/namespaces/inkscape"
   xmlns:sodipodi="http://sodipodi.sourceforge.net/DTD/sodipodi-0.dtd"
   xmlns="http://www.w3.org/2000/svg"
   xmlns:svg="http://www.w3.org/2000/svg"><defs
     id="defs1265" /><sodipodi:namedview
     id="namedview1263"
     pagecolor="#505050"
     bordercolor="#eeeeee"
     borderopacity="1"
     inkscape:showpageshadow="0"
     inkscape:pageopacity="0"
     inkscape:pagecheckerboard="0"
     inkscape:deskcolor="#505050"
     showgrid="true"
     inkscape:zoom="16"
     inkscape:cx="16.5"
     inkscape:cy="37.375"
     inkscape:window-width="3470"
     inkscape:window-height="1440"
     inkscape:window-x="0"
     inkscape:window-y="0"
     inkscape:window-maximized="0"
     inkscape:current-layer="svg1261"><inkscape:grid
       type="xygrid"
       id="grid1388"
       snapvisiblegridlinesonly="true"
       originx="0"
       originy="0"
       spacingy="1"
       spacingx="1"
       units="px"
       visible="true"
       empspacing="4" /></sodipodi:namedview><path
     id="path16"
     style="fill:#17181c;fill-rule:evenodd;stroke-width:0.0883883;stroke-linecap:square;stroke-linejoin:round;stroke-miterlimit:0"
     d="m 24,42 v -2 h 8 8 V 42 44 H 32 24 Z M 20,58 V 56 H 18 16 V 54 52 h 2 2 V 48 44 h 2 2 v 6 6 h 8 8 V 50 44 h 2 2 v 4 4 h 2 2 v 2 2 h -2 -2 v 2 2 H 32 20 Z M 48,46 v -6 h 2 2 v -6 -6 h 2 2 V 36 44 H 54 52 v 4 4 H 50 48 Z M 40,34 v -6 h 2 2 v 4 4 h 2 2 v 2 2 H 44 40 Z m 4,-8 v -2 h 2 2 v -2 -2 h 2 2 v 4 4 H 48 44 Z m 0,-8 v -2 h 2 2 v 2 2 h -2 -2 z m -16,0 v -2 h 4 4 v 2 2 h -4 -4 z m -8,-4 v -2 h 2 2 V 10 8 h 8 8 v 2 2 h 2 2 v 2 2 h -4 -4 v -2 -2 h -4 -4 v 2 2 h -4 -4 z m -4,4 v -2 h 2 2 v 2 2 h -2 -2 z m 8,6 v -4 h 2 2 v 2 2 h 4 4 v -2 -2 h 2 2 v 4 4 h -8 -8 z m -8,14 v -2 h 2 2 v -4 -4 h 2 2 v 6 6 h -4 -4 z m -4,10 V 44 H 10 8 v -8 -8 h 2 2 v 6 6 h 2 2 v 6 6 h -2 -2 z m 0,-24 v -4 h 2 2 v 2 2 h 2 2 v 2 2 h -4 -4 z"
     inkscape:label="Diamond" /></svg>
