<?xml version="1.0" encoding="UTF-8" standalone="no"?>
<!-- Created with Inkscape (http://www.inkscape.org/) -->

<svg
   version="1.1"
   id="svg1261"
   width="64"
   height="64"
   viewBox="0 0 64 64"
   sodipodi:docname="empty_slot_hoe.svg"
   inkscape:version="1.3 (0e150ed6c4, 2023-07-21)"
   xml:space="preserve"
   xmlns:inkscape="http://www.inkscape.org/namespaces/inkscape"
   xmlns:sodipodi="http://sodipodi.sourceforge.net/DTD/sodipodi-0.dtd"
   xmlns="http://www.w3.org/2000/svg"
   xmlns:svg="http://www.w3.org/2000/svg"><defs
     id="defs1265" /><sodipodi:namedview
     id="namedview1263"
     pagecolor="#505050"
     bordercolor="#eeeeee"
     borderopacity="1"
     inkscape:showpageshadow="0"
     inkscape:pageopacity="0"
     inkscape:pagecheckerboard="0"
     inkscape:deskcolor="#505050"
     showgrid="true"
     inkscape:zoom="11.313709"
     inkscape:cx="7.9991454"
     inkscape:cy="25.279067"
     inkscape:window-width="3470"
     inkscape:window-height="1440"
     inkscape:window-x="0"
     inkscape:window-y="0"
     inkscape:window-maximized="0"
     inkscape:current-layer="svg1261"><inkscape:grid
       type="xygrid"
       id="grid1388"
       snapvisiblegridlinesonly="true"
       originx="0"
       originy="0"
       spacingy="1"
       spacingx="1"
       units="px"
       visible="true"
       empspacing="4" /></sodipodi:namedview><path
     id="path23"
     style="fill:#17181c;fill-rule:evenodd;stroke-width:0.0883883;stroke-linecap:square;stroke-linejoin:round;stroke-miterlimit:0"
     d="m 7.9991454,55.994018 v -3.999573 h 1.9887379 1.9887377 v 2.010835 2.010835 h 2.010835 2.010835 v 1.988738 1.988738 H 11.998718 7.9991454 Z m 3.9774756,-5.98831 V 48.01697 h 2.010835 2.010835 v 1.988738 1.988737 h -2.010835 -2.010835 z m 4.02167,3.999572 v -2.010835 h 2.010835 2.010835 v 2.010835 2.010835 h -2.010835 -2.010835 z m 4.02167,-3.999572 V 48.01697 h 1.988738 1.988737 v 1.988738 1.988737 h -1.988737 -1.988738 z m -4.02167,-3.999573 V 43.9953 h 2.010835 2.010835 v 2.010835 2.010835 h -2.010835 -2.010835 z m 4.02167,-3.999573 v -1.988738 h 1.988738 1.988737 v 1.988738 1.988738 h -1.988737 -1.988738 z m 3.977475,3.999573 V 43.9953 h 2.010835 2.010835 v 2.010835 2.010835 h -2.010835 -2.010835 z m 4.02167,-3.999573 v -1.988738 h 1.988738 1.988738 v 1.988738 1.988738 h -1.988738 -1.988738 z m -4.02167,-3.999573 v -2.010834 h 2.010835 2.010835 v 2.010834 2.010835 h -2.010835 -2.010835 z m 4.02167,-3.999572 v -1.988738 h 1.988738 1.988738 v 1.988738 1.988738 h -1.988738 -1.988738 z m 3.977476,-3.999573 v -2.010835 h 2.010835 2.010835 v 2.010835 2.010835 h -2.010835 -2.010835 z m 0,7.999145 v -2.010834 h 2.010835 2.010835 v 2.010834 2.010835 h -2.010835 -2.010835 z m 4.02167,-3.999572 v -1.988738 h 1.988737 1.988738 v 1.988738 1.988738 h -1.988738 -1.988737 z m 0,-7.999146 v -1.988738 h 1.988737 1.988738 v 1.988738 1.988738 h -1.988738 -1.988737 z m 3.977475,3.999573 v -2.010835 h 2.010835 2.010835 v 2.010835 2.010835 h -2.010835 -2.010835 z m 4.02167,-3.999573 v -1.988738 h 3.999573 3.999572 v 1.988738 1.988738 H 48.01697 44.017397 Z m -4.02167,-3.999572 v -2.010835 h 2.010835 2.010835 v 2.010835 2.010834 h -2.010835 -2.010835 z m -3.977475,-3.999573 v -1.988738 h 1.988737 1.988738 v 1.988738 1.988738 h -1.988738 -1.988737 z m 15.99829,2.010835 V 16.020388 H 48.01697 44.017397 v -2.010835 -2.010835 h 5.988311 5.98831 v 6.010408 6.010407 H 54.00528 52.016542 Z M 39.995727,9.9878833 V 7.9770484 h 2.010835 2.010835 V 9.9878833 11.998718 H 42.006562 39.995727 Z M 28.019106,14.009553 v -2.010835 h 3.999573 3.999573 v 2.010835 2.010835 H 32.018679 28.019106 Z M 23.997436,9.9878833 V 7.9770484 h 2.010835 2.010835 v 2.0108349 2.0108347 h -2.010835 -2.010835 z m 4.02167,-3.9995728 V 3.9995727 h 5.988311 5.98831 v 1.9887378 1.9887379 h -5.98831 -5.988311 z"
     inkscape:label="Hoe" /></svg>
