<svg xmlns="http://www.w3.org/2000/svg" xmlns:svg="http://www.w3.org/2000/svg" id="svg1261" width="64" height="64" version="1.1" viewBox="0 0 64 64" xml:space="preserve"><path id="path35" style="fill:#17181c;fill-rule:evenodd;stroke-width:.135593;stroke-linecap:square;stroke-linejoin:round;stroke-miterlimit:0" d="M 44,10.033898 V 8.0338983 h 6 6 v 1.9999997 2 h -6 -6 z m 12,8 v -6 h 2 2 v 6 6 H 58 56 Z M 44,34 v -2.016949 h 2 2 V 34 36.016949 h -2 -2 z m 4,-4.016949 v -2 h 2 2 v 2 2 h -2 -2 z m 4,-4 v -2 h 2 2 v 2 2 h -2 -2 z m -12,-12 v -2 h 2 2 v 2 2 h -2 -2 z m -4,4 v -2 h 2 2 v 2 2 h -2 -2 z m -4,4 v -2 h 2 2 v 2 2 h -2 -2 z m 4,4 v -2 h 2 2 v 2 2 h -2 -2 z m 4,4 v -2 h 2 2 v 2 2 H 42 40 Z M 36,34 v -2.016949 h 2 2 V 34 36.016949 h -2 -2 z m -4,-4.016949 v -2 h 2 2 v 2 2 H 34 32 Z M 28,34 v -2.016949 h 2 2 V 34 36.016949 h -2 -2 z m 4,4.016949 v -2 h 2 2 v 2 2 h -2 -2 z m -4,3.949153 v -2 h 2 2 v 2 2 h -2 -2 z m -4,-4 v -2 h 2 2 v 2 2 h -2 -2 z m -4,4 v -2 h 2 2 v 2 2 h -2 -2 z m 4,4 v -2 h 2 2 v 2 2 h -2 -2 z m -8,0 v -2 h 2 2 v 2 2 h -2 -2 z m 4,4 v -2 h 2 2 v 2 2 h -2 -2 z m -8,8 v -2 h 2 2 v -2 -2 h 2 2 v 4 4 h -4 -4 z m -4,-6 v -4 h 4 4 v 2 2 h -2 -2 v 2 2 H 10 8 Z"/></svg>