<?xml version="1.0" encoding="UTF-8" standalone="no"?>
<!-- Created with Inkscape (http://www.inkscape.org/) -->

<svg
   version="1.1"
   id="svg1261"
   width="64"
   height="64"
   viewBox="0 0 64 64"
   sodipodi:docname="empty_slot_lapis_lazuli.svg"
   inkscape:version="1.3 (0e150ed6c4, 2023-07-21)"
   xml:space="preserve"
   xmlns:inkscape="http://www.inkscape.org/namespaces/inkscape"
   xmlns:sodipodi="http://sodipodi.sourceforge.net/DTD/sodipodi-0.dtd"
   xmlns="http://www.w3.org/2000/svg"
   xmlns:svg="http://www.w3.org/2000/svg"><defs
     id="defs1265" /><sodipodi:namedview
     id="namedview1263"
     pagecolor="#505050"
     bordercolor="#eeeeee"
     borderopacity="1"
     inkscape:showpageshadow="0"
     inkscape:pageopacity="0"
     inkscape:pagecheckerboard="0"
     inkscape:deskcolor="#505050"
     showgrid="true"
     inkscape:zoom="20.85965"
     inkscape:cx="28.499999"
     inkscape:cy="37.632463"
     inkscape:window-width="3470"
     inkscape:window-height="1440"
     inkscape:window-x="0"
     inkscape:window-y="0"
     inkscape:window-maximized="0"
     inkscape:current-layer="svg1261"><inkscape:grid
       type="xygrid"
       id="grid1388"
       snapvisiblegridlinesonly="true"
       originx="0"
       originy="0"
       spacingy="1"
       spacingx="1"
       units="px"
       visible="true"
       empspacing="4" /></sodipodi:namedview><path
     id="path20"
     style="fill:#17181c;fill-rule:evenodd;stroke-width:0.0958789;stroke-linecap:square;stroke-linejoin:round;stroke-miterlimit:0"
     d="m 27.996635,50.000839 v -1.989487 h 5.99243 5.99243 v 1.989487 1.989487 h -5.99243 -5.99243 z m -16.011774,4.002943 v -2.013456 h 8.005887 8.005887 v 2.013456 2.013457 h -8.005887 -8.005887 z m 4.026913,-8.005887 v -2.013456 h 4.002943 4.002944 v 2.013456 2.013457 H 20.014717 16.011774 Z M 8.005887,43.984439 v -8.005887 h 1.9894868 1.9894872 v 2.013456 2.013457 h 2.013456 2.013457 v 1.989487 1.989487 h -2.013457 -2.013456 v 4.002943 4.002944 H 9.9953738 8.005887 Z m 3.978974,-9.9959 v -1.990013 l 2.001471,0.01251 2.001472,0.01251 0.01252,1.977502 0.01252,1.977502 h -2.013989 -2.013988 z m 12.0328,8.006413 v -1.989487 h 1.989487 1.989487 v 1.989487 1.989487 h -1.989487 -1.989487 z m 3.978974,-4.002944 v -2.013456 h 1.989487 1.989486 v 2.013456 2.013457 h -1.989486 -1.989487 z m 3.978973,-4.002943 v -1.989487 h 2.013457 2.013457 v 1.989487 1.989487 h -2.013457 -2.013457 z m 4.026914,-3.978974 v -1.989487 h 1.989486 1.989487 v 1.989487 1.989487 h -1.989487 -1.989486 z m 3.978973,15.987804 v -2.013456 h 2.013457 2.013457 v 2.013456 2.013457 h -2.013457 -2.013457 z m 4.026914,-4.002943 v -1.989487 h 1.989486 1.989487 v 1.989487 1.989487 H 45.997895 44.008409 Z M 48,36.016949 v -4 h 2 2 v 4 4 H 50 48 Z M 40,23.983051 v -4 h 2 2 v 4 4 H 42 40 Z M 52,24 v -8.016949 h 2 2 V 24 32.016949 h -2 -2 z m -8,-6.016949 v -2 h 2 2 v 2 2 h -2 -2 z m 4,-4 v -2 h 2 2 v 2 2 H 50 48 Z M 16,26 v -6.016949 h 2 2 V 26 32.016949 h -2 -2 z m 4,-8.016949 v -2 h 2 2 v 2 2 h -2 -2 z m 4,-4 v -2 h 2 2 v 2 2 h -2 -2 z m 4,-4.0000001 v -2 h 10 10 v 2 2.0000001 H 38 28 Z"
     inkscape:label="Lapis" /></svg>
