<?xml version="1.0" encoding="UTF-8" standalone="no"?>
<!-- Created with Inkscape (http://www.inkscape.org/) -->

<svg
   version="1.1"
   id="svg1261"
   width="64"
   height="64"
   viewBox="0 0 64 64"
   sodipodi:docname="empty_slot_diamond.svg"
   inkscape:version="1.3 (0e150ed6c4, 2023-07-21)"
   xml:space="preserve"
   xmlns:inkscape="http://www.inkscape.org/namespaces/inkscape"
   xmlns:sodipodi="http://sodipodi.sourceforge.net/DTD/sodipodi-0.dtd"
   xmlns="http://www.w3.org/2000/svg"
   xmlns:svg="http://www.w3.org/2000/svg"><defs
     id="defs1265" /><sodipodi:namedview
     id="namedview1263"
     pagecolor="#505050"
     bordercolor="#eeeeee"
     borderopacity="1"
     inkscape:showpageshadow="0"
     inkscape:pageopacity="0"
     inkscape:pagecheckerboard="0"
     inkscape:deskcolor="#505050"
     showgrid="true"
     inkscape:zoom="16"
     inkscape:cx="16.5"
     inkscape:cy="37.375"
     inkscape:window-width="3470"
     inkscape:window-height="1440"
     inkscape:window-x="0"
     inkscape:window-y="0"
     inkscape:window-maximized="0"
     inkscape:current-layer="svg1261"><inkscape:grid
       type="xygrid"
       id="grid1388"
       snapvisiblegridlinesonly="true"
       originx="0"
       originy="0"
       spacingy="1"
       spacingx="1"
       units="px"
       visible="true"
       empspacing="4" /></sodipodi:namedview><path
     id="path16"
     style="fill:#17181c;fill-rule:evenodd;stroke-width:0.0883883;stroke-linecap:square;stroke-linejoin:round;stroke-miterlimit:0"
     d="m 23.997436,42.006562 v -1.988738 h 7.999146 7.999145 V 42.006562 43.9953 H 31.996582 23.997436 Z M 20.019961,58.004853 V 56.016115 H 18.009126 15.998291 V 54.00528 51.994445 h 2.010835 2.010835 V 47.994873 43.9953 h 1.988738 1.988737 v 6.010408 6.010407 h 7.999146 7.999145 V 50.005708 43.9953 h 2.010835 2.010835 v 3.999573 3.999572 h 1.988738 1.988738 v 2.010835 2.010835 h -1.988738 -1.988738 v 1.988738 1.988738 H 32.018679 20.019961 Z M 47.994873,46.006135 v -5.988311 h 2.010835 2.010834 v -6.010407 -6.010408 h 1.988738 1.988738 V 35.996155 43.9953 H 54.00528 52.016542 v 3.999573 3.999572 H 50.005708 47.994873 Z M 39.995727,34.007417 v -6.010408 h 2.010835 2.010835 v 3.999573 3.999573 h 1.988738 1.988738 v 2.010834 2.010835 H 43.9953 39.995727 Z m 4.02167,-7.999146 v -1.988738 h 1.988738 1.988738 v -2.010834 -2.010835 h 2.010835 2.010834 v 3.999572 3.999573 H 48.01697 44.017397 Z m 0,-7.999145 v -1.988738 h 1.988738 1.988738 v 1.988738 1.988738 h -1.988738 -1.988738 z m -15.998291,0 v -1.988738 h 3.999573 3.999573 v 1.988738 1.988738 h -3.999573 -3.999573 z m -7.999145,-3.999573 v -2.010835 h 1.988738 1.988737 V 9.9878833 7.9770484 h 7.999146 7.999145 v 2.0108349 2.0108347 h 2.010835 2.010835 v 2.010835 2.010835 h -3.999573 -3.999572 v -2.010835 -2.010835 h -3.999573 -3.999573 v 2.010835 2.010835 h -3.999573 -3.999572 z m -4.02167,3.999573 v -1.988738 h 2.010835 2.010835 v 1.988738 1.988738 h -2.010835 -2.010835 z m 7.999145,5.98831 v -3.999572 h 2.010835 2.010835 v 2.010835 2.010834 h 3.999573 3.999573 v -2.010834 -2.010835 h 1.988737 1.988738 v 3.999572 3.999573 h -7.999145 -7.999146 z m -7.999145,14.009553 v -2.010834 h 2.010835 2.010835 v -3.999573 -3.999573 h 1.988738 1.988737 v 6.010408 6.010407 h -3.999572 -3.999573 z m -4.02167,9.987884 V 43.9953 H 9.9878833 7.9991454 v -7.999145 -7.999146 h 1.9887379 1.9887377 v 6.010408 6.010407 h 2.010835 2.010835 v 5.988311 5.98831 h -2.010835 -2.010835 z m 0,-23.97534 v -3.999572 h 2.010835 2.010835 v 1.988738 1.988737 h 2.010835 2.010835 v 2.010835 2.010835 h -4.02167 -4.02167 z"
     inkscape:label="Diamond" /></svg>
