<?xml version="1.0" encoding="UTF-8" standalone="no"?>
<!-- Created with Inkscape (http://www.inkscape.org/) -->

<svg
   version="1.1"
   id="svg1261"
   width="64"
   height="64"
   viewBox="0 0 64 64"
   sodipodi:docname="empty_slot_restone_dust.svg"
   inkscape:version="1.3 (0e150ed6c4, 2023-07-21)"
   xml:space="preserve"
   xmlns:inkscape="http://www.inkscape.org/namespaces/inkscape"
   xmlns:sodipodi="http://sodipodi.sourceforge.net/DTD/sodipodi-0.dtd"
   xmlns="http://www.w3.org/2000/svg"
   xmlns:svg="http://www.w3.org/2000/svg"><defs
     id="defs1265" /><sodipodi:namedview
     id="namedview1263"
     pagecolor="#505050"
     bordercolor="#eeeeee"
     borderopacity="1"
     inkscape:showpageshadow="0"
     inkscape:pageopacity="0"
     inkscape:pagecheckerboard="0"
     inkscape:deskcolor="#505050"
     showgrid="true"
     inkscape:zoom="20.85965"
     inkscape:cx="24.856601"
     inkscape:cy="36.242219"
     inkscape:window-width="3470"
     inkscape:window-height="1440"
     inkscape:window-x="0"
     inkscape:window-y="0"
     inkscape:window-maximized="0"
     inkscape:current-layer="svg1261"><inkscape:grid
       type="xygrid"
       id="grid1388"
       snapvisiblegridlinesonly="true"
       originx="0"
       originy="0"
       spacingy="1"
       spacingx="1"
       units="px"
       visible="true"
       empspacing="4" /></sodipodi:namedview><path
     id="path14"
     style="fill:#17181c;fill-rule:evenodd;stroke-width:0.135593;stroke-linecap:square;stroke-linejoin:round;stroke-miterlimit:0"
     d="m 36,18 v -2 h 2 2 v 2 2 h -2 -2 z m 4,4 v -2 h 2 2 v 2 2 H 42 40 Z M 36,30 v -2 h 2 2 V 30 32 h -2 -2 z m -8,4 v -2 h 2 2 v 2 2 h -2 -2 z m 4,8 v -2 h 2 2 v 2 2 h -2 -2 z m -8,12 v -2 h 2 2 v -2 -2 h -2 -2 v -2 -2 h 4 4 v 2 2 h 2 2 v -2 -2 h 2 2 v -4 -4 h 2 2 v 2 2 h 2 2 v -4 -4 H 46 44 V 28 24 h 2 2 v 2 2 h 2 2 V 30 32 h 2 2 v 6 6 h -2 -2 v 2 2 h -2 -2 v 2 2 h -4 -4 v 2 2 h -8 -8 z m -8,-4 v -2 h 4 4 v 2 2 h -4 -4 z m -4,-4 v -2 h 2 2 v 2 2 h -2 -2 z m -4,-8 v -6 h 2 2 v 6 6 H 10 8 Z M 12,30 v -2 h 2 2 V 30 32 h -2 -2 z m 4,-4 v -2 h 2 2 v 2 2 h -2 -2 z m 4,-4 v -2 h 2 2 v 2 2 h -2 -2 z m 4,-4 v -2 h 2 2 v 2 2 H 26 24 Z M 28,14 v -2 h 4 4 v 2 2 h -4 -4 z"
     inkscape:label="Redstone" /></svg>
