<?xml version="1.0" encoding="UTF-8" standalone="no"?>
<!-- Created with Inkscape (http://www.inkscape.org/) -->

<svg
   version="1.1"
   id="svg1261"
   width="64"
   height="64"
   viewBox="0 0 64 64"
   sodipodi:docname="empty_slot_ingot.svg"
   inkscape:version="1.3 (0e150ed6c4, 2023-07-21)"
   xml:space="preserve"
   xmlns:inkscape="http://www.inkscape.org/namespaces/inkscape"
   xmlns:sodipodi="http://sodipodi.sourceforge.net/DTD/sodipodi-0.dtd"
   xmlns="http://www.w3.org/2000/svg"
   xmlns:svg="http://www.w3.org/2000/svg"><defs
     id="defs1265" /><sodipodi:namedview
     id="namedview1263"
     pagecolor="#505050"
     bordercolor="#eeeeee"
     borderopacity="1"
     inkscape:showpageshadow="0"
     inkscape:pageopacity="0"
     inkscape:pagecheckerboard="0"
     inkscape:deskcolor="#505050"
     showgrid="true"
     inkscape:zoom="20.85965"
     inkscape:cx="16.179562"
     inkscape:cy="35.786794"
     inkscape:window-width="3470"
     inkscape:window-height="1440"
     inkscape:window-x="0"
     inkscape:window-y="0"
     inkscape:window-maximized="0"
     inkscape:current-layer="svg1261"><inkscape:grid
       type="xygrid"
       id="grid1388"
       snapvisiblegridlinesonly="true"
       originx="0"
       originy="0"
       spacingy="1"
       spacingx="1"
       units="px"
       visible="true"
       empspacing="4" /></sodipodi:namedview><path
     id="path19"
     style="fill:#17181c;fill-rule:evenodd;stroke-width:0.0958789;stroke-linecap:square;stroke-linejoin:round;stroke-miterlimit:0"
     d="m 28,50 v -2 h 6 6 v 2 2 h -6 -6 z m -20,0 V 48 H 10 12 v 2 2 H 10 8 Z M 4,46 v -2 h 2 2 v 2 2 H 6 4 Z M 12,34 v -2 h 2 2 v 2 2 H 14 12 Z m 0,20 v -2 h 4 4 v -6 -6 h -2 -2 v -2 -2 h 4 4 v 8 8 h 2 2 v 2 2 H 20 12 Z M 24,34 v -2 h 6 6 v 2 2 h -6 -6 z m 12,-4 v -2 h 6 6 v 2 2 h -6 -6 z m 4,16 v -2 h 6 6 v 2 2 h -6 -6 z m 12,-4 v -2 h 4 4 v 2 2 H 56 52 Z M 60,32 V 24 H 62 64 V 32 40 H 62 60 Z m -12,-6 v -2 h 4 4 v 2 2 h -4 -4 z m 8,-4 v -2 h 2 2 v 2 2 h -2 -2 z m -4,-4 v -2 h 2 2 v 2 2 h -2 -2 z m -4,-4 v -2 h 2 2 v 2 2 h -2 -2 z m -8,-4 v -2 h 4 4 v 2 2 h -4 -4 z M 28,14 v -2 H 34 40 v 2 2 H 34 28 Z m -12,4 v -2 h 6 6 v 2 2 h -6 -6 z M 8,30 v -2 h 2 2 V 30 32 h -2 -2 z M 0,34 V 24 H 2 4 v -2 -2 h 6 6 v 2 2 h -4 -4 v 2 2 h -2 -2 v 8 8 H 2 0 Z"
     inkscape:label="Ingot" /></svg>
