<?xml version="1.0" encoding="UTF-8" standalone="no"?>
<!-- Created with Inkscape (http://www.inkscape.org/) -->

<svg
   version="1.1"
   id="svg1261"
   width="64"
   height="64"
   viewBox="0 0 64 64"
   sodipodi:docname="empty_slot_pickaxe.svg"
   inkscape:version="1.3 (0e150ed6c4, 2023-07-21)"
   xml:space="preserve"
   xmlns:inkscape="http://www.inkscape.org/namespaces/inkscape"
   xmlns:sodipodi="http://sodipodi.sourceforge.net/DTD/sodipodi-0.dtd"
   xmlns="http://www.w3.org/2000/svg"
   xmlns:svg="http://www.w3.org/2000/svg"><defs
     id="defs1265" /><sodipodi:namedview
     id="namedview1263"
     pagecolor="#505050"
     bordercolor="#eeeeee"
     borderopacity="1"
     inkscape:showpageshadow="0"
     inkscape:pageopacity="0"
     inkscape:pagecheckerboard="0"
     inkscape:deskcolor="#505050"
     showgrid="true"
     inkscape:zoom="20.85965"
     inkscape:cx="22.651387"
     inkscape:cy="38.663161"
     inkscape:window-width="3470"
     inkscape:window-height="1440"
     inkscape:window-x="0"
     inkscape:window-y="0"
     inkscape:window-maximized="0"
     inkscape:current-layer="svg1261"><inkscape:grid
       type="xygrid"
       id="grid1388"
       snapvisiblegridlinesonly="true"
       originx="0"
       originy="0"
       spacingy="1"
       spacingx="1"
       units="px"
       visible="true"
       empspacing="4" /></sodipodi:namedview><path
     id="path24"
     style="fill:#17181c;fill-rule:evenodd;stroke-width:0.0958789;stroke-linecap:square;stroke-linejoin:round;stroke-miterlimit:0"
     d="M 8,56 V 52 H 10 12 v 2 2 h 2 2 v 2 2 H 12 8 Z m 4,-6 v -2 h 2 2 v 2 2 H 14 12 Z m 4,4 v -2 h 2 2 v 2 2 h -2 -2 z m 4,-4 v -2 h 2 2 v 2 2 h -2 -2 z m -4,-4 v -2 h 2 2 v 2 2 h -2 -2 z m 4,-4 v -2 h 2 2 v 2 2 h -2 -2 z m 4,4 v -2 h 2 2 v 2 2 h -2 -2 z m 4,-4 v -2 h 2 2 v 2 2 h -2 -2 z m -4,-4 v -2 h 2 2 v 2 2 h -2 -2 z m 4,-4 v -2 h 2 2 v 2 2 h -2 -2 z m 4,4 v -2 h 2 2 v 2 2 h -2 -2 z m 0,-8 v -2 h 2 2 v 2 2 h -2 -2 z m 4,4 v -2 h 2 2 v 2 2 h -2 -2 z m 4,-4 v -2 h 2 2 v 2 2 h -2 -2 z m -4,-4 v -2 h 2 2 v 2 2 h -2 -2 z m 4,-4 v -2 h 2 2 v 2 2 h -2 -2 z m 4,4 v -2 h 2 2 v 2 2 h -2 -2 z m 8,20 v -2 h 2 2 v 2 2 h -2 -2 z m 4,-12 v -10 h 2 2 v 10 10 h -2 -2 z m -8,2 v -8 h 2 2 v 8 8 H 50 48 Z M 52,20 V 16 H 48 44 V 14 12 h 6 6 v 6 6 H 54 52 Z M 24,18 v -2 h 8 8 v 2 2 H 32 24 Z M 20,14 V 12 h 2 2 v 2 2 H 22 20 Z M 24,10 V 8 h 10 10 v 2 2 h -10 -10 z"
     inkscape:label="Pickaxe" /></svg>
