<svg xmlns="http://www.w3.org/2000/svg" xmlns:svg="http://www.w3.org/2000/svg" id="svg1261" width="64" height="64" version="1.1" viewBox="0 0 64 64" xml:space="preserve"><path id="path23" style="fill:#17181c;fill-rule:evenodd;stroke-width:.0883883;stroke-linecap:square;stroke-linejoin:round;stroke-miterlimit:0" d="m 7.9991454,55.994018 v -3.999573 h 1.9887379 1.9887377 v 2.010835 2.010835 h 2.010835 2.010835 v 1.988738 1.988738 H 11.998718 7.9991454 Z m 3.9774756,-5.98831 V 48.01697 h 2.010835 2.010835 v 1.988738 1.988737 h -2.010835 -2.010835 z m 4.02167,3.999572 v -2.010835 h 2.010835 2.010835 v 2.010835 2.010835 h -2.010835 -2.010835 z m 4.02167,-3.999572 V 48.01697 h 1.988738 1.988737 v 1.988738 1.988737 h -1.988737 -1.988738 z m -4.02167,-3.999573 V 43.9953 h 2.010835 2.010835 v 2.010835 2.010835 h -2.010835 -2.010835 z m 4.02167,-3.999573 v -1.988738 h 1.988738 1.988737 v 1.988738 1.988738 h -1.988737 -1.988738 z m 3.977475,3.999573 V 43.9953 h 2.010835 2.010835 v 2.010835 2.010835 h -2.010835 -2.010835 z m 4.02167,-3.999573 v -1.988738 h 1.988738 1.988738 v 1.988738 1.988738 h -1.988738 -1.988738 z m -4.02167,-3.999573 v -2.010834 h 2.010835 2.010835 v 2.010834 2.010835 h -2.010835 -2.010835 z m 4.02167,-3.999572 v -1.988738 h 1.988738 1.988738 v 1.988738 1.988738 h -1.988738 -1.988738 z m 3.977476,-3.999573 v -2.010835 h 2.010835 2.010835 v 2.010835 2.010835 h -2.010835 -2.010835 z m 0,7.999145 v -2.010834 h 2.010835 2.010835 v 2.010834 2.010835 h -2.010835 -2.010835 z m 4.02167,-3.999572 v -1.988738 h 1.988737 1.988738 v 1.988738 1.988738 h -1.988738 -1.988737 z m 0,-7.999146 v -1.988738 h 1.988737 1.988738 v 1.988738 1.988738 h -1.988738 -1.988737 z m 3.977475,3.999573 v -2.010835 h 2.010835 2.010835 v 2.010835 2.010835 h -2.010835 -2.010835 z m 4.02167,-3.999573 v -1.988738 h 3.999573 3.999572 v 1.988738 1.988738 H 48.01697 44.017397 Z m -4.02167,-3.999572 v -2.010835 h 2.010835 2.010835 v 2.010835 2.010834 h -2.010835 -2.010835 z m -3.977475,-3.999573 v -1.988738 h 1.988737 1.988738 v 1.988738 1.988738 h -1.988738 -1.988737 z m 15.99829,2.010835 V 16.020388 H 48.01697 44.017397 v -2.010835 -2.010835 h 5.988311 5.98831 v 6.010408 6.010407 H 54.00528 52.016542 Z M 39.995727,9.9878833 V 7.9770484 h 2.010835 2.010835 V 9.9878833 11.998718 H 42.006562 39.995727 Z M 28.019106,14.009553 v -2.010835 h 3.999573 3.999573 v 2.010835 2.010835 H 32.018679 28.019106 Z M 23.997436,9.9878833 V 7.9770484 h 2.010835 2.010835 v 2.0108349 2.0108347 h -2.010835 -2.010835 z m 4.02167,-3.9995728 V 3.9995727 h 5.988311 5.98831 v 1.9887378 1.9887379 h -5.98831 -5.988311 z"/></svg>