<svg xmlns="http://www.w3.org/2000/svg" xmlns:svg="http://www.w3.org/2000/svg" id="svg1261" width="64" height="64" version="1.1" viewBox="0 0 64 64" xml:space="preserve"><path id="path19" style="fill:#17181c;fill-rule:evenodd;stroke-width:.0958789;stroke-linecap:square;stroke-linejoin:round;stroke-miterlimit:0" d="M 28.020604,9.9953738 V 7.9819172 h 1.989487 1.989487 V 9.9953738 12.00883 H 30.010091 28.020604 Z M 31.999578,5.9924304 V 4.0029435 h 1.989487 1.989487 V 5.9924304 7.9819172 H 33.989065 31.999578 Z M 51.990326,27.996635 V 23.993691 H 47.987382 43.984439 V 13.998317 4.0029435 H 39.981495 35.978552 V 2.0134566 0.02396972 h 6.0164 6.0164 v 9.99537428 9.995373 h 4.002944 4.002943 v 5.992431 5.99243 h -2.013457 -2.013456 z m -11.984861,4.002943 v -8.005887 h 1.989487 1.989487 v 8.005887 8.005887 h -1.989487 -1.989487 z m 3.978974,9.995374 v -1.989487 h 2.013456 2.013457 v 1.989487 1.989487 h -2.013457 -2.013456 z m 12.0328,2.013457 v -4.002944 h -4.002943 -4.002944 v -4.002943 -4.002944 h 1.989487 1.989487 v 1.989487 1.989487 h 4.002943 4.002944 v 6.0164 6.0164 h -1.989487 -1.989487 z m -4.026913,5.99243 v -1.989487 h 2.013456 2.013457 v 1.989487 1.989487 h -2.013457 -2.013456 z m -3.978974,4.002943 v -2.013456 h 1.989487 1.989487 v 2.013456 2.013457 h -1.989487 -1.989487 z m -8.005887,4.002944 v -1.989487 h 4.002944 4.002943 v 1.989487 1.989487 h -4.002943 -4.002944 z m -4.026913,-9.995374 v -8.005887 h 2.013456 2.013457 v 1.989487 1.989487 h 1.989487 1.989487 v 2.013456 2.013457 h -1.989487 -1.989487 v 4.002944 4.002943 h -2.013457 -2.013456 z m -7.957948,9.995374 v -1.989487 h 3.978974 3.978974 v 1.989487 1.989487 h -3.978974 -3.978974 z m -16.011774,0 v -1.989487 h 4.002944 4.002943 v 1.989487 1.989487 H 16.011774 12.00883 Z M 7.9819172,54.003782 V 51.990326 H 9.9953738 12.00883 v 2.013456 2.013457 H 9.9953738 7.9819172 Z M 19.983051,48.016949 v -8 h -2 -2 v -2 -2 h 2 2 V 32 27.983051 h 2 2 V 40 52.016949 h 2 2 v 2 2 h -4 -4 z m -16.0000001,-6 v -10 h 4 4.0000001 V 30 27.983051 h 2 2 V 32 36.016949 h -4 -4.0000001 v 8 8 h -2 -2 z m 4,-16.033898 v -2 h 2 2.0000001 v 2 2 h -2.0000001 -2 z m -4,-10 V 7.9830509 h 6 6.0000001 v 2 2.0000001 h -4 -4.0000001 v 6 6 h -2 -2 z m 12.0000001,-2 v -2 h 2 2 v 2 2 h -2 -2 z m 8,10.016949 v -4 h -2 -2 v -2 -2 h 2 2 v -2 -2 h 2 2 v 8 8 h -2 -2 z"/></svg>