<?xml version="1.0" encoding="UTF-8" standalone="no"?>
<!-- Created with Inkscape (http://www.inkscape.org/) -->

<svg
   version="1.1"
   id="svg1261"
   width="64"
   height="64"
   viewBox="0 0 64 64"
   sodipodi:docname="empty_slot_smithing_template_armor_trim.svg"
   inkscape:version="1.3 (0e150ed6c4, 2023-07-21)"
   xml:space="preserve"
   xmlns:inkscape="http://www.inkscape.org/namespaces/inkscape"
   xmlns:sodipodi="http://sodipodi.sourceforge.net/DTD/sodipodi-0.dtd"
   xmlns="http://www.w3.org/2000/svg"
   xmlns:svg="http://www.w3.org/2000/svg"><defs
     id="defs1265" /><sodipodi:namedview
     id="namedview1263"
     pagecolor="#505050"
     bordercolor="#eeeeee"
     borderopacity="1"
     inkscape:showpageshadow="0"
     inkscape:pageopacity="0"
     inkscape:pagecheckerboard="0"
     inkscape:deskcolor="#505050"
     showgrid="true"
     inkscape:zoom="16"
     inkscape:cx="20.53125"
     inkscape:cy="30.875"
     inkscape:window-width="3470"
     inkscape:window-height="1440"
     inkscape:window-x="0"
     inkscape:window-y="0"
     inkscape:window-maximized="0"
     inkscape:current-layer="svg1261"><inkscape:grid
       type="xygrid"
       id="grid1388"
       snapvisiblegridlinesonly="true"
       originx="0"
       originy="0"
       spacingy="1"
       spacingx="1"
       units="px"
       visible="true"
       empspacing="4" /></sodipodi:namedview><path
     id="path21"
     style="fill:#17181c;fill-rule:evenodd;stroke-width:0.125;stroke-linecap:square;stroke-linejoin:round;stroke-miterlimit:0"
     d="m 8,54 v -2 h 4 4 v 2 2 h -4 -4 z m 8,4 v -2 h 4 4 v 2 2 h -4 -4 z m 20,-10 v -4 h 2 2 v 4 4 h -2 -2 z M 24,62 v -2 h 4 4 v -4 -4 h 2 2 v 4 4 h 4 4 V 62 64 h -10 -10 z m 20,-6 v -4 h 2 2 v 4 4 h -2 -2 z m 4,-8 v -4 h 2 2 v 4 4 h -2 -2 z m -8,-8 v -4 h 2 2 v 4 4 h -2 -2 z m 4,-8 v -4 h 2 2 v 4 4 h -2 -2 z m 8,8 v -4 h 2 2 v 4 4 h -2 -2 z m -4,-14 v -2 h 2 2 v 2 2 h -2 -2 z m 8,6 v -4 h 2 2 v 4 4 h -2 -2 z m 4,-10 v -6 h 2 2 v 6 6 h -2 -2 z m -8,-4 v -6 h 4 4 v 2 2 h -2 -2 v 4 4 H 54 52 Z M 44,10 V 8 h 4 4 V 10 12 H 48 44 Z M 36,6 V 4 H 40 44 V 6 8 H 40 36 Z M 24,2 V 0 h 6 6 V 2 4 H 30 24 Z M 20,8 V 4 h 2 2 v 4 4 h -2 -2 z m -4,8 v -4 h 2 2 v 4 4 h -2 -2 z m -4,8 v -4 h 2 2 v 4 4 h -2 -2 z m -4,8 v -4 h 2 2 v 4 4 H 10 8 Z M 4,44 V 36 H 6 8 V 44 52 H 6 4 Z"
     inkscape:label="Trim Template" /></svg>
