<?xml version="1.0" encoding="UTF-8" standalone="no"?>
<!-- Created with Inkscape (http://www.inkscape.org/) -->

<svg
   version="1.1"
   id="svg1261"
   width="64"
   height="64"
   viewBox="0 0 64 64"
   sodipodi:docname="empty_slot_ingot.svg"
   inkscape:version="1.3 (0e150ed6c4, 2023-07-21)"
   xml:space="preserve"
   xmlns:inkscape="http://www.inkscape.org/namespaces/inkscape"
   xmlns:sodipodi="http://sodipodi.sourceforge.net/DTD/sodipodi-0.dtd"
   xmlns="http://www.w3.org/2000/svg"
   xmlns:svg="http://www.w3.org/2000/svg"><defs
     id="defs1265" /><sodipodi:namedview
     id="namedview1263"
     pagecolor="#505050"
     bordercolor="#eeeeee"
     borderopacity="1"
     inkscape:showpageshadow="0"
     inkscape:pageopacity="0"
     inkscape:pagecheckerboard="0"
     inkscape:deskcolor="#505050"
     showgrid="true"
     inkscape:zoom="20.85965"
     inkscape:cx="16.179562"
     inkscape:cy="35.786794"
     inkscape:window-width="3470"
     inkscape:window-height="1440"
     inkscape:window-x="0"
     inkscape:window-y="0"
     inkscape:window-maximized="0"
     inkscape:current-layer="svg1261"><inkscape:grid
       type="xygrid"
       id="grid1388"
       snapvisiblegridlinesonly="true"
       originx="0"
       originy="0"
       spacingy="1"
       spacingx="1"
       units="px"
       visible="true"
       empspacing="4" /></sodipodi:namedview><path
     id="path19"
     style="fill:#17181c;fill-rule:evenodd;stroke-width:0.0958789;stroke-linecap:square;stroke-linejoin:round;stroke-miterlimit:0"
     d="m 28.020604,50.000839 v -1.989487 h 5.992431 5.99243 v 1.989487 1.989487 h -5.99243 -5.992431 z m -20.0386868,0 V 48.011352 H 9.9953738 12.00883 v 1.989487 1.989487 H 9.9953738 7.9819172 Z M 4.0029435,45.997895 v -2.013456 h 1.9894869 1.9894868 v 2.013456 2.013457 H 5.9924304 4.0029435 Z M 12.00883,33.989065 v -1.989487 h 1.989487 1.989487 v 1.989487 1.989487 H 13.998317 12.00883 Z m 0,20.014717 v -2.013456 h 4.002944 4.002943 v -5.992431 -5.99243 h -2.013456 -2.013457 v -2.013457 -2.013456 h 4.002944 4.002943 v 8.005887 8.005887 h 2.013457 2.013456 v 2.013456 2.013457 H 20.014717 12.00883 Z M 23.993691,33.989065 v -1.989487 h 5.992431 5.99243 v 1.989487 1.989487 h -5.99243 -5.992431 z m 11.984861,-3.978974 v -1.989487 h 6.0164 6.0164 v 1.989487 1.989487 h -6.0164 -6.0164 z m 4.026913,15.987804 v -2.013456 h 5.99243 5.992431 v 2.013456 2.013457 h -5.992431 -5.99243 z m 11.984861,-4.002943 v -1.989487 h 4.002943 4.002944 v 1.989487 1.989487 H 55.993269 51.990326 Z M 60.016949,32 V 23.983051 H 62 63.983051 V 32 40.016949 H 62 60.016949 Z m -12,-6.016949 v -2 h 4 4 v 2 2 h -4 -4 z m 8,-4 v -2 h 2 2 v 2 2 h -2 -2 z m -4,-4 v -2 h 2 2 v 2 2 h -2 -2 z m -4,-4 v -2 h 2 2 v 2 2 h -2 -2 z m -8,-4.0000001 v -2 h 4 4 v 2 2.0000001 h -4 -4 z M 27.983051,13.983051 v -2 H 34 40.016949 v 2 2 H 34 27.983051 Z m -12,4 v -2 h 6 6 v 2 2 h -6 -6 z M 7.9830509,30 v -2.016949 h 2 2.0000001 V 30 32.016949 h -2.0000001 -2 z M 0.01694915,34 V 24 H 2 3.9830509 v -2 -2 h 6 6.0000001 v 2 2 h -4 -4.0000001 v 2 2 h -2 -2 v 8 8 H 2 0.01694915 Z"
     inkscape:label="Ingot" /></svg>
