<?xml version="1.0" encoding="UTF-8" standalone="no"?>
<!-- Created with Inkscape (http://www.inkscape.org/) -->

<svg
   version="1.1"
   id="svg1261"
   width="64"
   height="64"
   viewBox="0 0 64 64"
   sodipodi:docname="empty_slot_emerald.svg"
   inkscape:version="1.3 (0e150ed6c4, 2023-07-21)"
   xml:space="preserve"
   xmlns:inkscape="http://www.inkscape.org/namespaces/inkscape"
   xmlns:sodipodi="http://sodipodi.sourceforge.net/DTD/sodipodi-0.dtd"
   xmlns="http://www.w3.org/2000/svg"
   xmlns:svg="http://www.w3.org/2000/svg"><defs
     id="defs1265" /><sodipodi:namedview
     id="namedview1263"
     pagecolor="#505050"
     bordercolor="#eeeeee"
     borderopacity="1"
     inkscape:showpageshadow="0"
     inkscape:pageopacity="0"
     inkscape:pagecheckerboard="0"
     inkscape:deskcolor="#505050"
     showgrid="true"
     inkscape:zoom="20.85965"
     inkscape:cx="28.547938"
     inkscape:cy="28.332211"
     inkscape:window-width="3470"
     inkscape:window-height="1440"
     inkscape:window-x="0"
     inkscape:window-y="0"
     inkscape:window-maximized="0"
     inkscape:current-layer="svg1261"><inkscape:grid
       type="xygrid"
       id="grid1388"
       snapvisiblegridlinesonly="true"
       originx="0"
       originy="0"
       spacingy="1"
       spacingx="1"
       units="px"
       visible="true"
       empspacing="4" /></sodipodi:namedview><path
     id="path12"
     style="fill:#17181c;fill-rule:evenodd;stroke-width:0.0958789;stroke-linecap:square;stroke-linejoin:round;stroke-miterlimit:0"
     d="m 20,50 v -2 h -2 -2 v -2 -2 h 4 4 v 4 4 h -2 -2 z m 4,4 v -2 h 8 8 v 2 2 h -8 -8 z m 4,-8 v -2 h 4 4 v 2 2 h -4 -4 z m 12,2 v -4 h 4 4 v 2 2 h -2 -2 v 2 2 H 42 40 Z M 36,34 v -10 h 6 6 v -2 -2 h 2 2 v 12 12 h -2 -2 v -8 -8 h -4 -4 v 8 8 h -2 -2 z m 8,-16 v -2 h 2 2 v 2 2 H 46 44 Z M 40,14 V 12 h 2 2 v 2 2 h -2 -2 z m -12,8 v -2 h 4 4 v 2 2 H 32 28 Z M 12,32 V 20 h 2 2 v 2 2 h 6 6 v 10 10 h -2 -2 v -8 -8 h -4 -4 v 8 8 h -2 -2 z m 4,-14 v -2 h 2 2 v 2 2 h -2 -2 z m 4,-4 V 12 h 2 2 v 2 2 H 22 20 Z M 24,10 V 8 h 8 8 V 10 12 h -8 -8 z"
     inkscape:label="Emerald" /></svg>
