<?xml version="1.0" encoding="UTF-8" standalone="no"?>
<!-- Created with Inkscape (http://www.inkscape.org/) -->

<svg
   version="1.1"
   id="svg2"
   width="1024"
   height="128"
   viewBox="0 0 256 32"
   sodipodi:docname="edition.svg"
   xml:space="preserve"
   inkscape:version="1.3 (0e150ed6c4, 2023-07-21)"
   inkscape:export-filename="edition.png"
   inkscape:export-xdpi="96"
   inkscape:export-ydpi="96"
   xmlns:inkscape="http://www.inkscape.org/namespaces/inkscape"
   xmlns:sodipodi="http://sodipodi.sourceforge.net/DTD/sodipodi-0.dtd"
   xmlns:xlink="http://www.w3.org/1999/xlink"
   xmlns="http://www.w3.org/2000/svg"
   xmlns:svg="http://www.w3.org/2000/svg"><defs
     id="defs6"><linearGradient
       inkscape:collect="always"
       id="linearGradient20627"><stop
         style="stop-color:#3c7790;stop-opacity:1;"
         offset="0"
         id="stop20623" /><stop
         style="stop-color:#233d85;stop-opacity:1;"
         offset="1"
         id="stop20625" /></linearGradient><linearGradient
       inkscape:collect="always"
       id="linearGradient20555"><stop
         style="stop-color:#777dde;stop-opacity:1;"
         offset="0"
         id="stop20551" /><stop
         style="stop-color:#80d4f0;stop-opacity:1;"
         offset="1"
         id="stop20553" /></linearGradient><inkscape:path-effect
       gridpoint32x33x34x35="119.87793,13.5"
       gridpoint29x31="178.12256,13.5"
       gridpoint28x30="61.633301,13.5"
       gridpoint25x27="236.36719,13.5"
       gridpoint24x26="3.3886719,13.5"
       gridpoint22x23="119.87793,17.84961"
       gridpoint20x21="119.87793,9.1503907"
       gridpoint19="178.12256,17.84961"
       gridpoint18="61.633301,17.84961"
       gridpoint17="178.12256,9.1503907"
       gridpoint16="61.633301,9.1503907"
       gridpoint15="236.36719,17.84961"
       gridpoint14="3.3886719,17.84961"
       gridpoint13="236.36719,9.1503907"
       gridpoint12="3.3886719,9.1503907"
       gridpoint10x11="119.87793,22.199219"
       gridpoint8x9="119.87793,4.8007812"
       gridpoint7="178.12256,22.199219"
       gridpoint6="61.633301,22.199219"
       gridpoint5="178.12256,4.8007812"
       gridpoint4="61.633301,4.8007812"
       gridpoint3="236.36719,22.199219"
       gridpoint2="3.3886719,22.199219"
       gridpoint1="229.44035,4.8007808"
       gridpoint0="10.315512,4.8007808"
       effect="lattice2"
       id="path-effect16729"
       is_visible="true"
       lpeversion="1"
       horizontal_mirror="false"
       vertical_mirror="true"
       perimetral="false"
       live_update="true" /><inkscape:path-effect
       gridpoint32x33x34x35="119.87793,13.5"
       gridpoint29x31="178.12256,13.5"
       gridpoint28x30="61.633301,13.5"
       gridpoint25x27="236.36719,13.5"
       gridpoint24x26="3.3886719,13.5"
       gridpoint22x23="119.87793,17.84961"
       gridpoint20x21="119.87793,9.1503907"
       gridpoint19="178.12256,17.84961"
       gridpoint18="61.633301,17.84961"
       gridpoint17="178.12256,9.1503907"
       gridpoint16="61.633301,9.1503907"
       gridpoint15="236.36719,17.84961"
       gridpoint14="3.3886719,17.84961"
       gridpoint13="236.36719,9.1503907"
       gridpoint12="3.3886719,9.1503907"
       gridpoint10x11="119.87793,22.199219"
       gridpoint8x9="119.87793,4.8007812"
       gridpoint7="178.12256,22.199219"
       gridpoint6="61.633301,22.199219"
       gridpoint5="178.12256,4.8007812"
       gridpoint4="61.633301,4.8007812"
       gridpoint3="236.36719,22.199219"
       gridpoint2="3.3886719,22.199219"
       gridpoint1="229.44035,4.8007808"
       gridpoint0="10.315512,4.8007808"
       effect="lattice2"
       id="path-effect16659"
       is_visible="true"
       lpeversion="1"
       horizontal_mirror="false"
       vertical_mirror="true"
       perimetral="false"
       live_update="true" /><inkscape:path-effect
       effect="lattice2"
       gridpoint0="3.2423487,4.5938294"
       gridpoint1="260.59966,4.5938294"
       gridpoint2="9.3432889,21.992268"
       gridpoint3="254.49872,21.992268"
       gridpoint4="67.581678,4.5938294"
       gridpoint5="196.26033,4.5938294"
       gridpoint6="67.581678,21.992267"
       gridpoint7="196.26033,21.992267"
       gridpoint8x9="132.01368,4.5938294"
       gridpoint10x11="132.01368,21.992267"
       gridpoint12="3.2423487,8.9434388"
       gridpoint13="260.59966,8.9434388"
       gridpoint14="3.2423487,17.642658"
       gridpoint15="260.59966,17.642658"
       gridpoint16="67.581678,8.9434388"
       gridpoint17="196.26033,8.9434388"
       gridpoint18="67.581678,17.642658"
       gridpoint19="196.26033,17.642658"
       gridpoint20x21="132.01368,8.9434388"
       gridpoint22x23="132.01368,17.642658"
       gridpoint24x26="3.2423487,13.293048"
       gridpoint25x27="260.59966,13.293048"
       gridpoint28x30="67.581678,13.293048"
       gridpoint29x31="196.26033,13.293048"
       gridpoint32x33x34x35="132.01368,13.293048"
       id="path-effect16657"
       is_visible="true"
       lpeversion="1"
       horizontal_mirror="false"
       vertical_mirror="true"
       perimetral="false"
       live_update="true" /><inkscape:path-effect
       effect="fill_between_many"
       id="path-effect5345"
       is_visible="true"
       lpeversion="1.2"
       linkedpaths=""
       method="bsplinespiro"
       join="true"
       close="true"
       autoreverse="true" /><inkscape:path-effect
       effect="lattice2"
       gridpoint0="3.3886719,18.449219"
       gridpoint1="236.36719,18.449219"
       gridpoint2="6.8881399,29.942704"
       gridpoint3="232.86772,29.942704"
       gridpoint4="61.633301,18.449219"
       gridpoint5="178.12256,18.449219"
       gridpoint6="61.679571,29.942704"
       gridpoint7="178.07629,29.942704"
       gridpoint8x9="119.87793,18.449219"
       gridpoint10x11="119.87793,29.942704"
       gridpoint12="3.3886719,21.32259"
       gridpoint13="236.36719,21.32259"
       gridpoint14="3.3886719,27.069333"
       gridpoint15="236.36719,27.069333"
       gridpoint16="61.633301,21.32259"
       gridpoint17="178.12256,21.32259"
       gridpoint18="61.633301,27.069333"
       gridpoint19="178.12256,27.069333"
       gridpoint20x21="119.87793,21.32259"
       gridpoint22x23="119.87793,27.069333"
       gridpoint24x26="3.3886719,24.195961"
       gridpoint25x27="236.36719,24.195961"
       gridpoint28x30="61.633301,24.195961"
       gridpoint29x31="178.12256,24.195961"
       gridpoint32x33x34x35="119.87793,24.195961"
       id="path-effect5341"
       is_visible="true"
       lpeversion="1"
       horizontal_mirror="false"
       vertical_mirror="true"
       perimetral="true"
       live_update="true" /><inkscape:path-effect
       effect="lattice2"
       gridpoint0="1.6602116,18.46112"
       gridpoint1="238.09565,18.46112"
       gridpoint2="7.0265639,29.942704"
       gridpoint3="232.7293,29.942704"
       gridpoint4="61.633301,18.449219"
       gridpoint5="178.12256,18.449219"
       gridpoint6="61.633301,29.942704"
       gridpoint7="178.12256,29.942704"
       gridpoint8x9="119.87793,18.449219"
       gridpoint10x11="119.87793,29.942704"
       gridpoint12="3.3886719,21.32259"
       gridpoint13="236.36719,21.32259"
       gridpoint14="3.3886719,27.069333"
       gridpoint15="236.36719,27.069333"
       gridpoint16="61.633301,21.32259"
       gridpoint17="178.12256,21.32259"
       gridpoint18="61.633301,27.069333"
       gridpoint19="178.12256,27.069333"
       gridpoint20x21="119.87793,21.32259"
       gridpoint22x23="119.87793,27.069333"
       gridpoint24x26="3.3886719,24.195961"
       gridpoint25x27="236.36719,24.195961"
       gridpoint28x30="61.633301,24.195961"
       gridpoint29x31="178.12256,24.195961"
       gridpoint32x33x34x35="119.87793,24.195961"
       id="path-effect5320"
       is_visible="true"
       lpeversion="1"
       horizontal_mirror="false"
       vertical_mirror="true"
       perimetral="false"
       live_update="true" /><inkscape:path-effect
       effect="lattice2"
       gridpoint0="9.9222614,4.8007814"
       gridpoint1="229.8336,4.8007814"
       gridpoint2="3.3886719,22.199219"
       gridpoint3="236.36719,22.199219"
       gridpoint4="61.633301,4.8007812"
       gridpoint5="178.12256,4.8007812"
       gridpoint6="61.633301,22.199219"
       gridpoint7="178.12256,22.199219"
       gridpoint8x9="119.87793,4.8007812"
       gridpoint10x11="119.87793,22.199219"
       gridpoint12="3.3886719,9.1503907"
       gridpoint13="236.36719,9.1503907"
       gridpoint14="3.3886719,17.84961"
       gridpoint15="236.36719,17.84961"
       gridpoint16="61.633301,9.1503907"
       gridpoint17="178.12256,9.1503907"
       gridpoint18="61.633301,17.84961"
       gridpoint19="178.12256,17.84961"
       gridpoint20x21="119.87793,9.1503907"
       gridpoint22x23="119.87793,17.84961"
       gridpoint24x26="3.3886719,13.5"
       gridpoint25x27="236.36719,13.5"
       gridpoint28x30="61.633301,13.5"
       gridpoint29x31="178.12256,13.5"
       gridpoint32x33x34x35="119.87793,13.5"
       id="path-effect4404"
       is_visible="false"
       lpeversion="1"
       horizontal_mirror="false"
       vertical_mirror="true"
       perimetral="false"
       live_update="true" /><inkscape:path-effect
       effect="lattice2"
       gridpoint0="3.3886719,22.199219"
       gridpoint1="17.022497,22.199219"
       gridpoint2="5.4983233,29.199219"
       gridpoint3="17.775238,29.199219"
       gridpoint4="6.6397969,22.199219"
       gridpoint5="13.142047,22.199219"
       gridpoint6="6.6397969,29.199219"
       gridpoint7="13.142047,29.199219"
       gridpoint8x9="9.8909219,22.199219"
       gridpoint10x11="9.8909219,29.199219"
       gridpoint12="3.3886719,23.949219"
       gridpoint13="16.393172,23.949219"
       gridpoint14="3.3886719,27.449219"
       gridpoint15="16.393172,27.449219"
       gridpoint16="6.6397969,23.949219"
       gridpoint17="13.142047,23.949219"
       gridpoint18="6.6397969,27.449219"
       gridpoint19="13.142047,27.449219"
       gridpoint20x21="9.8909219,23.949219"
       gridpoint22x23="9.8909219,27.449219"
       gridpoint24x26="3.3886719,25.699219"
       gridpoint25x27="16.393172,25.699219"
       gridpoint28x30="6.6397969,25.699219"
       gridpoint29x31="13.142047,25.699219"
       gridpoint32x33x34x35="9.8909219,25.699219"
       id="path-effect4368"
       is_visible="true"
       lpeversion="1"
       horizontal_mirror="false"
       vertical_mirror="false"
       perimetral="false"
       live_update="true" /><inkscape:path-effect
       effect="lattice2"
       gridpoint0="3.3886719,18.863281"
       gridpoint1="16.388672,18.863281"
       gridpoint2="3.3886719,29.199219"
       gridpoint3="16.388672,29.199219"
       gridpoint4="6.6386719,18.863281"
       gridpoint5="13.138672,18.863281"
       gridpoint6="6.6386719,29.199219"
       gridpoint7="13.138672,29.199219"
       gridpoint8x9="9.8886719,18.863281"
       gridpoint10x11="9.8886719,29.199219"
       gridpoint12="3.3886719,21.447266"
       gridpoint13="16.388672,21.447266"
       gridpoint14="3.3886719,26.615234"
       gridpoint15="16.388672,26.615234"
       gridpoint16="6.6386719,21.447266"
       gridpoint17="13.138672,21.447266"
       gridpoint18="6.6386719,26.615234"
       gridpoint19="13.138672,26.615234"
       gridpoint20x21="9.8886719,21.447266"
       gridpoint22x23="9.8886719,26.615234"
       gridpoint24x26="3.3886719,24.03125"
       gridpoint25x27="16.388672,24.03125"
       gridpoint28x30="6.6386719,24.03125"
       gridpoint29x31="13.138672,24.03125"
       gridpoint32x33x34x35="9.8886719,24.03125"
       id="path-effect2833"
       is_visible="true"
       lpeversion="1"
       horizontal_mirror="false"
       vertical_mirror="false"
       perimetral="false"
       live_update="true" /><inkscape:path-effect
       effect="lattice2"
       gridpoint0="9.9222614,4.8007814"
       gridpoint1="229.8336,4.8007814"
       gridpoint2="3.3886719,22.199219"
       gridpoint3="236.36719,22.199219"
       gridpoint4="61.633301,4.8007812"
       gridpoint5="178.12256,4.8007812"
       gridpoint6="61.633301,22.199219"
       gridpoint7="178.12256,22.199219"
       gridpoint8x9="119.87793,4.8007812"
       gridpoint10x11="119.87793,22.199219"
       gridpoint12="3.3886719,9.1503907"
       gridpoint13="236.36719,9.1503907"
       gridpoint14="3.3886719,17.84961"
       gridpoint15="236.36719,17.84961"
       gridpoint16="61.633301,9.1503907"
       gridpoint17="178.12256,9.1503907"
       gridpoint18="61.633301,17.84961"
       gridpoint19="178.12256,17.84961"
       gridpoint20x21="119.87793,9.1503907"
       gridpoint22x23="119.87793,17.84961"
       gridpoint24x26="3.3886719,13.5"
       gridpoint25x27="236.36719,13.5"
       gridpoint28x30="61.633301,13.5"
       gridpoint29x31="178.12256,13.5"
       gridpoint32x33x34x35="119.87793,13.5"
       id="path-effect2831"
       is_visible="false"
       lpeversion="1"
       horizontal_mirror="false"
       vertical_mirror="true"
       perimetral="false"
       live_update="true" /><inkscape:path-effect
       gridpoint32x33x34x35="119.87785,13.5"
       gridpoint29x31="177.62211,13.5"
       gridpoint28x30="62.133591,13.5"
       gridpoint25x27="235.36637,13.5"
       gridpoint24x26="4.389331,13.5"
       gridpoint22x23="119.87785,17.35"
       gridpoint20x21="119.87785,9.65"
       gridpoint19="177.62211,17.35"
       gridpoint18="62.133591,17.35"
       gridpoint17="177.62211,9.65"
       gridpoint16="62.133591,9.65"
       gridpoint15="235.36637,17.35"
       gridpoint14="4.389331,17.35"
       gridpoint13="235.36637,9.65"
       gridpoint12="4.389331,9.65"
       gridpoint10x11="119.87785,21.2"
       gridpoint8x9="119.87785,5.8"
       gridpoint7="177.62211,21.2"
       gridpoint6="62.133591,21.2"
       gridpoint5="177.62211,5.8"
       gridpoint4="62.133591,5.8"
       gridpoint3="235.36637,21.2"
       gridpoint2="4.389331,21.2"
       gridpoint1="230.5312,5.8"
       gridpoint0="9.1375558,5.8"
       effect="lattice2"
       id="path-effect26620"
       is_visible="false"
       lpeversion="1"
       horizontal_mirror="false"
       vertical_mirror="false"
       perimetral="false"
       live_update="true" /><inkscape:path-effect
       gridpoint32x33x34x35="119.87785,13.5"
       gridpoint29x31="177.62211,13.5"
       gridpoint28x30="62.133591,13.5"
       gridpoint25x27="235.36637,13.5"
       gridpoint24x26="4.389331,13.5"
       gridpoint22x23="119.87785,17.35"
       gridpoint20x21="119.87785,9.65"
       gridpoint19="177.62211,17.35"
       gridpoint18="62.133591,17.35"
       gridpoint17="177.62211,9.65"
       gridpoint16="62.133591,9.65"
       gridpoint15="235.36637,17.35"
       gridpoint14="4.389331,17.35"
       gridpoint13="235.36637,9.65"
       gridpoint12="4.389331,9.65"
       gridpoint10x11="119.87785,21.2"
       gridpoint8x9="119.87785,5.8"
       gridpoint7="177.62211,21.2"
       gridpoint6="62.133591,21.2"
       gridpoint5="177.62211,5.8"
       gridpoint4="62.133591,5.8"
       gridpoint3="235.36637,21.2"
       gridpoint2="4.389331,21.2"
       gridpoint1="230.5312,5.8"
       gridpoint0="9.1375558,5.8"
       effect="lattice2"
       id="path-effect26552"
       is_visible="true"
       lpeversion="1"
       horizontal_mirror="false"
       vertical_mirror="false"
       perimetral="false"
       live_update="true" /><inkscape:path-effect
       gridpoint32x33x34x35="120.40733,13.5"
       gridpoint29x31="183.55451,13.5"
       gridpoint28x30="57.260152,13.5"
       gridpoint25x27="246.70169,13.5"
       gridpoint24x26="-5.887027,13.5"
       gridpoint22x23="120.40733,17.35"
       gridpoint20x21="120.40733,9.65"
       gridpoint19="183.55451,17.35"
       gridpoint18="57.260152,17.35"
       gridpoint17="183.55451,9.65"
       gridpoint16="57.260152,9.65"
       gridpoint15="246.70169,17.35"
       gridpoint14="-5.887027,17.35"
       gridpoint13="246.70169,9.65"
       gridpoint12="-5.887027,9.65"
       gridpoint10x11="120.40733,21.2"
       gridpoint8x9="120.40733,5.8"
       gridpoint7="183.55451,21.2"
       gridpoint6="57.260152,21.2"
       gridpoint5="183.55451,5.8"
       gridpoint4="57.260152,5.8"
       gridpoint3="246.70169,21.2"
       gridpoint2="-5.887027,21.2"
       gridpoint1="241.88874,5.8"
       gridpoint0="-0.87491929,5.8"
       effect="lattice2"
       id="path-effect26135"
       is_visible="true"
       lpeversion="1"
       horizontal_mirror="false"
       vertical_mirror="false"
       perimetral="false"
       live_update="true" /><linearGradient
       inkscape:collect="always"
       xlink:href="#linearGradient20555"
       id="linearGradient20557"
       x1="132.94937"
       y1="4.8007808"
       x2="132.94937"
       y2="22.202068"
       gradientUnits="userSpaceOnUse"
       gradientTransform="translate(6.7210315,-2.1414166)" /><linearGradient
       inkscape:collect="always"
       xlink:href="#linearGradient20627"
       id="linearGradient20629"
       x1="108.08068"
       y1="15.430101"
       x2="108.08068"
       y2="28.278021"
       gradientUnits="userSpaceOnUse"
       gradientTransform="translate(6.7210315,-2.1414166)" /></defs><sodipodi:namedview
     id="namedview4"
     pagecolor="#505050"
     bordercolor="#eeeeee"
     borderopacity="1"
     inkscape:showpageshadow="0"
     inkscape:pageopacity="0"
     inkscape:pagecheckerboard="0"
     inkscape:deskcolor="#505050"
     showgrid="true"
     inkscape:zoom="2"
     inkscape:cx="500.75"
     inkscape:cy="122.25"
     inkscape:window-width="3718"
     inkscape:window-height="1440"
     inkscape:window-x="0"
     inkscape:window-y="0"
     inkscape:window-maximized="0"
     inkscape:current-layer="svg2"><inkscape:grid
       type="xygrid"
       id="grid856"
       snapvisiblegridlinesonly="false"
       enabled="false"
       originx="0"
       originy="0"
       spacingy="1"
       spacingx="1"
       units="px"
       visible="true" /></sodipodi:namedview><path
     id="path16763"
     style="fill:#171938;fill-opacity:1;stroke:none;stroke-width:1px;stroke-linecap:butt;stroke-linejoin:miter;stroke-opacity:1"
     d="m 135.22689,0.6593647 0.0571,19.4028823 1.20074,8.082313 h 27.35306 l 4.31836,-4.001953 0.60352,4.001953 h 11.13672 l 1.9741,-6.6518 2.10988,6.6518 h 7.67773 l 2.41907,-6.192196 1.76843,6.192184 h 11.46094 l 2.18846,-3.85926 2.61787,3.85926 h 8.05078 l 3.1466,-2.142405 0.80684,2.142417 h 16.08788 l 6.19987,-8.082313 -7.72134,-19.412648 -15.81365,0.00977 -1.18489,2.151687 -2.78857,-2.151687 h -7.75782 l -3.05913,4.2739177 -1.21629,-4.2739183 h -39.77929 l -0.86785,2.7010837 -2.90364,-2.7010837 z M 7.9586309,20.062247 13.916344,28.14456 h 11.007813 l 2.753906,-4.134766 2.132813,4.134766 h 31.566406 l 0.900566,-4.482878 4.823086,4.482878 h 7.595703 l 3.824958,-4.888892 4.920169,4.888892 h 7.623047 l 3.39416,-3.911484 1.371436,3.911484 29.554683,4e-6 1.21387,-8.082317 -0.0652,-14.8562684 -4.24414,-4.5468749 h -7.67578 l -4.42013,4.4631516 -0.45117,8.7285167 -5.96294,0.01007 -0.26755,-13.2014763 H 79.680016 L 78.869469,5.61835 75.088219,0.6593657 h -7.701171 l -4.9375,4.2460927 -3.302735,-4.2460937 H 51.42611 L 46.320641,4.8410053 43.209313,0.6593647 h -11.61914 l -1.27963,3.77099 -3.03287,-3.77099 h -11.59961 z"
     inkscape:label="Outline"
     sodipodi:nodetypes="cccccccccccccccccccccccccccccccccccccccccccccccccccccccccccccccccccc" /><path
     style="color:#000000;display:inline;fill:url(#linearGradient20629);fill-opacity:1;stroke:none;stroke-width:4;-inkscape-stroke:none;paint-order:stroke markers fill"
     d="m 231.25964,20.057803 -3.87729,6.086555 h 3.59797 l 4.47854,-6.086555 m -22.18532,-3.335938 -2.25012,6.420149 2.12483,3.002344 h 6.30274 l 3.6804,-3.002344 2.99394,-6.420149 m -24.44966,3.335999 -2.91853,6.086494 h 7.36186 l 4.14064,-6.086555 m -21.20117,0 -2.36125,6.086555 h 3.59488 l 2.96754,-6.086555 m -21.20117,0 -1.01368,6.086555 h 7.35837 l 2.25491,-6.086555 m -25.5996,0 -0.27528,6.086555 h 8.27047 l 3.23998,-3.002344 1.30549,-6.420149 m -29.61248,3.335938 0.39631,6.086555 h 11.35852 l 1.317,-6.086555 m -55.534714,0 1.872704,6.086555 h 10.19823 l -0.17054,-6.086555 m -28.352271,-3.335938 1.927694,6.420149 3.183829,3.002344 h 5.925525 l 2.641864,-3.002344 -0.82713,-6.420149 m -30.0673,0 2.582507,6.420149 3.346605,3.002344 h 5.888862 l 2.797676,-3.375 -1.280832,-6.461555 m -65.081486,3.75 4.896731,6.086555 h 8.84756 l 1.999955,-3.002344 -1.564326,-6.420149 m 219.970017,3.335938 -5.11848,6.086555 h -3.60144 l 2.96267,-4.981641 -3.5879,-2.592068 -3.18574,-8.6476126 6.20548,4.5996096 2.12424,5.535157 z m -119.83546,-2e-6 -0.83145,6.086555 -3.58661,7.4e-5 0.0671,-5.400074 -3.95579,2.96e-4 -0.0613,5.387806 -3.599,0.0119 -1.03297,-6.086555 h 4.20117 l 0.22503,-6 h 4.50529 l -0.13071,6 z m -67.314476,2e-6 1.75378,6.086555 h -3.601883 l -2.091206,-5.4 h -4.016332 l 2.162116,5.4 H 47.71247 l -3.602766,-6.086555 h 4.201172 l 1.60541,-6 h 4.505287 l -1.511088,6 z m -17,0 2.070485,6.086555 h -3.601995 l -1.308951,-2.956641 -2.975592,-2.443359 h -2.004752 l 2.34396,5.4 h -3.603426 l -3.919729,-6.086555 h 4.201172 l 1.954019,-6 h 1.846116 l 1.817707,2.714843 -1.018233,3.285157 z"
     id="path16745"
     sodipodi:nodetypes="cccccccccccccccccccccccccccccccccccccccccccccccccccccccccccccccccccccccccccccccccccccccccccccccccccccc"
     inkscape:label="Drop Shadow" /><path
     style="color:#000000;display:inline;fill:url(#linearGradient20557);fill-opacity:1;stroke-width:4;-inkscape-stroke:none;paint-order:stroke markers fill"
     d="M 52.152362,2.6593642 C 50.818636,3.7761071 48.0743,5.9953019 48.0743,5.9953019 46.759225,10.693662 44.109704,20.057803 44.109704,20.057803 c 1.407941,0.01 4.201172,0 4.201172,0 0.542559,-1.990367 1.60541,-6 1.60541,-6 1.50928,0.01 4.505287,0 4.505287,0 -0.496513,2.01037 -1.511088,6 -1.511088,6 1.407591,0.01 4.199219,0 4.199219,0 1.121095,-4.678369 3.33979,-14.0625011 3.33979,-14.0625011 C 59.662036,4.8931003 58.104195,2.6593642 58.104195,2.6593642 Z m 0.706641,4.1992189 c 0.793535,0.010001 2.359246,0 2.359246,0 0.255204,0.3648886 0.748353,1.0644534 0.748353,1.0644534 -0.155451,0.6553019 -0.487464,1.935547 -0.487464,1.935547 -1.473019,0.01 -4.439274,0 -4.439274,0 0.179637,-0.635301 0.517891,-1.935547 0.517891,-1.935547 0.43504,-0.354818 0.868789,-0.7096356 1.301248,-1.0644534 z M 33.025667,2.6593642 c -1.966339,5.8105262 -5.915963,17.3984388 -5.915963,17.3984388 1.40736,0.01 4.201172,0 4.201172,0 0.658201,-1.990362 1.954019,-6 1.954019,-6 0.622074,0.01 1.846116,0 1.846116,0 0.604228,0.915129 1.817707,2.714843 1.817707,2.714843 -0.332685,1.105252 -1.018233,3.285157 -1.018233,3.285157 1.40701,0.01 4.199219,0 4.199219,0 0.520777,-1.727947 1.540919,-5.212891 1.540919,-5.212891 C 41.249045,14.25909 40.436441,13.057803 40.436441,13.057803 41.205687,12.4711 42.706577,11.272647 42.706577,11.272647 43.233405,9.5232104 44.266548,5.9953019 44.266548,5.9953019 43.543129,4.8931003 42.115072,2.6593642 42.115072,2.6593642 Z m 2.583797,4.1992189 c 1.096375,0.010001 3.269374,0 3.269374,0 0.168734,0.4823368 0.492044,1.4179693 0.492044,1.4179693 -0.477248,0.536658 -1.458454,1.5820311 -1.458454,1.5820311 -1.087105,0.01 -3.279973,0 -3.279973,0 0.07337,-0.225277 0.903644,-2.774724 0.977009,-3.0000004 z M 17.036544,2.6593642 C 14.73261,8.4698764 10.109703,20.057803 10.109703,20.057803 c 3.228224,0.01 9.664063,0 9.664063,0 1.5319,-1.107467 4.515857,-3.335938 4.515857,-3.335938 C 25.560859,13.155701 28.083602,5.9953019 28.083602,5.9953019 27.424222,4.8931003 26.125949,2.6593642 26.125949,2.6593642 Z m 2.339816,4.1992189 c 1.131238,0.010001 3.37568,0 3.37568,0 0.212802,0.3648886 0.62466,1.0644534 0.62466,1.0644534 -0.837218,2.3007745 -2.528914,6.8710945 -2.528914,6.8710945 -0.472274,0.364342 -1.440949,1.064453 -1.440949,1.064453 -1.155642,0.01 -3.484421,0 -3.484421,0 z M 68.141485,2.6593642 c -1.268794,1.1167015 -3.884238,3.3359377 -3.884238,3.3359377 -0.793161,3.5861876 -2.400876,10.7265631 -2.400876,10.7265631 0.85823,1.122202 2.58927,3.335938 2.58927,3.335938 2.117808,0.01 6.328125,0 6.328125,0 1.505194,-1.247135 4.417423,-3.75 4.417423,-3.75 -0.818136,-1.011037 -2.446133,-3.0625 -2.446133,-3.0625 -1.004062,0.877893 -3.070164,2.613281 -3.070164,2.613281 -0.80408,0.01 -2.435243,0 -2.435243,0 -0.268951,-0.344889 -0.826209,-1.064453 -0.826209,-1.064453 0.48757,-2.280793 1.439266,-6.8710945 1.439266,-6.8710945 0.422675,-0.3454424 1.239401,-1.0644534 1.239401,-1.0644534 0.794116,0.010001 2.359246,0 2.359246,0 0.668186,0.8812679 2.004793,2.6132814 2.004793,2.6132814 1.189668,-1.0156531 3.496762,-3.0625001 3.496762,-3.0625001 -0.961657,-1.2402501 -2.85959,-3.7500002 -2.85959,-3.7500002 z m 13.240993,0 c -0.762581,4.6983903 -2.310589,14.0625008 -2.310589,14.0625008 0.92502,1.122202 2.787815,3.335938 2.787815,3.335938 2.118403,0.01 6.328125,0 6.328125,0 1.27321,-1.107693 3.735842,-3.335938 3.735842,-3.335938 0.570722,-4.678401 1.685783,-14.0625008 1.685783,-14.0625008 -1.308652,0.010001 -3.949518,0 -3.949518,0 -0.53499,4.0556976 -1.628847,12.1347668 -1.628847,12.1347668 -0.387065,0.364325 -1.192058,1.064453 -1.192058,1.064453 -0.803486,0.01 -2.435244,0 -2.435244,0 -0.289478,-0.344889 -0.889562,-1.064453 -0.889562,-1.064453 0.614972,-4.035692 1.819609,-12.1347668 1.819609,-12.1347668 z m 15.989123,0 C 96.76388,8.4699654 95.523766,20.057803 95.523766,20.057803 c 3.976784,0.01 11.900394,0 11.900394,0 0.10109,-1.390013 0.27519,-4.199219 0.27519,-4.199219 -2.52104,0.01 -7.58872,0 -7.58872,0 0.41312,-4.390593 1.21233,-13.1992197 1.21233,-13.1992197 z m 18.092469,0 c -1.07672,1.1166603 -3.31058,3.3359377 -3.31058,3.3359377 -0.23416,4.6984241 -0.72933,14.0625011 -0.72933,14.0625011 1.41024,0.01 4.20117,0 4.20117,0 0.0846,-1.990394 0.22503,-6 0.22503,-6 1.51158,0.01 4.50529,0 4.50529,0 -0.034,2.010398 -0.13071,6 -0.13071,6 1.40989,0.01 4.19922,0 4.19922,0 0.0448,-4.678434 0.10452,-14.0625011 0.10452,-14.0625011 -1.04103,-1.1022017 -3.11277,-3.3359377 -3.11277,-3.3359377 z m 1.67087,4.1992188 c 0.79645,0.010001 2.3611,0 2.3611,0 0.33915,0.3648887 0.99325,1.0644534 0.99325,1.0644534 -0.005,0.655311 -0.0422,1.9355471 -0.0422,1.9355471 -1.47072,0.01 -4.43928,0 -4.43928,0 0.0335,-0.63531 0.0726,-1.9355471 0.0726,-1.9355471 0.35279,-0.354818 0.70429,-0.7096357 1.0545,-1.0644534 z M 137.3095,2.6593642 c 0.23556,5.8106553 0.67715,17.3984388 0.67715,17.3984388 3.97824,0.01 13.07182,0 13.07182,0 -0.10064,-1.390026 -0.33423,-4.199219 -0.33423,-4.199219 -2.51959,0.01 -8.76014,0 -8.76014,0 -0.0302,-0.752738 -0.12189,-2.287751 -0.12189,-2.287751 1.44497,0.01 5.47425,0 5.47425,0 -0.0852,-1.390025 -0.28688,-4.1992195 -0.28688,-4.1992195 -1.40328,0.01 -5.4111,0 -5.4111,0 -0.0345,-0.827847 -0.13389,-2.5130304 -0.13389,-2.5130304 2.46137,0.010001 8.52332,0 8.52332,0 -0.10109,-1.390026 -0.33423,-4.1992188 -0.33423,-4.1992188 z m 16.12633,0 c 0.55133,5.8106742 1.62264,17.3984388 1.62264,17.3984388 3.23314,0.01 9.66406,0 9.66406,0 0.98792,-1.107711 2.8766,-3.335938 2.8766,-3.335938 -0.48117,-3.566266 -1.47699,-10.7265631 -1.47699,-10.7265631 -1.20099,-1.1022016 -3.59691,-3.3359377 -3.59691,-3.3359377 z m 4.40328,4.1992189 c 1.13615,0.010001 3.37568,0 3.37568,0 0.3921,0.3648886 1.14773,1.0644534 1.14773,1.0644534 0.29337,2.3008405 0.8475,6.8710945 0.8475,6.8710945 -0.29324,0.364337 -0.9179,1.064453 -0.9179,1.064453 -1.15072,0.01 -3.48441,0 -3.48441,0 -0.004,-0.0353 -0.9648,-8.9647017 -0.9686,-9.0000009 z m 11.58584,-4.1992189 c 0.22284,1.4100335 0.63562,4.1992189 0.63562,4.1992189 0.71187,0.010001 2.10187,0 2.10187,0 0.4879,3.0106303 1.42999,9.0000009 1.42999,9.0000009 -0.71194,0.01 -2.16958,0 -2.16958,0 0.22329,1.410034 0.63562,4.199219 0.63562,4.199219 2.8788,0.01 8.5996,0 8.5996,0 -0.24126,-1.390035 -0.75904,-4.199219 -0.75904,-4.199219 -0.71107,0.01 -2.16764,0 -2.16764,0 -0.50824,-2.990632 -1.55916,-9.0000008 -1.55916,-9.0000008 0.71146,0.010001 2.1,0 2.1,0 -0.24171,-1.3900347 -0.75904,-4.1992189 -0.75904,-4.1992189 z m 11.85039,0 c 0.28355,1.4100369 0.81644,4.1992189 0.81644,4.1992189 1.4125,0.010001 4.20189,0 4.20189,0 0.93344,4.4106779 2.7648,13.1992199 2.7648,13.1992199 1.41285,0.01 4.20117,0 4.20117,0 -0.97274,-4.390679 -2.95432,-13.1992198 -2.95432,-13.1992198 1.41217,0.010001 4.20001,0 4.20001,0 -0.32247,-1.3900393 -1.00302,-4.1992189 -1.00302,-4.1992189 z m 15.98912,0 c 0.36548,1.4100415 1.06043,4.1992189 1.06043,4.1992189 0.71288,0.010001 2.10188,0 2.10188,0 0.79247,3.0106473 2.34046,9.0000009 2.34046,9.0000009 -0.71093,0.01 -2.16958,0 -2.16958,0 0.36593,1.410042 1.06042,4.199219 1.06042,4.199219 2.88047,0.01 8.60157,0 8.60157,0 -0.38189,-1.390042 -1.18387,-4.199219 -1.18387,-4.199219 -0.71071,0.01 -2.16958,0 -2.16958,0 -0.81079,-2.990649 -2.46964,-9.0000008 -2.46964,-9.0000008 0.71311,0.010001 2.10188,0 2.10188,0 -0.38235,-1.3900425 -1.18388,-4.1992189 -1.18388,-4.1992189 z m 14.9898,0 c -0.68908,1.1172465 -2.15146,3.3359377 -2.15146,3.3359377 1.06962,3.5862985 3.17074,10.7265631 3.17074,10.7265631 1.44113,1.122202 4.32203,3.335938 4.32203,3.335938 2.123,0.01 6.32813,0 6.32813,0 0.76356,-1.107385 2.20163,-3.335938 2.20163,-3.335938 C 224.92257,13.15556 222.47799,5.9953019 222.47799,5.9953019 221.05398,4.8931003 218.2061,2.6593642 218.2061,2.6593642 Z m 3.12994,4.1992189 c 0.79931,0.010001 2.35924,0 2.35924,0 0.46594,0.3648886 1.3631,1.0644534 1.3631,1.0644534 0.75891,2.3008655 2.23771,6.8710945 2.23771,6.8710945 -0.21955,0.364389 -0.70252,1.064453 -0.70252,1.064453 -0.79889,0.01 -2.43524,0 -2.43524,0 -0.44809,-0.344889 -1.3791,-1.064453 -1.3791,-1.064453 -0.69714,-2.280864 -2.1297,-6.8710945 -2.1297,-6.8710945 0.23013,-0.354818 0.45896,-0.7096357 0.68651,-1.0644534 z m 9.72162,-4.1992189 c 2.06467,5.8107562 6.15382,17.3984388 6.15382,17.3984388 1.41365,0.01 4.19922,0 4.19922,0 -1.22996,-3.369001 -3.73011,-10.1347665 -3.73011,-10.1347665 2.05813,1.5435095 6.20548,4.5996095 6.20548,4.5996095 0.72189,1.855461 2.12424,5.535157 2.12424,5.535157 1.4146,0.01 4.20117,0 4.20117,0 -2.29548,-5.790767 -6.92684,-17.3984388 -6.92684,-17.3984388 -1.30408,0.010001 -3.95135,0 -3.95135,0 0.74696,1.921882 2.20069,5.7343752 2.20069,5.7343752 -2.55653,-1.9018409 -7.59592,-5.7343752 -7.59592,-5.7343752 z"
     id="path16751"
     sodipodi:nodetypes="ccccccccccccccccccccccccccccccccccccccccccccccccccccccccccccccccccccccccccccccccccccccccccccccccccccscccccsscccccccccccccccccccccccccccccccccccccccccccccccccccccccccccccccccccccccccccccccccccccccccccc" /></svg>
