<svg xmlns="http://www.w3.org/2000/svg" xmlns:svg="http://www.w3.org/2000/svg" xmlns:xlink="http://www.w3.org/1999/xlink" id="svg2" width="1024" height="1024" version="1.1" viewBox="0 0 1024 1024" xml:space="preserve"><defs id="defs6"><linearGradient id="linearGradient9"><stop style="stop-color:#000;stop-opacity:1" id="stop9" offset="0"/><stop style="stop-color:#000;stop-opacity:0" id="stop10" offset="1"/></linearGradient><linearGradient id="linearGradient7"><stop style="stop-color:#000;stop-opacity:1" id="stop7" offset="0"/><stop style="stop-color:#000;stop-opacity:0" id="stop8" offset="1"/></linearGradient><linearGradient id="linearGradient5"><stop style="stop-color:#000;stop-opacity:1" id="stop5" offset="0"/><stop style="stop-color:#000;stop-opacity:0" id="stop6" offset="1"/></linearGradient><linearGradient id="linearGradient3"><stop style="stop-color:#000;stop-opacity:1" id="stop3" offset="0"/><stop style="stop-color:#000;stop-opacity:0" id="stop4" offset="1"/></linearGradient><linearGradient id="linearGradient4" x1="546" x2="546" y1="300" y2="352" gradientUnits="userSpaceOnUse" xlink:href="#linearGradient3"/><linearGradient id="linearGradient6" x1="990" x2="938" y1="564" y2="564" gradientUnits="userSpaceOnUse" xlink:href="#linearGradient5"/><linearGradient id="linearGradient8" x1="30" x2="82" y1="564" y2="564" gradientUnits="userSpaceOnUse" xlink:href="#linearGradient7"/><linearGradient id="linearGradient10" x1="526" x2="526" y1="976" y2="924" gradientUnits="userSpaceOnUse" xlink:href="#linearGradient9"/><linearGradient id="linearGradient7606"><stop style="stop-color:#8bfdf0;stop-opacity:1" id="stop7602" offset="0"/><stop style="stop-color:#50fa7b;stop-opacity:1" id="stop7604" offset="1"/></linearGradient><linearGradient id="linearGradient7747"><stop style="stop-color:#2b525a;stop-opacity:1" id="stop7743" offset="0"/><stop style="stop-color:#2f5b3a;stop-opacity:1" id="stop7745" offset="1"/></linearGradient><linearGradient id="linearGradient7709"><stop style="stop-color:#ff79c6;stop-opacity:1" id="stop7707" offset="0"/><stop style="stop-color:#bd93f9;stop-opacity:1" id="stop7705" offset="1"/></linearGradient><linearGradient id="linearGradient7737"><stop style="stop-color:#6d2c51;stop-opacity:1" id="stop7735" offset="0"/><stop style="stop-color:#523d6f;stop-opacity:1" id="stop7733" offset="1"/></linearGradient><linearGradient id="linearGradient4-2" x1="52" x2="52" y1="604" y2="524" gradientUnits="userSpaceOnUse" xlink:href="#linearGradient7606"/><linearGradient id="linearGradient2" x1="52" x2="52" y1="600" y2="528" gradientUnits="userSpaceOnUse" xlink:href="#linearGradient7747"/><linearGradient id="linearGradient7703-0" x1="156" x2="156" y1="616" y2="512" gradientUnits="userSpaceOnUse" xlink:href="#linearGradient7709"/><linearGradient id="linearGradient7739-5" x1="156" x2="156" y1="610" y2="518" gradientUnits="userSpaceOnUse" xlink:href="#linearGradient7737"/></defs><g id="g1134" style="display:inline" transform="translate(2,-264)"><g id="g10" style="display:inline"><path id="path1" style="display:inline;fill:none;fill-opacity:1;stroke:url(#linearGradient6);stroke-width:40;stroke-linecap:butt;stroke-linejoin:miter;stroke-miterlimit:4;stroke-dasharray:none;stroke-opacity:1" d="M 958,332 V 944"/><path d="M 62,944 V 332" style="display:inline;fill:none;fill-opacity:1;stroke:url(#linearGradient8);stroke-width:40;stroke-linecap:butt;stroke-linejoin:miter;stroke-miterlimit:4;stroke-dasharray:none;stroke-opacity:1" id="path1-56"/><path d="M 958,944 H 62" style="display:inline;fill:none;fill-opacity:1;stroke:url(#linearGradient10);stroke-width:40;stroke-linecap:butt;stroke-linejoin:miter;stroke-miterlimit:4;stroke-dasharray:none;stroke-opacity:1" id="path1-3"/><path d="M 62,332 H 958" style="display:inline;fill:none;fill-opacity:1;stroke:url(#linearGradient4);stroke-width:40;stroke-linecap:butt;stroke-linejoin:miter;stroke-miterlimit:4;stroke-dasharray:none;stroke-opacity:1" id="path1-5"/></g><g id="g14" style="display:inline" transform="translate(-10,-48)"><path id="path13" style="color:#000;fill:#282a36;-inkscape-stroke:none" d="m 19,318 -5,5 v 782 l 5,5 h 1002 l 5,-5 V 323 l -5,-5 z m 49,58 H 972 V 996 H 68 Z"/><path style="color:#000;fill:#1e1f29;-inkscape-stroke:none" id="path14" d="m 18,316 -6,6 v 784 l 6,6 h 1004 l 6,-6 V 322 l -6,-6 z m 2,4 h 1000 l 4,4 v 780 l -4,4 H 20 l -4,-4 V 324 Z"/></g><path id="path24389-0-9-3" style="display:inline;fill:#2e3242;fill-opacity:1;stroke:#000;stroke-width:0;stroke-linecap:butt;stroke-linejoin:miter;stroke-miterlimit:4;stroke-dasharray:none;stroke-opacity:1" d="M 54,324 V 952 H 966 V 324 Z m 8,8 H 958 V 944 H 62 Z"/></g><rect style="fill:#1e1f29;fill-opacity:1;fill-rule:evenodd;stroke-width:4;stroke-linecap:square;stroke-linejoin:round;stroke-miterlimit:0" id="rect58" width="640" height="126" x="384" y="810" rx="14" ry="16"/><rect style="fill:#17181c;fill-opacity:1;fill-rule:evenodd;stroke-width:4;stroke-linecap:square;stroke-linejoin:round;stroke-miterlimit:0" id="rect57" width="624" height="110" x="392" y="818" rx="12" ry="10"/><g id="g2"><path style="fill:#f8f8f2;fill-opacity:1;stroke:none;stroke-width:1px;stroke-linecap:butt;stroke-linejoin:miter;stroke-opacity:1" id="path2-3-6-7" d="m 456,980 -22,-22 22,-22 z"/><path style="fill:#f8f8f2;fill-opacity:1;stroke:none;stroke-width:1px;stroke-linecap:butt;stroke-linejoin:miter;stroke-opacity:1" id="path2-3-6" d="m 456,936 22,22 -22,22 z"/><path style="fill:#f8f8f2;fill-opacity:1;stroke:none;stroke-width:1px;stroke-linecap:butt;stroke-linejoin:miter;stroke-opacity:1" id="path2-3" d="m 384,992 22,-22 22,22 z"/><path style="fill:#f8f8f2;stroke:none;stroke-width:1px;stroke-linecap:butt;stroke-linejoin:miter;stroke-opacity:1;fill-opacity:1" id="path2" d="m 384,936 22,22 22,-22 z"/></g><g id="g4" transform="translate(0,296)" style="display:inline"><rect style="display:inline;fill:url(#linearGradient4-2);fill-rule:evenodd;stroke-width:3.99205;stroke-linecap:square;stroke-linejoin:round;stroke-miterlimit:0" id="rect4" width="80" height="80" x="12" y="524" rx="18" ry="18"/><rect style="display:inline;fill:url(#linearGradient2);fill-rule:evenodd;stroke-width:2;stroke-linecap:square;stroke-linejoin:round;stroke-miterlimit:0" id="rect50" width="72" height="72" x="16" y="528" rx="14" ry="14"/></g><g id="g9" transform="translate(0,296)"><path style="display:inline;fill:url(#linearGradient7703-0);fill-opacity:1;stroke:none;stroke-width:1px;stroke-linecap:butt;stroke-linejoin:miter;stroke-opacity:1" id="path1249-3" d="m 120,528 v 21 l -15,15 15,14 v 22 h 21 l 15,15 15,-15 h 21 v -22 l 15,-14 -15,-15 v -21 h -21 l -15,-15 -15,15 z"/><path id="path1251-8" style="display:inline;fill:url(#linearGradient7739-5);fill-opacity:1;stroke:none;stroke-width:1px;stroke-linecap:butt;stroke-linejoin:miter;stroke-opacity:1" d="m 156,519 -13,13 h -19 v 19 l -13,13 13,12 v 20 h 19 l 13,13 13,-13 h 19 v -20 l 13,-12 -13,-13 v -19 h -19 z"/></g></svg>