<?xml version="1.0" encoding="UTF-8" standalone="no"?>
<!-- Created with Inkscape (http://www.inkscape.org/) -->

<svg
   version="1.1"
   id="svg2"
   width="1024"
   height="1024"
   viewBox="0 0 1024 1024"
   sodipodi:docname="social_interactions.svg"
   xml:space="preserve"
   inkscape:version="1.3 (0e150ed6c4, 2023-07-21)"
   inkscape:export-filename="social_interactions.png"
   inkscape:export-xdpi="96"
   inkscape:export-ydpi="96"
   xmlns:inkscape="http://www.inkscape.org/namespaces/inkscape"
   xmlns:sodipodi="http://sodipodi.sourceforge.net/DTD/sodipodi-0.dtd"
   xmlns:xlink="http://www.w3.org/1999/xlink"
   xmlns="http://www.w3.org/2000/svg"
   xmlns:svg="http://www.w3.org/2000/svg"><defs
     id="defs6"><linearGradient
       inkscape:collect="always"
       xlink:href="#linearGradient18673"
       id="linearGradient1827"
       gradientUnits="userSpaceOnUse"
       gradientTransform="translate(1445.4805,18.404136)"
       x1="167.00014"
       y1="559.00006"
       x2="63.00013"
       y2="559.00006" /><linearGradient
       inkscape:collect="always"
       id="linearGradient18673"><stop
         style="stop-color:#ff79c6;stop-opacity:1;"
         offset="0"
         id="stop18669" /><stop
         style="stop-color:#bd93f9;stop-opacity:1;"
         offset="1"
         id="stop18671" /></linearGradient><linearGradient
       inkscape:collect="always"
       xlink:href="#linearGradient18673"
       id="linearGradient1"
       gradientUnits="userSpaceOnUse"
       gradientTransform="translate(1445.4805,-61.595864)"
       x1="167.00014"
       y1="558.95367"
       x2="63.00013"
       y2="559.00006" /></defs><sodipodi:namedview
     id="namedview4"
     pagecolor="#505050"
     bordercolor="#eeeeee"
     borderopacity="1"
     inkscape:showpageshadow="0"
     inkscape:pageopacity="0"
     inkscape:pagecheckerboard="0"
     inkscape:deskcolor="#505050"
     showgrid="true"
     inkscape:zoom="1.6393277"
     inkscape:cx="255.59258"
     inkscape:cy="233.32736"
     inkscape:window-width="3470"
     inkscape:window-height="1440"
     inkscape:window-x="0"
     inkscape:window-y="0"
     inkscape:window-maximized="0"
     inkscape:current-layer="svg2"><inkscape:grid
       type="xygrid"
       id="grid793"
       snapvisiblegridlinesonly="true"
       originx="0"
       originy="0"
       spacingy="1"
       spacingx="1"
       units="px"
       visible="true"
       empspacing="4" /></sodipodi:namedview><g
     id="g1839"
     style="display:inline"
     transform="rotate(90,946.94237,-329.53823)"
     inkscape:label="Button"><path
       d="m 1526.4806,537.40414 c -11,0 -18.0001,-7 -18.0001,-18 v -44 c 0,-11 7.0001,-18 18.0001,-18 h 44 c 11,0 18,7 18,18 v 44 c 0,11 -7,18 -18,18 h -44"
       style="display:inline;fill:url(#linearGradient1);fill-opacity:1;fill-rule:evenodd;stroke:#000000;stroke-width:0;stroke-linecap:butt;stroke-linejoin:miter;stroke-miterlimit:4;stroke-dasharray:none;stroke-opacity:1"
       id="path5989-9-7-2-3-6-2"
       sodipodi:nodetypes="csccsccsc"
       inkscape:label="Selected Outline 2" /><path
       d="m 1526.4806,617.40414 c -11,0 -18.0001,-7 -18.0001,-18 v -44 c 0,-11 7.0001,-18 18.0001,-18 h 44 c 11,0 18,7 18,18 v 44 c 0,11 -7,18 -18,18 h -44"
       style="display:inline;fill:url(#linearGradient1827);fill-opacity:1;fill-rule:evenodd;stroke:#000000;stroke-width:0;stroke-linecap:butt;stroke-linejoin:miter;stroke-miterlimit:4;stroke-dasharray:none;stroke-opacity:1"
       id="path5989-9-7-2-3-6"
       sodipodi:nodetypes="csccsccsc"
       inkscape:label="Selected Outline 1" /><path
       d="m 1446.4807,537.40414 c -11,0 -18.0001,-7 -18.0001,-18 v -44 c 0,-11 7.0001,-18 18.0001,-18 h 44 c 11,0 18,7 18,18 v 44 c 0,11 -7,18 -18,18 h -44"
       style="display:inline;fill:#282a36;fill-opacity:1;stroke:#000000;stroke-width:0;stroke-linecap:butt;stroke-linejoin:miter;stroke-miterlimit:4;stroke-dasharray:none;stroke-opacity:1"
       id="path26164-9"
       sodipodi:nodetypes="csccsccsc"
       inkscape:label="Unselected Outline 2" /><path
       d="m 1446.4807,617.40414 c -11,0 -18.0001,-7 -18.0001,-18 v -44 c 0,-11 7.0001,-18 18.0001,-18 h 44 c 11,0 18,7 18,18 v 44 c 0,11 -7,18 -18,18 h -44"
       style="display:inline;fill:#282a36;fill-opacity:1;stroke:#000000;stroke-width:0;stroke-linecap:butt;stroke-linejoin:miter;stroke-miterlimit:4;stroke-dasharray:none;stroke-opacity:1"
       id="path26164-9-9"
       sodipodi:nodetypes="csccsccsc"
       inkscape:label="Unselected Outline 1" /><path
       id="path26166-1-3"
       style="display:inline;fill:#3b3e63;fill-opacity:1;stroke:#000000;stroke-width:0;stroke-linecap:butt;stroke-linejoin:miter;stroke-miterlimit:4;stroke-dasharray:none;stroke-opacity:1"
       inkscape:label="Fill"
       d="m 1582.4806,480.40414 v 34 c 0,11 -6,17 -17,17 h -34 c -11,0 -17,-6 -17,-17 v -34 c 0,-11 6,-17 17,-17 h 34 c 11,0 17,6 17,17 z m 0,80 v 34 c 0,11 -6,17 -17,17 h -34 c -11,0 -17,-6 -17,-17 v -34 c 0,-11 6,-17 17,-17 h 34 c 11,0 17,6 17,17 z m -80,-80 v 34 c 0,11 -6,17 -17,17 h -34 c -11,0 -17,-6 -17,-17 v -34 c 0,-11 6,-17 17,-17 h 34 c 11,0 17,6 17,17 z m 0,80 v 34 c 0,11 -6,17 -17,17 h -33.9999 c -11,0 -17,-6 -17,-17 v -34 c 0,-11 6,-17 17,-17 h 33.9999 c 11,0 17,6 17,17 z"
       sodipodi:nodetypes="ssssssssssssssssssssssssssssssssssss" /><path
       id="path1-3-7"
       style="display:inline;fill:#f8f8f2;fill-opacity:1;fill-rule:evenodd;stroke-width:0.305003;stroke-linecap:square;stroke-linejoin:round;stroke-miterlimit:0"
       d="m 102,288 -5.99835,-6.01211 v -28 l 6,-6 h 36 l 6,6 0.0125,28 -6.01252,6.01211 -20,-0.0121 -12,12 h -4 z m 34.00784,-16.01266 h -32.02532 l 0.0191,6.00055 h 32 z m -0.006,-13.99945 h -32 L 110,264 136.00806,263.981 Z M 22.006258,288 16.00791,281.98789 v -28 l 6,-6 h 36 l 6,6 0.01252,28 -6.01252,6.01211 -20,-0.0121 -12,12 h -4 z M 56.014103,271.98734 H 23.988778 l 0.01913,6.00055 h 32 z m -0.0062,-13.99945 h -32 l -0.01913,5.99311 H 56.014098 Z M 101.99209,208.01211 95.99374,202 v -28 l 6,-6 h 36 l 6,6 0.0125,28 -6.01252,6.01211 -20,-0.0121 -12,12 h -4 z m 34.00784,-16.01266 H 103.97461 L 103.99374,198 h 32 z M 135.99374,178 h -32 l 6.00626,6 25.99996,-0.007 z M 21.998348,208.01211 16,202 v -28 l 6,-6 h 36 l 6,6 0.01252,28 L 58,208.01211 38,208 26,220 H 22 Z M 56.006193,191.99945 H 23.980868 L 24,198 H 56 Z M 56,178 H 24 l -0.01913,5.99311 h 32.025325 z"
       inkscape:label="Bubble"
       sodipodi:nodetypes="cccccccccccccccccccccccccccccccccccccccccccccccccccccccccccccccccccccccccccccccccccccccc"
       transform="rotate(-90,946.94237,-329.53823)" /><path
       id="path1-5"
       style="display:inline;fill:#ff5555;fill-opacity:1;fill-rule:evenodd;stroke-width:0.21567;stroke-linecap:square;stroke-linejoin:round;stroke-miterlimit:0"
       d="m 92,170 6,-6 48,48 -6,6 z m 0,80 6,-6 48,48 -6,6 z"
       inkscape:label="Cross"
       transform="rotate(-90,946.94237,-329.53823)" /></g><path
     d="m 934,130 4,-4 V 18 l -4,-4 H 18 l -4,4 v 108 l 4,4 z"
     style="display:inline;fill:#282a36;fill-opacity:1;stroke:#1e1f29;stroke-width:4;stroke-linecap:butt;stroke-linejoin:miter;stroke-miterlimit:4;stroke-dasharray:none;stroke-opacity:1"
     id="path1"
     sodipodi:nodetypes="ccccccccc"
     inkscape:label="Panel" /><rect
     style="fill:#1e1f29;fill-opacity:1;fill-rule:evenodd;stroke-width:4;stroke-linecap:square;stroke-linejoin:round;stroke-miterlimit:0"
     id="rect1"
     width="880"
     height="72"
     x="36"
     y="36"
     inkscape:label="Panel Fill" /><path
     id="path658"
     style="display:inline;fill:#a8a8a8;fill-opacity:1;stroke:none;stroke-width:1px;stroke-linecap:butt;stroke-linejoin:miter;stroke-opacity:1"
     d="m 1005,13 h -3 l -4,4 v 3 h 3 l 4,-4 z m -5,-9 -12,12 v 8 l 4,4 -8,8 v 4 h 4 l 8,-8 4,4 h 8 l 12,-12 V 16 L 1008,4 Z m 2,4 h 4 l 10,10 v 4 l -10,10 h -4 L 992,22 v -4 z"
     inkscape:label="Search Icon" /></svg>
