<?xml version="1.0" encoding="UTF-8" standalone="no"?>
<!-- Created with Inkscape (http://www.inkscape.org/) -->

<svg
   version="1.1"
   id="svg2"
   width="1024"
   height="1024"
   viewBox="0 0 1024 1024"
   sodipodi:docname="widgets.svg"
   xml:space="preserve"
   inkscape:version="1.3 (0e150ed6c4, 2023-07-21)"
   inkscape:export-filename="widgets.png"
   inkscape:export-xdpi="96"
   inkscape:export-ydpi="96"
   xmlns:inkscape="http://www.inkscape.org/namespaces/inkscape"
   xmlns:sodipodi="http://sodipodi.sourceforge.net/DTD/sodipodi-0.dtd"
   xmlns:xlink="http://www.w3.org/1999/xlink"
   xmlns="http://www.w3.org/2000/svg"
   xmlns:svg="http://www.w3.org/2000/svg"><defs
     id="defs6"><linearGradient
       inkscape:collect="always"
       id="linearGradient18673"><stop
         style="stop-color:#ff79c6;stop-opacity:1;"
         offset="0"
         id="stop18669" /><stop
         style="stop-color:#bd93f9;stop-opacity:1;"
         offset="1"
         id="stop18671" /></linearGradient><linearGradient
       inkscape:collect="always"
       id="linearGradient17209"><stop
         style="stop-color:#8be9fd;stop-opacity:1;"
         offset="0"
         id="stop17207" /><stop
         style="stop-color:#50fa7b;stop-opacity:1;"
         offset="1"
         id="stop17205" /></linearGradient><linearGradient
       id="linearGradient4003"
       inkscape:collect="always"><stop
         style="stop-color:#ff79c6;stop-opacity:1;"
         offset="0"
         id="stop3999" /><stop
         style="stop-color:#bd93f9;stop-opacity:1;"
         offset="1"
         id="stop4001" /></linearGradient><linearGradient
       inkscape:collect="always"
       xlink:href="#linearGradient4003"
       id="linearGradient4005"
       x1="155"
       y1="453"
       x2="155"
       y2="344"
       gradientUnits="userSpaceOnUse" /><linearGradient
       inkscape:collect="always"
       xlink:href="#linearGradient4003"
       id="linearGradient14438"
       gradientUnits="userSpaceOnUse"
       x1="44"
       y1="453"
       x2="44"
       y2="344"
       gradientTransform="translate(0,160)" /><linearGradient
       inkscape:collect="always"
       xlink:href="#linearGradient4003"
       id="linearGradient14598"
       gradientUnits="userSpaceOnUse"
       gradientTransform="translate(-63,145)"
       x1="102"
       y1="627.99994"
       x2="102"
       y2="519" /><linearGradient
       inkscape:collect="always"
       xlink:href="#linearGradient4003"
       id="linearGradient14677"
       gradientUnits="userSpaceOnUse"
       gradientTransform="translate(17,145)"
       x1="102"
       y1="628"
       x2="102"
       y2="519" /><linearGradient
       inkscape:collect="always"
       xlink:href="#linearGradient17209"
       id="linearGradient17211"
       x1="143"
       y1="200"
       x2="143"
       y2="98"
       gradientUnits="userSpaceOnUse"
       gradientTransform="translate(0.5)" /><linearGradient
       inkscape:collect="always"
       xlink:href="#linearGradient18673"
       id="linearGradient18675"
       x1="49"
       y1="200"
       x2="49"
       y2="98"
       gradientUnits="userSpaceOnUse" /></defs><sodipodi:namedview
     id="namedview4"
     pagecolor="#505050"
     bordercolor="#eeeeee"
     borderopacity="1"
     inkscape:showpageshadow="0"
     inkscape:pageopacity="0"
     inkscape:pagecheckerboard="0"
     inkscape:deskcolor="#505050"
     showgrid="true"
     inkscape:zoom="2"
     inkscape:cx="294.75"
     inkscape:cy="216.25"
     inkscape:window-width="5070"
     inkscape:window-height="1440"
     inkscape:window-x="0"
     inkscape:window-y="0"
     inkscape:window-maximized="1"
     inkscape:current-layer="layer4"><inkscape:grid
       type="xygrid"
       id="grid2983"
       snapvisiblegridlinesonly="true"
       originx="0"
       originy="0"
       spacingy="1"
       spacingx="1"
       units="px"
       visible="true"
       empspacing="4" /></sodipodi:namedview><g
     inkscape:groupmode="layer"
     id="layer4"
     inkscape:label="Main"
     style="display:inline"><g
       id="g26018"
       inkscape:label="Buttons"><path
         d="M 18,424 C 7,424 0,417 0,406 v -44 c 0,-11 7,-18 18,-18 h 764 c 11,0 18,7 18,18 v 44 c 0,11 -7,18 -18,18 H 18"
         style="display:inline;fill:url(#linearGradient4005);fill-opacity:1;fill-rule:evenodd;stroke:#000000;stroke-width:0;stroke-linecap:butt;stroke-linejoin:miter;stroke-miterlimit:4;stroke-dasharray:none;stroke-opacity:1"
         id="path5989-9"
         sodipodi:nodetypes="csccsccsc" /><path
         d="m 793,367 v 34 c 0,11 -6,17 -17,17 H 23 C 12,418 6.000004,412 6.000004,401 V 367 C 6.000004,356 12,350 23,350 h 753 c 11,0 17,6 17,17 z"
         style="display:inline;fill:#3b3e63;fill-opacity:1;stroke:#000000;stroke-width:0;stroke-linecap:butt;stroke-linejoin:miter;stroke-miterlimit:4;stroke-dasharray:none;stroke-opacity:1"
         id="path5696-3-1"
         sodipodi:nodetypes="sssssssss" /><path
         d="M 18,584 C 7,584 0,577 0,566 v -44 c 0,-11 7,-18 18,-18 h 44 c 11,0 18,7 18,18 v 44 c 0,11 -7,18 -18,18 H 18"
         style="display:inline;fill:url(#linearGradient14438);fill-opacity:1;fill-rule:evenodd;stroke:#000000;stroke-width:0;stroke-linecap:butt;stroke-linejoin:miter;stroke-miterlimit:4;stroke-dasharray:none;stroke-opacity:1"
         id="path5989-9-7"
         sodipodi:nodetypes="csccsccsc" /><path
         d="m 73,527 v 34 c 0,11 -6,17 -17,17 H 23 C 12,578 6,572 6,561 v -34 c 0,-11 6,-17 17,-17 h 33 c 11,0 17,6 17,17 z"
         style="display:inline;fill:#3b3e63;fill-opacity:1;stroke:#000000;stroke-width:0;stroke-linecap:butt;stroke-linejoin:miter;stroke-miterlimit:4;stroke-dasharray:none;stroke-opacity:1"
         id="path5696-3-1-5"
         sodipodi:nodetypes="sssssssss" /><path
         d="M 18,744 C 7,744 0,737 0,726 v -44 c 0,-11 7,-18 18,-18 h 44 c 11,0 18,7 18,18 v 44 c 0,11 -7,18 -18,18 H 18"
         style="display:inline;fill:url(#linearGradient14598);fill-opacity:1;fill-rule:evenodd;stroke:#000000;stroke-width:0;stroke-linecap:butt;stroke-linejoin:miter;stroke-miterlimit:4;stroke-dasharray:none;stroke-opacity:1"
         id="path5989-9-7-2"
         sodipodi:nodetypes="csccsccsc" /><path
         d="m 73,687 v 34 c 0,11 -6,17 -17,17 H 23 C 12,738 6,732 6,721 v -34 c 0,-11 6,-17 17,-17 h 33 c 11,0 17,6 17,17 z"
         style="display:inline;fill:#3b3e63;fill-opacity:1;stroke:#000000;stroke-width:0;stroke-linecap:butt;stroke-linejoin:miter;stroke-miterlimit:4;stroke-dasharray:none;stroke-opacity:1"
         id="path5696-3-1-5-7"
         sodipodi:nodetypes="sssssssss" /><path
         d="m 98,744 c -11,0 -18,-7 -18,-18 v -44 c 0,-11 7,-18 18,-18 h 44 c 11,0 18,7 18,18 v 44 c 0,11 -7,18 -18,18 H 98"
         style="display:inline;fill:url(#linearGradient14677);fill-opacity:1;fill-rule:evenodd;stroke:#000000;stroke-width:0;stroke-linecap:butt;stroke-linejoin:miter;stroke-miterlimit:4;stroke-dasharray:none;stroke-opacity:1"
         id="path5989-9-7-2-3"
         sodipodi:nodetypes="csccsccsc" /><path
         d="m 153,687 v 34 c 0,11 -6,17 -17,17 h -33 c -11,0 -17,-6 -17,-17 v -34 c 0,-11 6,-17 17,-17 h 33 c 11,0 17,6 17,17 z"
         style="display:inline;fill:#3b3e63;fill-opacity:1;stroke:#000000;stroke-width:0;stroke-linecap:butt;stroke-linejoin:miter;stroke-miterlimit:4;stroke-dasharray:none;stroke-opacity:1"
         id="path5696-3-1-5-7-6"
         sodipodi:nodetypes="sssssssss" /><path
         d="m 794,207 v 34 c 0,11 -6,17 -17,17 H 24 C 13,258 7,252 7,241 v -34 c 0,-11 6,-17 17,-17 h 753 c 11,0 17,6 17,17 z"
         style="display:inline;fill:#1e1f29;fill-opacity:0.698199;stroke:#000000;stroke-width:0;stroke-linecap:butt;stroke-linejoin:miter;stroke-miterlimit:4;stroke-dasharray:none;stroke-opacity:1"
         id="path5696"
         sodipodi:nodetypes="sssssssss" /><path
         d="M 18,344 C 7.0000005,344 5e-7,337 5e-7,326 L 2.5e-7,282 C 5e-7,271 7.0000005,264 18,264 h 764 c 11,0 18,7 18,18 v 44 c 0,11 -7,18 -18,18 H 18"
         style="display:inline;fill:#282a36;fill-opacity:1;stroke:#000000;stroke-width:0;stroke-linecap:butt;stroke-linejoin:miter;stroke-miterlimit:4;stroke-dasharray:none;stroke-opacity:1"
         id="path5989"
         sodipodi:nodetypes="csccsccsc" /><path
         d="m 793,287 v 34 c 0,11 -6,17 -17,17 H 23 C 12,338 6,332 6,321 v -34 c 0,-11 6,-17 17,-17 h 753 c 11,0 17,6 17,17 z"
         style="display:inline;fill:#3b3e63;fill-opacity:1;stroke:#000000;stroke-width:0;stroke-linecap:butt;stroke-linejoin:miter;stroke-miterlimit:4;stroke-dasharray:none;stroke-opacity:1"
         id="path5696-3"
         sodipodi:nodetypes="sssssssss" /><path
         d="M 18,504 C 7.0000005,504 5e-7,497 5e-7,486 v -44 c 0,-11 7,-18 17.9999995,-18 h 44 c 11,0 18,7 18,18 v 44 c 0,11 -7,18 -18,18 H 18"
         style="display:inline;fill:#282a36;fill-opacity:1;stroke:#000000;stroke-width:0;stroke-linecap:butt;stroke-linejoin:miter;stroke-miterlimit:4;stroke-dasharray:none;stroke-opacity:1"
         id="path5989-6"
         sodipodi:nodetypes="csccsccsc" /><path
         d="m 73,447 v 34 c 0,11 -6,17 -17,17 H 23 C 12.000001,498 6.0000005,492 6.0000005,481 v -34 c 0,-11 6.0000005,-17 16.9999995,-17 h 33 c 11,0 17,6 17,17 z"
         style="display:inline;fill:#3b3e63;fill-opacity:1;stroke:#000000;stroke-width:0;stroke-linecap:butt;stroke-linejoin:miter;stroke-miterlimit:4;stroke-dasharray:none;stroke-opacity:1"
         id="path5696-3-18"
         sodipodi:nodetypes="sssssssss" /><path
         d="M 18,664 C 7,664 0,657 0,646 v -44 c 0,-11 7,-18 18,-18 h 44 c 11,0 18,7 18,18 v 44 c 0,11 -7,18 -18,18 H 18"
         style="display:inline;fill:#282a36;fill-opacity:1;stroke:#000000;stroke-width:0;stroke-linecap:butt;stroke-linejoin:miter;stroke-miterlimit:4;stroke-dasharray:none;stroke-opacity:1"
         id="path5989-6-2"
         sodipodi:nodetypes="csccsccsc" /><path
         d="m 73,607 v 34 c 0,11 -6,17 -17,17 H 23 C 12.000001,658 6,652 6,641 v -34 c 0,-11 6.000001,-17 17,-17 h 33 c 11,0 17,6 17,17 z"
         style="display:inline;fill:#3b3e63;fill-opacity:1;stroke:#000000;stroke-width:0;stroke-linecap:butt;stroke-linejoin:miter;stroke-miterlimit:4;stroke-dasharray:none;stroke-opacity:1"
         id="path5696-3-18-3"
         sodipodi:nodetypes="sssssssss" /><path
         d="m 98,664 c -11,0 -18,-7 -18,-18 v -44 c 0,-11 7,-18 18,-18 h 44 c 11,0 18,7 18,18 v 44 c 0,11 -7,18 -18,18 H 98"
         style="display:inline;fill:#282a36;fill-opacity:1;stroke:#000000;stroke-width:0;stroke-linecap:butt;stroke-linejoin:miter;stroke-miterlimit:4;stroke-dasharray:none;stroke-opacity:1"
         id="path26164"
         sodipodi:nodetypes="csccsccsc" /><path
         d="m 153,607 v 34 c 0,11 -6,17 -17,17 h -33 c -10.999999,0 -17,-6 -17,-17 v -34 c 0,-11 6.000001,-17 17,-17 h 33 c 11,0 17,6 17,17 z"
         style="display:inline;fill:#3b3e63;fill-opacity:1;stroke:#000000;stroke-width:0;stroke-linecap:butt;stroke-linejoin:miter;stroke-miterlimit:4;stroke-dasharray:none;stroke-opacity:1"
         id="path26166"
         sodipodi:nodetypes="sssssssss" /><path
         d="m 73,768 v 34 c 0,11 -6,17 -17,17 H 24 C 13,819 7,813 7,802 v -34 c 0,-11 6,-17 17,-17 h 32 c 11,0 17,6 17,17 z"
         style="display:inline;fill:#1e1f29;fill-opacity:0.698199;stroke:#000000;stroke-width:0;stroke-linecap:butt;stroke-linejoin:miter;stroke-miterlimit:4;stroke-dasharray:none;stroke-opacity:1"
         id="path26195"
         sodipodi:nodetypes="sssssssss" /><path
         d="m 153,768 v 34 c 0,11 -6,17 -17,17 h -32 c -11,0 -17,-6 -17,-17 v -34 c 0,-11 6,-17 17,-17 h 32 c 11,0 17,6 17,17 z"
         style="display:inline;fill:#1e1f29;fill-opacity:0.698199;stroke:#000000;stroke-width:0;stroke-linecap:butt;stroke-linejoin:miter;stroke-miterlimit:4;stroke-dasharray:none;stroke-opacity:1"
         id="path26195-5"
         sodipodi:nodetypes="sssssssss" /></g><g
       id="g25982"
       inkscape:label="Icons"><path
         id="path25941"
         style="display:inline;fill:#f8f8f2;fill-opacity:1;stroke:none;stroke-width:1px;stroke-linecap:butt;stroke-linejoin:miter;stroke-opacity:1"
         class="UnoptimicedTransforms"
         d="m 110,756 -10,10 v 10 l 8,8 v -14 l 6,-6 h 12 l 6,6 v 18 h -31 l -5,5 v 14 l 5,5 h 38 l 5,-5 v -14 l -4,-4 v -23 l -10,-10 z m -9,36 h 11 v 4 h -6 l 5,5 h 3 l 6,-6 6,6 h 3 l 5,-5 h -6 v -4 h 11 v 8 l -8,8 h -22 l -8,-8 z"
         sodipodi:nodetypes="cccccccccccccccccccccccccccccccccccccc"
         inkscape:label="Unlock 3" /><path
         id="path25882"
         style="display:inline;fill:#f8f8f2;fill-opacity:1;stroke:none;stroke-width:1px;stroke-linecap:butt;stroke-linejoin:miter;stroke-opacity:1"
         class="UnoptimicedTransforms"
         d="m 110,676 -10,10 v 10 l 8,8 v -14 l 6,-6 h 12 l 6,6 v 18 h -31 l -5,5 v 14 l 5,5 h 38 l 5,-5 v -14 l -4,-4 v -23 l -10,-10 z m -9,36 h 11 v 4 h -6 l 5,5 h 3 l 6,-6 6,6 h 3 l 5,-5 h -6 v -4 h 11 v 8 l -8,8 h -22 l -8,-8 z"
         sodipodi:nodetypes="cccccccccccccccccccccccccccccccccccccc"
         inkscape:label="Unlock 2" /><path
         id="path25344"
         style="display:inline;fill:#f8f8f2;fill-opacity:1;stroke:none;stroke-width:1px;stroke-linecap:butt;stroke-linejoin:miter;stroke-opacity:1"
         class="UnoptimicedTransforms"
         d="m 110,596 -10,10 v 10 l 8,8 v -14 l 6,-6 h 12 l 6,6 v 18 h -31 l -5,5 v 14 l 5,5 h 38 l 5,-5 v -14 l -4,-4 v -23 l -10,-10 z m -9,36 h 11 v 4 h -6 l 5,5 h 3 l 6,-6 6,6 h 3 l 5,-5 h -6 v -4 h 11 v 8 l -8,8 h -22 l -8,-8 z"
         sodipodi:nodetypes="cccccccccccccccccccccccccccccccccccccc"
         inkscape:label="Unlock 1" /><path
         id="path25943-2"
         style="fill:#f8f8f2;fill-opacity:1;stroke:none;stroke-width:1px;stroke-linecap:butt;stroke-linejoin:miter;stroke-opacity:1"
         d="m 30,758 -10,10 v 15 l -4,4 v 18 l 5,5 h 38 l 5,-5 v -18 l -4,-4 V 768 L 50,758 Z m 4,8 h 12 l 6,6 v 10 H 28 v -10 z m 6,19 8,8 h 3 v -7 h 4 l 4,4 v 15 h -4 v -3 l -4,-4 h -2 l -9,9 -9,-9 h -2 l -4,4 v 3 h -4 v -15 l 4,-4 h 4 v 7 h 3 z"
         inkscape:label="Lock 3" /><path
         id="path25943"
         style="fill:#f8f8f2;fill-opacity:1;stroke:none;stroke-width:1px;stroke-linecap:butt;stroke-linejoin:miter;stroke-opacity:1"
         d="m 30,678 -10,10 v 15 l -4,4 v 18 l 5,5 h 38 l 5,-5 v -18 l -4,-4 V 688 L 50,678 Z m 4,8 h 12 l 6,6 v 10 H 28 v -10 z m 6,19 8,8 h 3 v -7 h 4 l 4,4 v 15 h -4 v -3 l -4,-4 h -2 l -9,9 -9,-9 h -2 l -4,4 v 3 h -4 v -15 l 4,-4 h 4 v 7 h 3 z"
         inkscape:label="Lock 2" /><path
         id="path25297"
         style="fill:#f8f8f2;fill-opacity:1;stroke:none;stroke-width:1px;stroke-linecap:butt;stroke-linejoin:miter;stroke-opacity:1"
         d="m 30,598 -10,10 v 15 l -4,4 v 18 l 5,5 h 38 l 5,-5 v -18 l -4,-4 V 608 L 50,598 Z m 4,8 h 12 l 6,6 v 10 H 28 v -10 z m 6,19 8,8 h 3 v -7 h 4 l 4,4 v 15 h -4 v -3 l -4,-4 h -2 l -9,9 -9,-9 h -2 l -4,4 v 3 h -4 v -15 l 4,-4 h 4 v 7 h 3 z"
         inkscape:label="Lock 1" /><path
         id="path25972"
         style="fill:#f8f8f2;stroke:none;stroke-width:1px;stroke-linecap:butt;stroke-linejoin:miter;stroke-opacity:1"
         d="m 20,520 -4,4 v 40 l 4,4 h 40 l 4,-4 v -40 l -4,-4 z m 6,2 h 16 v 6 H 32 v 4 H 22 v -8 h 4 z m 10,10 h 20 v 6 h 4 v 20 H 46 V 546 H 36 Z m -16,4 h 6 v 4 h 4 v 8 h -4 v 8 h -6 z m 12,16 h 8 v 6 h 2 v 8 H 28 v -8 h 4 z"
         inkscape:label="Language 2" /><path
         id="path25276"
         style="fill:#f8f8f2;stroke:none;stroke-width:1px;stroke-linecap:butt;stroke-linejoin:miter;stroke-opacity:1"
         d="m 20,440 -4,4 v 40 l 4,4 h 40 l 4,-4 v -40 l -4,-4 z m 6,2 h 16 v 6 H 32 v 4 H 22 v -8 h 4 z m 10,10 h 20 v 6 h 4 v 20 H 46 V 466 H 36 Z m -16,4 h 6 v 4 h 4 v 8 h -4 v 8 h -6 z m 12,16 h 8 v 6 h 2 v 8 H 28 v -8 h 4 z"
         inkscape:label="Language 1" /></g><g
       id="g25996"
       inkscape:label="HUD"><path
         d="m 87,117 v 39 c 0,12 -6.999996,19 -19,19 H 29 c -13,0 -19,-7 -19,-19 v -39 c 0,-12 7,-19 19,-19 h 39 c 12,0 19,7 19,19 z"
         style="display:inline;fill:url(#linearGradient18675);fill-opacity:1;stroke:#000000;stroke-width:0;stroke-linecap:butt;stroke-linejoin:miter;stroke-miterlimit:4;stroke-dasharray:none;stroke-opacity:1"
         id="path3158"
         sodipodi:nodetypes="sssssssss"
         inkscape:label="Mainhand Outline" /><path
         d="m 179,117 v 39 c 0,12 -7,19 -19,19 h -39 c -13,0 -19,-7 -19,-19 v -39 c 0,-12 7,-19 19,-19 h 39 c 12,0 19,7 19,19 z"
         style="display:inline;fill:url(#linearGradient17211);fill-opacity:1;stroke:#000000;stroke-width:0;stroke-linecap:butt;stroke-linejoin:miter;stroke-miterlimit:4;stroke-dasharray:none;stroke-opacity:1"
         id="path5473"
         inkscape:label="Offhand Outline" /><path
         d="m 83,119 -4e-6,35 c -10e-7,11 -6,17 -17.000004,17 h -35 c -11,0 -17.000001,-6 -17,-17 l 4e-6,-35 c 1e-6,-11 6,-17 17,-17 h 35 C 77,102 83.000001,108 83,119 Z m 92,0 -1e-5,35 c 0,11 -6,17 -17,17 h -35 c -11,0 -17,-6 -17,-17 v -35 c 0,-11 6,-17 17,-17 h 35 C 169,102 175,108 175,119 Z"
         style="display:inline;fill:#17171b;fill-opacity:1;stroke:#000000;stroke-width:0;stroke-linecap:butt;stroke-linejoin:miter;stroke-miterlimit:4;stroke-dasharray:none;stroke-opacity:0.8049894"
         id="path3119"
         sodipodi:nodetypes="ssssssssssssssssss"
         inkscape:label="Selected Slots" /><path
         id="path3158-7"
         style="display:inline;fill:#2e3244;fill-opacity:0.503311;stroke:#000000;stroke-width:0;stroke-linecap:butt;stroke-linejoin:miter;stroke-miterlimit:4;stroke-dasharray:none;stroke-opacity:1"
         d="M 25,6 C 13.000024,6 6,13.000024 6,25 v 39 c 0,11.999976 6.000026,19 19,19 h 678 c 11.99998,0 19,-7.000024 19,-19 V 25 C 722,13.000024 714.99998,6 703,6 Z m 2,4 h 35 c 10.999993,0 17.000001,6.000011 17,17 h 11 c 10e-7,-10.999989 6.000015,-17 17,-17 h 35 c 11,0 17,6.000011 17,17 h 11 c 0,-10.999989 6.00001,-17 17,-17 h 35 c 11,0 17,6.000011 17,17 h 11 c 0,-10.999989 6.00002,-17 17,-17 h 35 c 11,0 17,6.000011 17,17 h 11 c 0,-10.999989 6.00001,-17 17,-17 h 35 c 11,0 17,6.000011 17,17 h 11 c 0,-10.999989 6.00001,-17 17,-17 h 35 c 11,0 17,6.000011 17,17 h 11 c 0,-10.999989 6.00002,-17 17,-17 h 35 c 11,0 17,6.000011 17,17 h 11 c 0,-10.999989 6.00002,-17 17,-17 h 35 c 11,0 17,6.000011 17,17 h 11 c 0,-10.999989 6.00002,-17 17,-17 h 35 c 11,0 17,6.000011 17,17 v 35 c 0,10.999989 -6.00001,17 -17,17 h -35 c -10.99999,0 -17,-6.000011 -17,-17 h -11 c 0,10.999989 -6.00001,17 -17,17 h -35 c -10.99999,0 -17,-6.000011 -17,-17 h -11 c 0,10.999989 -6.00001,17 -17,17 h -35 c -10.99999,0 -17,-6.000011 -17,-17 h -11 c 0,10.999989 -6.00001,17 -17,17 h -35 c -10.99999,0 -17,-6.000011 -17,-17 h -11 c 0,10.999989 -6.00001,17 -17,17 h -35 c -10.99999,0 -17,-6.000011 -17,-17 h -11 c 0,10.999989 -6.00001,17 -17,17 h -35 c -10.99999,0 -17,-6.000011 -17,-17 h -11 c 0,10.999989 -6.00001,17 -17,17 h -35 c -10.99999,0 -17,-6.000011 -17,-17 h -11 c 0,10.999989 -6.00001,17 -17,17 H 107 C 96.000011,79 89.999999,72.999989 90,62 H 79 c -10e-7,10.999989 -6.000007,17 -17,17 H 27 C 16.000011,79 9.9999987,72.999989 10,62 V 27 c 10e-7,-10.999989 6.000011,-17 17,-17 z"
         inkscape:label="Background" /><path
         style="display:inline;fill:#17181c;fill-opacity:0.701249;stroke:#000000;stroke-width:0;stroke-linecap:butt;stroke-linejoin:miter;stroke-miterlimit:4;stroke-dasharray:none;stroke-opacity:1"
         d="M 79.000004,27 79,62 c -10e-7,11 -6,17 -17.000004,17 h -35 c -11,0 -17.0000013,-6 -17,-17 L 10,27 c 10e-7,-11 6,-17 17,-17 h 35 c 11.000004,0 17.000005,6 17.000004,17 z M 159,27 l -1e-5,35 c 0,11 -6,17 -17,17 h -35 c -11,0 -17.000001,-6 -17,-17 l 4e-6,-35 c 10e-7,-11 6,-17 16.999996,-17 h 35 C 153,10 159,16 159,27 Z m 80.00001,0 -1e-5,35 c 0,11 -6,17 -17,17 H 187 C 176,79 170,73 170,62 V 27 c 0,-11 6,-17 17,-17 h 35 c 11.00001,0 17.00001,6 17.00001,17 z M 319,27 l -10e-6,35 c 0,11 -6,17 -17,17 h -35 c -11,0 -17,-6 -17,-17 L 250,27 c 0,-11 6,-17 16.99999,-17 h 35 C 313,10 319,16 319,27 Z m 80,0 -10e-6,35 c 0,11 -6,17 -17,17 h -35 c -11,0 -17,-6 -17,-17 V 27 c 0,-11 6,-17.0000003 17,-17.0000003 h 35 C 393,9.9999997 399,16 399,27 Z m 80,0 -10e-6,35 c 0,11 -6,17 -17,17 h -35 c -11,0 -17,-6 -17,-17 V 27 c 0,-11 6,-17.0000003 17,-17.0000003 h 35 C 473,9.9999997 479,16 479,27 Z m 80,0 -10e-6,35 c 0,11 -6,17 -17,17 h -35 c -11,0 -17,-6 -17,-17 L 490,27 c 0,-11 6,-17 16.99999,-17 h 35 C 553,10 559,16 559,27 Z M 639.00001,27 639,62 c 0,11 -6,17 -17,17 h -35 c -11,0 -17,-6 -17,-17 l 10e-6,-35 c 0,-11 6,-17 16.99999,-17 h 35 c 11.00001,0 17.00001,6 17.00001,17 z m 80,0 L 719,62 c 0,11 -6,17 -17,17 h -35 c -11,0 -17,-6 -17,-17 l 10e-6,-35 c 0,-11 6,-17 16.99999,-17 h 35 c 11.00001,0 17.00001,6 17.00001,17 z"
         id="path19954-5-7-5-3-6-6"
         sodipodi:nodetypes="sssssssssssssssssssssssssssssssssssssssssssssssssssssssssssssssssssssssssssssssss"
         sodipodi:insensitive="true"
         inkscape:label="Slots" /></g></g></svg>
