<svg xmlns="http://www.w3.org/2000/svg" xmlns:svg="http://www.w3.org/2000/svg" xmlns:xlink="http://www.w3.org/1999/xlink" id="svg2" width="80" height="80" version="1.1" xml:space="preserve"><defs id="defs6"><linearGradient id="linearGradient20-1" x1="40" x2="40" y1="246" y2="314" gradientTransform="translate(0.03278689,0.03279)" gradientUnits="userSpaceOnUse" xlink:href="#linearGradient19"/><linearGradient id="linearGradient19"><stop style="stop-color:#3a3f63;stop-opacity:1" id="stop19" offset="0"/><stop style="stop-color:#423a63;stop-opacity:1" id="stop20" offset="1"/></linearGradient></defs><g id="g6-1-2-0-9" transform="translate(-0.03278689,-240.03279)" style="display:inline"><rect style="display:inline;fill:#282a36;fill-rule:evenodd;stroke-width:2;stroke-linecap:square;stroke-linejoin:round;stroke-miterlimit:0" id="rect5-8-3-9-1" width="80" height="80" x=".033" y="240.033" rx="18" ry="18"/><rect style="display:inline;fill:url(#linearGradient20-1);fill-rule:evenodd;stroke-width:2;stroke-linecap:square;stroke-linejoin:round;stroke-miterlimit:0" id="rect6-7-7-3-2" width="68" height="68" x="6.033" y="246.033" rx="14" ry="14"/></g><g id="g3" transform="translate(-0.03278689,-0.03278689)"><path id="path1-3-7-1" style="display:inline;fill:#f8f8f2;fill-opacity:1;fill-rule:evenodd;stroke-width:.305003;stroke-linecap:square;stroke-linejoin:round;stroke-miterlimit:0" d="M 22,56 16.00165,49.98789 16,30 30,16 l 28.00165,-0.01211 6,6 L 64,42 50,56 38.00163,55.9879 l -12,12 h -4 z M 56.00784,39.98734 H 23.98252 l 0.0191,6.00055 L 50,46 Z m -0.006,-13.99945 -25.936266,0.07768 -6,6 L 56.00806,31.981 Z" transform="translate(-0.03278689,-0.03278689)"/></g></svg>