<?xml version="1.0" encoding="UTF-8" standalone="no"?>
<!-- Created with Inkscape (http://www.inkscape.org/) -->

<svg
   version="1.1"
   id="svg2"
   width="96"
   height="96"
   xml:space="preserve"
   inkscape:export-filename="base.svg"
   inkscape:export-xdpi="96"
   inkscape:export-ydpi="96"
   inkscape:version="1.3.2 (091e20ef0f, 2023-11-25)"
   sodipodi:docname="selection.svg"
   xmlns:inkscape="http://www.inkscape.org/namespaces/inkscape"
   xmlns:sodipodi="http://sodipodi.sourceforge.net/DTD/sodipodi-0.dtd"
   xmlns:xlink="http://www.w3.org/1999/xlink"
   xmlns="http://www.w3.org/2000/svg"
   xmlns:svg="http://www.w3.org/2000/svg"><defs
   id="defs6"><linearGradient
     inkscape:collect="always"
     xlink:href="#linearGradient18673"
     id="linearGradient18675"
     x1="48"
     y1="200"
     x2="48"
     y2="98"
     gradientUnits="userSpaceOnUse" /><linearGradient
     inkscape:collect="always"
     id="linearGradient18673"><stop
       style="stop-color:#ff79c6;stop-opacity:1;"
       offset="0"
       id="stop18669" /><stop
       style="stop-color:#bd93f9;stop-opacity:1;"
       offset="1"
       id="stop18671" /></linearGradient></defs><sodipodi:namedview
   id="namedview4"
   pagecolor="#505050"
   bordercolor="#eeeeee"
   borderopacity="1"
   inkscape:showpageshadow="0"
   inkscape:pageopacity="0"
   inkscape:pagecheckerboard="0"
   inkscape:deskcolor="#505050"
   showgrid="true"
   inkscape:current-layer="svg2"
   inkscape:zoom="8.9861487"
   inkscape:cx="94.200534"
   inkscape:cy="50.5222"
   inkscape:window-width="3453"
   inkscape:window-height="1390"
   inkscape:window-x="81"
   inkscape:window-y="30"
   inkscape:window-maximized="0"><inkscape:grid
     type="xygrid"
     id="Main Grid"
     originx="0"
     originy="0"
     spacingy="1"
     spacingx="1"
     units="px"
     visible="true"
     empspacing="4"
     snapvisiblegridlinesonly="true" /><inkscape:page
     x="0"
     y="0"
     width="96"
     height="96"
     id="page1"
     margin="0"
     bleed="0" /></sodipodi:namedview>
    
<g
   id="g2"
   inkscape:label="HUD Slot Selection"
   style="display:inline"
   transform="translate(0,-88)"><path
     d="m 86,117 v 38 c 0,12 -6.999996,19 -19,19 H 29 c -13,0 -19,-7 -19,-19 v -38 c 0,-12 7,-19 19,-19 h 38 c 12,0 19,7 19,19 z"
     style="display:inline;fill:url(#linearGradient18675);fill-opacity:1;stroke:#000000;stroke-width:0;stroke-linecap:butt;stroke-linejoin:miter;stroke-miterlimit:4;stroke-dasharray:none;stroke-opacity:1"
     id="path3158"
     sodipodi:nodetypes="sssssssss"
     inkscape:label="Selection Outline" /><path
     style="display:inline;fill:#17171b;fill-opacity:1;stroke:#000000;stroke-width:0;stroke-linecap:butt;stroke-linejoin:miter;stroke-miterlimit:4;stroke-dasharray:none;stroke-opacity:0.804989"
     d="m 82,119 -4e-6,34 c -10e-7,11 -6,17 -17.000004,17 h -34 c -11,0 -17.000001,-6 -17,-17 l 4e-6,-34 c 1e-6,-11 6,-17 17,-17 h 34 C 76,102 82.000001,108 82,119 Z"
     id="path3119"
     inkscape:label="Selection Slot" /></g></svg>
