<svg xmlns="http://www.w3.org/2000/svg" xmlns:svg="http://www.w3.org/2000/svg" xmlns:xlink="http://www.w3.org/1999/xlink" id="svg2" width="36" height="36" version="1.1" xml:space="preserve"><defs id="defs6"><linearGradient id="linearGradient36" x1="224" x2="224" y1="196" y2="212" gradientUnits="userSpaceOnUse" xlink:href="#linearGradient39"/><linearGradient id="linearGradient39"><stop style="stop-color:#ffb86c;stop-opacity:1" id="stop38" offset=".3"/><stop style="stop-color:#f9edd2;stop-opacity:1" id="stop39" offset="1"/></linearGradient></defs><g id="g15463-0-2" transform="translate(-208,-180)"><path style="display:inline;opacity:.7;fill:#803418;fill-opacity:1;stroke:none;stroke-width:1px;stroke-linecap:butt;stroke-linejoin:miter;stroke-opacity:1" id="path2002-93-6-3-4" d="m 218,180 -9,9 v 10 l 17,17 17,-17 v -10 l -9,-9 -8,8 z"/><path style="display:none;opacity:.85;fill:#ac482b;fill-opacity:1;stroke:none;stroke-width:1px;stroke-linecap:butt;stroke-linejoin:miter;stroke-opacity:1" id="path6-53-0-7" d="m 212,198 v -8 l -3,3 v 8 l 14,14 3,-3 z"/><path style="display:inline;fill:url(#linearGradient36);fill-opacity:1;stroke:none;stroke-width:1px;stroke-linecap:butt;stroke-linejoin:miter;stroke-opacity:1" id="path2005-9-44-7" d="m 218,184 -6,6 v 8 l 14,14 14,-14 v -8 l -6,-6 -8,8 z"/><path id="path16175-44-5" style="display:inline;fill:#e97641;fill-opacity:1;stroke:none;stroke-width:1px;stroke-linecap:butt;stroke-linejoin:miter;stroke-opacity:1" d="m 219,195 v 8 l 7,7 7,-7 v -8 z"/><path style="fill:#b33f1d;fill-opacity:1;stroke:none;stroke-width:1px;stroke-linecap:butt;stroke-linejoin:miter;stroke-opacity:1" id="path14863-2-7-4" d="m 229,202 v -7 l 6,-6 v 7 z"/><path style="fill:#b33f1d;fill-opacity:1;stroke:none;stroke-width:1px;stroke-linecap:butt;stroke-linejoin:miter;stroke-opacity:1" id="path14863-6-8" d="m 217,189 v 7 l 6,6 v -7 z"/></g></svg>