<svg xmlns="http://www.w3.org/2000/svg" xmlns:svg="http://www.w3.org/2000/svg" xmlns:xlink="http://www.w3.org/1999/xlink" id="svg2" width="36" height="36" version="1.1" xml:space="preserve"><defs id="defs6"><linearGradient id="linearGradient35" x1="224" x2="224" y1="196" y2="212" gradientUnits="userSpaceOnUse" xlink:href="#linearGradient37"/><linearGradient id="linearGradient37"><stop style="stop-color:#ffae56;stop-opacity:1" id="stop36" offset=".3"/><stop style="stop-color:#f9edd2;stop-opacity:1" id="stop37" offset="1"/></linearGradient></defs><g id="g15463-5-56-5" transform="translate(-208,-180)" style="display:inline"><path style="display:inline;opacity:.7;fill:#803518;fill-opacity:1;stroke:none;stroke-width:1px;stroke-linecap:butt;stroke-linejoin:miter;stroke-opacity:1" id="path2002-5-6-7-7" d="m 218,180 -9,9 v 10 l 17,17 7,-7 v -4 l -3,3 v -5 l -4,-4 v -7 l 2,-2 z"/><path style="display:none;opacity:.85;fill:#ac482b;fill-opacity:1;stroke:none;stroke-width:1px;stroke-linecap:butt;stroke-linejoin:miter;stroke-opacity:1" id="path6-53-3-5-4" d="m 248,198 v -8 l -3,3 v 8 l 14,14 3,-3 z" transform="translate(-36)"/><path style="fill:url(#linearGradient35);stroke:none;stroke-width:1px;stroke-linecap:butt;stroke-linejoin:miter;stroke-opacity:1" id="path2005-9-9-98-6" d="m 218,184 -6,6 v 8 l 14,14 4,-4 v -5 l -4,-4 v -7 z"/><path id="path16175-7-48-9" style="display:inline;fill:#e97641;fill-opacity:1;stroke:none;stroke-width:1px;stroke-linecap:butt;stroke-linejoin:miter;stroke-opacity:1" d="m 219,195 v 8 l 7,7 4,-4 v -3 l -4,-4 v -4 z"/><path style="fill:#b33f1d;fill-opacity:1;stroke:none;stroke-width:1px;stroke-linecap:butt;stroke-linejoin:miter;stroke-opacity:1" id="path14863-25-1-2" d="m 217,189 v 7 l 6,6 v -7 z"/></g></svg>