<svg xmlns="http://www.w3.org/2000/svg" xmlns:svg="http://www.w3.org/2000/svg" xmlns:xlink="http://www.w3.org/1999/xlink" id="svg2" width="36" height="36" version="1.1" xml:space="preserve"><defs id="defs6"><linearGradient id="linearGradient43" x1="224" x2="224" y1="196" y2="212" gradientUnits="userSpaceOnUse" xlink:href="#linearGradient44"/><linearGradient id="linearGradient44"><stop style="stop-color:#8be9fd;stop-opacity:1" id="stop43" offset=".3"/><stop style="stop-color:#f7fffe;stop-opacity:1" id="stop44" offset="1"/></linearGradient></defs><g id="g15463-0-1" transform="translate(-208,-180)" style="display:inline"><path style="display:inline;opacity:.7;fill:#2e5f8b;fill-opacity:1;stroke:none;stroke-width:1px;stroke-linecap:butt;stroke-linejoin:miter;stroke-opacity:1" id="path2002-93-6-3-1" d="m 218,180 -9,9 v 10 l 17,17 17,-17 v -10 l -9,-9 -8,8 z"/><path style="display:none;opacity:.85;fill:#437db4;fill-opacity:1;stroke:none;stroke-width:1px;stroke-linecap:butt;stroke-linejoin:miter;stroke-opacity:1" id="path6-53-0-0" d="m 212,198 v -8 l -3,3 v 8 l 14,14 3,-3 z"/><path style="display:inline;fill:url(#linearGradient43);fill-opacity:1;stroke:none;stroke-width:1px;stroke-linecap:butt;stroke-linejoin:miter;stroke-opacity:1" id="path2005-9-44-8" d="m 218,184 -6,6 v 8 l 14,14 14,-14 v -8 l -6,-6 -8,8 z"/><path id="path16175-44-50" style="display:inline;fill:#5fb5e9;fill-opacity:1;stroke:none;stroke-width:1px;stroke-linecap:butt;stroke-linejoin:miter;stroke-opacity:1" d="m 219,195 v 8 l 7,7 7,-7 v -8 z"/><path style="fill:#2c76c9;fill-opacity:1;stroke:none;stroke-width:1px;stroke-linecap:butt;stroke-linejoin:miter;stroke-opacity:1" id="path14863-2-7-6" d="m 229,202 v -7 l 6,-6 v 7 z"/><path style="fill:#2c76c9;fill-opacity:1;stroke:none;stroke-width:1px;stroke-linecap:butt;stroke-linejoin:miter;stroke-opacity:1" id="path14863-6-4" d="m 217,189 v 7 l 6,6 v -7 z"/></g></svg>