<?xml version="1.0" encoding="UTF-8" standalone="no"?>
<!-- Created with Inkscape (http://www.inkscape.org/) -->

<svg
   version="1.1"
   id="svg2"
   width="36"
   height="36"
   viewBox="0 0 36 36"
   sodipodi:docname="full.svg"
   xml:space="preserve"
   inkscape:export-filename="slot_many_craftable.png"
   inkscape:export-xdpi="96"
   inkscape:export-ydpi="96"
   inkscape:version="1.3 (0e150ed6c4, 2023-07-21)"
   xmlns:inkscape="http://www.inkscape.org/namespaces/inkscape"
   xmlns:sodipodi="http://sodipodi.sourceforge.net/DTD/sodipodi-0.dtd"
   xmlns="http://www.w3.org/2000/svg"
   xmlns:svg="http://www.w3.org/2000/svg"><defs
     id="defs6" /><sodipodi:namedview
     id="namedview4"
     pagecolor="#505050"
     bordercolor="#eeeeee"
     borderopacity="1"
     inkscape:showpageshadow="0"
     inkscape:pageopacity="0"
     inkscape:pagecheckerboard="0"
     inkscape:deskcolor="#505050"
     showgrid="true"
     inkscape:zoom="20.85965"
     inkscape:cx="15.772077"
     inkscape:cy="18.09714"
     inkscape:window-width="3470"
     inkscape:window-height="1440"
     inkscape:window-x="0"
     inkscape:window-y="0"
     inkscape:window-maximized="0"
     inkscape:current-layer="svg2"><inkscape:grid
       type="xygrid"
       id="grid570"
       snapvisiblegridlinesonly="true"
       originx="0"
       originy="0"
       spacingy="1"
       spacingx="1"
       units="px"
       visible="true"
       empspacing="4" /></sodipodi:namedview><g
     id="g2"
     inkscape:label="Full"
     transform="translate(-208)"><path
       style="fill:#6b1530;fill-opacity:0.701711;stroke:none;stroke-width:1px;stroke-linecap:butt;stroke-linejoin:miter;stroke-opacity:1"
       d="m 217,1 -8,8 v 10 l 17,17 17,-17 V 9 l -8,-8 h -5 l -4,4 -4,-4 z"
       id="path2002"
       sodipodi:nodetypes="ccccccccccc" /><path
       style="fill:#ff5555;stroke:none;stroke-width:1px;stroke-linecap:butt;stroke-linejoin:miter;stroke-opacity:1"
       d="m 218,4 -6,6 v 8 l 14,14 14,-14 v -8 l -6,-6 h -3 l -5,5 -5,-5 z"
       id="path2005"
       sodipodi:nodetypes="ccccccccccc" /><path
       style="fill:#ffaeb8;fill-opacity:1;stroke:none;stroke-width:1px;stroke-linecap:butt;stroke-linejoin:miter;stroke-opacity:1"
       d="m 220,26 h 2 l 4,4 4,-4 h 2 l -6,6 z"
       id="path2616"
       sodipodi:nodetypes="ccccccc" /><path
       style="fill:#d92f55;fill-opacity:1;stroke:none;stroke-width:1px;stroke-linecap:butt;stroke-linejoin:miter;stroke-opacity:1"
       d="m 222,18 -4,4 8,8 10,-10 v -5 h -3 l -7,7 v -4 z"
       id="path2622"
       sodipodi:nodetypes="ccccccccc" /><path
       style="fill:#d92f55;fill-opacity:1;stroke:none;stroke-width:1px;stroke-linecap:butt;stroke-linejoin:miter;stroke-opacity:1"
       d="m 236,9 v 4 h -6 l 1,-1 3,-3 z"
       id="path2770"
       sodipodi:nodetypes="cccccc" /><path
       style="fill:#ffaeb8;fill-opacity:1;stroke:none;stroke-width:1px;stroke-linecap:butt;stroke-linejoin:miter;stroke-opacity:1"
       d="m 219,7 -4,4 v 4 l 6,-6 z"
       id="path2847"
       sodipodi:nodetypes="ccccc" /><path
       style="fill:#f8737b;fill-opacity:1;stroke:none;stroke-width:1px;stroke-linecap:butt;stroke-linejoin:miter;stroke-opacity:1"
       d="m 216,22 h 2 l 4,4 h -2 z"
       id="path482" /><path
       style="fill:#f8737b;fill-opacity:1;stroke:none;stroke-width:1px;stroke-linecap:butt;stroke-linejoin:miter;stroke-opacity:1"
       d="m 230,26 4,-4 h 2 l -4,4 z"
       id="path484" /></g></svg>
