<svg xmlns="http://www.w3.org/2000/svg" xmlns:svg="http://www.w3.org/2000/svg" xmlns:xlink="http://www.w3.org/1999/xlink" id="svg2" width="36" height="36" version="1.1" xml:space="preserve"><defs id="defs6"><linearGradient id="linearGradient26" x1="264" x2="264.013" y1="12" y2="32.096" gradientUnits="userSpaceOnUse" xlink:href="#linearGradient24"/><linearGradient id="linearGradient24"><stop style="stop-color:#ff79c6;stop-opacity:1" id="stop23" offset=".3"/><stop style="stop-color:#ffb3d7;stop-opacity:1" id="stop24" offset="1"/></linearGradient></defs><g id="g13241-4-7" transform="translate(-244)"><path style="display:inline;opacity:.7;fill:#7e2f70;fill-opacity:1;stroke:none;stroke-width:1px;stroke-linecap:butt;stroke-linejoin:miter;stroke-opacity:1" id="path2002-9-9-67-1" d="m 415,37 8,8 v 10 l -17,17 -9,-9 v -4 l 3,3 4,-4 v -5 l 4,-4 v -6 l -2,2 -2,-2 6,-6 z" transform="translate(-144,-36)"/><path style="display:none;fill:#ad2d92;fill-opacity:1;stroke:none;stroke-width:1px;stroke-linecap:butt;stroke-linejoin:miter;stroke-opacity:1" id="path9" d="m 263,8 -3,3 v 6 l -3,3 v 5 l -4,4 6,6 3,-3 -6,-6 4,-4 v -5 l 3,-3 z"/><path style="fill:url(#linearGradient26);fill-opacity:1;stroke:none;stroke-width:1px;stroke-linecap:butt;stroke-linejoin:miter;stroke-opacity:1" id="path2005-1-9-2" d="m 270,4 6,6 v 8 l -14,14 -6,-6 4,-4 v -5 l 4,-4 V 7 l 3,-3 z"/><path style="fill:#d54ebe;fill-opacity:1;stroke:none;stroke-width:1px;stroke-linecap:butt;stroke-linejoin:miter;stroke-opacity:1" id="path2622-5-1-7" d="m 257,25 5,5 10,-10 v -5 h -3 l -7,7 h -2 z"/><path style="fill:#d54ebe;fill-opacity:1;stroke:none;stroke-width:1px;stroke-linecap:butt;stroke-linejoin:miter;stroke-opacity:1" id="path2770-4-9-2" d="m 272,9 v 4 h -7 l 4,-4 z"/></g></svg>