<?xml version="1.0" encoding="UTF-8" standalone="no"?>
<!-- Created with Inkscape (http://www.inkscape.org/) -->

<svg
   version="1.1"
   id="svg2"
   width="1024"
   height="1024"
   viewBox="0 0 1024 1024"
   sodipodi:docname="tabs.svg"
   xml:space="preserve"
   inkscape:export-filename="tabs.png"
   inkscape:export-xdpi="120"
   inkscape:export-ydpi="120"
   inkscape:version="1.3 (0e150ed6c4, 2023-07-21)"
   xmlns:inkscape="http://www.inkscape.org/namespaces/inkscape"
   xmlns:sodipodi="http://sodipodi.sourceforge.net/DTD/sodipodi-0.dtd"
   xmlns="http://www.w3.org/2000/svg"
   xmlns:svg="http://www.w3.org/2000/svg"><defs
     id="defs6" /><sodipodi:namedview
     id="namedview4"
     pagecolor="#505050"
     bordercolor="#eeeeee"
     borderopacity="1"
     inkscape:showpageshadow="0"
     inkscape:pageopacity="0"
     inkscape:pagecheckerboard="0"
     inkscape:deskcolor="#505050"
     showgrid="true"
     inkscape:zoom="2.1972656"
     inkscape:cx="388.66489"
     inkscape:cy="265.55733"
     inkscape:window-width="3525"
     inkscape:window-height="1440"
     inkscape:window-x="0"
     inkscape:window-y="0"
     inkscape:window-maximized="0"
     inkscape:current-layer="g1403"><inkscape:grid
       type="xygrid"
       id="grid135"
       snapvisiblegridlinesonly="true"
       originx="0"
       originy="0"
       spacingy="1"
       spacingx="1"
       units="px"
       visible="true"
       empspacing="4" /></sodipodi:namedview><g
     id="g1398"
     inkscape:label="Selected"
     style="display:inline"
     transform="rotate(90,356,-240)"><path
       id="path614-9-6-1"
       style="display:inline;fill:none;fill-opacity:1;stroke:#1e1e29;stroke-width:4;stroke-linecap:butt;stroke-linejoin:miter;stroke-miterlimit:4;stroke-dasharray:none;stroke-opacity:1;paint-order:normal"
       inkscape:label="Right Outline"
       d="m 966,-276 h 2 l 6,-6 v -89 l 17,-17 h 50 l 17,17 v 89 l 6,6 h 2 M 966,-532 h 2 l 6,-6 -2e-5,-89 L 991,-644 h 50 l 17,17 v 89 l 6,6 h 2 m -100,128 h 2 l 6,-6 v -89 l 17,-17 h 50 l 17,17 v 89 l 6,6 h 2"
       sodipodi:nodetypes="cccccccccccccccccccccccccccccc" /><path
       id="path1065-1-0-3-8"
       style="display:inline;fill:#292936;fill-opacity:1;stroke:none;stroke-width:4;stroke-linecap:butt;stroke-linejoin:miter;stroke-miterlimit:4;stroke-dasharray:none;stroke-opacity:1;paint-order:normal"
       inkscape:label="Right Fill"
       d="m 968,-274 7,-7 v -89 l 17,-17 h 48 l 17,17 v 89 l 7,7 m -96,-256 7,-7 -3e-5,-89 L 992,-643 h 48 l 17,17 v 89 l 7,7 m -96,128 7,-7 v -89 l 17,-17 h 48 l 17,17 v 89 l 7,7"
       sodipodi:nodetypes="cccccccccccccccccccccccc" /><path
       id="path614-9-6-1-7"
       style="display:inline;fill:none;fill-opacity:1;stroke:#1e1e29;stroke-width:4;stroke-linecap:butt;stroke-linejoin:miter;stroke-miterlimit:4;stroke-dasharray:none;stroke-opacity:1;paint-order:normal"
       inkscape:label="Left Outline"
       d="m 1066,-256 h -2 l -6,6 v 89 l -17,17 h -50 l -17,-17 v -89 l -6,-6 h -2 M 1066,0 h -2 l -6,6 v 89 l -17,17 H 991 L 974,95 V 6 l -6,-6 h -2 m 100,-128 h -2 l -6,6 v 89 l -17,17 h -50 l -17,-17 v -89 l -6,-6 h -2"
       sodipodi:nodetypes="cccccccccccccccccccccccccccccc" /><path
       id="path1065-1-0-3-8-9"
       style="display:inline;fill:#292936;fill-opacity:1;stroke:none;stroke-width:4;stroke-linecap:butt;stroke-linejoin:miter;stroke-miterlimit:4;stroke-dasharray:none;stroke-opacity:1;paint-order:normal"
       inkscape:label="Left Fill"
       d="m 1064,-258 -7,7 v 89 l -17,17 h -48 l -17,-17 v -89 l -7,-7 m 96,256 -7,7 v 89 l -17,17 H 992 L 975,94 V 5 l -7,-7 m 96,-128 -7,7 v 89 l -17,17 h -48 l -17,-17 v -89 l -7,-7"
       sodipodi:nodetypes="cccccccccccccccccccccccc" /><path
       id="path614-9-6-2"
       style="display:inline;fill:none;fill-opacity:1;stroke:#1e1e29;stroke-width:4;stroke-linecap:butt;stroke-linejoin:miter;stroke-miterlimit:4;stroke-dasharray:none;stroke-opacity:1;paint-order:normal"
       inkscape:label="Bottom Outline"
       d="m 736,-326 v 2 l 6,6 89,-2e-5 L 848,-301 v 50 l -17,17 h -89 l -6,6 v 2 m 0,-324 v 2 l 6,6 89,-2e-5 L 848,-525 v 50 l -17,17 h -89 l -6,6 v 2 m 0,12 v 2 l 6,6 89,-2e-5 L 848,-413 v 50 l -17,17 h -89 l -6,6 v 2" /><path
       id="path1065-1-0-3-6"
       style="display:inline;fill:#292936;fill-opacity:1;stroke:none;stroke-width:4;stroke-linecap:butt;stroke-linejoin:miter;stroke-miterlimit:4;stroke-dasharray:none;stroke-opacity:1;paint-order:normal"
       inkscape:label="Bottom Fill"
       d="m 734,-324 7,7 89,-3e-5 L 847,-300 v 48 l -17,17 h -89 l -7,7 m 0,-320 7,7 89,-3e-5 L 847,-524 v 48 l -17,17 h -89 l -7,7 m 0,16 7,7 89,-3e-5 L 847,-412 v 48 l -17,17 h -89 l -7,7" /><path
       id="path614-9-6"
       style="display:inline;fill:none;fill-opacity:1;stroke:#1e1e29;stroke-width:4;stroke-linecap:butt;stroke-linejoin:miter;stroke-miterlimit:4;stroke-dasharray:none;stroke-opacity:1;paint-order:normal"
       inkscape:label="Top Outline"
       d="m 838,-114 v -2 l -6,-6 -89,2e-5 L 726,-139 v -50 l 17,-17 h 89 l 6,-6 v -2 m 0,324 v -2 l -6,-6 -89,2e-5 L 726,85 V 35 l 17,-17 h 89 l 6,-6 v -2 m 0,-11.9999995 v -2 l -6,-6.0000045 -89,2.45e-5 -17,-17.0000195 v -50 l 17,-17 h 89 L 838,-100 v -2" /><path
       id="path1065-1-0-3"
       style="display:inline;fill:#292936;fill-opacity:1;stroke:none;stroke-width:4;stroke-linecap:butt;stroke-linejoin:miter;stroke-miterlimit:4;stroke-dasharray:none;stroke-opacity:1;paint-order:normal"
       inkscape:label="Top Fill"
       d="m 840,-116 -7,-7 -89,3e-5 L 727,-140 v -48 l 17,-17 h 89 l 7,-7 m 0,320 -7,-7 -89,3e-5 L 727,84 V 36 l 17,-17 h 89 l 7,-7 M 840,-3.9999995 833,-11 744,-10.999975 727,-28 v -48 l 17,-17 h 89 l 7,-7" /></g><g
     id="g1403"
     inkscape:label="Unselected"
     style="display:inline"
     transform="rotate(90,356,-240)"><path
       d="m 945,-278 v -77 l -24,-24 h -34 l -24,24 v 77 m 0,-128 v -77 l 24,-24 h 34 l 24,24 v 77 m -82,-128 v -77 l 24,-24 h 34 l 24,24 v 77"
       style="display:inline;fill:#18181c;fill-opacity:1;stroke:#292936;stroke-width:6;stroke-linecap:butt;stroke-linejoin:miter;stroke-miterlimit:4;stroke-dasharray:none;stroke-opacity:1"
       id="path1-3"
       sodipodi:nodetypes="cccccccccccccccccc"
       inkscape:label="Right" /><path
       id="path437"
       style="display:inline;fill:#18181c;fill-opacity:1;stroke:#292936;stroke-width:6;stroke-linecap:butt;stroke-linejoin:miter;stroke-miterlimit:4;stroke-dasharray:none;stroke-opacity:1"
       d="m 945,-254 v 77 l -24,24 h -34 l -24,-24 v -77 M 944.99999,2 V 79 L 921,103 H 887 L 863,79 V 2 m 82.00001,-128 v 77 l -24,24 H 887 l -23.99999,-24 v -77"
       sodipodi:nodetypes="cccccccccccccccccc"
       inkscape:label="Left" /><path
       d="m 610,-541 h 77 l 24,24 v 34 l -24,23.99999 h -77 m 0,142.00002 h 77 l 24,24 v 34 L 687,-235 h -77 m 0,-194 h 77 l 24,24 v 34 l -24,23.99999 h -77"
       style="display:inline;fill:#18181c;fill-opacity:1;stroke:#292936;stroke-width:6;stroke-linecap:butt;stroke-linejoin:miter;stroke-miterlimit:4;stroke-dasharray:none;stroke-opacity:1"
       id="path1"
       sodipodi:nodetypes="cccccccccccccccccc"
       inkscape:label="Bottom" /><path
       id="path20755-2-9-6-6"
       style="display:inline;fill:#18181c;fill-opacity:1;stroke:#292936;stroke-width:6;stroke-linecap:butt;stroke-linejoin:miter;stroke-miterlimit:4;stroke-dasharray:none;stroke-opacity:1"
       inkscape:label="Top"
       d="m 708,-205 h -77 l -24,24 v 34 l 24,23.99999 h 77 M 708,19 h -77 l -24,24 v 34 l 24,23.99999 h 77 M 708,-93 h -77 l -24,24 v 34 l 24,23.999995 h 77"
       sodipodi:nodetypes="cccccccccccccccccc" /></g></svg>
