<?xml version="1.0" encoding="UTF-8" standalone="no"?>
<!-- Created with Inkscape (http://www.inkscape.org/) -->

<svg
   version="1.1"
   id="svg2"
   width="1024"
   height="1024"
   viewBox="0 0 1024 1024"
   sodipodi:docname="advancement-widgets.svg"
   xml:space="preserve"
   inkscape:version="1.2.1 (9c6d41e, 2022-07-14)"
   inkscape:export-filename="advancement-widgets.png"
   inkscape:export-xdpi="96"
   inkscape:export-ydpi="96"
   xmlns:inkscape="http://www.inkscape.org/namespaces/inkscape"
   xmlns:sodipodi="http://sodipodi.sourceforge.net/DTD/sodipodi-0.dtd"
   xmlns:xlink="http://www.w3.org/1999/xlink"
   xmlns="http://www.w3.org/2000/svg"
   xmlns:svg="http://www.w3.org/2000/svg"><defs
     id="defs6"><linearGradient
       inkscape:collect="always"
       id="linearGradient7747"><stop
         style="stop-color:#2b525a;stop-opacity:1;"
         offset="0"
         id="stop7743" /><stop
         style="stop-color:#2f5b3a;stop-opacity:1;"
         offset="1"
         id="stop7745" /></linearGradient><linearGradient
       inkscape:collect="always"
       id="linearGradient7737"><stop
         style="stop-color:#6d2c51;stop-opacity:1;"
         offset="0"
         id="stop7735" /><stop
         style="stop-color:#523d6f;stop-opacity:1;"
         offset="1"
         id="stop7733" /></linearGradient><linearGradient
       inkscape:collect="always"
       id="linearGradient7727"><stop
         style="stop-color:#582727;stop-opacity:1;"
         offset="0"
         id="stop7725" /><stop
         style="stop-color:#6d4a24;stop-opacity:1;"
         offset="1"
         id="stop7723" /></linearGradient><linearGradient
       inkscape:collect="always"
       id="linearGradient7717"><stop
         style="stop-color:#ff5555;stop-opacity:1"
         offset="0"
         id="stop7715" /><stop
         style="stop-color:#ffb86c;stop-opacity:1;"
         offset="1"
         id="stop7713" /></linearGradient><linearGradient
       inkscape:collect="always"
       id="linearGradient7709"><stop
         style="stop-color:#ff79c6;stop-opacity:1"
         offset="0"
         id="stop7707" /><stop
         style="stop-color:#bd93f9;stop-opacity:1"
         offset="1"
         id="stop7705" /></linearGradient><linearGradient
       inkscape:collect="always"
       id="linearGradient7606"><stop
         style="stop-color:#8bfdf0;stop-opacity:1;"
         offset="0"
         id="stop7602" /><stop
         style="stop-color:#50fa7b;stop-opacity:1"
         offset="1"
         id="stop7604" /></linearGradient><linearGradient
       inkscape:collect="always"
       xlink:href="#linearGradient7606"
       id="linearGradient7608"
       x1="53"
       y1="604"
       x2="53"
       y2="524"
       gradientUnits="userSpaceOnUse" /><linearGradient
       inkscape:collect="always"
       xlink:href="#linearGradient7709"
       id="linearGradient7703"
       x1="156"
       y1="616"
       x2="156"
       y2="512"
       gradientUnits="userSpaceOnUse" /><linearGradient
       inkscape:collect="always"
       xlink:href="#linearGradient7717"
       id="linearGradient7719"
       x1="260"
       y1="615"
       x2="260"
       y2="514"
       gradientUnits="userSpaceOnUse" /><linearGradient
       inkscape:collect="always"
       xlink:href="#linearGradient7727"
       id="linearGradient7729"
       x1="260"
       y1="609"
       x2="260"
       y2="519"
       gradientUnits="userSpaceOnUse" /><linearGradient
       inkscape:collect="always"
       xlink:href="#linearGradient7737"
       id="linearGradient7739"
       x1="156"
       y1="610"
       x2="156"
       y2="518"
       gradientUnits="userSpaceOnUse" /><linearGradient
       inkscape:collect="always"
       xlink:href="#linearGradient7747"
       id="linearGradient7749"
       x1="53"
       y1="600"
       x2="53"
       y2="528"
       gradientUnits="userSpaceOnUse" /></defs><sodipodi:namedview
     id="namedview4"
     pagecolor="#505050"
     bordercolor="#eeeeee"
     borderopacity="1"
     inkscape:showpageshadow="0"
     inkscape:pageopacity="0"
     inkscape:pagecheckerboard="0"
     inkscape:deskcolor="#505050"
     showgrid="true"
     inkscape:zoom="1.4142136"
     inkscape:cx="106.77312"
     inkscape:cy="391.03005"
     inkscape:window-width="5062"
     inkscape:window-height="1440"
     inkscape:window-x="58"
     inkscape:window-y="0"
     inkscape:window-maximized="1"
     inkscape:current-layer="svg2"><inkscape:grid
       type="xygrid"
       id="grid903"
       snapvisiblegridlinesonly="false" /></sodipodi:namedview><g
     id="g1429"
     inkscape:label="Locked"
     style="display:inline"><path
       d="m 12,648 c 0,-12.22222 7.777778,-20 20,-20 h 40 c 12.22222,0 20,7.77778 20,20 v 40 c 0,12.22222 -7.77778,20 -20,20 H 32 c -12.222222,0 -20,-7.77778 -20,-20 z"
       style="display:inline;fill:#1e1f29;fill-opacity:1;stroke:#000000;stroke-width:0;stroke-linecap:butt;stroke-linejoin:miter;stroke-miterlimit:4;stroke-dasharray:none;stroke-opacity:1"
       id="path1082-2"
       sodipodi:nodetypes="csssssscc"
       inkscape:label="Advancement Outline" /><path
       d="m 88,652.4 v 31.2 C 88,696.8 80.8,704 67.6,704 H 36.4 C 23.2,704 16,696.8 16,683.6 V 652.4 C 16,639.2 23.2,632 36.4,632 h 31.2 c 13.2,0 20.4,7.2 20.4,20.4 z"
       style="display:inline;fill:#2e3242;fill-opacity:1;stroke:#000000;stroke-width:0;stroke-linecap:butt;stroke-linejoin:miter;stroke-miterlimit:4;stroke-dasharray:none;stroke-opacity:1"
       id="path1054-9"
       inkscape:label="Advancement Fill" /><path
       d="m 247,624 c 8,-8 18,-8 26,0 l 31,31 c 8,8 8,18 0,26 l -31,31 c -8,8 -18,8 -26,0 l -31,-31 c -8,-8 -8,-18 0,-26 z"
       style="display:inline;fill:#1e1f29;fill-opacity:1;stroke:#000000;stroke-width:0;stroke-linecap:butt;stroke-linejoin:miter;stroke-miterlimit:4;stroke-dasharray:none;stroke-opacity:1"
       id="path1082-5-1"
       sodipodi:nodetypes="csssssscc"
       inkscape:label="Goal Outline" /><path
       d="m 297,682 -24,24 c -9.33381,9.33381 -16.66619,9.33381 -26,0 l -24,-24 c -9.33381,-9.33381 -9.33381,-18.66619 0,-28 l 23,-23 c 9.33381,-9.33381 18.66619,-9.33381 28,0 l 23,23 c 9.33381,9.33381 9.33381,18.66619 0,28 z"
       style="display:inline;fill:#2e3242;fill-opacity:1;stroke:#000000;stroke-width:0;stroke-linecap:butt;stroke-linejoin:miter;stroke-miterlimit:4;stroke-dasharray:none;stroke-opacity:1"
       id="path1054-3-2"
       sodipodi:nodetypes="sssssssss"
       inkscape:label="Goal Fill" /><path
       style="display:inline;fill:#1e1f29;stroke:none;stroke-width:1px;stroke-linecap:butt;stroke-linejoin:miter;stroke-opacity:1"
       d="m 120,632 v 21 l -15,15 15,15 v 21 h 21 l 15,15 15,-15 h 21 v -21 l 15,-15 -15,-15 v -21 h -21 l -15,-15 -15,15 z"
       id="path1249-7"
       sodipodi:nodetypes="ccccccccccccccccc"
       inkscape:label="Challenge Outline" /><path
       id="path1251-0"
       style="display:inline;fill:#2e3242;stroke:none;stroke-width:1px;stroke-linecap:butt;stroke-linejoin:miter;stroke-opacity:1"
       d="m 156,623 -13,13 h -19 v 19 l -13,13 13,13 v 19 h 19 l 13,13 13,-13 h 19 v -19 l 13,-13 -13,-13 v -19 h -19 z"
       sodipodi:nodetypes="ccccccccccccccccc"
       inkscape:label="Challenge Fill" /></g><g
     id="g1436"
     inkscape:label="Unlocked"><path
       d="m 12,544 c 0,-12.22222 7.777778,-20 20,-20 h 40 c 12.222222,0 20,7.77778 20,20 v 40 c 0,12.22222 -7.777778,20 -20,20 H 32 c -12.222222,0 -20,-7.77778 -20,-20 z"
       style="display:inline;fill:url(#linearGradient7608);fill-opacity:1;stroke:#000000;stroke-width:0;stroke-linecap:butt;stroke-linejoin:miter;stroke-miterlimit:4;stroke-dasharray:none;stroke-opacity:1"
       id="path1082"
       sodipodi:nodetypes="csssssscc"
       inkscape:label="Advancement Outline" /><path
       d="m 88,548.4 v 31.2 C 88,592.8 80.8,600 67.6,600 H 36.4 C 23.2,600 16,592.8 16,579.6 V 548.4 C 16,535.2 23.2,528 36.4,528 h 31.2 c 13.2,0 20.4,7.2 20.4,20.4 z"
       style="display:inline;fill:url(#linearGradient7749);fill-opacity:1;stroke:#000000;stroke-width:0;stroke-linecap:butt;stroke-linejoin:miter;stroke-miterlimit:4;stroke-dasharray:none;stroke-opacity:1"
       id="path1054"
       inkscape:label="Advancement Fill" /><path
       d="m 247,520 c 8,-8 18,-8 26,0 l 31,31 c 8,8 8,18 0,26 l -31,31 c -8,8 -18,8 -26,0 l -31,-31 c -8,-8 -8,-18 0,-26 z"
       style="display:inline;fill:url(#linearGradient7719);fill-opacity:1;stroke:#000000;stroke-width:0;stroke-linecap:butt;stroke-linejoin:miter;stroke-miterlimit:4;stroke-dasharray:none;stroke-opacity:1"
       id="path1082-5"
       sodipodi:nodetypes="csssssscc"
       inkscape:label="Goal Outline" /><path
       d="m 298,577 -25,25 c -10,10 -16,10 -26,0 l -25,-25 c -10,-10 -10,-16 0,-26 l 25,-25 c 10,-10 16,-10 26,0 l 25,25 c 10,10 10,16 0,26 z"
       style="display:inline;fill:url(#linearGradient7729);fill-opacity:1;stroke:#000000;stroke-width:0;stroke-linecap:butt;stroke-linejoin:miter;stroke-miterlimit:4;stroke-dasharray:none;stroke-opacity:1"
       id="path1054-3"
       sodipodi:nodetypes="sssssssss"
       inkscape:label="Goal Fill" /><path
       style="display:inline;fill:url(#linearGradient7703);fill-opacity:1;stroke:none;stroke-width:1px;stroke-linecap:butt;stroke-linejoin:miter;stroke-opacity:1"
       d="m 120,528 v 21 l -15,15 15,14 v 22 h 21 l 15,15 15,-15 h 21 v -22 l 15,-14 -15,-15 v -21 h -21 l -15,-15 -15,15 z"
       id="path1249"
       sodipodi:nodetypes="ccccccccccccccccc"
       inkscape:label="Challenge Outline" /><path
       id="path1251"
       style="display:inline;fill:url(#linearGradient7739);fill-opacity:1;stroke:none;stroke-width:1px;stroke-linecap:butt;stroke-linejoin:miter;stroke-opacity:1"
       d="m 156,519 -13,13 h -19 v 19 l -13,13 13,12 v 20 h 19 l 13,13 13,-13 h 19 v -20 l 13,-12 -13,-13 v -19 h -19 z"
       sodipodi:nodetypes="ccccccccccccccccc"
       inkscape:label="Challenge Fill" /></g><g
     id="g8704"
     inkscape:label="Hovered"><path
       d="m 695.98076,296.40414 c -11,0 -18.0001,-7 -18.0001,-18 v -44 c 0,-11 7.0001,-18 18.0001,-18 h 763.99994 c 11,0 18,7 18,18 v 44 c 0,11 -7,18 -18,18 H 695.98076"
       style="display:inline;fill:#1e1f29;fill-opacity:0.70013356;stroke:#000000;stroke-width:0;stroke-linecap:butt;stroke-linejoin:miter;stroke-miterlimit:4;stroke-dasharray:none;stroke-opacity:1"
       id="path26164-9-0"
       sodipodi:nodetypes="csccsccsc"
       transform="translate(-677.98066,3.59586)"
       inkscape:label="Background" /><path
       d="m 794,139 v 34 c 0,11 -6,17 -17,17 H 23 C 12,190 6,184 6,173 v -34 c 0,-11 6,-17 17,-17 h 754 c 11,0 17,6 17,17 z"
       style="display:inline;fill:#3b3e63;fill-opacity:1;stroke:#000000;stroke-width:0;stroke-linecap:butt;stroke-linejoin:miter;stroke-miterlimit:4;stroke-dasharray:none;stroke-opacity:1"
       id="path26195-5-2-3"
       sodipodi:nodetypes="sssssssss"
       inkscape:label="Locked" /><path
       d="m 794,35 v 34 c 0,11 -6,17 -17,17 H 23 C 12,86 6,80 6,69 V 35 C 6,24 12,18 23,18 h 754 c 11,0 17,6 17,17 z"
       style="display:inline;fill:#7c60a3;fill-opacity:1;stroke:#000000;stroke-width:0;stroke-linecap:butt;stroke-linejoin:miter;stroke-miterlimit:4;stroke-dasharray:none;stroke-opacity:1"
       id="path26195-5-2-3-6"
       sodipodi:nodetypes="sssssssss"
       inkscape:label="Unlocked" /></g></svg>
