<svg xmlns="http://www.w3.org/2000/svg" xmlns:svg="http://www.w3.org/2000/svg" id="svg2" width="96" height="32" version="1.1" xml:space="preserve"><g id="g3"><path id="rect1-9" style="fill:#807c79;stroke-width:2;stroke-linecap:square;stroke-linejoin:round;stroke-miterlimit:0" d="m 72,12 4,4 v 4 h -4 l -4,-4 v -4 z"/><path id="rect1-9-6" style="fill:#807c79;stroke-width:2;stroke-linecap:square;stroke-linejoin:round;stroke-miterlimit:0" d="m 80,12 4,4 v 4 h -4 l -4,-4 v -4 z"/><path id="rect1-9-6-5" style="fill:#807c79;stroke-width:2;stroke-linecap:square;stroke-linejoin:round;stroke-miterlimit:0" d="m 88,12 4,4 v 4 h -4 l -4,-4 v -4 z"/><rect style="fill:#f8f8f2;stroke-width:2;stroke-linecap:square;stroke-linejoin:round;stroke-miterlimit:0" id="rect1-6" width="4" height="4" x="84" y="12" rx="0" ry="0"/><rect style="fill:#f8f8f2;stroke-width:2;stroke-linecap:square;stroke-linejoin:round;stroke-miterlimit:0" id="rect1-3" width="4" height="4" x="76" y="12" rx="0" ry="0"/><rect style="opacity:1;fill:#f8f8f2;stroke-width:2;stroke-linecap:square;stroke-linejoin:round;stroke-miterlimit:0" id="rect1" width="4" height="4" x="68" y="12" rx="0" ry="0"/></g><g id="g1" transform="translate(0,-2)"><path id="path1" style="fill:#209e6f;stroke:none;stroke-width:1px;stroke-linecap:butt;stroke-linejoin:miter;stroke-opacity:1" d="M 23,5 10,18 5,13 0,18 14,32 32,14 Z"/><path style="fill:#50fa7b;stroke:none;stroke-width:1px;stroke-linecap:butt;stroke-linejoin:miter;stroke-opacity:1" id="path4" d="M 5,13 0,18 10,28 28,10 23,5 10,18 Z"/></g><g id="g2" transform="translate(28,-7)"><path id="path2-9" style="display:inline;fill:#a81b55;stroke:none;stroke-width:2.28572px;stroke-linecap:butt;stroke-linejoin:miter;stroke-opacity:1" d="m 6,12 9,9 -9,9 9,9 9,-9 9,9 5,-5 -9,-9 9,-9 -9,-9 -9,9 -9,-9 z"/><path id="path1-1" style="display:inline;fill:#f55;stroke:none;stroke-width:2.28572px;stroke-linecap:butt;stroke-linejoin:miter;stroke-opacity:1" d="m 11,7 -5,5 9,9 -9,9 5,5 9,-9 9,9 5,-5 -9,-9 9,-9 -5,-5 -9,9 z"/></g></svg>