<?xml version="1.0" encoding="UTF-8" standalone="no"?>
<!-- Created with Inkscape (http://www.inkscape.org/) -->

<svg
   version="1.1"
   id="svg2"
   width="96"
   height="32"
   xml:space="preserve"
   inkscape:export-filename="base.svg"
   inkscape:export-xdpi="96"
   inkscape:export-ydpi="96"
   inkscape:version="1.3.2 (091e20ef0f, 2023-11-25)"
   sodipodi:docname="session_status.svg"
   xmlns:inkscape="http://www.inkscape.org/namespaces/inkscape"
   xmlns:sodipodi="http://sodipodi.sourceforge.net/DTD/sodipodi-0.dtd"
   xmlns="http://www.w3.org/2000/svg"
   xmlns:svg="http://www.w3.org/2000/svg"><defs
   id="defs6" /><sodipodi:namedview
   id="namedview4"
   pagecolor="#505050"
   bordercolor="#eeeeee"
   borderopacity="1"
   inkscape:showpageshadow="0"
   inkscape:pageopacity="0"
   inkscape:pagecheckerboard="0"
   inkscape:deskcolor="#505050"
   showgrid="true"
   inkscape:current-layer="svg2"
   inkscape:zoom="8"
   inkscape:cx="45.375"
   inkscape:cy="7.625"
   inkscape:window-width="3258"
   inkscape:window-height="1440"
   inkscape:window-x="0"
   inkscape:window-y="0"
   inkscape:window-maximized="0"><inkscape:grid
     type="xygrid"
     id="Main Grid"
     originx="0"
     originy="0"
     spacingy="1"
     spacingx="1"
     units="px"
     visible="true"
     empspacing="4"
     snapvisiblegridlinesonly="true" /><inkscape:page
     x="0"
     y="0"
     width="96"
     height="32"
     id="page4"
     margin="0"
     bleed="0" /></sodipodi:namedview>
    
<g
   id="g3"
   inkscape:label="Elipse Icon"><path
     id="rect1-9"
     style="fill:#807c79;stroke-width:2;stroke-linecap:square;stroke-linejoin:round;stroke-miterlimit:0"
     inkscape:label="Shadow 3"
     d="m 72,12 4,4 v 4 h -4 l -4,-4 v -4 z"
     sodipodi:nodetypes="ccccccc" /><path
     id="rect1-9-6"
     style="fill:#807c79;stroke-width:2;stroke-linecap:square;stroke-linejoin:round;stroke-miterlimit:0"
     inkscape:label="Shadow 2"
     d="m 80,12 4,4 v 4 h -4 l -4,-4 v -4 z"
     sodipodi:nodetypes="ccccccc" /><path
     id="rect1-9-6-5"
     style="fill:#807c79;stroke-width:2;stroke-linecap:square;stroke-linejoin:round;stroke-miterlimit:0"
     inkscape:label="Shadow 1"
     d="m 88,12 4,4 v 4 h -4 l -4,-4 v -4 z"
     sodipodi:nodetypes="ccccccc" /><rect
     style="fill:#f8f8f2;stroke-width:2;stroke-linecap:square;stroke-linejoin:round;stroke-miterlimit:0"
     id="rect1-6"
     width="4"
     height="4"
     x="84"
     y="12"
     rx="0"
     ry="0"
     inkscape:label="Dot 3" /><rect
     style="fill:#f8f8f2;stroke-width:2;stroke-linecap:square;stroke-linejoin:round;stroke-miterlimit:0"
     id="rect1-3"
     width="4"
     height="4"
     x="76"
     y="12"
     rx="0"
     ry="0"
     inkscape:label="Dot 2" /><rect
     style="opacity:1;fill:#f8f8f2;stroke-width:2;stroke-linecap:square;stroke-linejoin:round;stroke-miterlimit:0"
     id="rect1"
     width="4"
     height="4"
     x="68"
     y="12"
     rx="0"
     ry="0"
     inkscape:label="Dot 1" /></g><g
   id="g1"
   inkscape:label="Check Icon"
   transform="translate(0,-2)"><path
     id="path1"
     style="fill:#209e6f;stroke:none;stroke-width:1px;stroke-linecap:butt;stroke-linejoin:miter;stroke-opacity:1"
     d="M 23,5 10,18 5,13 0,18 14,32 32,14 Z"
     sodipodi:nodetypes="ccccccc"
     inkscape:label="Shadow" /><path
     style="fill:#50fa7b;stroke:none;stroke-width:1px;stroke-linecap:butt;stroke-linejoin:miter;stroke-opacity:1"
     d="M 5,13 0,18 10,28 28,10 23,5 10,18 Z"
     id="path4"
     sodipodi:nodetypes="ccccccc"
     inkscape:label="Check" /></g><g
   id="g2"
   transform="translate(28,-7)"
   inkscape:label="Cancel Icon"><path
     id="path2-9"
     style="display:inline;fill:#a81b55;stroke:none;stroke-width:2.28572px;stroke-linecap:butt;stroke-linejoin:miter;stroke-opacity:1"
     d="m 6,12 9,9 -9,9 9,9 9,-9 9,9 5,-5 -9,-9 9,-9 -9,-9 -9,9 -9,-9 z"
     sodipodi:nodetypes="ccccccccccccc"
     inkscape:label="X Shadow" /><path
     id="path1-1"
     style="display:inline;fill:#ff5555;stroke:none;stroke-width:2.28572px;stroke-linecap:butt;stroke-linejoin:miter;stroke-opacity:1"
     d="m 11,7 -5,5 9,9 -9,9 5,5 9,-9 9,9 5,-5 -9,-9 9,-9 -5,-5 -9,9 z"
     sodipodi:nodetypes="ccccccccccccc"
     inkscape:label="X" /></g></svg>
