<?xml version="1.0" encoding="UTF-8" standalone="no"?>
<!-- Created with Inkscape (http://www.inkscape.org/) -->

<svg
   version="1.1"
   id="svg2"
   width="64"
   height="64"
   viewBox="0 0 64 64"
   sodipodi:docname="empty_armor_slot_boots.svg"
   inkscape:version="1.2.1 (9c6d41e, 2022-07-14)"
   inkscape:export-filename="empty_armor_slot_boots.png"
   inkscape:export-xdpi="96"
   inkscape:export-ydpi="96"
   xmlns:inkscape="http://www.inkscape.org/namespaces/inkscape"
   xmlns:sodipodi="http://sodipodi.sourceforge.net/DTD/sodipodi-0.dtd"
   xmlns="http://www.w3.org/2000/svg"
   xmlns:svg="http://www.w3.org/2000/svg">
  <defs
     id="defs6" />
  <sodipodi:namedview
     id="namedview4"
     pagecolor="#505050"
     bordercolor="#eeeeee"
     borderopacity="1"
     inkscape:showpageshadow="0"
     inkscape:pageopacity="0"
     inkscape:pagecheckerboard="0"
     inkscape:deskcolor="#505050"
     showgrid="true"
     inkscape:zoom="14.75"
     inkscape:cx="30.237288"
     inkscape:cy="38.440678"
     inkscape:window-width="5062"
     inkscape:window-height="1440"
     inkscape:window-x="58"
     inkscape:window-y="0"
     inkscape:window-maximized="1"
     inkscape:current-layer="svg2">
    <inkscape:grid
       type="xygrid"
       id="grid302"
       snapvisiblegridlinesonly="false" />
  </sodipodi:namedview>
  <path
     id="path306"
     style="fill:#17181c;stroke:none;stroke-width:1px;stroke-linecap:butt;stroke-linejoin:miter;stroke-opacity:1"
     d="M 19 12 L 14 17 L 14 33 L 6 41 L 6 52 L 25 52 L 30 47 L 30 12 L 19 12 z M 34 12 L 34 47 L 39 52 L 58 52 L 58 41 L 50 33 L 50 17 L 45 12 L 34 12 z M 21 16 L 26 16 L 26 45 L 23 48 L 10 48 L 10 43 L 18 35 L 18 19 L 21 16 z M 38 16 L 43 16 L 46 19 L 46 35 L 54 43 L 54 48 L 41 48 L 38 45 L 38 16 z "
     inkscape:label="Icon" />
</svg>
