<?xml version="1.0" encoding="UTF-8" standalone="no"?>
<!-- Created with Inkscape (http://www.inkscape.org/) -->

<svg
   version="1.1"
   id="svg2"
   width="64"
   height="64"
   xml:space="preserve"
   inkscape:export-filename="base.svg"
   inkscape:export-xdpi="96"
   inkscape:export-ydpi="96"
   inkscape:version="1.3.1 (91b66b0783, 2023-11-16, custom)"
   sodipodi:docname="dye_slot.svg"
   xmlns:inkscape="http://www.inkscape.org/namespaces/inkscape"
   xmlns:sodipodi="http://sodipodi.sourceforge.net/DTD/sodipodi-0.dtd"
   xmlns="http://www.w3.org/2000/svg"
   xmlns:svg="http://www.w3.org/2000/svg"><defs
   id="defs6" /><sodipodi:namedview
   id="namedview4"
   pagecolor="#505050"
   bordercolor="#eeeeee"
   borderopacity="1"
   inkscape:showpageshadow="0"
   inkscape:pageopacity="0"
   inkscape:pagecheckerboard="0"
   inkscape:deskcolor="#505050"
   showgrid="true"
   inkscape:current-layer="svg2"
   inkscape:zoom="13.656"
   inkscape:cx="33.282075"
   inkscape:cy="31.19508"
   inkscape:window-width="5070"
   inkscape:window-height="1440"
   inkscape:window-x="0"
   inkscape:window-y="0"
   inkscape:window-maximized="1"><inkscape:grid
     type="xygrid"
     id="Main Grid"
     originx="0"
     originy="0"
     spacingy="1"
     spacingx="1"
     units="px"
     visible="true"
     empspacing="4"
     snapvisiblegridlinesonly="true" /></sodipodi:namedview>
    
<g
   id="g11"
   inkscape:label="Palette Icon"
   style="display:inline"
   transform="translate(-768)"><rect
     style="display:inline;fill:#1e1f29;fill-rule:evenodd;stroke-width:2;stroke-linecap:square;stroke-linejoin:round;stroke-miterlimit:0"
     id="rect50-7-0-7-5"
     width="60"
     height="60"
     x="770"
     y="2.0000017"
     rx="14"
     ry="14"
     inkscape:label="Slot" /><g
     id="g4"
     inkscape:label="Icon"><path
       style="display:inline;fill:#3a324e;stroke:none;stroke-width:1px;stroke-linecap:butt;stroke-linejoin:miter;stroke-opacity:1"
       d="m 786,20 6,-6 6,6 -6,6 z"
       id="path7"
       sodipodi:nodetypes="ccccc" /><path
       style="fill:#3a324e;stroke:none;stroke-width:1px;stroke-linecap:butt;stroke-linejoin:miter;stroke-opacity:1"
       d="m 812,26 v 6 L 818,32 818,26 Z"
       id="path8"
       sodipodi:nodetypes="ccccc" /><path
       style="fill:#3a324e;stroke:none;stroke-width:1px;stroke-linecap:butt;stroke-linejoin:miter;stroke-opacity:1"
       d="m 802,16 v 8 h 8 v -8 z"
       id="path9" /><path
       style="fill:#3a324e;stroke:none;stroke-width:1px;stroke-linecap:butt;stroke-linejoin:miter;stroke-opacity:1"
       d="m 780,26 h 8 l 0,8 L 780,34 Z"
       id="path7-5" /><path
       style="fill:#3a324e;stroke:none;stroke-width:1px;stroke-linecap:butt;stroke-linejoin:miter;stroke-opacity:1"
       d="m 788,38 0,4 -4,4 L 780,42 v -4 z"
       id="path7-9"
       sodipodi:nodetypes="cccccc" /><path
       id="path6"
       style="fill:#3a324e;stroke:none;stroke-width:1px;stroke-linecap:butt;stroke-linejoin:miter;stroke-opacity:1"
       d="M 798,8 C 792,8 786,8 786,8 l -12,12 v 26 l 10,10 H 806 l 4,-4 v -4 l -4,-4 4,-4 h 10 l 6,-6 V 24 L 810,8 C 810,8 804,8 798,8 Z M 788,12 h 20 l 14,14 v 6 l -4,4 h -10 l -4,4 -4,-4 h -4 l -6,6 v 4 l 6,6 h -10 l -8,-8 V 22 Z m 10,28 4,4 L 798,48 794,44 Z"
       sodipodi:nodetypes="scccccccccccccsccccccccccccccccccccc" /></g></g></svg>
