<svg xmlns="http://www.w3.org/2000/svg" xmlns:svg="http://www.w3.org/2000/svg" id="svg2" width="64" height="64" version="1.1" xml:space="preserve"><g id="g11" style="display:inline" transform="translate(-768)"><rect style="display:inline;fill:#1e1f29;fill-rule:evenodd;stroke-width:2;stroke-linecap:square;stroke-linejoin:round;stroke-miterlimit:0" id="rect50-7-0-7-5" width="60" height="60" x="770" y="2" rx="14" ry="14"/><g id="g4"><path style="display:inline;fill:#3a324e;stroke:none;stroke-width:1px;stroke-linecap:butt;stroke-linejoin:miter;stroke-opacity:1" id="path7" d="m 786,20 6,-6 6,6 -6,6 z"/><path style="fill:#3a324e;stroke:none;stroke-width:1px;stroke-linecap:butt;stroke-linejoin:miter;stroke-opacity:1" id="path8" d="m 812,26 v 6 L 818.03499,31.98617 818,26 Z"/><path style="fill:#3a324e;stroke:none;stroke-width:1px;stroke-linecap:butt;stroke-linejoin:miter;stroke-opacity:1" id="path9" d="m 802,16 v 8 h 8 v -8 z"/><path style="fill:#3a324e;stroke:none;stroke-width:1px;stroke-linecap:butt;stroke-linejoin:miter;stroke-opacity:1" id="path7-5" d="m 780,26 h 8 l 0.0142,7.953242 L 780,34 Z"/><path style="fill:#3a324e;stroke:none;stroke-width:1px;stroke-linecap:butt;stroke-linejoin:miter;stroke-opacity:1" id="path7-9" d="m 788,38 0.0312,3.999999 -4,4 L 780,42 v -4 z"/><path id="path6" style="fill:#3a324e;stroke:none;stroke-width:1px;stroke-linecap:butt;stroke-linejoin:miter;stroke-opacity:1" d="M 797.99219,7.9824219 C 791.99476,7.988053 786,8 786,8 l -12,12 v 26 l 10.03125,10 H 806 l 4,-4 v -4 l -4,-4 4,-4 h 10 l 6,-6 V 24 L 810,8 C 809.9897,7.977475 803.9896,7.976791 797.99219,7.9824219 Z M 788,12 h 20 l 14,14 v 6 l -4,4 h -10 l -4,4 -4,-4 h -4 l -6,6 v 4 l 6,6 h -10 l -8,-8 V 22 Z m 10,28 4.03125,4 L 798,48 794,44 Z"/></g></g></svg>