<?xml version="1.0" encoding="UTF-8" standalone="no"?>
<!-- Created with Inkscape (http://www.inkscape.org/) -->

<svg
   version="1.1"
   id="svg2"
   width="1280"
   height="128"
   viewBox="0 0 320 32"
   sodipodi:docname="edition.svg"
   xml:space="preserve"
   inkscape:version="1.2.1 (9c6d41e, 2022-07-14)"
   inkscape:export-filename="edition.png"
   inkscape:export-xdpi="96"
   inkscape:export-ydpi="96"
   xmlns:inkscape="http://www.inkscape.org/namespaces/inkscape"
   xmlns:sodipodi="http://sodipodi.sourceforge.net/DTD/sodipodi-0.dtd"
   xmlns:xlink="http://www.w3.org/1999/xlink"
   xmlns="http://www.w3.org/2000/svg"
   xmlns:svg="http://www.w3.org/2000/svg"><defs
     id="defs6"><linearGradient
       inkscape:collect="always"
       id="linearGradient20627"><stop
         style="stop-color:#3c7790;stop-opacity:1;"
         offset="0"
         id="stop20623" /><stop
         style="stop-color:#233d85;stop-opacity:1;"
         offset="1"
         id="stop20625" /></linearGradient><linearGradient
       inkscape:collect="always"
       id="linearGradient20555"><stop
         style="stop-color:#777dde;stop-opacity:1;"
         offset="0"
         id="stop20551" /><stop
         style="stop-color:#80d4f0;stop-opacity:1;"
         offset="1"
         id="stop20553" /></linearGradient><inkscape:path-effect
       gridpoint32x33x34x35="119.87793,13.5"
       gridpoint29x31="178.12256,13.5"
       gridpoint28x30="61.633301,13.5"
       gridpoint25x27="236.36719,13.5"
       gridpoint24x26="3.3886719,13.5"
       gridpoint22x23="119.87793,17.84961"
       gridpoint20x21="119.87793,9.1503907"
       gridpoint19="178.12256,17.84961"
       gridpoint18="61.633301,17.84961"
       gridpoint17="178.12256,9.1503907"
       gridpoint16="61.633301,9.1503907"
       gridpoint15="236.36719,17.84961"
       gridpoint14="3.3886719,17.84961"
       gridpoint13="236.36719,9.1503907"
       gridpoint12="3.3886719,9.1503907"
       gridpoint10x11="119.87793,22.199219"
       gridpoint8x9="119.87793,4.8007812"
       gridpoint7="178.12256,22.199219"
       gridpoint6="61.633301,22.199219"
       gridpoint5="178.12256,4.8007812"
       gridpoint4="61.633301,4.8007812"
       gridpoint3="236.36719,22.199219"
       gridpoint2="3.3886719,22.199219"
       gridpoint1="229.44035,4.8007808"
       gridpoint0="10.315512,4.8007808"
       effect="lattice2"
       id="path-effect16729"
       is_visible="true"
       lpeversion="1"
       horizontal_mirror="false"
       vertical_mirror="true"
       perimetral="false"
       live_update="true" /><inkscape:path-effect
       gridpoint32x33x34x35="119.87793,13.5"
       gridpoint29x31="178.12256,13.5"
       gridpoint28x30="61.633301,13.5"
       gridpoint25x27="236.36719,13.5"
       gridpoint24x26="3.3886719,13.5"
       gridpoint22x23="119.87793,17.84961"
       gridpoint20x21="119.87793,9.1503907"
       gridpoint19="178.12256,17.84961"
       gridpoint18="61.633301,17.84961"
       gridpoint17="178.12256,9.1503907"
       gridpoint16="61.633301,9.1503907"
       gridpoint15="236.36719,17.84961"
       gridpoint14="3.3886719,17.84961"
       gridpoint13="236.36719,9.1503907"
       gridpoint12="3.3886719,9.1503907"
       gridpoint10x11="119.87793,22.199219"
       gridpoint8x9="119.87793,4.8007812"
       gridpoint7="178.12256,22.199219"
       gridpoint6="61.633301,22.199219"
       gridpoint5="178.12256,4.8007812"
       gridpoint4="61.633301,4.8007812"
       gridpoint3="236.36719,22.199219"
       gridpoint2="3.3886719,22.199219"
       gridpoint1="229.44035,4.8007808"
       gridpoint0="10.315512,4.8007808"
       effect="lattice2"
       id="path-effect16659"
       is_visible="true"
       lpeversion="1"
       horizontal_mirror="false"
       vertical_mirror="true"
       perimetral="false"
       live_update="true" /><inkscape:path-effect
       effect="lattice2"
       gridpoint0="3.2423487,4.5938294"
       gridpoint1="260.59966,4.5938294"
       gridpoint2="9.3432889,21.992268"
       gridpoint3="254.49872,21.992268"
       gridpoint4="67.581678,4.5938294"
       gridpoint5="196.26033,4.5938294"
       gridpoint6="67.581678,21.992267"
       gridpoint7="196.26033,21.992267"
       gridpoint8x9="132.01368,4.5938294"
       gridpoint10x11="132.01368,21.992267"
       gridpoint12="3.2423487,8.9434388"
       gridpoint13="260.59966,8.9434388"
       gridpoint14="3.2423487,17.642658"
       gridpoint15="260.59966,17.642658"
       gridpoint16="67.581678,8.9434388"
       gridpoint17="196.26033,8.9434388"
       gridpoint18="67.581678,17.642658"
       gridpoint19="196.26033,17.642658"
       gridpoint20x21="132.01368,8.9434388"
       gridpoint22x23="132.01368,17.642658"
       gridpoint24x26="3.2423487,13.293048"
       gridpoint25x27="260.59966,13.293048"
       gridpoint28x30="67.581678,13.293048"
       gridpoint29x31="196.26033,13.293048"
       gridpoint32x33x34x35="132.01368,13.293048"
       id="path-effect16657"
       is_visible="true"
       lpeversion="1"
       horizontal_mirror="false"
       vertical_mirror="true"
       perimetral="false"
       live_update="true" /><inkscape:path-effect
       effect="fill_between_many"
       id="path-effect5345"
       is_visible="true"
       lpeversion="1.2"
       linkedpaths=""
       method="bsplinespiro"
       join="true"
       close="true"
       autoreverse="true" /><inkscape:path-effect
       effect="lattice2"
       gridpoint0="3.3886719,18.449219"
       gridpoint1="236.36719,18.449219"
       gridpoint2="6.8881399,29.942704"
       gridpoint3="232.86772,29.942704"
       gridpoint4="61.633301,18.449219"
       gridpoint5="178.12256,18.449219"
       gridpoint6="61.679571,29.942704"
       gridpoint7="178.07629,29.942704"
       gridpoint8x9="119.87793,18.449219"
       gridpoint10x11="119.87793,29.942704"
       gridpoint12="3.3886719,21.32259"
       gridpoint13="236.36719,21.32259"
       gridpoint14="3.3886719,27.069333"
       gridpoint15="236.36719,27.069333"
       gridpoint16="61.633301,21.32259"
       gridpoint17="178.12256,21.32259"
       gridpoint18="61.633301,27.069333"
       gridpoint19="178.12256,27.069333"
       gridpoint20x21="119.87793,21.32259"
       gridpoint22x23="119.87793,27.069333"
       gridpoint24x26="3.3886719,24.195961"
       gridpoint25x27="236.36719,24.195961"
       gridpoint28x30="61.633301,24.195961"
       gridpoint29x31="178.12256,24.195961"
       gridpoint32x33x34x35="119.87793,24.195961"
       id="path-effect5341"
       is_visible="true"
       lpeversion="1"
       horizontal_mirror="false"
       vertical_mirror="true"
       perimetral="true"
       live_update="true" /><inkscape:path-effect
       effect="lattice2"
       gridpoint0="1.6602116,18.46112"
       gridpoint1="238.09565,18.46112"
       gridpoint2="7.0265639,29.942704"
       gridpoint3="232.7293,29.942704"
       gridpoint4="61.633301,18.449219"
       gridpoint5="178.12256,18.449219"
       gridpoint6="61.633301,29.942704"
       gridpoint7="178.12256,29.942704"
       gridpoint8x9="119.87793,18.449219"
       gridpoint10x11="119.87793,29.942704"
       gridpoint12="3.3886719,21.32259"
       gridpoint13="236.36719,21.32259"
       gridpoint14="3.3886719,27.069333"
       gridpoint15="236.36719,27.069333"
       gridpoint16="61.633301,21.32259"
       gridpoint17="178.12256,21.32259"
       gridpoint18="61.633301,27.069333"
       gridpoint19="178.12256,27.069333"
       gridpoint20x21="119.87793,21.32259"
       gridpoint22x23="119.87793,27.069333"
       gridpoint24x26="3.3886719,24.195961"
       gridpoint25x27="236.36719,24.195961"
       gridpoint28x30="61.633301,24.195961"
       gridpoint29x31="178.12256,24.195961"
       gridpoint32x33x34x35="119.87793,24.195961"
       id="path-effect5320"
       is_visible="true"
       lpeversion="1"
       horizontal_mirror="false"
       vertical_mirror="true"
       perimetral="false"
       live_update="true" /><inkscape:path-effect
       effect="lattice2"
       gridpoint0="9.9222614,4.8007814"
       gridpoint1="229.8336,4.8007814"
       gridpoint2="3.3886719,22.199219"
       gridpoint3="236.36719,22.199219"
       gridpoint4="61.633301,4.8007812"
       gridpoint5="178.12256,4.8007812"
       gridpoint6="61.633301,22.199219"
       gridpoint7="178.12256,22.199219"
       gridpoint8x9="119.87793,4.8007812"
       gridpoint10x11="119.87793,22.199219"
       gridpoint12="3.3886719,9.1503907"
       gridpoint13="236.36719,9.1503907"
       gridpoint14="3.3886719,17.84961"
       gridpoint15="236.36719,17.84961"
       gridpoint16="61.633301,9.1503907"
       gridpoint17="178.12256,9.1503907"
       gridpoint18="61.633301,17.84961"
       gridpoint19="178.12256,17.84961"
       gridpoint20x21="119.87793,9.1503907"
       gridpoint22x23="119.87793,17.84961"
       gridpoint24x26="3.3886719,13.5"
       gridpoint25x27="236.36719,13.5"
       gridpoint28x30="61.633301,13.5"
       gridpoint29x31="178.12256,13.5"
       gridpoint32x33x34x35="119.87793,13.5"
       id="path-effect4404"
       is_visible="false"
       lpeversion="1"
       horizontal_mirror="false"
       vertical_mirror="true"
       perimetral="false"
       live_update="true" /><inkscape:path-effect
       effect="lattice2"
       gridpoint0="3.3886719,22.199219"
       gridpoint1="17.022497,22.199219"
       gridpoint2="5.4983233,29.199219"
       gridpoint3="17.775238,29.199219"
       gridpoint4="6.6397969,22.199219"
       gridpoint5="13.142047,22.199219"
       gridpoint6="6.6397969,29.199219"
       gridpoint7="13.142047,29.199219"
       gridpoint8x9="9.8909219,22.199219"
       gridpoint10x11="9.8909219,29.199219"
       gridpoint12="3.3886719,23.949219"
       gridpoint13="16.393172,23.949219"
       gridpoint14="3.3886719,27.449219"
       gridpoint15="16.393172,27.449219"
       gridpoint16="6.6397969,23.949219"
       gridpoint17="13.142047,23.949219"
       gridpoint18="6.6397969,27.449219"
       gridpoint19="13.142047,27.449219"
       gridpoint20x21="9.8909219,23.949219"
       gridpoint22x23="9.8909219,27.449219"
       gridpoint24x26="3.3886719,25.699219"
       gridpoint25x27="16.393172,25.699219"
       gridpoint28x30="6.6397969,25.699219"
       gridpoint29x31="13.142047,25.699219"
       gridpoint32x33x34x35="9.8909219,25.699219"
       id="path-effect4368"
       is_visible="true"
       lpeversion="1"
       horizontal_mirror="false"
       vertical_mirror="false"
       perimetral="false"
       live_update="true" /><inkscape:path-effect
       effect="lattice2"
       gridpoint0="3.3886719,18.863281"
       gridpoint1="16.388672,18.863281"
       gridpoint2="3.3886719,29.199219"
       gridpoint3="16.388672,29.199219"
       gridpoint4="6.6386719,18.863281"
       gridpoint5="13.138672,18.863281"
       gridpoint6="6.6386719,29.199219"
       gridpoint7="13.138672,29.199219"
       gridpoint8x9="9.8886719,18.863281"
       gridpoint10x11="9.8886719,29.199219"
       gridpoint12="3.3886719,21.447266"
       gridpoint13="16.388672,21.447266"
       gridpoint14="3.3886719,26.615234"
       gridpoint15="16.388672,26.615234"
       gridpoint16="6.6386719,21.447266"
       gridpoint17="13.138672,21.447266"
       gridpoint18="6.6386719,26.615234"
       gridpoint19="13.138672,26.615234"
       gridpoint20x21="9.8886719,21.447266"
       gridpoint22x23="9.8886719,26.615234"
       gridpoint24x26="3.3886719,24.03125"
       gridpoint25x27="16.388672,24.03125"
       gridpoint28x30="6.6386719,24.03125"
       gridpoint29x31="13.138672,24.03125"
       gridpoint32x33x34x35="9.8886719,24.03125"
       id="path-effect2833"
       is_visible="true"
       lpeversion="1"
       horizontal_mirror="false"
       vertical_mirror="false"
       perimetral="false"
       live_update="true" /><inkscape:path-effect
       effect="lattice2"
       gridpoint0="9.9222614,4.8007814"
       gridpoint1="229.8336,4.8007814"
       gridpoint2="3.3886719,22.199219"
       gridpoint3="236.36719,22.199219"
       gridpoint4="61.633301,4.8007812"
       gridpoint5="178.12256,4.8007812"
       gridpoint6="61.633301,22.199219"
       gridpoint7="178.12256,22.199219"
       gridpoint8x9="119.87793,4.8007812"
       gridpoint10x11="119.87793,22.199219"
       gridpoint12="3.3886719,9.1503907"
       gridpoint13="236.36719,9.1503907"
       gridpoint14="3.3886719,17.84961"
       gridpoint15="236.36719,17.84961"
       gridpoint16="61.633301,9.1503907"
       gridpoint17="178.12256,9.1503907"
       gridpoint18="61.633301,17.84961"
       gridpoint19="178.12256,17.84961"
       gridpoint20x21="119.87793,9.1503907"
       gridpoint22x23="119.87793,17.84961"
       gridpoint24x26="3.3886719,13.5"
       gridpoint25x27="236.36719,13.5"
       gridpoint28x30="61.633301,13.5"
       gridpoint29x31="178.12256,13.5"
       gridpoint32x33x34x35="119.87793,13.5"
       id="path-effect2831"
       is_visible="false"
       lpeversion="1"
       horizontal_mirror="false"
       vertical_mirror="true"
       perimetral="false"
       live_update="true" /><inkscape:path-effect
       gridpoint32x33x34x35="119.87785,13.5"
       gridpoint29x31="177.62211,13.5"
       gridpoint28x30="62.133591,13.5"
       gridpoint25x27="235.36637,13.5"
       gridpoint24x26="4.389331,13.5"
       gridpoint22x23="119.87785,17.35"
       gridpoint20x21="119.87785,9.65"
       gridpoint19="177.62211,17.35"
       gridpoint18="62.133591,17.35"
       gridpoint17="177.62211,9.65"
       gridpoint16="62.133591,9.65"
       gridpoint15="235.36637,17.35"
       gridpoint14="4.389331,17.35"
       gridpoint13="235.36637,9.65"
       gridpoint12="4.389331,9.65"
       gridpoint10x11="119.87785,21.2"
       gridpoint8x9="119.87785,5.8"
       gridpoint7="177.62211,21.2"
       gridpoint6="62.133591,21.2"
       gridpoint5="177.62211,5.8"
       gridpoint4="62.133591,5.8"
       gridpoint3="235.36637,21.2"
       gridpoint2="4.389331,21.2"
       gridpoint1="230.5312,5.8"
       gridpoint0="9.1375558,5.8"
       effect="lattice2"
       id="path-effect26620"
       is_visible="false"
       lpeversion="1"
       horizontal_mirror="false"
       vertical_mirror="false"
       perimetral="false"
       live_update="true" /><inkscape:path-effect
       gridpoint32x33x34x35="119.87785,13.5"
       gridpoint29x31="177.62211,13.5"
       gridpoint28x30="62.133591,13.5"
       gridpoint25x27="235.36637,13.5"
       gridpoint24x26="4.389331,13.5"
       gridpoint22x23="119.87785,17.35"
       gridpoint20x21="119.87785,9.65"
       gridpoint19="177.62211,17.35"
       gridpoint18="62.133591,17.35"
       gridpoint17="177.62211,9.65"
       gridpoint16="62.133591,9.65"
       gridpoint15="235.36637,17.35"
       gridpoint14="4.389331,17.35"
       gridpoint13="235.36637,9.65"
       gridpoint12="4.389331,9.65"
       gridpoint10x11="119.87785,21.2"
       gridpoint8x9="119.87785,5.8"
       gridpoint7="177.62211,21.2"
       gridpoint6="62.133591,21.2"
       gridpoint5="177.62211,5.8"
       gridpoint4="62.133591,5.8"
       gridpoint3="235.36637,21.2"
       gridpoint2="4.389331,21.2"
       gridpoint1="230.5312,5.8"
       gridpoint0="9.1375558,5.8"
       effect="lattice2"
       id="path-effect26552"
       is_visible="true"
       lpeversion="1"
       horizontal_mirror="false"
       vertical_mirror="false"
       perimetral="false"
       live_update="true" /><inkscape:path-effect
       gridpoint32x33x34x35="120.40733,13.5"
       gridpoint29x31="183.55451,13.5"
       gridpoint28x30="57.260152,13.5"
       gridpoint25x27="246.70169,13.5"
       gridpoint24x26="-5.887027,13.5"
       gridpoint22x23="120.40733,17.35"
       gridpoint20x21="120.40733,9.65"
       gridpoint19="183.55451,17.35"
       gridpoint18="57.260152,17.35"
       gridpoint17="183.55451,9.65"
       gridpoint16="57.260152,9.65"
       gridpoint15="246.70169,17.35"
       gridpoint14="-5.887027,17.35"
       gridpoint13="246.70169,9.65"
       gridpoint12="-5.887027,9.65"
       gridpoint10x11="120.40733,21.2"
       gridpoint8x9="120.40733,5.8"
       gridpoint7="183.55451,21.2"
       gridpoint6="57.260152,21.2"
       gridpoint5="183.55451,5.8"
       gridpoint4="57.260152,5.8"
       gridpoint3="246.70169,21.2"
       gridpoint2="-5.887027,21.2"
       gridpoint1="241.88874,5.8"
       gridpoint0="-0.87491929,5.8"
       effect="lattice2"
       id="path-effect26135"
       is_visible="true"
       lpeversion="1"
       horizontal_mirror="false"
       vertical_mirror="false"
       perimetral="false"
       live_update="true" /><linearGradient
       inkscape:collect="always"
       xlink:href="#linearGradient20555"
       id="linearGradient20557"
       x1="132.94937"
       y1="4.8007808"
       x2="132.94937"
       y2="22.202068"
       gradientUnits="userSpaceOnUse"
       gradientTransform="translate(-1.2375994,-2.1414166)" /><linearGradient
       inkscape:collect="always"
       xlink:href="#linearGradient20627"
       id="linearGradient20629"
       x1="108.08068"
       y1="15.430101"
       x2="108.08068"
       y2="28.278021"
       gradientUnits="userSpaceOnUse"
       gradientTransform="translate(-1.2375994,-2.1414166)" /></defs><sodipodi:namedview
     id="namedview4"
     pagecolor="#505050"
     bordercolor="#eeeeee"
     borderopacity="1"
     inkscape:showpageshadow="0"
     inkscape:pageopacity="0"
     inkscape:pagecheckerboard="0"
     inkscape:deskcolor="#505050"
     showgrid="true"
     inkscape:zoom="2"
     inkscape:cx="535.5"
     inkscape:cy="26.5"
     inkscape:window-width="3718"
     inkscape:window-height="1440"
     inkscape:window-x="58"
     inkscape:window-y="0"
     inkscape:window-maximized="0"
     inkscape:current-layer="svg2"><inkscape:grid
       type="xygrid"
       id="grid856"
       snapvisiblegridlinesonly="false"
       enabled="false"
       originx="0"
       originy="0" /></sodipodi:namedview><path
     id="path16763"
     style="fill:#171938;fill-opacity:1;stroke:none;stroke-width:1px;stroke-linecap:butt;stroke-linejoin:miter;stroke-opacity:1"
     d="m 127,1 0,19 1,8 h 27 l 4,-4 1,4 h 11 l 2,-7 2,7 h 8 l 2,-6 2,6 h 11 l 2,-4 3,4 h 8 l 3,-2 1,2 h 16 l 6,-8 -8,-19 -16,0 -1,2 -3,-2 h -8 l -3,4 -1,-4 h -40 l -1,3 -3,-3 z M 0,20 6,28 H 17 l 3,-4 2,4 h 32 l 1,-4 5,4 h 8 l 4,-5 5,5 h 8 l 3,-4 1,4 30,4e-6 1,-8 -0,-15 -4,-5 h -8 l -4,4 -0,9 -6,0 L 96,1 H 72 L 71,6 67,1 h -8 l -5,4 -3,-4 H 43 L 38,5 35,1 h -12 l -1,4 -3,-4 H 8 Z"
     inkscape:label="Outline"
     sodipodi:nodetypes="cccccccccccccccccccccccccccccccccccccccccccccccccccccccccccccccccccc" /><path
     style="color:#000000;display:inline;fill:url(#linearGradient20629);fill-opacity:1;stroke:none;stroke-width:4;-inkscape-stroke:none;paint-order:stroke markers fill"
     d="m 223,20 -4,6 h 4 l 4,-6 m -22,-3 -2,6 2,3 h 6 l 4,-3 3,-6 m -24,3 -3,6 h 7 l 4,-6 m -21,0 -2,6 h 4 l 3,-6 m -21,0 -1,6 h 7 l 2,-6 m -26,0 -0,6 h 8 l 3,-3 1,-6 m -30,3 0,6 h 11 l 1,-6 m -56,0 2,6 h 10 l -0,-6 m -28,-3 2,6 3,3 h 6 l 3,-3 -1,-6 m -30,0 3,6 3,3 h 6 l 3,-3 -1,-6 m -65,4 5,6 h 9 l 2,-3 -2,-6 m 220,3 -5,6 h -4 l 3,-5 -4,-3 -3,-9 6,5 2,6 z m -120,-2e-6 -1,6 -4,7e-5 0,-5 -4,3e-4 -0,5 -4,0 -1,-6 h 4 l 0,-6 h 5 l -0,6 z m -67,2e-6 2,6 H 47 l -2,-5 h -4 l 2,5 h -4 l -4,-6 h 4 l 2,-6 h 5 l -2,6 z m -17,0 2,6 H 31 L 29,23 26,21 h -2 l 2,5 h -4 l -4,-6 h 4 l 2,-6 h 2 l 2,3 -1,3 z"
     id="path16745"
     sodipodi:nodetypes="cccccccccccccccccccccccccccccccccccccccccccccccccccccccccccccccccccccccccccccccccccccccccccccccccccccc"
     inkscape:label="Drop Shadow" /><path
     style="color:#000000;display:inline;fill:url(#linearGradient20557);fill-opacity:1;stroke-width:4;-inkscape-stroke:none;paint-order:stroke markers fill"
     d="m 44,3 c -1,1 -4,3 -4,3 -1,5 -4,14 -4,14 1,0 4,0 4,0 1,-2 2,-6 2,-6 2,0 5,0 5,0 -0,2 -2,6 -2,6 1,0 4,0 4,0 1,-5 3,-14 3,-14 C 52,5 50,3 50,3 Z m 1,4 c 1,0 2,0 2,0 0,0 1,1 1,1 -0,1 -0,2 -0,2 -1,0 -4,0 -4,0 0,-1 1,-2 1,-2 0,-0 1,-1 1,-1 z M 25,3 c -2,6 -6,17 -6,17 1,0 4,0 4,0 1,-2 2,-6 2,-6 1,0 2,0 2,0 1,1 2,3 2,3 -0,1 -1,3 -1,3 1,0 4,0 4,0 1,-2 2,-5 2,-5 C 33,14 32,13 32,13 33,12 35,11 35,11 35,10 36,6 36,6 36,5 34,3 34,3 Z m 3,4 c 1,0 3,0 3,0 0,0 0,1 0,1 -0,1 -1,2 -1,2 -1,0 -3,0 -3,0 0,-0 1,-3 1,-3 z M 9,3 C 7,8 2,20 2,20 c 3,0 10,0 10,0 2,-1 5,-3 5,-3 C 18,13 20,6 20,6 19,5 18,3 18,3 Z m 2,4 c 1,0 3,0 3,0 0,0 1,1 1,1 -1,2 -3,7 -3,7 -0,0 -1,1 -1,1 -1,0 -3,0 -3,0 z M 60,3 C 59,4 56,6 56,6 56,10 54,17 54,17 c 1,1 3,3 3,3 2,0 6,0 6,0 2,-1 4,-4 4,-4 -1,-1 -2,-3 -2,-3 -1,1 -3,3 -3,3 -1,0 -2,0 -2,0 -0,-0 -1,-1 -1,-1 0,-2 1,-7 1,-7 0,-0 1,-1 1,-1 1,0 2,0 2,0 1,1 2,3 2,3 1,-1 3,-3 3,-3 -1,-1 -3,-4 -3,-4 z m 13,0 c -1,5 -2,14 -2,14 1,1 3,3 3,3 2,0 6,0 6,0 1,-1 4,-3 4,-3 1,-5 2,-14 2,-14 -1,0 -4,0 -4,0 -1,4 -2,12 -2,12 -0,0 -1,1 -1,1 -1,0 -2,0 -2,0 -0,-0 -1,-1 -1,-1 1,-4 2,-12 2,-12 z m 16,0 c -1,6 -2,17 -2,17 4,0 12,0 12,0 0,-1 0,-4 0,-4 -3,0 -8,0 -8,0 0,-4 1,-13 1,-13 z m 18,0 c -1,1 -3,3 -3,3 -0,5 -1,14 -1,14 1,0 4,0 4,0 0,-2 0,-6 0,-6 2,0 5,0 5,0 -0,2 -0,6 -0,6 1,0 4,0 4,0 0,-5 0,-14 0,-14 -1,-1 -3,-3 -3,-3 z m 2,4 c 1,0 2,0 2,0 0,0 1,1 1,1 -0,1 -0,2 -0,2 -1,0 -4,0 -4,0 0,-1 0,-2 0,-2 0,-0 1,-1 1,-1 z m 20,-4 c 0,6 1,17 1,17 4,0 13,0 13,0 -0,-1 -0,-4 -0,-4 -3,0 -9,0 -9,0 -0,-1 -0,-2 -0,-2 1,0 5,0 5,0 -0,-1 -0,-4 -0,-4 -1,0 -5,0 -5,0 -0,-1 -0,-3 -0,-3 2,0 9,0 9,0 -0,-1 -0,-4 -0,-4 z m 16,0 c 1,6 2,17 2,17 3,0 10,0 10,0 1,-1 3,-3 3,-3 C 159,13 158,6 158,6 157,5 155,3 155,3 Z m 4,4 c 1,0 3,0 3,0 0,0 1,1 1,1 0,2 1,7 1,7 -0,0 -1,1 -1,1 -1,0 -3,0 -3,0 -0,-0 -1,-9 -1,-9 z m 12,-4 c 0,1 1,4 1,4 1,0 2,0 2,0 0,3 1,9 1,9 -1,0 -2,0 -2,0 0,1 1,4 1,4 3,0 9,0 9,0 -0,-1 -1,-4 -1,-4 -1,0 -2,0 -2,0 -1,-3 -2,-9 -2,-9 1,0 2,0 2,0 -0,-1 -1,-4 -1,-4 z m 12,0 c 0,1 1,4 1,4 1,0 4,0 4,0 1,4 3,13 3,13 1,0 4,0 4,0 -1,-4 -3,-13 -3,-13 1,0 4,0 4,0 -0,-1 -1,-4 -1,-4 z m 16,0 c 0,1 1,4 1,4 1,0 2,0 2,0 1,3 2,9 2,9 -1,0 -2,0 -2,0 0,1 1,4 1,4 3,0 9,0 9,0 -0,-1 -1,-4 -1,-4 -1,0 -2,0 -2,0 -1,-3 -2,-9 -2,-9 1,0 2,0 2,0 -0,-1 -1,-4 -1,-4 z m 15,0 c -1,1 -2,3 -2,3 1,4 3,11 3,11 1,1 4,3 4,3 2,0 6,0 6,0 1,-1 2,-3 2,-3 -1,-4 -4,-11 -4,-11 -1,-1 -4,-3 -4,-3 z m 3,4 c 1,0 2,0 2,0 0,0 1,1 1,1 1,2 2,7 2,7 -0,0 -1,1 -1,1 -1,0 -2,0 -2,0 -0,-0 -1,-1 -1,-1 -1,-2 -2,-7 -2,-7 0,-0 0,-1 1,-1 z m 10,-4 c 2,6 6,17 6,17 1,0 4,0 4,0 -1,-3 -4,-10 -4,-10 2,2 6,5 6,5 1,2 2,6 2,6 1,0 4,0 4,0 -2,-6 -7,-17 -7,-17 -1,0 -4,0 -4,0 1,2 2,6 2,6 -3,-2 -8,-6 -8,-6 z"
     id="path16751"
     sodipodi:nodetypes="ccccccccccccccccccccccccccccccccccccccccccccccccccccccccccccccccccccccccccccccccccccccccccccccccccccscccccsscccccccccccccccccccccccccccccccccccccccccccccccccccccccccccccccccccccccccccccccccccccccccccc" /></svg>
