<?xml version="1.0" encoding="UTF-8" standalone="no"?>
<!-- Created with Inkscape (http://www.inkscape.org/) -->

<svg
   version="1.1"
   id="svg2"
   width="100"
   height="100"
   viewBox="0 0 100 100"
   sodipodi:docname="crafting_overlay.svg"
   xml:space="preserve"
   inkscape:export-filename="crafting_overlay.png"
   inkscape:export-xdpi="96"
   inkscape:export-ydpi="96"
   inkscape:version="1.3.1 (91b66b0783, 2023-11-16, custom)"
   xmlns:inkscape="http://www.inkscape.org/namespaces/inkscape"
   xmlns:sodipodi="http://sodipodi.sourceforge.net/DTD/sodipodi-0.dtd"
   xmlns="http://www.w3.org/2000/svg"
   xmlns:svg="http://www.w3.org/2000/svg"><defs
     id="defs6" /><sodipodi:namedview
     id="namedview4"
     pagecolor="#505050"
     bordercolor="#eeeeee"
     borderopacity="1"
     inkscape:showpageshadow="0"
     inkscape:pageopacity="0"
     inkscape:pagecheckerboard="0"
     inkscape:deskcolor="#505050"
     showgrid="true"
     inkscape:zoom="7.375"
     inkscape:cx="79.186441"
     inkscape:cy="60.474576"
     inkscape:window-width="3470"
     inkscape:window-height="1440"
     inkscape:window-x="0"
     inkscape:window-y="0"
     inkscape:window-maximized="0"
     inkscape:current-layer="svg2"><inkscape:grid
       type="xygrid"
       id="grid570"
       snapvisiblegridlinesonly="true"
       originx="0"
       originy="0"
       spacingy="1"
       spacingx="1"
       units="px"
       visible="true"
       empspacing="4" /></sodipodi:namedview><g
     id="g66-2-6"
     inkscape:label="Crafting"
     transform="translate(2,-238)"
     style="display:inline"><rect
       style="display:inline;fill:#3a3f63;fill-opacity:1;fill-rule:evenodd;stroke-width:2;stroke-linecap:square;stroke-linejoin:round;stroke-miterlimit:0"
       id="rect65-9-2"
       width="96"
       height="96"
       x="0"
       y="240"
       rx="18"
       ry="18"
       inkscape:label="Outline" /><path
       id="rect66-1-6"
       style="display:inline;fill:#1e1f29;fill-opacity:1;fill-rule:evenodd;stroke-width:2;stroke-linecap:square;stroke-linejoin:round;stroke-miterlimit:0"
       inkscape:label="Fill"
       d="m 20,246 c -8,0 -14,6 -14,14 v 12 h 26 v -26 z m 16,0 v 26 h 24 v -26 z m 28,0 v 26 h 26 v -12 c 0,-8 -6,-14 -14,-14 z M 6,276 v 24 h 26 v -24 z m 30,0 v 24 h 24 v -24 z m 28,0 v 24 H 90 V 276 Z M 6,304 v 12 c 0,8 6,14 14,14 h 12 v -26 z m 30,0 v 26 h 24 v -26 z m 28,0 v 26 h 12 c 8,0 14,-6 14,-14 v -12 z" /></g></svg>
