<?xml version="1.0" encoding="UTF-8" standalone="no"?>
<!-- Created with Inkscape (http://www.inkscape.org/) -->

<svg
   version="1.1"
   id="svg2"
   width="100"
   height="100"
   viewBox="0 0 100 100"
   sodipodi:docname="crafting_overlay.svg"
   xml:space="preserve"
   inkscape:export-filename="crafting_overlay.png"
   inkscape:export-xdpi="96"
   inkscape:export-ydpi="96"
   inkscape:version="1.3 (0e150ed6c4, 2023-07-21)"
   xmlns:inkscape="http://www.inkscape.org/namespaces/inkscape"
   xmlns:sodipodi="http://sodipodi.sourceforge.net/DTD/sodipodi-0.dtd"
   xmlns="http://www.w3.org/2000/svg"
   xmlns:svg="http://www.w3.org/2000/svg"><defs
     id="defs6" /><sodipodi:namedview
     id="namedview4"
     pagecolor="#505050"
     bordercolor="#eeeeee"
     borderopacity="1"
     inkscape:showpageshadow="0"
     inkscape:pageopacity="0"
     inkscape:pagecheckerboard="0"
     inkscape:deskcolor="#505050"
     showgrid="true"
     inkscape:zoom="7.375"
     inkscape:cx="79.118644"
     inkscape:cy="60.40678"
     inkscape:window-width="3470"
     inkscape:window-height="1440"
     inkscape:window-x="0"
     inkscape:window-y="0"
     inkscape:window-maximized="0"
     inkscape:current-layer="svg2"><inkscape:grid
       type="xygrid"
       id="grid570"
       snapvisiblegridlinesonly="true"
       originx="0"
       originy="0"
       spacingy="1"
       spacingx="1"
       units="px"
       visible="true"
       empspacing="4" /></sodipodi:namedview><path
     id="path31821-3-1-3-2-9"
     style="display:inline;fill:#3a3f63;fill-opacity:1;stroke:none;stroke-width:0;stroke-linecap:butt;stroke-linejoin:miter;stroke-miterlimit:4;stroke-dasharray:none;stroke-opacity:1"
     d="M 20,98 C 9,98 2,91 2,80 V 20 C 2,9 9,2 20,2 h 60 c 11,0 18,7 18,18 v 60 0 0 c 0,11 -7,18 -18,18 z"
     inkscape:label="Outline Selected"
     sodipodi:nodetypes="ssssssccsss" /><path
     id="path1"
     style="display:inline;fill:#1e1f29;fill-opacity:1;fill-rule:nonzero;stroke:none;stroke-width:0;stroke-linecap:butt;stroke-linejoin:miter;stroke-miterlimit:4;stroke-dasharray:none;stroke-opacity:1"
     inkscape:label="Fill Selected"
     d="M 25 8 C 14.000011 8 8 14.000011 8 25 L 8 34 L 34 34 L 34 8 L 25 8 z M 38 8 L 38 34 L 62 34 L 62 8 L 38 8 z M 66 8 L 66 34 L 92 34 L 92 25 C 92 14.000011 85.999989 8 75 8 L 66 8 z M 8 38 L 8 62 L 34 62 L 34 38 L 8 38 z M 38 38 L 38 62 L 62 62 L 62 38 L 38 38 z M 66 38 L 66 62 L 92 62 L 92 38 L 66 38 z M 8 66 L 8 75 C 8 85.999989 14.000011 92 25 92 L 34 92 L 34 66 L 8 66 z M 38 66 L 38 92 L 62 92 L 62 66 L 38 66 z M 66 66 L 66 92 L 75 92 C 85.999989 92 92 85.999989 92 75 L 92 66 L 66 66 z " /></svg>
