<?xml version="1.0" encoding="UTF-8" standalone="no"?>
<!-- Created with Inkscape (http://www.inkscape.org/) -->

<svg
   version="1.1"
   id="svg2"
   width="100"
   height="100"
   viewBox="0 0 100 100"
   sodipodi:docname="crafting_overlay_disabled.svg"
   xml:space="preserve"
   inkscape:export-filename="crafting_overlay_disabled_highlighted.png"
   inkscape:export-xdpi="96"
   inkscape:export-ydpi="96"
   inkscape:version="1.3.1 (91b66b0783, 2023-11-16, custom)"
   xmlns:inkscape="http://www.inkscape.org/namespaces/inkscape"
   xmlns:sodipodi="http://sodipodi.sourceforge.net/DTD/sodipodi-0.dtd"
   xmlns="http://www.w3.org/2000/svg"
   xmlns:svg="http://www.w3.org/2000/svg"><defs
     id="defs6" /><sodipodi:namedview
     id="namedview4"
     pagecolor="#505050"
     bordercolor="#eeeeee"
     borderopacity="1"
     inkscape:showpageshadow="0"
     inkscape:pageopacity="0"
     inkscape:pagecheckerboard="0"
     inkscape:deskcolor="#505050"
     showgrid="true"
     inkscape:zoom="7.375"
     inkscape:cx="64.40678"
     inkscape:cy="58.305085"
     inkscape:window-width="3470"
     inkscape:window-height="1440"
     inkscape:window-x="0"
     inkscape:window-y="0"
     inkscape:window-maximized="0"
     inkscape:current-layer="svg2"><inkscape:grid
       type="xygrid"
       id="grid570"
       snapvisiblegridlinesonly="true"
       originx="0"
       originy="0"
       spacingy="1"
       spacingx="1"
       units="px"
       visible="true"
       empspacing="4" /></sodipodi:namedview><path
     id="rect66-5-7-8"
     style="display:inline;fill:#17181c;fill-opacity:1;fill-rule:evenodd;stroke-width:2;stroke-linecap:square;stroke-linejoin:round;stroke-miterlimit:0"
     inkscape:label="Crafting Disabled"
     d="M 22,8 C 14.24401,8 8,14.24401 8,22 V 34 H 34 V 8 Z M 38,8 V 34 H 62 V 8 Z M 66,8 V 34 H 92 V 22 C 92,14.24401 85.75599,8 78,8 Z M 8,38 V 62 H 34 V 38 Z m 30,0 V 62 H 62 V 38 Z m 28,0 V 62 H 92 V 38 Z M 8,66 v 12 c 0,7.75599 6.24401,14 14,14 H 34 V 66 Z m 30,0 V 92 H 62 V 66 Z m 28,0 v 26 h 12 c 7.75599,0 14,-6.24401 14,-14 V 66 Z" /></svg>
