<svg xmlns="http://www.w3.org/2000/svg" xmlns:svg="http://www.w3.org/2000/svg" id="svg2" width="100" height="100" version="1.1" viewBox="0 0 100 100" xml:space="preserve"><path id="rect66-5-7-8" style="display:inline;fill:#17181c;fill-opacity:1;fill-rule:evenodd;stroke-width:2;stroke-linecap:square;stroke-linejoin:round;stroke-miterlimit:0" d="M 22,8 C 14.24401,8 8,14.24401 8,22 V 34 H 34 V 8 Z M 38,8 V 34 H 62 V 8 Z M 66,8 V 34 H 92 V 22 C 92,14.24401 85.75599,8 78,8 Z M 8,38 V 62 H 34 V 38 Z m 30,0 V 62 H 62 V 38 Z m 28,0 V 62 H 92 V 38 Z M 8,66 v 12 c 0,7.75599 6.24401,14 14,14 H 34 V 66 Z m 30,0 V 92 H 62 V 66 Z m 28,0 v 26 h 12 c 7.75599,0 14,-6.24401 14,-14 V 66 Z"/></svg>