<?xml version="1.0" encoding="UTF-8" standalone="no"?>
<!-- Created with Inkscape (http://www.inkscape.org/) -->

<svg
   version="1.1"
   id="svg2"
   width="100"
   height="100"
   viewBox="0 0 100 100"
   sodipodi:docname="furnace_overlay_highlighted.svg"
   xml:space="preserve"
   inkscape:export-filename="furnace_overlay_highlighted.png"
   inkscape:export-xdpi="96"
   inkscape:export-ydpi="96"
   inkscape:version="1.3 (0e150ed6c4, 2023-07-21)"
   xmlns:inkscape="http://www.inkscape.org/namespaces/inkscape"
   xmlns:sodipodi="http://sodipodi.sourceforge.net/DTD/sodipodi-0.dtd"
   xmlns="http://www.w3.org/2000/svg"
   xmlns:svg="http://www.w3.org/2000/svg"><defs
     id="defs6" /><sodipodi:namedview
     id="namedview4"
     pagecolor="#505050"
     bordercolor="#eeeeee"
     borderopacity="1"
     inkscape:showpageshadow="0"
     inkscape:pageopacity="0"
     inkscape:pagecheckerboard="0"
     inkscape:deskcolor="#505050"
     showgrid="true"
     inkscape:zoom="7.375"
     inkscape:cx="64.338983"
     inkscape:cy="58.237288"
     inkscape:window-width="3470"
     inkscape:window-height="1440"
     inkscape:window-x="0"
     inkscape:window-y="0"
     inkscape:window-maximized="0"
     inkscape:current-layer="svg2"><inkscape:grid
       type="xygrid"
       id="grid570"
       snapvisiblegridlinesonly="true"
       originx="0"
       originy="0"
       spacingy="1"
       spacingx="1"
       units="px"
       visible="true"
       empspacing="4" /></sodipodi:namedview><path
     id="path16271"
     style="display:inline;fill:#7b5fa2;fill-opacity:1;stroke:none;stroke-width:0;stroke-linecap:butt;stroke-linejoin:miter;stroke-miterlimit:4;stroke-dasharray:none;stroke-opacity:1"
     d="M 20,98 C 9,98 2,91 2,80 V 20 C 2,9 9,2 20,2 h 60 c 11,0 18,7 18,18 v 60 0 0 c 0,11 -7,18 -18,18 z"
     inkscape:label="Outline Unselected"
     sodipodi:nodetypes="ssssssccsss" /><path
     id="path16088"
     style="display:inline;fill:#3a324e;fill-opacity:1;fill-rule:nonzero;stroke:none;stroke-width:0;stroke-linecap:butt;stroke-linejoin:miter;stroke-miterlimit:4;stroke-dasharray:none;stroke-opacity:1"
     d="M 92,25 V 75 C 92,86 86,92 75,92 H 25 C 14,92 8,86 8,75 V 25 C 8,14 14,8 25,8 h 50 c 11,0 17,6 17,17 z"
     inkscape:label="Fill Unselected"
     sodipodi:nodetypes="sssssssss" /></svg>
