<svg xmlns="http://www.w3.org/2000/svg" xmlns:svg="http://www.w3.org/2000/svg" id="svg2" width="100" height="100" version="1.1" viewBox="0 0 100 100" xml:space="preserve"><g id="g66-2-2-1-5" transform="translate(6,-234)" style="display:inline"><rect style="display:inline;fill:#1e1f29;fill-opacity:1;fill-rule:evenodd;stroke-width:2;stroke-linecap:square;stroke-linejoin:round;stroke-miterlimit:0" id="rect65-9-9-9-5" width="88" height="88" x="0" y="240" rx="0" ry="0"/><path id="rect32-4-4" style="display:inline;opacity:1;fill:#3a3f63;fill-rule:evenodd;stroke-width:2;stroke-linecap:square;stroke-linejoin:round;stroke-miterlimit:0" d="m 18,240 h 66 c 2,0 4,2 4,4 v 66 c 0,9.972 -8.028,18 -18,18 H 18 C 8.028,328 0,319.972 0,310 v -52 c 0,-9.972 8.028,-18 18,-18 z"/><path id="rect66-1-3-7-7" style="display:inline;fill:#1e1f29;fill-rule:evenodd;stroke-width:2;stroke-linecap:square;stroke-linejoin:round;stroke-miterlimit:0" d="m 20,246 h 34 l 28,28 v 34 c 0,7.756 -6.244,14 -14,14 H 20 C 12.244,322 6,315.756 6,308 v -48 c 0,-7.756 6.244,-14 14,-14 z"/><path style="display:inline;fill:#6272a4;fill-opacity:.999585;stroke:none;stroke-width:1px;stroke-linecap:butt;stroke-linejoin:miter;stroke-opacity:1" id="path33763-8-6" d="m 63,246 h 19 v 19 z"/></g></svg>