<?xml version="1.0" encoding="UTF-8" standalone="no"?>
<!-- Created with Inkscape (http://www.inkscape.org/) -->

<svg
   version="1.1"
   id="svg2"
   width="100"
   height="100"
   viewBox="0 0 100 100"
   sodipodi:docname="slot_meny_craftable.svg"
   xml:space="preserve"
   inkscape:export-filename="slot_many_craftable.png"
   inkscape:export-xdpi="96"
   inkscape:export-ydpi="96"
   inkscape:version="1.3 (0e150ed6c4, 2023-07-21)"
   xmlns:inkscape="http://www.inkscape.org/namespaces/inkscape"
   xmlns:sodipodi="http://sodipodi.sourceforge.net/DTD/sodipodi-0.dtd"
   xmlns="http://www.w3.org/2000/svg"
   xmlns:svg="http://www.w3.org/2000/svg"><defs
     id="defs6" /><sodipodi:namedview
     id="namedview4"
     pagecolor="#505050"
     bordercolor="#eeeeee"
     borderopacity="1"
     inkscape:showpageshadow="0"
     inkscape:pageopacity="0"
     inkscape:pagecheckerboard="0"
     inkscape:deskcolor="#505050"
     showgrid="true"
     inkscape:zoom="10.429825"
     inkscape:cx="58.917575"
     inkscape:cy="43.00168"
     inkscape:window-width="3470"
     inkscape:window-height="1440"
     inkscape:window-x="0"
     inkscape:window-y="0"
     inkscape:window-maximized="0"
     inkscape:current-layer="g30"><inkscape:grid
       type="xygrid"
       id="grid570"
       snapvisiblegridlinesonly="true"
       originx="0"
       originy="0"
       spacingy="1"
       spacingx="1"
       units="px"
       visible="true"
       empspacing="4" /></sodipodi:namedview><g
     id="g30"
     inkscape:label="Slot Many Craftable"
     style="display:inline"
     transform="translate(-606,-620)"><path
       id="rect321-8-6-5"
       style="display:inline;fill:#1e1f29;fill-rule:evenodd;stroke-width:10;stroke-linecap:round;paint-order:markers fill stroke"
       inkscape:label="Background"
       d="M 628.00735,624 H 702 v 74.02901 C 702,707.98494 693.96872,716 683.99265,716 h -55.9853 C 618.03128,716 610,707.98494 610,698.02901 V 641.97099 C 610,632.01506 618.03128,624 628.00735,624 Z"
       sodipodi:nodetypes="cccccccc" /><path
       id="path29541-3-4"
       style="display:inline;fill:#3a3f63;fill-opacity:1;stroke:none;stroke-width:0;stroke-linecap:butt;stroke-linejoin:miter;stroke-miterlimit:4;stroke-dasharray:none;stroke-opacity:1"
       d="m 630,714 c -11,0 -18,-7 -18,-18 v -52 c 0,-11 7,-18 18,-18 h 62 c 7,0 8,1 8,8 v 62 0 0 c 0,11 -7,18 -18,18 z"
       inkscape:label="Outline"
       sodipodi:nodetypes="ccccccccccc" /><path
       id="path29544-1-9-8"
       style="display:inline;fill:#1e1f29;fill-opacity:1;fill-rule:nonzero;stroke:none;stroke-width:0;stroke-linecap:butt;stroke-linejoin:miter;stroke-miterlimit:4;stroke-dasharray:none;stroke-opacity:1"
       d="m 667,632 27,27 v 32 c 0,11 -6,17 -17,17 h -42 c -11,0 -17,-6 -17,-17 v -42 c 0,-11 6,-17 17,-17 z"
       inkscape:label="Fill"
       sodipodi:nodetypes="ccccccccc" /><path
       style="display:inline;fill:#6272a4;fill-opacity:1;stroke:none;stroke-width:1px;stroke-linecap:butt;stroke-linejoin:miter;stroke-opacity:1"
       d="m 675,632 h 19 v 19 z"
       id="path33763-4"
       sodipodi:nodetypes="cccc"
       inkscape:label="Arrow" /></g></svg>
