<?xml version="1.0" encoding="UTF-8" standalone="no"?>
<!-- Created with Inkscape (http://www.inkscape.org/) -->

<svg
   version="1.1"
   id="svg2"
   width="56"
   height="56"
   viewBox="0 0 56 56"
   sodipodi:docname="invite.svg"
   xml:space="preserve"
   inkscape:version="1.3 (0e150ed6c4, 2023-07-21)"
   inkscape:export-filename="info_icon.png"
   inkscape:export-xdpi="96"
   inkscape:export-ydpi="96"
   xmlns:inkscape="http://www.inkscape.org/namespaces/inkscape"
   xmlns:sodipodi="http://sodipodi.sourceforge.net/DTD/sodipodi-0.dtd"
   xmlns="http://www.w3.org/2000/svg"
   xmlns:svg="http://www.w3.org/2000/svg"><defs
     id="defs6" /><sodipodi:namedview
     id="namedview4"
     pagecolor="#505050"
     bordercolor="#eeeeee"
     borderopacity="1"
     inkscape:showpageshadow="0"
     inkscape:pageopacity="0"
     inkscape:pagecheckerboard="0"
     inkscape:deskcolor="#505050"
     showgrid="true"
     inkscape:zoom="6.5573108"
     inkscape:cx="12.581377"
     inkscape:cy="13.420136"
     inkscape:window-width="3470"
     inkscape:window-height="1440"
     inkscape:window-x="0"
     inkscape:window-y="0"
     inkscape:window-maximized="0"
     inkscape:current-layer="svg2"><inkscape:grid
       type="xygrid"
       id="grid793"
       snapvisiblegridlinesonly="true"
       originx="0"
       originy="0"
       spacingy="1"
       spacingx="1"
       units="px"
       visible="true"
       empspacing="4" /></sodipodi:namedview><path
     id="rect2"
     style="fill:#731a3b;fill-rule:evenodd;stroke-width:2;stroke-linecap:square;stroke-linejoin:round;stroke-miterlimit:0;fill-opacity:1"
     d="m 8,0 h 40 c 4.432,0 8,3.568 8,8 v 40 c 0,4.432 -3.568,8 -8,8 H 8 C 3.568,56 0,52.432 0,48 V 8 C 0,3.568 3.568,0 8,0 Z"
     sodipodi:nodetypes="sssssssss" /><path
     id="rect1"
     style="display:inline;fill:#f8f8f2;fill-rule:evenodd;stroke-width:2;stroke-linecap:square;stroke-linejoin:round;stroke-miterlimit:0"
     d="m 12,4 h 32 c 4.432,0 8,3.568 8,8 L 34,24 v 8 L 52,20 v 24 c 0,4.432 -3.568,8 -8,8 H 12 C 7.568,52 4,48.432 4,44 V 20 L 22,32 V 24 L 4,12 C 4,7.568 7.568,4 12,4 Z"
     sodipodi:nodetypes="ssccccssssccccs" /><path
     id="rect3"
     style="display:inline;fill:#d92f55;fill-rule:evenodd;stroke-width:2;stroke-linecap:square;stroke-linejoin:round;stroke-miterlimit:0"
     d="m 22,24 h 12 v 11 c 0,2.216 -1.784,4 -4,4 h -4 c -2.216,0 -4,-1.784 -4,-4 z"
     sodipodi:nodetypes="cccsscc" /></svg>
