<?xml version="1.0" encoding="UTF-8" standalone="no"?>
<!-- Created with Inkscape (http://www.inkscape.org/) -->

<svg
   version="1.1"
   id="svg2"
   width="60"
   height="60"
   viewBox="0 0 60 60"
   sodipodi:docname="language.svg"
   xml:space="preserve"
   inkscape:export-filename="language.png"
   inkscape:export-xdpi="96"
   inkscape:export-ydpi="96"
   inkscape:version="1.3.2 (091e20ef0f, 2023-11-25)"
   xmlns:inkscape="http://www.inkscape.org/namespaces/inkscape"
   xmlns:sodipodi="http://sodipodi.sourceforge.net/DTD/sodipodi-0.dtd"
   xmlns="http://www.w3.org/2000/svg"
   xmlns:svg="http://www.w3.org/2000/svg"><defs
     id="defs6" /><sodipodi:namedview
     id="namedview4"
     pagecolor="#505050"
     bordercolor="#eeeeee"
     borderopacity="1"
     inkscape:showpageshadow="0"
     inkscape:pageopacity="0"
     inkscape:pagecheckerboard="0"
     inkscape:deskcolor="#505050"
     showgrid="true"
     inkscape:zoom="3.6875"
     inkscape:cx="121.35593"
     inkscape:cy="32.271186"
     inkscape:window-width="3470"
     inkscape:window-height="1440"
     inkscape:window-x="0"
     inkscape:window-y="0"
     inkscape:window-maximized="0"
     inkscape:current-layer="svg2"><inkscape:grid
       type="xygrid"
       id="grid570"
       snapvisiblegridlinesonly="true"
       originx="0"
       originy="0"
       spacingy="1"
       spacingx="1"
       units="px"
       visible="true"
       empspacing="4" /></sodipodi:namedview><g
     id="g1"
     inkscape:label="Globe Icon"><path
       id="path25276"
       style="display:inline;fill:#f8f8f2;stroke:none;stroke-width:1px;stroke-linecap:butt;stroke-linejoin:miter;stroke-opacity:1"
       d="m 10,4 -6,6 v 36 l 6,6 h 36 l 6,-6 V 10 L 46,4 Z m 6,2 h 22 l -6,6 h -8 l -4,4 h -8 v -6 z m 16,10 h 8 L 44,19 48,22 V 42 H 44 L 32,30 H 24 V 24 Z M 8,20 h 6 l 4,4 v 8 h -4 v 5 3 H 11 8 V 36 30 27 24 Z m 14,14 h 4 l 6,6 v 8 H 22 l -4,-4 v -4 h 4 z"
       inkscape:label="Globe"
       sodipodi:nodetypes="cccccccccccccccccccccccccccccccccccccccccccccccccc" /></g></svg>
