<svg xmlns="http://www.w3.org/2000/svg" xmlns:svg="http://www.w3.org/2000/svg" id="svg2" width="60" height="60" version="1.1" viewBox="0 0 60 60" xml:space="preserve"><g id="g1"><path id="path25276" style="display:inline;fill:#f8f8f2;stroke:none;stroke-width:1px;stroke-linecap:butt;stroke-linejoin:miter;stroke-opacity:1" d="m 10,4 -6,6 v 36 l 6,6 h 36 l 6,-6 V 10 L 46,4 Z m 6,2 h 22 l -6,6 h -8 l -4,4 h -8 v -6 z m 16,10 h 8 L 43.874986,18.906239 48,22 V 42 H 44 L 32,30 H 24 V 24 Z M 8,20 h 6 l 4,4 v 8 h -4 v 5 3 H 11 8 V 35.930612 30 26.65433 24 Z m 14,14 h 4 l 6,6 v 8 H 22 l -4,-4 v -4 h 4 z"/></g></svg>