<svg xmlns="http://www.w3.org/2000/svg" xmlns:svg="http://www.w3.org/2000/svg" xmlns:xlink="http://www.w3.org/1999/xlink" id="svg2" width="1024" height="1024" version="1.1" viewBox="0 0 1024 1024" xml:space="preserve"><defs id="defs6"><linearGradient id="linearGradient9"><stop style="stop-color:#000;stop-opacity:1" id="stop9" offset="0"/><stop style="stop-color:#000;stop-opacity:0" id="stop10" offset="1"/></linearGradient><linearGradient id="linearGradient7"><stop style="stop-color:#000;stop-opacity:1" id="stop7" offset="0"/><stop style="stop-color:#000;stop-opacity:0" id="stop8" offset="1"/></linearGradient><linearGradient id="linearGradient5"><stop style="stop-color:#000;stop-opacity:1" id="stop5" offset="0"/><stop style="stop-color:#000;stop-opacity:0" id="stop6" offset="1"/></linearGradient><linearGradient id="linearGradient3"><stop style="stop-color:#000;stop-opacity:1" id="stop3" offset="0"/><stop style="stop-color:#000;stop-opacity:0" id="stop4" offset="1"/></linearGradient><linearGradient id="linearGradient4" x1="548" x2="548" y1="308" y2="360" gradientUnits="userSpaceOnUse" xlink:href="#linearGradient3"/><linearGradient id="linearGradient6" x1="1004" x2="952" y1="564" y2="564" gradientUnits="userSpaceOnUse" xlink:href="#linearGradient5"/><linearGradient id="linearGradient8" x1="4" x2="56" y1="564" y2="564" gradientUnits="userSpaceOnUse" xlink:href="#linearGradient7"/><linearGradient id="linearGradient10" x1="528" x2="528" y1="824" y2="772" gradientUnits="userSpaceOnUse" xlink:href="#linearGradient9"/></defs><g id="g52" style="display:inline" transform="translate(-4,-308)"><g id="g10" style="display:inline" transform="translate(4,40)"><path id="path1" style="display:inline;fill:none;fill-opacity:1;stroke:url(#linearGradient6);stroke-width:40;stroke-linecap:butt;stroke-linejoin:miter;stroke-miterlimit:4;stroke-dasharray:none;stroke-opacity:1" d="M 972,340 V 792"/><path d="M 36,792 V 340" style="display:inline;fill:none;fill-opacity:1;stroke:url(#linearGradient8);stroke-width:40;stroke-linecap:butt;stroke-linejoin:miter;stroke-miterlimit:4;stroke-dasharray:none;stroke-opacity:1" id="path1-56"/><path d="M 972,792 H 36" style="display:inline;fill:none;fill-opacity:1;stroke:url(#linearGradient10);stroke-width:40;stroke-linecap:butt;stroke-linejoin:miter;stroke-miterlimit:4;stroke-dasharray:none;stroke-opacity:1" id="path1-3"/><path d="M 36,340 H 972" style="display:inline;fill:none;fill-opacity:1;stroke:url(#linearGradient4);stroke-width:40;stroke-linecap:butt;stroke-linejoin:miter;stroke-miterlimit:4;stroke-dasharray:none;stroke-opacity:1" id="path1-5"/></g><g id="g14" style="display:inline"><path id="path13" style="color:#000;fill:#282a36;-inkscape-stroke:none" d="m 19,318 -5,5 v 530 l 5,5 h 978 l 5,-5 V 323 l -5,-5 z m 13,54 H 984 V 840 H 32 Z"/><path style="color:#000;fill:#1e1f29;-inkscape-stroke:none" id="path14" d="m 18,316 -6,6 v 532 l 6,6 h 980 l 6,-6 V 322 l -6,-6 z m 2,4 h 976 l 4,4 v 528 l -4,4 H 20 l -4,-4 V 324 Z"/></g><path id="path3" style="display:inline;fill:#2e3242;fill-opacity:1;stroke:#000;stroke-width:0;stroke-linecap:butt;stroke-linejoin:miter;stroke-miterlimit:4;stroke-dasharray:none;stroke-opacity:1" d="M 28,332 V 800 H 980 V 332 Z m 8,8 H 972 V 792 H 36 Z" transform="translate(4,40)"/></g></svg>