<svg xmlns="http://www.w3.org/2000/svg" xmlns:svg="http://www.w3.org/2000/svg" xmlns:xlink="http://www.w3.org/1999/xlink" id="svg2" width="64" height="64" version="1.1" xml:space="preserve"><defs id="defs6"><radialGradient id="radialGradient3715" cx="30" cy="922" r="18" fx="30" fy="922" gradientTransform="translate(0,4)" gradientUnits="userSpaceOnUse" spreadMethod="pad" xlink:href="#linearGradient3713"/><linearGradient id="linearGradient3713"><stop style="stop-color:#00972c;stop-opacity:1" id="stop3709" offset="0"/><stop style="stop-color:#95f076;stop-opacity:1" id="stop4443" offset=".576"/><stop style="stop-color:#f5ff8f;stop-opacity:1" id="stop3711" offset="1"/></linearGradient></defs><g id="g10" style="display:inline" transform="translate(0,-892)"><path style="display:inline;fill:url(#radialGradient3715);fill-opacity:1;fill-rule:nonzero;stroke:none;stroke-width:1px;stroke-linecap:butt;stroke-linejoin:miter;stroke-opacity:1;paint-order:fill markers stroke" id="path1505" d="M 48,931 35,944 H 25 L 12,931 v -10 l 13,-13 h 10 l 13,13 z"/><path id="path6725-3-8" style="color:#000;fill:#2d2c04;-inkscape-stroke:none;paint-order:fill markers stroke" d="m 27,911 -12,12 v 6 l 12,12 h 6 l 12,-12 v -6 L 33,911 Z m 1,3 h 4 l 10,10 v 4 L 32,938 H 28 L 18,928 v -4 z"/><g id="path2" style="display:inline" transform="translate(-4)"><path style="color:#000;fill:#2d2c04;-inkscape-stroke:none;paint-order:stroke markers fill" id="path11" d="m 45,908 -7,7 v 9 h 4 v 8 h -6 v 12 h 24 v -12 h -6 v -24 0 z"/><path style="color:#000;fill:#50fa7b;-inkscape-stroke:none;paint-order:stroke markers fill" id="path12" d="m 50,912 h -3 l -5,5 v 3 h 4 v 16 h -6 v 4 h 16 v -4 h -6 z"/></g></g></svg>