<svg xmlns="http://www.w3.org/2000/svg" xmlns:svg="http://www.w3.org/2000/svg" xmlns:xlink="http://www.w3.org/1999/xlink" id="svg2" width="64" height="64" version="1.1" xml:space="preserve"><defs id="defs6"><radialGradient id="radialGradient3715-1-6" cx="33.712" cy="929.609" r="18" fx="33.712" fy="929.609" gradientTransform="rotate(-45,91.500029,777.7759)" gradientUnits="userSpaceOnUse" spreadMethod="pad" xlink:href="#linearGradient17338"/><linearGradient id="linearGradient17338"><stop style="stop-color:#00972c;stop-opacity:1" id="stop17332" offset="0"/><stop style="stop-color:#95f076;stop-opacity:1" id="stop17334" offset=".775"/><stop style="stop-color:#f5ff8f;stop-opacity:1" id="stop17336" offset="1"/></linearGradient></defs><g id="g7" transform="translate(-129,-892)" style="display:inline"><path style="display:inline;fill:url(#radialGradient3715-1-6);fill-opacity:1;fill-rule:nonzero;stroke:none;stroke-width:1px;stroke-linecap:butt;stroke-linejoin:miter;stroke-opacity:1;paint-order:fill markers stroke" id="path1505-9-6" d="m 179,918 v 18 l -11,11 h -18 l -13,-13 v -18 l 11,-11 h 18 z"/><path style="color:#000;fill:#2d2c04;-inkscape-stroke:none;paint-order:fill markers stroke" id="path11520" d="m 143,919 8,-8 h 12 l 10,10 v 12 l -8,8 h -12 l -10,-10 z m -3,-1 v 14 l 12,12 h 14 l 10,-10 v -14 l -12,-12 h -14 z"/><g id="path1483" style="display:inline" transform="translate(-2)"><path style="color:#000;fill:#2d2c04;-inkscape-stroke:none;paint-order:stroke markers fill" id="path5" d="m 166,908 -9,9 9,9 -9,9 9,9 h 14 l 7,-7 v -22 l -7,-7 z"/><path style="color:#000;fill:#50fa7b;-inkscape-stroke:none;paint-order:stroke markers fill" id="path6" d="m 163,917 3,3 4,-4 h 6 l 3,3 v 2 l -3,3 h -5 v 4 h 5 l 3,3 v 2 l -3,3 h -6 l -4,-4 -3,3 5,5 h 10 l 5,-5 v -6 l -3,-3 3,-3 v -6 l -5,-5 h -10 z"/></g></g></svg>