<svg xmlns="http://www.w3.org/2000/svg" xmlns:svg="http://www.w3.org/2000/svg" xmlns:xlink="http://www.w3.org/1999/xlink" id="svg2" width="64" height="64" version="1.1" xml:space="preserve"><defs id="defs6"><radialGradient id="radialGradient3715-1" cx="30" cy="926" r="18" fx="30" fy="926" gradientTransform="translate(64)" gradientUnits="userSpaceOnUse" spreadMethod="pad" xlink:href="#linearGradient11407"/><linearGradient id="linearGradient11407"><stop style="stop-color:#00972c;stop-opacity:1" id="stop11401" offset="0"/><stop style="stop-color:#95f076;stop-opacity:1" id="stop11403" offset=".675"/><stop style="stop-color:#f5ff8f;stop-opacity:1" id="stop11405" offset="1"/></linearGradient></defs><g id="g8" style="display:inline" transform="translate(-68,-892)"><path style="display:inline;fill:url(#radialGradient3715-1);fill-opacity:1;fill-rule:nonzero;stroke:none;stroke-width:1px;stroke-linecap:butt;stroke-linejoin:miter;stroke-opacity:1;paint-order:fill markers stroke" id="path1505-9" d="M 112,934 99,947 H 89 L 76,934 v -16 l 13,-13 h 10 l 13,13 z"/><path id="path6725-3" style="color:#000;fill:#2d2c04;-inkscape-stroke:none;paint-order:fill markers stroke" d="m 91,908 -12,12 v 12 l 12,12 h 6 l 12,-12 V 920 L 97,908 Z m 1,3 h 4 l 10,10 v 10 L 96,941 H 92 L 82,931 v -10 z"/><g id="path1" style="display:inline" transform="translate(1)"><path id="path9" style="color:#000;fill:#2d2c04;-inkscape-stroke:none;paint-order:stroke markers fill" d="m 102,908 -9,9 7,7 -5,5 v 15 h 28 v -16 h -3 l 3,-3 v -10 l -7,-7 z"/><path style="color:#000;fill:#50fa7b;-inkscape-stroke:none;paint-order:stroke markers fill" id="path10" d="m 104,912 -5,5 3,3 4,-4 h 6 l 3,3 v 2 l -3,3 h -6 l -7,7 v 9 h 20 v -8 h -4 v 4 h -12 v -3 l 5,-5 h 6 l 5,-5 v -6 l -5,-5 z"/></g></g></svg>