<?xml version="1.0" encoding="UTF-8" standalone="no"?>
<!-- Created with Inkscape (http://www.inkscape.org/) -->

<svg
   version="1.1"
   id="svg2"
   width="64"
   height="64"
   xml:space="preserve"
   inkscape:export-filename="base.svg"
   inkscape:export-xdpi="96"
   inkscape:export-ydpi="96"
   inkscape:version="1.3.1 (91b66b0783, 2023-11-16, custom)"
   sodipodi:docname="level_2.svg"
   xmlns:inkscape="http://www.inkscape.org/namespaces/inkscape"
   xmlns:sodipodi="http://sodipodi.sourceforge.net/DTD/sodipodi-0.dtd"
   xmlns:xlink="http://www.w3.org/1999/xlink"
   xmlns="http://www.w3.org/2000/svg"
   xmlns:svg="http://www.w3.org/2000/svg"><defs
   id="defs6"><radialGradient
     inkscape:collect="always"
     xlink:href="#linearGradient11407"
     id="radialGradient3715-1"
     cx="30"
     cy="926"
     fx="30"
     fy="926"
     r="18"
     gradientUnits="userSpaceOnUse"
     spreadMethod="pad"
     gradientTransform="translate(64)" /><linearGradient
     inkscape:collect="always"
     id="linearGradient11407"><stop
       style="stop-color:#00972c;stop-opacity:1;"
       offset="0"
       id="stop11401" /><stop
       style="stop-color:#95f076;stop-opacity:1;"
       offset="0.67453033"
       id="stop11403" /><stop
       style="stop-color:#f5ff8f;stop-opacity:1;"
       offset="1"
       id="stop11405" /></linearGradient></defs><sodipodi:namedview
   id="namedview4"
   pagecolor="#505050"
   bordercolor="#eeeeee"
   borderopacity="1"
   inkscape:showpageshadow="0"
   inkscape:pageopacity="0"
   inkscape:pagecheckerboard="0"
   inkscape:deskcolor="#505050"
   showgrid="true"
   inkscape:current-layer="svg2"
   inkscape:zoom="19.3125"
   inkscape:cx="32"
   inkscape:cy="32"
   inkscape:window-width="5070"
   inkscape:window-height="1440"
   inkscape:window-x="0"
   inkscape:window-y="0"
   inkscape:window-maximized="1"><inkscape:grid
     type="xygrid"
     id="Main Grid"
     originx="0"
     originy="0"
     spacingy="1"
     spacingx="1"
     units="px"
     visible="true"
     empspacing="4"
     snapvisiblegridlinesonly="true" /></sodipodi:namedview>
    
<g
   id="g8"
   inkscape:label="2"
   style="display:inline"
   transform="translate(-68,-892)"><path
     style="display:inline;fill:url(#radialGradient3715-1);fill-opacity:1;fill-rule:nonzero;stroke:none;stroke-width:1px;stroke-linecap:butt;stroke-linejoin:miter;stroke-opacity:1;paint-order:fill markers stroke"
     d="M 112,934 99,947 H 89 L 76,934 v -16 l 13,-13 h 10 l 13,13 z"
     id="path1505-9"
     inkscape:label="Fill"
     sodipodi:nodetypes="ccccccccc" /><path
     id="path6725-3"
     style="color:#000000;fill:#2d2c04;-inkscape-stroke:none;paint-order:fill markers stroke"
     d="m 91,908 -12,12 v 12 l 12,12 h 6 l 12,-12 V 920 L 97,908 Z m 1,3 h 4 l 10,10 v 10 L 96,941 H 92 L 82,931 v -10 z"
     sodipodi:nodetypes="cccccccccccccccccc"
     inkscape:label="Ring" /><g
     id="path1"
     inkscape:label="Number 2"
     style="display:inline"
     transform="translate(1)"><path
       id="path9"
       style="color:#000000;fill:#2d2c04;-inkscape-stroke:none;paint-order:stroke markers fill"
       d="m 102,908 -9,9 7,7 -5,5 v 15 h 28 v -16 h -3 l 3,-3 v -10 l -7,-7 z"
       sodipodi:nodetypes="cccccccccccc"
       inkscape:label="Outline" /><path
       style="color:#000000;fill:#50fa7b;-inkscape-stroke:none;paint-order:stroke markers fill"
       d="m 104,912 -5,5 3,3 4,-4 h 6 l 3,3 v 2 l -3,3 h -6 l -7,7 v 9 h 20 v -8 h -4 v 4 h -12 v -3 l 5,-5 h 6 l 5,-5 v -6 l -5,-5 z"
       id="path10"
       inkscape:label="Glyph" /></g></g></svg>
