<?xml version="1.0" encoding="UTF-8" standalone="no"?>
<!-- Created with Inkscape (http://www.inkscape.org/) -->

<svg
   version="1.1"
   id="svg2"
   width="64"
   height="64"
   xml:space="preserve"
   inkscape:export-filename="base.svg"
   inkscape:export-xdpi="96"
   inkscape:export-ydpi="96"
   inkscape:version="1.3.1 (91b66b0783, 2023-11-16, custom)"
   sodipodi:docname="level_3.svg"
   xmlns:inkscape="http://www.inkscape.org/namespaces/inkscape"
   xmlns:sodipodi="http://sodipodi.sourceforge.net/DTD/sodipodi-0.dtd"
   xmlns:xlink="http://www.w3.org/1999/xlink"
   xmlns="http://www.w3.org/2000/svg"
   xmlns:svg="http://www.w3.org/2000/svg"><defs
   id="defs6"><radialGradient
     inkscape:collect="always"
     xlink:href="#linearGradient17338"
     id="radialGradient3715-1-6"
     cx="33.712341"
     cy="929.60876"
     fx="33.712341"
     fy="929.60876"
     r="18"
     gradientUnits="userSpaceOnUse"
     spreadMethod="pad"
     gradientTransform="rotate(-45,91.500029,777.7759)" /><linearGradient
     inkscape:collect="always"
     id="linearGradient17338"><stop
       style="stop-color:#00972c;stop-opacity:1;"
       offset="0"
       id="stop17332" /><stop
       style="stop-color:#95f076;stop-opacity:1;"
       offset="0.77480251"
       id="stop17334" /><stop
       style="stop-color:#f5ff8f;stop-opacity:1;"
       offset="1"
       id="stop17336" /></linearGradient></defs><sodipodi:namedview
   id="namedview4"
   pagecolor="#505050"
   bordercolor="#eeeeee"
   borderopacity="1"
   inkscape:showpageshadow="0"
   inkscape:pageopacity="0"
   inkscape:pagecheckerboard="0"
   inkscape:deskcolor="#505050"
   showgrid="true"
   inkscape:current-layer="svg2"
   inkscape:zoom="13.656"
   inkscape:cx="13.766843"
   inkscape:cy="20.79672"
   inkscape:window-width="5070"
   inkscape:window-height="1440"
   inkscape:window-x="0"
   inkscape:window-y="0"
   inkscape:window-maximized="1"><inkscape:grid
     type="xygrid"
     id="Main Grid"
     originx="0"
     originy="0"
     spacingy="1"
     spacingx="1"
     units="px"
     visible="true"
     empspacing="4"
     snapvisiblegridlinesonly="true" /></sodipodi:namedview>
    
<g
   id="g7"
   inkscape:label="3"
   transform="translate(-129,-892)"
   style="display:inline"><path
     style="display:inline;fill:url(#radialGradient3715-1-6);fill-opacity:1;fill-rule:nonzero;stroke:none;stroke-width:1px;stroke-linecap:butt;stroke-linejoin:miter;stroke-opacity:1;paint-order:fill markers stroke"
     d="m 179,918 v 18 l -11,11 h -18 l -13,-13 v -18 l 11,-11 h 18 z"
     id="path1505-9-6"
     inkscape:label="Fill"
     sodipodi:nodetypes="ccccccccc" /><path
     style="color:#000000;fill:#2d2c04;-inkscape-stroke:none;paint-order:fill markers stroke"
     d="m 143,919 8,-8 h 12 l 10,10 v 12 l -8,8 h -12 l -10,-10 z m -3,-1 v 14 l 12,12 h 14 l 10,-10 v -14 l -12,-12 h -14 z"
     id="path11520"
     sodipodi:nodetypes="cccccccccccccccccc"
     inkscape:label="Ring" /><g
     id="path1483"
     inkscape:label="Number 3"
     style="display:inline"
     transform="translate(-2)"><path
       style="color:#000000;fill:#2d2c04;-inkscape-stroke:none;paint-order:stroke markers fill"
       d="m 166,908 -9,9 9,9 -9,9 9,9 h 14 l 7,-7 v -22 l -7,-7 z"
       id="path5"
       sodipodi:nodetypes="cccccccccc"
       inkscape:label="Outline" /><path
       style="color:#000000;fill:#50fa7b;-inkscape-stroke:none;paint-order:stroke markers fill"
       d="m 163,917 3,3 4,-4 h 6 l 3,3 v 2 l -3,3 h -5 v 4 h 5 l 3,3 v 2 l -3,3 h -6 l -4,-4 -3,3 5,5 h 10 l 5,-5 v -6 l -3,-3 3,-3 v -6 l -5,-5 h -10 z"
       id="path6"
       inkscape:label=" Glyph" /></g></g></svg>
