<?xml version="1.0" encoding="UTF-8" standalone="no"?>
<!-- Created with Inkscape (http://www.inkscape.org/) -->

<svg
   version="1.1"
   id="svg11273"
   width="512"
   height="512"
   viewBox="0 0 512 512"
   sodipodi:docname="bundle.svg"
   inkscape:export-filename="bundle.png"
   inkscape:export-xdpi="120"
   inkscape:export-ydpi="120"
   inkscape:version="1.3 (0e150ed6c4, 2023-07-21)"
   xml:space="preserve"
   xmlns:inkscape="http://www.inkscape.org/namespaces/inkscape"
   xmlns:sodipodi="http://sodipodi.sourceforge.net/DTD/sodipodi-0.dtd"
   xmlns="http://www.w3.org/2000/svg"
   xmlns:svg="http://www.w3.org/2000/svg"><sodipodi:namedview
     id="namedview8"
     pagecolor="#505050"
     bordercolor="#eeeeee"
     borderopacity="1"
     inkscape:pageshadow="0"
     inkscape:pageopacity="0"
     inkscape:pagecheckerboard="0"
     showgrid="true"
     inkscape:snap-grids="true"
     inkscape:snap-to-guides="true"
     showguides="true"
     inkscape:zoom="4.0000001"
     inkscape:cx="148.375"
     inkscape:cy="159.375"
     inkscape:window-width="3649"
     inkscape:window-height="1440"
     inkscape:window-x="0"
     inkscape:window-y="0"
     inkscape:window-maximized="0"
     inkscape:current-layer="svg11273"
     inkscape:snap-bbox="false"
     inkscape:showpageshadow="0"
     inkscape:deskcolor="#505050"><inkscape:grid
       type="xygrid"
       id="grid6610"
       empspacing="4"
       snapvisiblegridlinesonly="true"
       enabled="true"
       dotted="false"
       visible="true"
       originx="0"
       originy="0"
       spacingy="1"
       spacingx="1"
       units="px" /></sodipodi:namedview><defs
     id="defs11277" /><path
     d="M 64,207 V 181 C 64,170 58,164 47,164 H 21 c -11,0 -17,6 -17,17 v 26 c 0,11 6,17 17,17 h 26 c 11,0 17,-6 17,-17 z M 64,47 V 21 C 64,10 58,4 47,4 H 21 C 10,4 4,10 4,21 v 26 c 0,11 6,17 17,17 h 26 c 11,0 17,-6 17,-17 z"
     style="display:inline;fill:#1e1f29;fill-opacity:1;stroke:#000000;stroke-width:0;stroke-linecap:butt;stroke-linejoin:miter;stroke-miterlimit:4;stroke-dasharray:none;stroke-opacity:1"
     id="path1"
     sodipodi:nodetypes="ssssssssssssssssss"
     inkscape:label="Slot" /><path
     d="m 62.1888,172.00718 c -1.34179,-2.76258 -3.41529,-4.83979 -6.17427,-6.18541 L 34,188 12.02781,165.8012 c -2.79111,1.3503 -4.88447,3.4458 -6.23258,6.23897 L 28,194 5.82057,216.01207 c 1.34351,2.75594 3.4168,4.82813 6.17381,6.1705 L 34,200 55.99914,222.18573 c 2.7539,-1.3392 4.82619,-3.40603 6.17101,-6.15466 L 40,194 Z"
     style="display:inline;fill:#953333;fill-opacity:1;stroke:#000000;stroke-width:0;stroke-linecap:butt;stroke-linejoin:miter;stroke-miterlimit:4;stroke-dasharray:none;stroke-opacity:1"
     id="path1-36"
     sodipodi:nodetypes="ccccccccccccc"
     inkscape:label="Unavailible" /></svg>
