<?xml version="1.0" encoding="UTF-8" standalone="no"?>
<!-- Created with Inkscape (http://www.inkscape.org/) -->

<svg
   version="1.1"
   id="svg2"
   width="1024"
   height="1024"
   viewBox="0 0 1024 1024"
   sodipodi:docname="crafting_table.svg"
   xml:space="preserve"
   inkscape:version="1.3 (0e150ed6c4, 2023-07-21)"
   inkscape:export-filename="crafting_table.png"
   inkscape:export-xdpi="96"
   inkscape:export-ydpi="96"
   xmlns:inkscape="http://www.inkscape.org/namespaces/inkscape"
   xmlns:sodipodi="http://sodipodi.sourceforge.net/DTD/sodipodi-0.dtd"
   xmlns="http://www.w3.org/2000/svg"
   xmlns:svg="http://www.w3.org/2000/svg"><defs
     id="defs6" /><sodipodi:namedview
     id="namedview4"
     pagecolor="#505050"
     bordercolor="#eeeeee"
     borderopacity="1"
     inkscape:showpageshadow="0"
     inkscape:pageopacity="0"
     inkscape:pagecheckerboard="0"
     inkscape:deskcolor="#505050"
     showgrid="true"
     inkscape:zoom="1.3037281"
     inkscape:cx="-9.9714041"
     inkscape:cy="483.6131"
     inkscape:window-width="5070"
     inkscape:window-height="1440"
     inkscape:window-x="0"
     inkscape:window-y="0"
     inkscape:window-maximized="1"
     inkscape:current-layer="svg2"><inkscape:grid
       type="xygrid"
       id="grid2120"
       snapvisiblegridlinesonly="false"
       originx="0"
       originy="0"
       spacingy="1"
       spacingx="1"
       units="px"
       visible="true" /></sodipodi:namedview><g
     id="g1134"
     inkscape:label="Inventory"
     style="display:inline"><path
       style="display:inline;opacity:1;fill:#282a36;fill-opacity:1;stroke:#1e1f29;stroke-width:4;stroke-linecap:butt;stroke-linejoin:miter;stroke-miterlimit:4;stroke-dasharray:none;stroke-opacity:1"
       d="m 14,314 -4,4 v 332 l 4,4 h 676 l 4,-4 V 318 l -4,-4 H 398 Z"
       id="path6627-6"
       sodipodi:nodetypes="cccccccccc"
       inkscape:label="Panel" /><path
       style="display:inline;fill:#2e3242;fill-opacity:1;stroke:#000000;stroke-width:0;stroke-linecap:butt;stroke-linejoin:miter;stroke-miterlimit:4;stroke-dasharray:none;stroke-opacity:1"
       d="m 676,350 v 268 c 0,11 -7,18 -18,18 H 46 C 35,636 28,629 28,618 V 350 c 0,-11 7,-18 18,-18 h 612 c 11,0 18,7 18,18 z"
       id="path24389-0-9-3"
       sodipodi:nodetypes="ccccccccc"
       inkscape:label="Slot Outline" /><path
       id="path19954-5-61-2-7-1-0-6"
       clip-path="none"
       style="display:inline;fill:#1e1f29;fill-opacity:1;stroke:#000000;stroke-width:0;stroke-linecap:butt;stroke-linejoin:miter;stroke-miterlimit:4;stroke-dasharray:none;stroke-opacity:1"
       transform="translate(432)"
       d="m 94,587 v 26 c 0,11 -6,17 -17,17 H 51 c -11,0 -17,-6 -17,-17 v -26 c 0,-11 6,-17 17,-17 h 26 c 11,0 17,6 17,17 z m 72,0 v 26 c 0,11 -6,17 -17,17 h -26 c -11,0 -17,-6 -17,-17 v -26 c 0,-11 6,-17 17,-17 h 26 c 11,0 17,6 17,17 z m 72,0 v 26 c 0,11 -6,17 -17,17 h -26 c -11,0 -17,-6 -17,-17 v -26 c 0,-11 6,-17 17,-17 h 26 c 11,0 17,6 17,17 z m -216,0 v 26 c 0,11 -6,17 -17,17 h -26 c -11,0 -17,-6 -17,-17 v -26 c 0,-11 6,-17 17,-17 H 5 c 11,0 17,6 17,17 z m -72,0 v 26 c 0,11 -6,17 -17,17 h -26 c -11,0 -17,-6 -17,-17 v -26 c 0,-11 6,-17 17,-17 h 26 c 11,0 17,6 17,17 z m -72,0 v 26 c 0,11 -6,17 -17,17 h -26 c -11,0 -17,-6 -17,-17 v -26 c 0,-11 6,-17 17,-17 h 26 c 11,0 17,6 17,17 z M 22,499 v 26 c 0,11 -6,17 -17,17 h -26 c -11,0 -17,-6 -17,-17 v -26 c 0,-11 6,-17 17,-17 H 5 c 11,0 17,6 17,17 z m -72,0 v 26 c 0,11 -6,17 -17,17 h -26 c -11,0 -17,-6 -17,-17 v -26 c 0,-11 6,-17 17,-17 h 26 c 11,0 17,6 17,17 z m -72,0 v 26 c 0,11 -6,17 -17,17 h -26 c -11,0 -17,-6 -17,-17 v -26 c 0,-11 6,-17 17,-17 h 26 c 11,0 17,6 17,17 z m -72,88 v 26 c 0,11 -6,17 -17,17 h -26 c -11,0 -17,-6 -17,-17 v -26 c 0,-11 6,-17 17,-17 h 26 c 11,0 17,6 17,17 z m -72,0 v 26 c 0,11 -6,17 -17,17 h -26 c -11,0 -17,-6 -17,-17 v -26 c 0,-11 6,-17 17,-17 h 26 c 11,0 17,6 17,17 z m -72,0 v 26 c 0,11 -6,17 -17,17 h -26 c -11,0 -17,-6 -17,-17 v -26 c 0,-11 6,-17 17,-17 h 26 c 11,0 17,6 17,17 z m 576,-88 v 26 c 0,11 -6,17 -17,17 h -26 c -11,0 -17,-6 -17,-17 v -26 c 0,-11 6,-17 17,-17 h 26 c 11,0 17,6 17,17 z m -72,0 v 26 c 0,11 -6,17 -17,17 h -26 c -11,0 -17,-6 -17,-17 v -26 c 0,-11 6,-17 17,-17 h 26 c 11,0 17,6 17,17 z m -72,0 v 26 c 0,11 -6,17 -17,17 H 51 c -11,0 -17,-6 -17,-17 v -26 c 0,-11 6,-17 17,-17 h 26 c 11,0 17,6 17,17 z m -288,0 v 26 c 0,11 -6,17 -17,17 h -26 c -11,0 -17,-6 -17,-17 v -26 c 0,-11 6,-17 17,-17 h 26 c 11,0 17,6 17,17 z m -72,0 v 26 c 0,11 -6,17 -17,17 h -26 c -11,0 -17,-6 -17,-17 v -26 c 0,-11 6,-17 17,-17 h 26 c 11,0 17,6 17,17 z m -72,0 v 26 c 0,11 -6,17 -17,17 h -26 c -11,0 -17,-6 -17,-17 v -26 c 0,-11 6,-17 17,-17 h 26 c 11,0 17,6 17,17 z m 576,-72 v 26 c 0,11 -6,17 -17,17 h -26 c -11,0 -17,-6 -17,-17 v -26 c 0,-11 6,-17 17,-17 h 26 c 11,0 17,6 17,17 z m -72,0 v 26 c 0,11 -6,17 -17,17 h -26 c -11,0 -17,-6 -17,-17 v -26 c 0,-11 6,-17 17,-17 h 26 c 11,0 17,6 17,17 z m -72,0 v 26 c 0,11 -6,17 -17,17 H 51 c -11,0 -17,-6 -17,-17 v -26 c 0,-11 6,-17 17,-17 h 26 c 11,0 17,6 17,17 z m -72,0 v 26 c 0,11 -6,17 -17,17 h -26 c -11,0 -17,-6 -17,-17 v -26 c 0,-11 6,-17 17,-17 H 5 c 11,0 17,6 17,17 z m -72,0 v 26 c 0,11 -6,17 -17,17 h -26 c -11,0 -17,-6 -17,-17 v -26 c 0,-11 6,-17 17,-17 h 26 c 11,0 17,6 17,17 z m -72,0 v 26 c 0,11 -6,17 -17,17 h -26 c -11,0 -17,-6 -17,-17 v -26 c 0,-11 6,-17 17,-17 h 26 c 11,0 17,6 17,17 z m -72,0 v 26 c 0,11 -6,17 -17,17 h -26 c -11,0 -17,-6 -17,-17 v -26 c 0,-11 6,-17 17,-17 h 26 c 11,0 17,6 17,17 z m -72,0 v 26 c 0,11 -6,17 -17,17 h -26 c -11,0 -17,-6 -17,-17 v -26 c 0,-11 6,-17 17,-17 h 26 c 11,0 17,6 17,17 z m -72,0 v 26 c 0,11 -6,17 -17,17 h -26 c -11,0 -17,-6 -17,-17 v -26 c 0,-11 6,-17 17,-17 h 26 c 11,0 17,6 17,17 z m 576,-72 v 26 c 0,11 -6,17 -17,17 h -26 c -11,0 -17,-6 -17,-17 v -26 c 0,-11 6,-17 17,-17 h 26 c 11,0 17,6 17,17 z m -72,0 v 26 c 0,11 -6,17 -17,17 h -26 c -11,0 -17,-6 -17,-17 v -26 c 0,-11 6,-17 17,-17 h 26 c 11,0 17,6 17,17 z m -72,0 v 26 c 0,11 -6,17 -17,17 H 51 c -11,0 -17,-6 -17,-17 v -26 c 0,-11 6,-17 17,-17 h 26 c 11,0 17,6 17,17 z m -216,0 v 26 c 0,11 -6,17 -17,17 h -26 c -11,0 -17,-6 -17,-17 v -26 c 0,-11 6,-17 17,-17 h 26 c 11,0 17,6 17,17 z m 72,0 v 26 c 0,11 -6,17 -17,17 h -26 c -11,0 -17,-6 -17,-17 v -26 c 0,-11 6,-17 17,-17 h 26 c 11,0 17,6 17,17 z m 72,0 v 26 c 0,11 -6,17 -17,17 h -26 c -11,0 -17,-6 -17,-17 v -26 c 0,-11 6,-17 17,-17 H 5 c 11,0 17,6 17,17 z m -360,0 v 26 c 0,11 -6,17 -17,17 h -26 c -11,0 -17,-6 -17,-17 v -26 c 0,-11 6,-17 17,-17 h 26 c 11,0 17,6 17,17 z m 72,0 v 26 c 0,11 -6,17 -17,17 h -26 c -11,0 -17,-6 -17,-17 v -26 c 0,-11 6,-17 17,-17 h 26 c 11,0 17,6 17,17 z m 72,0 v 26 c 0,11 -6,17 -17,17 h -26 c -11,0 -17,-6 -17,-17 v -26 c 0,-11 6,-17 17,-17 h 26 c 11,0 17,6 17,17 z"
       inkscape:label="Slot" /></g><g
     id="g28169"
     style="display:inline"
     inkscape:label="Grid"
     transform="translate(-272,-4)"><path
       style="fill:#282b36;stroke:#1e1f29;stroke-width:4;stroke-linecap:butt;stroke-linejoin:miter;stroke-opacity:1;stroke-dasharray:none;fill-opacity:1;opacity:1"
       d="m 102,46 -4,4 v 244 l 4,4 h 244 l 4,-4 v -48 l 4,-4 h 240 l 4,-4 V 106 l -4,-4 H 354 l -4,-4 V 50 l -4,-4 z"
       id="path4675"
       inkscape:label="Panel"
       transform="translate(272,4)" /><path
       d="m 406,284 c -11,0 -18,-7 -18,-18 V 86 c 0,-11 7,-18 18,-18 h 180 c 11,0 18,7 18,18 v 38 h 62 l 36,36 h 46 v -18 c 0,-11 7,-18 18,-18 h 68 c 11,0 18,7 18,18 v 68 c 0,11 -7,18 -18,18 h -68 c -11,0 -18,-7 -18,-18 v -18 h -46 l -36,36 h -61 l -1,38 c 0,11 -7,18 -18,18 z"
       style="display:inline;fill:#2e3242;fill-opacity:1;stroke:#000000;stroke-width:0;stroke-linecap:butt;stroke-linejoin:miter;stroke-miterlimit:4;stroke-dasharray:none;stroke-opacity:1"
       id="path31821-3"
       sodipodi:nodetypes="ccccccccccccsscsccccccccc"
       inkscape:label="Slot Outline" /><path
       id="path19954-5-7-5-3-6-2"
       style="fill:#1e1f29;fill-opacity:1;stroke:#000000;stroke-width:0;stroke-linecap:butt;stroke-linejoin:miter;stroke-miterlimit:4;stroke-dasharray:none;stroke-opacity:1"
       d="m 846,147 v 58 c 0,11 -6,17 -17,17 h -58 c -11,0 -17,-6 -17,-17 v -58 c 0,-11 6,-17 17,-17 h 58 c 11,0 17,6 17,17 z m -320,16 v 26 c 0,11 -6,17 -17,17 h -26 c -11,0 -17,-6 -17,-17 v -26 c 0,-11 6,-17 17,-17 h 26 c 11,0 17,6 17,17 z m 0,-72 v 26 c 0,11 -6,17 -17,17 h -26 c -11,0 -17,-6 -17,-17 V 91 c 0,-11 6,-17 17,-17 h 26 c 11,0 17,6 17,17 z m -72,0 v 26 c 0,11 -6,17 -17,17 h -26 c -11,0 -17,-6 -17,-17 V 91 c 0,-11 6,-17 17,-17 h 26 c 11,0 17,6 17,17 z m 0,72 v 26 c 0,11 -6,17 -17,17 h -26 c -11,0 -17,-6 -17,-17 v -26 c 0,-11 6,-17 17,-17 h 26 c 11,0 17,6 17,17 z m 144,0 v 26 c 0,11 -7,17 -18,17 h -26 c -11,0 -16,-6 -16,-17 v -26 c 0,-11 6,-17 17,-17 h 26 c 11,0 17,6 17,17 z m 0,-72 v 26 c 0,11 -6,17 -17,17 h -26 c -11,0 -17,-6 -17,-17 V 91 c 0,-11 6,-17 17,-17 h 26 c 11,0 17,6 17,17 z m -72,144 v 26 c 0,11 -6,17 -17,17 h -26 c -11,0 -17,-6 -17,-17 v -26 c 0,-11 6,-17 17,-17 h 26 c 11,0 17,6 17,17 z m -72,0 v 26 c 0,11 -6,17 -17,17 h -26 c -11,0 -17,-6 -17,-17 v -26 c 0,-11 6,-17 17,-17 h 26 c 11,0 17,6 17,17 z m 144,0 v 26 c 0,11 -7,17 -18,17 h -26 c -11,0 -16,-6 -16,-17 v -26 c 0,-11 6,-17 17,-17 h 26 c 11,0 17,6 17,17 z"
       inkscape:label="Slot"
       sodipodi:nodetypes="ssssssssssssssssssssssssssssssssssssssssssssssssssssssssssssssssssssssssssssssssssssssssss" /><path
       style="display:inline;fill:#1e1f29;fill-opacity:1;stroke:#000000;stroke-width:0;stroke-linecap:butt;stroke-linejoin:miter;stroke-miterlimit:4;stroke-dasharray:none;stroke-opacity:1"
       d="m 653,130 h 6 l 46,46 -46,46 h -6 z"
       id="path1606"
       inkscape:label="Arrow Slow"
       sodipodi:nodetypes="cccccc" /></g><g
     id="layer1"
     inkscape:label="Button"
     style="display:inline"
     transform="translate(0,672)"><path
       d="m 21,86.000006 c -7,0 -11,4 -11,10.999997 V 123 c 0,7 4,11 11,11 h 38 c 7,0 11,-4 11,-11 V 97.000003 C 70,90.000006 66,86.000006 59,86.000006 Z"
       style="display:inline;fill:#124749;fill-opacity:1;stroke:none;stroke-width:0;stroke-linecap:butt;stroke-linejoin:miter;stroke-miterlimit:4;stroke-dasharray:none;stroke-opacity:1"
       id="path1793"
       sodipodi:nodetypes="sssssssss"
       inkscape:label="Selected" /><path
       d="m 21,10.000003 c -7,0 -11,4 -11,10.999997 v 25.999997 c 0,7 4,11 11,11 h 38 c 7,0 11,-4 11,-11 V 21 C 70,14.000003 66,10.000003 59,10.000003 Z"
       style="display:inline;fill:#2e3242;fill-opacity:1;stroke:none;stroke-width:0;stroke-linecap:butt;stroke-linejoin:miter;stroke-miterlimit:4;stroke-dasharray:none;stroke-opacity:1"
       id="path1793-3"
       sodipodi:nodetypes="sssssssss"
       inkscape:label="Unselected" /><path
       id="path2412"
       style="display:inline;fill:none;stroke:#f8f8f2;stroke-width:4;stroke-linecap:butt;stroke-linejoin:miter;stroke-dasharray:none;stroke-opacity:1"
       d="m 34,122 h 26 m 0,-12 H 34 M 60,98 H 34 m -8,24 h -6 m 6,-12 H 20 M 26,98 H 20 M 34,46 H 60 M 60,34 H 34 M 60,22 H 34 m -8,24 h -6 m 6,-12 h -6 m 6,-12 h -6"
       inkscape:label="Icons" /></g></svg>
