<?xml version="1.0" encoding="UTF-8" standalone="no"?>
<!-- Created with Inkscape (http://www.inkscape.org/) -->

<svg
   version="1.1"
   id="svg2"
   width="1024"
   height="1024"
   viewBox="0 0 1024 1024"
   sodipodi:docname="gamemode_switcher.svg"
   xml:space="preserve"
   inkscape:export-filename="gamemode_switcher.png"
   inkscape:export-xdpi="96"
   inkscape:export-ydpi="96"
   inkscape:version="1.3 (0e150ed6c4, 2023-07-21)"
   xmlns:inkscape="http://www.inkscape.org/namespaces/inkscape"
   xmlns:sodipodi="http://sodipodi.sourceforge.net/DTD/sodipodi-0.dtd"
   xmlns:xlink="http://www.w3.org/1999/xlink"
   xmlns="http://www.w3.org/2000/svg"
   xmlns:svg="http://www.w3.org/2000/svg"><defs
     id="defs6"><linearGradient
       id="linearGradient1"
       inkscape:collect="always"><stop
         style="stop-color:#ff79c6;stop-opacity:1;"
         offset="0"
         id="stop1" /><stop
         style="stop-color:#bd93f9;stop-opacity:1;"
         offset="1"
         id="stop2" /></linearGradient><linearGradient
       inkscape:collect="always"
       xlink:href="#linearGradient1"
       id="linearGradient2"
       x1="324"
       y1="1082"
       x2="324"
       y2="806"
       gradientUnits="userSpaceOnUse" /></defs><sodipodi:namedview
     id="namedview4"
     pagecolor="#505050"
     bordercolor="#eeeeee"
     borderopacity="1"
     inkscape:showpageshadow="0"
     inkscape:pageopacity="0"
     inkscape:pagecheckerboard="0"
     inkscape:deskcolor="#505050"
     showgrid="true"
     inkscape:zoom="1.2021484"
     inkscape:cx="107.7238"
     inkscape:cy="536.95532"
     inkscape:window-width="4341"
     inkscape:window-height="1440"
     inkscape:window-x="0"
     inkscape:window-y="0"
     inkscape:window-maximized="0"
     inkscape:current-layer="svg2"><inkscape:grid
       type="xygrid"
       id="grid793"
       snapvisiblegridlinesonly="true"
       originx="0"
       originy="0"
       spacingy="1"
       spacingx="1"
       units="px"
       visible="true"
       empspacing="4"
       dotted="false" /></sodipodi:namedview><g
     id="g1134"
     inkscape:label="Main"
     style="display:inline;opacity:1;fill:#17181c;fill-opacity:1"
     transform="translate(-8.0000013,-194)"><path
       style="display:inline;opacity:0.40029762;fill:#17181c;fill-opacity:1;stroke:#000000;stroke-width:0;stroke-linecap:butt;stroke-linejoin:miter;stroke-miterlimit:4;stroke-dasharray:none;stroke-opacity:1"
       d="m 1008,222 v 544 c 0,16 -12,28 -28,28 H 36.000001 c -16,0 -27.9999997,-12 -27.9999997,-28 V 222 c 0,-16 11.9999997,-28 27.9999997,-28 H 980 c 16,0 28,12 28,28 z"
       id="path24389-0-9-3"
       sodipodi:nodetypes="ccccccccc"
       inkscape:label="Background" /><path
       style="display:inline;opacity:0.85;fill:#17181c;fill-opacity:1;stroke:#000000;stroke-width:0;stroke-linecap:butt;stroke-linejoin:miter;stroke-miterlimit:4;stroke-dasharray:none;stroke-opacity:1"
       d="m 972,258 0,48 c 0,16 -12,28 -28,28 H 72.000003 c -16,0 -28,-12 -28,-28 v -48 c 0,-16 12,-28 28,-28 H 944 c 16,0 28,12 28,28 z"
       id="path24389-0-9-3-5"
       sodipodi:nodetypes="ccccccccc"
       inkscape:label="Text" /><path
       style="display:inline;opacity:1;fill:url(#linearGradient2);fill-opacity:1;stroke:#000000;stroke-width:0;stroke-linecap:butt;stroke-linejoin:miter;stroke-miterlimit:4;stroke-dasharray:none;stroke-opacity:1"
       d="m 412,834 v 128 c 0,16 -12,28 -28,28 H 256 c -16,0 -28,-12 -28,-28 V 834 c 0,-16 12,-28 28,-28 h 128 c 16,0 28,12 28,28 z"
       id="path24389-0-9-3-5-5-6"
       sodipodi:nodetypes="ccccccccc"
       inkscape:label="Selected Outline" /><path
       style="display:inline;opacity:1;fill:#17181c;fill-opacity:1;stroke:#000000;stroke-width:0;stroke-linecap:butt;stroke-linejoin:miter;stroke-miterlimit:4;stroke-dasharray:none;stroke-opacity:1"
       d="m 404,838 v 120 c 0,16 -8,24 -24,24 H 260 c -16,0 -24,-8 -24,-24 V 838 c 0,-16 8,-24 24,-24 h 120 c 16,0 24,8 24,24 z"
       id="path24389-0-9-3-5-5-9"
       sodipodi:nodetypes="ccccccccc"
       inkscape:label="Selected Fill" /><path
       style="display:inline;fill:#17181c;fill-opacity:1;stroke:#000000;stroke-width:0;stroke-linecap:butt;stroke-linejoin:miter;stroke-miterlimit:4;stroke-dasharray:none;stroke-opacity:1;opacity:0.85"
       d="m 196,838 v 120 c 0,16 -8,24 -24,24 H 52.000001 c -16,0 -24,-8 -24,-24 V 838 c 0,-16 8,-24 24,-24 H 172 c 16,0 24,8 24,24 z"
       id="path24389-0-9-3-5-5-9-3"
       sodipodi:nodetypes="ccccccccc"
       inkscape:label="Unselected" /></g></svg>
