<?xml version="1.0" encoding="UTF-8" standalone="no"?>
<!-- Created with Inkscape (http://www.inkscape.org/) -->

<svg
   version="1.1"
   id="svg11273"
   width="1024"
   height="1024"
   viewBox="0 0 1024 1024"
   sodipodi:docname="inventory.svg"
   inkscape:export-filename="inventory.png"
   inkscape:export-xdpi="192"
   inkscape:export-ydpi="192"
   inkscape:version="1.2.1 (9c6d41e, 2022-07-14)"
   xml:space="preserve"
   xmlns:inkscape="http://www.inkscape.org/namespaces/inkscape"
   xmlns:sodipodi="http://sodipodi.sourceforge.net/DTD/sodipodi-0.dtd"
   xmlns="http://www.w3.org/2000/svg"
   xmlns:svg="http://www.w3.org/2000/svg"><sodipodi:namedview
     id="namedview8"
     pagecolor="#505050"
     bordercolor="#eeeeee"
     borderopacity="1"
     inkscape:pageshadow="0"
     inkscape:pageopacity="0"
     inkscape:pagecheckerboard="0"
     showgrid="true"
     inkscape:snap-grids="true"
     inkscape:snap-to-guides="true"
     showguides="true"
     inkscape:zoom="4"
     inkscape:cx="685.625"
     inkscape:cy="670.25"
     inkscape:window-width="5062"
     inkscape:window-height="1440"
     inkscape:window-x="58"
     inkscape:window-y="0"
     inkscape:window-maximized="1"
     inkscape:current-layer="g1496"
     inkscape:snap-bbox="false"
     inkscape:showpageshadow="0"
     inkscape:deskcolor="#505050"><inkscape:grid
       type="xygrid"
       id="grid6610"
       empspacing="8"
       snapvisiblegridlinesonly="false"
       enabled="true"
       dotted="false"
       visible="true" /></sodipodi:namedview><defs
     id="defs11277" /><g
     id="g1492"
     inkscape:label="Inventory"><path
       style="display:inline;fill:#282a36;stroke:#1e1f29;stroke-width:0;stroke-linecap:butt;stroke-linejoin:miter;stroke-miterlimit:4;stroke-dasharray:none;stroke-opacity:1;fill-opacity:1"
       d="m 14,10 -4,4 v 636 l 4,4 h 676 l 4,-4 V 318 l -4,-4 H 398 l -4,-4 v -76 l 4,-4 h 300 l 4,-5 V 54 l -4,-4 H 398 l -4,-4 V 14 l -4,-4 z"
       id="path6627"
       sodipodi:nodetypes="ccccccccccccccccccccc" /><path
       style="display:inline;fill:none;stroke:#1e1f29;stroke-width:4;stroke-linecap:butt;stroke-linejoin:miter;stroke-miterlimit:4;stroke-dasharray:none;stroke-opacity:1"
       d="m 14,10 -4,4 v 636 l 4,4 h 676 l 4,-4 V 318 l -4,-4 H 398 l -4,-4 v -76 l 4,-4 h 300 l 4,-5 V 54 l -4,-4 H 398 l -4,-4 V 14 l -4,-4 z"
       id="path6627-6"
       sodipodi:nodetypes="ccccccccccccccccccccc" /><path
       id="path31821-3"
       style="display:inline;fill:#2e3242;fill-opacity:1;stroke:#000000;stroke-width:0;stroke-linecap:butt;stroke-linejoin:miter;stroke-miterlimit:4;stroke-dasharray:none;stroke-opacity:1"
       d="m 406,212 c -11,0 -18,-7 -18,-18 V 86 c 0,-11 7,-18 18,-18 h 108 c 11,0 18,7 18,18 v 22 h 33 l 22,22 h 25 v -4 c 0,-11 7,-18 18,-18 h 36 c 11,0 18,7 18,18 v 36 c 0,11 -7,18 -18,18 h -36 c -11,0 -18,-7 -18,-18 v -4 h -25 l -22,22 h -33 v 14 c 0,11 -7,18 -18,18 z m 270,138 v 268 c 0,11 -7,18 -18,18 H 46 C 35,636 28,629 28,618 V 46 C 28,35 35,28 46,28 h 240 c 11,0 18,7 18,18 v 180 c 0,11 7,18 18,18 h 36 c 11,0 18,7 18,18 v 52 c 0,11 7,18 18,18 h 264 c 11,0 18,7 18,18 z"
       inkscape:label="Slot Outline" /><path
       style="display:inline;fill:#1e1f29;fill-opacity:1;stroke:#000000;stroke-width:0;stroke-linecap:butt;stroke-linejoin:miter;stroke-miterlimit:4;stroke-dasharray:none;stroke-opacity:1"
       d="m 557,114 h 4 l 30,30 -30,30 h -4 z"
       id="path1874"
       inkscape:label="Arrow" /><path
       id="path19954-5-7-5-3-6-2"
       style="display:inline;fill:#1e1f29;fill-opacity:1;stroke:#000000;stroke-width:0;stroke-linecap:butt;stroke-linejoin:miter;stroke-miterlimit:4;stroke-dasharray:none;stroke-opacity:1"
       d="m 678,131 v 26 c 0,11 -6,17 -17,17 h -26 c -11,0 -17,-6 -17,-17 v -26 c 0,-11 6,-17 17,-17 h 26 c 11,0 17,6 17,17 z m -152,32 v 26 c 0,11 -6,17 -17,17 h -26 c -11,0 -17,-6 -17,-17 v -26 c 0,-11 6,-17 17,-17 h 26 c 11,0 17,6 17,17 z m 0,-72 v 26 c 0,11 -6,17 -17,17 h -26 c -11,0 -17,-6 -17,-17 V 91 c 0,-11 6,-17 17,-17 h 26 c 11,0 17,6 17,17 z m -72,0 v 26 c 0,11 -6,17 -17,17 h -26 c -11,0 -17,-6 -17,-17 V 91 c 0,-11 6,-17 17,-17 h 26 c 11,0 17,6 17,17 z m 0,72 v 26 c 0,11 -6,17 -17,17 h -26 c -11,0 -17,-6 -17,-17 v -26 c 0,-11 6,-17 17,-17 h 26 c 11,0 17,6 17,17 z M 94,51 V 77 C 94,88 88,94 77,94 H 51 C 40,94 34,88 34,77 V 51 C 34,40 40,34 51,34 h 26 c 11,0 17,6 17,17 z m 0,72 v 26 c 0,11 -6,17 -17,17 H 51 c -11,0 -17,-6 -17,-17 v -26 c 0,-11 6,-17 17,-17 h 26 c 11,0 17,6 17,17 z m 0,72 v 26 c 0,11 -6,17 -17,17 H 51 c -11,0 -17,-6 -17,-17 v -26 c 0,-11 6,-17 17,-17 h 26 c 11,0 17,6 17,17 z m 0,74 v 26 c 0,11 -6,17 -17,17 H 51 c -11,0 -17,-6 -17,-17 v -26 c 0,-11 6,-17 17,-17 h 26 c 11,0 17,6 17,17 z m 432,318 v 26 c 0,11 -6,17 -17,17 h -26 c -11,0 -17,-6 -17,-17 v -26 c 0,-11 6,-17 17,-17 h 26 c 11,0 17,6 17,17 z m 72,0 v 26 c 0,11 -6,17 -17,17 h -26 c -11,0 -17,-6 -17,-17 v -26 c 0,-11 6,-17 17,-17 h 26 c 11,0 17,6 17,17 z m 72,0 v 26 c 0,11 -6,17 -17,17 h -26 c -11,0 -17,-6 -17,-17 v -26 c 0,-11 6,-17 17,-17 h 26 c 11,0 17,6 17,17 z m -216,0 v 26 c 0,11 -6,17 -17,17 h -26 c -11,0 -17,-6 -17,-17 v -26 c 0,-11 6,-17 17,-17 h 26 c 11,0 17,6 17,17 z m -72,0 v 26 c 0,11 -6,17 -17,17 h -26 c -11,0 -17,-6 -17,-17 v -26 c 0,-11 6,-17 17,-17 h 26 c 11,0 17,6 17,17 z m -72,0 v 26 c 0,11 -6,17 -17,17 h -26 c -11,0 -17,-6 -17,-17 v -26 c 0,-11 6,-17 17,-17 h 26 c 11,0 17,6 17,17 z m 144,-88 v 26 c 0,11 -6,17 -17,17 h -26 c -11,0 -17,-6 -17,-17 v -26 c 0,-11 6,-17 17,-17 h 26 c 11,0 17,6 17,17 z m -72,0 v 26 c 0,11 -6,17 -17,17 h -26 c -11,0 -17,-6 -17,-17 v -26 c 0,-11 6,-17 17,-17 h 26 c 11,0 17,6 17,17 z m -72,0 v 26 c 0,11 -6,17 -17,17 h -26 c -11,0 -17,-6 -17,-17 v -26 c 0,-11 6,-17 17,-17 h 26 c 11,0 17,6 17,17 z m -72,88 v 26 c 0,11 -6,17 -17,17 h -26 c -11,0 -17,-6 -17,-17 v -26 c 0,-11 6,-17 17,-17 h 26 c 11,0 17,6 17,17 z m -72,0 v 26 c 0,11 -6,17 -17,17 h -26 c -11,0 -17,-6 -17,-17 v -26 c 0,-11 6,-17 17,-17 h 26 c 11,0 17,6 17,17 z m -72,0 v 26 c 0,11 -6,17 -17,17 H 51 c -11,0 -17,-6 -17,-17 v -26 c 0,-11 6,-17 17,-17 h 26 c 11,0 17,6 17,17 z m 576,-88 v 26 c 0,11 -6,17 -17,17 h -26 c -11,0 -17,-6 -17,-17 v -26 c 0,-11 6,-17 17,-17 h 26 c 11,0 17,6 17,17 z m -72,0 v 26 c 0,11 -6,17 -17,17 h -26 c -11,0 -17,-6 -17,-17 v -26 c 0,-11 6,-17 17,-17 h 26 c 11,0 17,6 17,17 z m -72,0 v 26 c 0,11 -6,17 -17,17 h -26 c -11,0 -17,-6 -17,-17 v -26 c 0,-11 6,-17 17,-17 h 26 c 11,0 17,6 17,17 z m -288,0 v 26 c 0,11 -6,17 -17,17 h -26 c -11,0 -17,-6 -17,-17 v -26 c 0,-11 6,-17 17,-17 h 26 c 11,0 17,6 17,17 z m -72,0 v 26 c 0,11 -6,17 -17,17 h -26 c -11,0 -17,-6 -17,-17 v -26 c 0,-11 6,-17 17,-17 h 26 c 11,0 17,6 17,17 z m -72,0 v 26 c 0,11 -6,17 -17,17 H 51 c -11,0 -17,-6 -17,-17 v -26 c 0,-11 6,-17 17,-17 h 26 c 11,0 17,6 17,17 z m 576,-72 v 26 c 0,11 -6,17 -17,17 h -26 c -11,0 -17,-6 -17,-17 v -26 c 0,-11 6,-17 17,-17 h 26 c 11,0 17,6 17,17 z m -72,0 v 26 c 0,11 -6,17 -17,17 h -26 c -11,0 -17,-6 -17,-17 v -26 c 0,-11 6,-17 17,-17 h 26 c 11,0 17,6 17,17 z m -72,0 v 26 c 0,11 -6,17 -17,17 h -26 c -11,0 -17,-6 -17,-17 v -26 c 0,-11 6,-17 17,-17 h 26 c 11,0 17,6 17,17 z m -72,0 v 26 c 0,11 -6,17 -17,17 h -26 c -11,0 -17,-6 -17,-17 v -26 c 0,-11 6,-17 17,-17 h 26 c 11,0 17,6 17,17 z m -72,0 v 26 c 0,11 -6,17 -17,17 h -26 c -11,0 -17,-6 -17,-17 v -26 c 0,-11 6,-17 17,-17 h 26 c 11,0 17,6 17,17 z m -72,0 v 26 c 0,11 -6,17 -17,17 h -26 c -11,0 -17,-6 -17,-17 v -26 c 0,-11 6,-17 17,-17 h 26 c 11,0 17,6 17,17 z m -72,0 v 26 c 0,11 -6,17 -17,17 h -26 c -11,0 -17,-6 -17,-17 v -26 c 0,-11 6,-17 17,-17 h 26 c 11,0 17,6 17,17 z m -72,0 v 26 c 0,11 -6,17 -17,17 h -26 c -11,0 -17,-6 -17,-17 v -26 c 0,-11 6,-17 17,-17 h 26 c 11,0 17,6 17,17 z m -72,0 v 26 c 0,11 -6,17 -17,17 H 51 c -11,0 -17,-6 -17,-17 v -26 c 0,-11 6,-17 17,-17 h 26 c 11,0 17,6 17,17 z m 576,-72 v 26 c 0,11 -6,17 -17,17 h -26 c -11,0 -17,-6 -17,-17 v -26 c 0,-11 6,-17 17,-17 h 26 c 11,0 17,6 17,17 z m -72,0 v 26 c 0,11 -6,17 -17,17 h -26 c -11,0 -17,-6 -17,-17 v -26 c 0,-11 6,-17 17,-17 h 26 c 11,0 17,6 17,17 z m -72,0 v 26 c 0,11 -6,17 -17,17 h -26 c -11,0 -17,-6 -17,-17 v -26 c 0,-11 6,-17 17,-17 h 26 c 11,0 17,6 17,17 z m -216,0 v 26 c 0,11 -6,17 -17,17 h -26 c -11,0 -17,-6 -17,-17 v -26 c 0,-11 6,-17 17,-17 h 26 c 11,0 17,6 17,17 z m 72,0 v 26 c 0,11 -6,17 -17,17 h -26 c -11,0 -17,-6 -17,-17 v -26 c 0,-11 6,-17 17,-17 h 26 c 11,0 17,6 17,17 z m 72,0 v 26 c 0,11 -6,17 -17,17 h -26 c -11,0 -17,-6 -17,-17 v -26 c 0,-11 6,-17 17,-17 h 26 c 11,0 17,6 17,17 z m -84,-88 v 26 c 0,11 -6,17 -17,17 h -26 c -11,0 -17,-6 -17,-17 v -26 c 0,-11 6,-17 17,-17 h 26 c 11,0 17,6 17,17 z M 94,355 v 26 c 0,11 -6,17 -17,17 H 51 c -11,0 -17,-6 -17,-17 v -26 c 0,-11 6,-17 17,-17 h 26 c 11,0 17,6 17,17 z m 72,0 v 26 c 0,11 -6,17 -17,17 h -26 c -11,0 -17,-6 -17,-17 v -26 c 0,-11 6,-17 17,-17 h 26 c 11,0 17,6 17,17 z m 72,0 v 26 c 0,11 -6,17 -17,17 h -26 c -11,0 -17,-6 -17,-17 v -26 c 0,-11 6,-17 17,-17 h 26 c 11,0 17,6 17,17 z"
       inkscape:label="Slot" /><path
       style="display:inline;fill:#1e1f29;fill-opacity:1;stroke:#000000;stroke-width:0;stroke-linecap:butt;stroke-linejoin:miter;stroke-miterlimit:4;stroke-dasharray:none;stroke-opacity:1"
       d="m 298,51 v 242 c 0,11 -5.9844,17 -16.95584,17 H 122.95584 C 111.98442,310 106,304 106,293 V 51 c 0,-11 5.98442,-17 16.95584,-17 H 281.04416 C 292.0156,34 298,40 298,51 Z"
       id="path19954-5-6"
       sodipodi:nodetypes="sssssssss"
       inkscape:label="Player" /></g><g
     id="g1496"
     inkscape:label="Status Background"
     style="opacity:1"><path
       d="m 658,683 v 58 c 0,11 -6,17 -17,17 h -58 c -11,0 -17,-6 -17,-17 v -58 c 0,-11 6,-17 17,-17 h 58 c 11,0 17,6 17,17 z"
       style="fill:#17181c;fill-opacity:0.69575155;stroke:#000000;stroke-width:0;stroke-linecap:butt;stroke-linejoin:miter;stroke-miterlimit:4;stroke-dasharray:none;stroke-opacity:1"
       id="path1407"
       sodipodi:nodetypes="sssssssss"
       inkscape:label="Normal" /><path
       id="path1435"
       style="display:inline;fill:#17181c;fill-opacity:0.39944881;stroke:#000000;stroke-width:0;stroke-linecap:butt;stroke-linejoin:miter;stroke-miterlimit:4;stroke-dasharray:none;stroke-opacity:1"
       d="M 679 666 C 668.00001 666 662 672.00001 662 683 L 662 698 L 694 666 L 679 666 z M 722 666 L 754 698 L 754 683 C 754 672.00001 747.99999 666 737 666 L 722 666 z M 662 726 L 662 741 C 662 751.99999 668.00001 758 679 758 L 694 758 L 662 726 z M 754 726 L 722 758 L 737 758 C 747.99999 758 754 751.99999 754 741 L 754 726 z "
       inkscape:label="Beacon Edges" /><path
       style="display:inline;fill:#17181c;stroke:none;stroke-width:1px;stroke-linecap:butt;stroke-linejoin:miter;stroke-opacity:1;fill-opacity:0.69900841"
       d="m 754,726 -32,32 h -28 l -32,-32 v -28 l 32,-32 h 28 l 32,32 z"
       id="path1942"
       sodipodi:nodetypes="ccccccccc"
       inkscape:label="Beacon Octagon" /></g><g
     id="layer1-3"
     inkscape:label="Recipe Button"
     style="display:inline"
     transform="translate(712)"><path
       d="m 21,86.000006 c -7,0 -11,4 -11,10.999997 V 123 c 0,7 4,11 11,11 h 38 c 7,0 11,-4 11,-11 V 97.000003 C 70,90.000006 66,86.000006 59,86.000006 Z"
       style="display:inline;fill:#124749;fill-opacity:1;stroke:none;stroke-width:0;stroke-linecap:butt;stroke-linejoin:miter;stroke-miterlimit:4;stroke-dasharray:none;stroke-opacity:1"
       id="path1793"
       sodipodi:nodetypes="sssssssss"
       inkscape:label="Selected" /><path
       d="m 21,10.000003 c -7,0 -11,4 -11,10.999997 v 25.999997 c 0,7 4,11 11,11 h 38 c 7,0 11,-4 11,-11 V 21 C 70,14.000003 66,10.000003 59,10.000003 Z"
       style="display:inline;fill:#2e3242;fill-opacity:1;stroke:none;stroke-width:0;stroke-linecap:butt;stroke-linejoin:miter;stroke-miterlimit:4;stroke-dasharray:none;stroke-opacity:1"
       id="path1793-3"
       sodipodi:nodetypes="sssssssss"
       inkscape:label="Unselected" /><path
       id="path2412"
       style="display:inline;fill:none;stroke:#f8f8f2;stroke-width:4;stroke-linecap:butt;stroke-linejoin:miter;stroke-dasharray:none;stroke-opacity:1"
       d="m 34,122 h 26 m 0,-12 H 34 M 60,98 H 34 m -8,24 h -6 m 6,-12 H 20 M 26,98 H 20 M 34,46 H 60 M 60,34 H 34 M 60,22 H 34 m -8,24 h -6 m 6,-12 h -6 m 6,-12 h -6"
       inkscape:label="Icons" /></g></svg>
