<?xml version="1.0" encoding="UTF-8" standalone="no"?>
<!-- Created with Inkscape (http://www.inkscape.org/) -->

<svg
   version="1.1"
   id="svg1167"
   width="1024"
   height="1024"
   viewBox="0 0 1024 1024"
   sodipodi:docname="tab_inventory.svg"
   xml:space="preserve"
   inkscape:version="1.3 (0e150ed6c4, 2023-07-21)"
   inkscape:export-filename="tab_inventory.png"
   inkscape:export-xdpi="96"
   inkscape:export-ydpi="96"
   xmlns:inkscape="http://www.inkscape.org/namespaces/inkscape"
   xmlns:sodipodi="http://sodipodi.sourceforge.net/DTD/sodipodi-0.dtd"
   xmlns="http://www.w3.org/2000/svg"
   xmlns:svg="http://www.w3.org/2000/svg"><defs
     id="defs1171" /><sodipodi:namedview
     id="namedview1169"
     pagecolor="#505050"
     bordercolor="#eeeeee"
     borderopacity="1"
     inkscape:showpageshadow="0"
     inkscape:pageopacity="0"
     inkscape:pagecheckerboard="0"
     inkscape:deskcolor="#505050"
     showgrid="true"
     inkscape:zoom="1.3037281"
     inkscape:cx="473.25819"
     inkscape:cy="245.06644"
     inkscape:window-width="5070"
     inkscape:window-height="1440"
     inkscape:window-x="0"
     inkscape:window-y="0"
     inkscape:window-maximized="1"
     inkscape:current-layer="svg1167"><inkscape:grid
       type="xygrid"
       id="grid1294"
       snapvisiblegridlinesonly="true"
       originx="0"
       originy="0"
       spacingy="1"
       spacingx="1"
       units="px"
       visible="true"
       empspacing="4" /></sodipodi:namedview><g
     id="g1134"
     inkscape:label="Inventory"
     style="display:inline"
     transform="translate(4,-120)"><path
       style="display:inline;opacity:1;fill:#282a36;fill-opacity:1;stroke:#1e1f29;stroke-width:4;stroke-linecap:butt;stroke-linejoin:miter;stroke-miterlimit:4;stroke-dasharray:none;stroke-opacity:1"
       d="m 14,126 -4,4 v 520 l 4,4 h 744 l 4,-4 V 130 l -4,-4 z"
       id="path6627-6"
       sodipodi:nodetypes="ccccccccc"
       inkscape:label="Panel" /><path
       id="path24389-0-9-3"
       style="display:inline;fill:#2e3242;fill-opacity:1;stroke:#000000;stroke-width:0;stroke-linecap:butt;stroke-linejoin:miter;stroke-miterlimit:4;stroke-dasharray:none;stroke-opacity:1"
       inkscape:label="Slot Outline"
       d="M 226 140 C 215.00002 140 208 147.00002 208 158 L 208 178 C 208 188.99998 200.99998 196 190 196 L 150 196 C 139.00002 196 132 203.00002 132 214 L 132 250 C 132 260.99998 139.00002 268 150 268 L 190 268 C 200.99998 268 208 275.00002 208 286 L 208 314 C 208 324.99998 200.99998 332 190 332 L 46 332 C 35.000022 332 28 339.00002 28 350 L 28 618 C 28 628.99998 35.000022 636 46 636 L 658 636 C 668.99998 636 676 628.99998 676 618 L 676 350 C 676 339.00002 668.99998 332 658 332 L 514 332 C 503.00002 332 496 324.99998 496 314 L 496 158 C 496 147.00002 488.99998 140 478 140 L 226 140 z " /><path
       id="path19954-5-61-2-7-1-0-6"
       clip-path="none"
       style="display:inline;fill:#1e1f29;fill-opacity:1;stroke:#000000;stroke-width:0;stroke-linecap:butt;stroke-linejoin:miter;stroke-miterlimit:4;stroke-dasharray:none;stroke-opacity:1"
       inkscape:label="Slot"
       transform="translate(432)"
       d="m 94,587 v 26 c 0,11 -6,17 -17,17 H 51 c -11,0 -17,-6 -17,-17 v -26 c 0,-11 6,-17 17,-17 h 26 c 11,0 17,6 17,17 z m 72,0 v 26 c 0,11 -6,17 -17,17 h -26 c -11,0 -17,-6 -17,-17 v -26 c 0,-11 6,-17 17,-17 h 26 c 11,0 17,6 17,17 z m 72,0 v 26 c 0,11 -6,17 -17,17 h -26 c -11,0 -17,-6 -17,-17 v -26 c 0,-11 6,-17 17,-17 h 26 c 11,0 17,6 17,17 z m -216,0 v 26 c 0,11 -6,17 -17,17 h -26 c -11,0 -17,-6 -17,-17 v -26 c 0,-11 6,-17 17,-17 H 5 c 11,0 17,6 17,17 z m -72,0 v 26 c 0,11 -6,17 -17,17 h -26 c -11,0 -17,-6 -17,-17 v -26 c 0,-11 6,-17 17,-17 h 26 c 11,0 17,6 17,17 z m -72,0 v 26 c 0,11 -6,17 -17,17 h -26 c -11,0 -17,-6 -17,-17 v -26 c 0,-11 6,-17 17,-17 h 26 c 11,0 17,6 17,17 z M 22,499 v 26 c 0,11 -6,17 -17,17 h -26 c -11,0 -17,-6 -17,-17 v -26 c 0,-11 6,-17 17,-17 H 5 c 11,0 17,6 17,17 z m -72,0 v 26 c 0,11 -6,17 -17,17 h -26 c -11,0 -17,-6 -17,-17 v -26 c 0,-11 6,-17 17,-17 h 26 c 11,0 17,6 17,17 z m -72,0 v 26 c 0,11 -6,17 -17,17 h -26 c -11,0 -17,-6 -17,-17 v -26 c 0,-11 6,-17 17,-17 h 26 c 11,0 17,6 17,17 z m -72,88 v 26 c 0,11 -6,17 -17,17 h -26 c -11,0 -17,-6 -17,-17 v -26 c 0,-11 6,-17 17,-17 h 26 c 11,0 17,6 17,17 z m -72,0 v 26 c 0,11 -6,17 -17,17 h -26 c -11,0 -17,-6 -17,-17 v -26 c 0,-11 6,-17 17,-17 h 26 c 11,0 17,6 17,17 z m -72,0 v 26 c 0,11 -6,17 -17,17 h -26 c -11,0 -17,-6 -17,-17 v -26 c 0,-11 6,-17 17,-17 h 26 c 11,0 17,6 17,17 z m 576,-88 v 26 c 0,11 -6,17 -17,17 h -26 c -11,0 -17,-6 -17,-17 v -26 c 0,-11 6,-17 17,-17 h 26 c 11,0 17,6 17,17 z m -72,0 v 26 c 0,11 -6,17 -17,17 h -26 c -11,0 -17,-6 -17,-17 v -26 c 0,-11 6,-17 17,-17 h 26 c 11,0 17,6 17,17 z m -72,0 v 26 c 0,11 -6,17 -17,17 H 51 c -11,0 -17,-6 -17,-17 v -26 c 0,-11 6,-17 17,-17 h 26 c 11,0 17,6 17,17 z m -288,0 v 26 c 0,11 -6,17 -17,17 h -26 c -11,0 -17,-6 -17,-17 v -26 c 0,-11 6,-17 17,-17 h 26 c 11,0 17,6 17,17 z m -72,0 v 26 c 0,11 -6,17 -17,17 h -26 c -11,0 -17,-6 -17,-17 v -26 c 0,-11 6,-17 17,-17 h 26 c 11,0 17,6 17,17 z m -72,0 v 26 c 0,11 -6,17 -17,17 h -26 c -11,0 -17,-6 -17,-17 v -26 c 0,-11 6,-17 17,-17 h 26 c 11,0 17,6 17,17 z m 576,-72 v 26 c 0,11 -6,17 -17,17 h -26 c -11,0 -17,-6 -17,-17 v -26 c 0,-11 6,-17 17,-17 h 26 c 11,0 17,6 17,17 z m -72,0 v 26 c 0,11 -6,17 -17,17 h -26 c -11,0 -17,-6 -17,-17 v -26 c 0,-11 6,-17 17,-17 h 26 c 11,0 17,6 17,17 z m -72,0 v 26 c 0,11 -6,17 -17,17 H 51 c -11,0 -17,-6 -17,-17 v -26 c 0,-11 6,-17 17,-17 h 26 c 11,0 17,6 17,17 z m -72,0 v 26 c 0,11 -6,17 -17,17 h -26 c -11,0 -17,-6 -17,-17 v -26 c 0,-11 6,-17 17,-17 H 5 c 11,0 17,6 17,17 z m -72,0 v 26 c 0,11 -6,17 -17,17 h -26 c -11,0 -17,-6 -17,-17 v -26 c 0,-11 6,-17 17,-17 h 26 c 11,0 17,6 17,17 z m -72,0 v 26 c 0,11 -6,17 -17,17 h -26 c -11,0 -17,-6 -17,-17 v -26 c 0,-11 6,-17 17,-17 h 26 c 11,0 17,6 17,17 z m -72,0 v 26 c 0,11 -6,17 -17,17 h -26 c -11,0 -17,-6 -17,-17 v -26 c 0,-11 6,-17 17,-17 h 26 c 11,0 17,6 17,17 z m -72,0 v 26 c 0,11 -6,17 -17,17 h -26 c -11,0 -17,-6 -17,-17 v -26 c 0,-11 6,-17 17,-17 h 26 c 11,0 17,6 17,17 z m -72,0 v 26 c 0,11 -6,17 -17,17 h -26 c -11,0 -17,-6 -17,-17 v -26 c 0,-11 6,-17 17,-17 h 26 c 11,0 17,6 17,17 z m 576,-72 v 26 c 0,11 -6,17 -17,17 h -26 c -11,0 -17,-6 -17,-17 v -26 c 0,-11 6,-17 17,-17 h 26 c 11,0 17,6 17,17 z m -72,0 v 26 c 0,11 -6,17 -17,17 h -26 c -11,0 -17,-6 -17,-17 v -26 c 0,-11 6,-17 17,-17 h 26 c 11,0 17,6 17,17 z m -72,0 v 26 c 0,11 -6,17 -17,17 H 51 c -11,0 -17,-6 -17,-17 v -26 c 0,-11 6,-17 17,-17 h 26 c 11,0 17,6 17,17 z m -216,0 v 26 c 0,11 -6,17 -17,17 h -26 c -11,0 -17,-6 -17,-17 v -26 c 0,-11 6,-17 17,-17 h 26 c 11,0 17,6 17,17 z m 72,0 v 26 c 0,11 -6,17 -17,17 h -26 c -11,0 -17,-6 -17,-17 v -26 c 0,-11 6,-17 17,-17 h 26 c 11,0 17,6 17,17 z m 72,0 v 26 c 0,11 -6,17 -17,17 h -26 c -11,0 -17,-6 -17,-17 v -26 c 0,-11 6,-17 17,-17 H 5 c 11,0 17,6 17,17 z m -360,0 v 26 c 0,11 -6,17 -17,17 h -26 c -11,0 -17,-6 -17,-17 v -26 c 0,-11 6,-17 17,-17 h 26 c 11,0 17,6 17,17 z m 72,0 v 26 c 0,11 -6,17 -17,17 h -26 c -11,0 -17,-6 -17,-17 v -26 c 0,-11 6,-17 17,-17 h 26 c 11,0 17,6 17,17 z m 72,0 v 26 c 0,11 -6,17 -17,17 h -26 c -11,0 -17,-6 -17,-17 v -26 c 0,-11 6,-17 17,-17 h 26 c 11,0 17,6 17,17 z M -18,163 v 134 c 0,11 -6,17 -17,17 h -90 c -11,0 -17,-6 -17,-17 V 163 c 0,-11 6,-17 17,-17 h 90 c 11,0 17,6 17,17 z m -140,0 v 26 c 0,11 -6,17 -17,17 h -26 c -11,0 -17,-6 -17,-17 v -26 c 0,-11 6,-17 17,-17 h 26 c 11,0 17,6 17,17 z m -76,56 v 26 c 0,11 -6,17 -17,17 h -26 c -11,0 -17,-6 -17,-17 v -26 c 0,-11 6,-17 17,-17 h 26 c 11,0 17,6 17,17 z m 76,52 v 26 c 0,11 -6,17 -17,17 h -26 c -11,0 -17,-6 -17,-17 v -26 c 0,-11 6,-17 17,-17 h 26 c 11,0 17,6 17,17 z m 216,0 v 26 c 0,11 -6,17 -17,17 H 15 C 4,314 -2,308 -2,297 v -26 c 0,-11 6,-17 17,-17 h 26 c 11,0 17,6 17,17 z m 0,-108 v 26 c 0,11 -6,17 -17,17 H 15 C 4,206 -2,200 -2,189 v -26 c 0,-11 6,-17 17,-17 h 26 c 11,0 17,6 17,17 z"
       sodipodi:nodetypes="ssssssssssssssssssssssssssssssssssssssssssssssssssssssssssssssssssssssssssssssssssssssssssssssssssssssssssssssssssssssssssssssssssssssssssssssssssssssssssssssssssssssssssssssssssssssssssssssssssssssssssssssssssssssssssssssssssssssssssssssssssssssssssssssssssssssssssssssssssssssssssssssssssssssssssssssssssssssssssssssssssssssssssssssssssssssssssssssssssssssssssssssssssssssssss" /><path
       d="m 750,587 v 26 c 0,11 -6,17 -17,17 h -26 c -11,0 -17,-6 -17,-17 v -26 c 0,-11 6,-17 17,-17 h 26 c 11,0 17,6 17,17 z"
       style="display:inline;fill:#30101f;fill-opacity:1;stroke:#000000;stroke-width:0;stroke-linecap:butt;stroke-linejoin:miter;stroke-miterlimit:4;stroke-dasharray:none;stroke-opacity:1"
       id="path1479"
       inkscape:label="Trash Slot" /></g></svg>
