<svg xmlns="http://www.w3.org/2000/svg" xmlns:svg="http://www.w3.org/2000/svg" xmlns:xlink="http://www.w3.org/1999/xlink" id="svg2" width="128" height="256" version="1.1" xml:space="preserve"><defs id="defs6"><linearGradient id="linearGradient11-6-9" x1="40" x2="40" y1="240" y2="320" gradientUnits="userSpaceOnUse" xlink:href="#linearGradient6"/><linearGradient id="linearGradient6"><stop style="stop-color:#bd93f9;stop-opacity:1" id="stop8-2" offset="0"/><stop style="stop-color:#f281d1;stop-opacity:1" id="stop7-1" offset="1"/></linearGradient><linearGradient id="linearGradient20" x1="40" x2="40" y1="246" y2="314" gradientUnits="userSpaceOnUse" xlink:href="#linearGradient19"/><linearGradient id="linearGradient19"><stop style="stop-color:#3a3f63;stop-opacity:1" id="stop19" offset="0"/><stop style="stop-color:#423a63;stop-opacity:1" id="stop20" offset="1"/></linearGradient></defs><g id="g10" style="display:inline" transform="translate(-80,-584)"><rect style="display:inline;opacity:.700197;fill:#1e1f29;fill-rule:evenodd;stroke-width:2;stroke-linecap:square;stroke-linejoin:round;stroke-miterlimit:0" id="rect6-7-7-5" width="68" height="68" x="86" y="750" rx="14" ry="14"/><path id="path18-6-7" style="display:inline;fill:#f8f8f2;fill-opacity:1;stroke:none;stroke-width:0;stroke-linecap:butt;stroke-linejoin:miter;stroke-miterlimit:4;stroke-dasharray:none;stroke-opacity:1" d="m 16,176 v 4 l 20,20 v 28 l 8,-8 v -20 l 20,-20 v -4 z m 7,4 h 34 l -17,17 z" transform="translate(80,584)"/></g><g id="g6-1-2" transform="translate(0,-160)" style="display:inline"><rect style="display:inline;fill:url(#linearGradient11-6-9);fill-rule:evenodd;stroke-width:2;stroke-linecap:square;stroke-linejoin:round;stroke-miterlimit:0" id="rect5-8-3" width="80" height="80" x="0" y="240" rx="18" ry="18"/><rect style="display:inline;fill:url(#linearGradient20);fill-rule:evenodd;stroke-width:2;stroke-linecap:square;stroke-linejoin:round;stroke-miterlimit:0" id="rect6-7-7" width="68" height="68" x="6" y="246" rx="14" ry="14"/><path id="path18-6-7-9" style="display:inline;fill:#f8f8f2;fill-opacity:1;stroke:none;stroke-width:0;stroke-linecap:butt;stroke-linejoin:miter;stroke-miterlimit:4;stroke-dasharray:none;stroke-opacity:1" d="m 16,96 v 4 l 20,20 v 28 l 8,-8 v -20 l 20,-20 v -4 z m 7,4 h 34 l -17,17 z" transform="translate(0,160)"/></g><g id="g66" transform="translate(0,-240)" style="display:inline"><rect style="display:inline;fill:#282a36;fill-rule:evenodd;stroke-width:2;stroke-linecap:square;stroke-linejoin:round;stroke-miterlimit:0" id="rect65" width="80" height="80" x="0" y="240" rx="18" ry="18"/><rect style="display:inline;fill:#3a3f63;fill-rule:evenodd;stroke-width:2;stroke-linecap:square;stroke-linejoin:round;stroke-miterlimit:0" id="rect66" width="68" height="68" x="6" y="246" rx="14" ry="14"/><path id="path18-6-7-3" style="display:inline;fill:#f8f8f2;fill-opacity:1;stroke:none;stroke-width:0;stroke-linecap:butt;stroke-linejoin:miter;stroke-miterlimit:4;stroke-dasharray:none;stroke-opacity:1" d="m 16,16 v 4 l 20,20 v 28 l 8,-8 V 40 L 64,20 v -4 z m 7,4 H 57 L 40,37 Z" transform="translate(0,240)"/></g></svg>