<svg xmlns="http://www.w3.org/2000/svg" xmlns:svg="http://www.w3.org/2000/svg" id="svg2" width="1024" height="1024" version="1.1" xml:space="preserve"><g id="g9-9-3-3" transform="matrix(2,0,0,2,-16,-204)" style="display:inline;fill:#bd93f9"><g id="g3-1-3-7-5" transform="translate(0,40)" style="fill:#bd93f9"><rect style="opacity:1;fill:#bd93f9;stroke:none;stroke-width:2;stroke-linecap:square;stroke-linejoin:round;stroke-miterlimit:0" id="rect9-2-6-5-6" width="30" height="4" x="34" y="176" rx="0" ry="0"/><rect style="opacity:1;fill:#bd93f9;stroke:none;stroke-width:2;stroke-linecap:square;stroke-linejoin:round;stroke-miterlimit:0" id="rect9-5-7-0-9-2" width="6" height="4" x="16" y="176" rx="0" ry="0"/><path id="path2-0-6-2-9" style="display:inline;fill:#bd93f9;stroke:none;stroke-width:1px;stroke-linecap:butt;stroke-linejoin:miter;stroke-opacity:1" d="m 22,170 v 16 h 12 v -16 z m 4,4 h 4 v 8 h -4 z"/></g><g id="g3-3-2-2-1" transform="translate(0,20)" style="fill:#bd93f9"><rect style="opacity:1;fill:#bd93f9;stroke:none;stroke-width:2;stroke-linecap:square;stroke-linejoin:round;stroke-miterlimit:0" id="rect9-56-6-8-2" width="8" height="4" x="56" y="176" rx="0" ry="0"/><rect style="opacity:1;fill:#bd93f9;stroke:none;stroke-width:2;stroke-linecap:square;stroke-linejoin:round;stroke-miterlimit:0" id="rect9-5-2-1-9-7" width="28" height="4" x="16" y="176" rx="0" ry="0"/><path id="path2-9-8-7-0" style="display:inline;fill:#bd93f9;stroke:none;stroke-width:1px;stroke-linecap:butt;stroke-linejoin:miter;stroke-opacity:1" d="m 44,170 v 16 h 12 v -16 z m 4,4 h 4 v 8 h -4 z"/></g><g id="g3-7-3-9" style="fill:#bd93f9"><rect style="opacity:1;fill:#bd93f9;stroke:none;stroke-width:2;stroke-linecap:square;stroke-linejoin:round;stroke-miterlimit:0" id="rect9-9-6-3" width="24" height="4" x="40" y="176" rx="0" ry="0"/><rect style="opacity:1;fill:#bd93f9;stroke:none;stroke-width:2;stroke-linecap:square;stroke-linejoin:round;stroke-miterlimit:0" id="rect9-5-20-1-6" width="12" height="4" x="16" y="176" rx="0" ry="0"/><path id="path2-2-2-0" style="display:inline;fill:#bd93f9;stroke:none;stroke-width:1px;stroke-linecap:butt;stroke-linejoin:miter;stroke-opacity:1" d="m 28,170 v 16 h 12 v -16 z m 4,4 h 4 v 8 h -4 z"/></g></g><g id="g9-9-3" transform="matrix(2,0,0,2,-16,-332)" style="display:inline"><g id="g3-1-3-7" transform="translate(0,40)"><rect style="opacity:1;fill:#f8f8f2;stroke:none;stroke-width:2;stroke-linecap:square;stroke-linejoin:round;stroke-miterlimit:0" id="rect9-2-6-5" width="30" height="4" x="34" y="176" rx="0" ry="0"/><rect style="opacity:1;fill:#f8f8f2;stroke:none;stroke-width:2;stroke-linecap:square;stroke-linejoin:round;stroke-miterlimit:0" id="rect9-5-7-0-9" width="6" height="4" x="16" y="176" rx="0" ry="0"/><path id="path2-0-6-2" style="display:inline;fill:#f8f8f2;stroke:none;stroke-width:1px;stroke-linecap:butt;stroke-linejoin:miter;stroke-opacity:1" d="m 22,170 v 16 h 12 v -16 z m 4,4 h 4 v 8 h -4 z"/></g><g id="g3-3-2-2" transform="translate(0,20)"><rect style="opacity:1;fill:#f8f8f2;stroke:none;stroke-width:2;stroke-linecap:square;stroke-linejoin:round;stroke-miterlimit:0" id="rect9-56-6-8" width="8" height="4" x="56" y="176" rx="0" ry="0"/><rect style="opacity:1;fill:#f8f8f2;stroke:none;stroke-width:2;stroke-linecap:square;stroke-linejoin:round;stroke-miterlimit:0" id="rect9-5-2-1-9" width="28" height="4" x="16" y="176" rx="0" ry="0"/><path id="path2-9-8-7" style="display:inline;fill:#f8f8f2;stroke:none;stroke-width:1px;stroke-linecap:butt;stroke-linejoin:miter;stroke-opacity:1" d="m 44,170 v 16 h 12 v -16 z m 4,4 h 4 v 8 h -4 z"/></g><g id="g3-7-3"><rect style="opacity:1;fill:#f8f8f2;stroke:none;stroke-width:2;stroke-linecap:square;stroke-linejoin:round;stroke-miterlimit:0" id="rect9-9-6" width="24" height="4" x="40" y="176" rx="0" ry="0"/><rect style="opacity:1;fill:#f8f8f2;stroke:none;stroke-width:2;stroke-linecap:square;stroke-linejoin:round;stroke-miterlimit:0" id="rect9-5-20-1" width="12" height="4" x="16" y="176" rx="0" ry="0"/><path id="path2-2-2" style="display:inline;fill:#f8f8f2;stroke:none;stroke-width:1px;stroke-linecap:butt;stroke-linejoin:miter;stroke-opacity:1" d="m 28,170 v 16 h 12 v -16 z m 4,4 h 4 v 8 h -4 z"/></g></g></svg>