<?xml version="1.0" encoding="UTF-8" standalone="no"?>
<!-- Created with Inkscape (http://www.inkscape.org/) -->

<svg
   version="1.1"
   id="svg2"
   width="128"
   height="256"
   xml:space="preserve"
   inkscape:export-filename="base.svg"
   inkscape:export-xdpi="96"
   inkscape:export-ydpi="96"
   inkscape:version="1.3.1 (91b66b0783, 2023-11-16, custom)"
   sodipodi:docname="mods_button_alt3.svg"
   xmlns:inkscape="http://www.inkscape.org/namespaces/inkscape"
   xmlns:sodipodi="http://sodipodi.sourceforge.net/DTD/sodipodi-0.dtd"
   xmlns:xlink="http://www.w3.org/1999/xlink"
   xmlns="http://www.w3.org/2000/svg"
   xmlns:svg="http://www.w3.org/2000/svg"><defs
   id="defs6"><linearGradient
     inkscape:collect="always"
     xlink:href="#linearGradient6"
     id="linearGradient11-6-9"
     gradientUnits="userSpaceOnUse"
     x1="40"
     y1="240"
     x2="40"
     y2="320" /><linearGradient
     id="linearGradient6"
     inkscape:collect="always"
     inkscape:label="Button Gradient 1-O"><stop
       style="stop-color:#bd93f9;stop-opacity:1"
       offset="0"
       id="stop8-2" /><stop
       style="stop-color:#f281d1;stop-opacity:1;"
       offset="1"
       id="stop7-1" /></linearGradient><linearGradient
     inkscape:collect="always"
     xlink:href="#linearGradient19"
     id="linearGradient20"
     x1="40"
     y1="246"
     x2="40"
     y2="314"
     gradientUnits="userSpaceOnUse" /><linearGradient
     id="linearGradient19"
     inkscape:label="Button Gradient 1-F"
     inkscape:collect="always"><stop
       style="stop-color:#3a3f63;stop-opacity:1;"
       offset="0"
       id="stop19" /><stop
       style="stop-color:#423a63;stop-opacity:1;"
       offset="1"
       id="stop20" /></linearGradient></defs><sodipodi:namedview
   id="namedview4"
   pagecolor="#505050"
   bordercolor="#eeeeee"
   borderopacity="1"
   inkscape:showpageshadow="0"
   inkscape:pageopacity="0"
   inkscape:pagecheckerboard="0"
   inkscape:deskcolor="#505050"
   showgrid="true"
   inkscape:current-layer="svg2"
   inkscape:zoom="3.4139999"
   inkscape:cx="-71.763329"
   inkscape:cy="134.15349"
   inkscape:window-width="5070"
   inkscape:window-height="1440"
   inkscape:window-x="0"
   inkscape:window-y="0"
   inkscape:window-maximized="1"><inkscape:grid
     type="xygrid"
     id="Main Grid"
     originx="0"
     originy="0"
     spacingy="1"
     spacingx="1"
     units="px"
     visible="true"
     empspacing="4"
     snapvisiblegridlinesonly="true" /></sodipodi:namedview>
    
<g
   id="g10"
   inkscape:label="Button Disabled"
   style="display:inline"
   transform="translate(-80,-584)"><rect
     style="display:inline;opacity:0.700197;fill:#1e1f29;fill-rule:evenodd;stroke-width:2;stroke-linecap:square;stroke-linejoin:round;stroke-miterlimit:0"
     id="rect6-7-7-5"
     width="68"
     height="68"
     x="86"
     y="750"
     rx="14"
     ry="14"
     inkscape:label="Fill" /><path
     id="path2-5"
     style="display:inline;fill:#f8f8f2;stroke:none;stroke-width:1px;stroke-linecap:butt;stroke-linejoin:miter;stroke-opacity:1"
     d="m 42,172 -6,6 v 4 l -22,22 v 8 l 18,18 8,-8 v -4 l 14,-14 h 4 l 8,-8 z m 0,6 16,16 -4,4 -12,-12 z m -6,10 12,12 v 4 L 30,222 18,210 v -4 z"
     sodipodi:nodetypes="cccccccccccccccccccccccc"
     inkscape:label="Fabric Icon"
     transform="translate(80,584)" /></g><g
   id="g6-1-2"
   inkscape:label="Button Highlighted"
   transform="translate(0,-160)"
   style="display:inline"><rect
     style="display:inline;fill:url(#linearGradient11-6-9);fill-rule:evenodd;stroke-width:2;stroke-linecap:square;stroke-linejoin:round;stroke-miterlimit:0"
     id="rect5-8-3"
     width="80"
     height="80"
     x="0"
     y="240"
     rx="18"
     ry="18"
     inkscape:label="Outline" /><rect
     style="display:inline;fill:url(#linearGradient20);fill-rule:evenodd;stroke-width:2;stroke-linecap:square;stroke-linejoin:round;stroke-miterlimit:0"
     id="rect6-7-7"
     width="68"
     height="68"
     x="6"
     y="246"
     rx="14"
     ry="14"
     inkscape:label="Fill" /><path
     id="path2-3"
     style="display:inline;fill:#f8f8f2;stroke:none;stroke-width:1px;stroke-linecap:butt;stroke-linejoin:miter;stroke-opacity:1"
     d="m 42,92 -6,6 v 4 l -22,22 v 8 l 18,18 8,-8 v -4 l 14,-14 h 4 l 8,-8 z m 0,6 16,16 -4,4 -12,-12 z m -6,10 12,12 v 4 L 30,142 18,130 v -4 z"
     sodipodi:nodetypes="cccccccccccccccccccccccc"
     inkscape:label="Fabric Icon"
     transform="translate(0,160)" /></g><g
   id="g66"
   inkscape:label="Button"
   transform="translate(0,-240)"
   style="display:inline"><rect
     style="display:inline;fill:#282a36;fill-rule:evenodd;stroke-width:2;stroke-linecap:square;stroke-linejoin:round;stroke-miterlimit:0"
     id="rect65"
     width="80"
     height="80"
     x="0"
     y="240"
     rx="18"
     ry="18"
     inkscape:label="Outline" /><rect
     style="display:inline;fill:#3a3f63;fill-rule:evenodd;stroke-width:2;stroke-linecap:square;stroke-linejoin:round;stroke-miterlimit:0"
     id="rect66"
     width="68"
     height="68"
     x="6"
     y="246"
     rx="14"
     ry="14"
     inkscape:label="Fill" /><path
     id="path2"
     style="display:inline;fill:#f8f8f2;stroke:none;stroke-width:1px;stroke-linecap:butt;stroke-linejoin:miter;stroke-opacity:1"
     d="m 42,12 -6,6 v 4 L 14,44 v 8 l 18,18 8,-8 V 58 L 54,44 h 4 l 8,-8 z m 0,6 16,16 -4,4 -12,-12 z m -6,10 12,12 v 4 L 30,62 18,50 v -4 z"
     sodipodi:nodetypes="cccccccccccccccccccccccc"
     inkscape:label="Fabric Icon"
     transform="translate(0,240)" /></g></svg>
