<?xml version="1.0" encoding="UTF-8" standalone="no"?>
<!-- Created with Inkscape (http://www.inkscape.org/) -->

<svg
   version="1.1"
   id="svg2"
   width="80"
   height="80"
   viewBox="0 0 80 80"
   sodipodi:docname="locked_button_disabled.svg"
   xml:space="preserve"
   inkscape:export-filename="locked_button_highlighted.png"
   inkscape:export-xdpi="96"
   inkscape:export-ydpi="96"
   inkscape:version="1.3 (0e150ed6c4, 2023-07-21)"
   xmlns:inkscape="http://www.inkscape.org/namespaces/inkscape"
   xmlns:sodipodi="http://sodipodi.sourceforge.net/DTD/sodipodi-0.dtd"
   xmlns="http://www.w3.org/2000/svg"
   xmlns:svg="http://www.w3.org/2000/svg"><defs
     id="defs6" /><sodipodi:namedview
     id="namedview4"
     pagecolor="#505050"
     bordercolor="#eeeeee"
     borderopacity="1"
     inkscape:showpageshadow="0"
     inkscape:pageopacity="0"
     inkscape:pagecheckerboard="0"
     inkscape:deskcolor="#505050"
     showgrid="true"
     inkscape:zoom="10.429825"
     inkscape:cx="52.589569"
     inkscape:cy="42.857862"
     inkscape:window-width="3470"
     inkscape:window-height="1440"
     inkscape:window-x="0"
     inkscape:window-y="0"
     inkscape:window-maximized="0"
     inkscape:current-layer="svg2"><inkscape:grid
       type="xygrid"
       id="grid570"
       snapvisiblegridlinesonly="true"
       originx="0"
       originy="0"
       spacingy="1"
       spacingx="1"
       units="px"
       visible="true"
       empspacing="4" /></sodipodi:namedview><rect
     style="display:inline;fill:#1e1f29;fill-opacity:0.699393;fill-rule:evenodd;stroke-width:2;stroke-linecap:square;stroke-linejoin:round;stroke-miterlimit:0"
     id="rect10-9"
     width="68"
     height="68"
     x="6"
     y="246"
     rx="16"
     ry="16"
     inkscape:label="Button Disabled"
     transform="translate(0,-240)" /><path
     id="path25943"
     style="display:inline;fill:#f8f8f2;fill-opacity:1;stroke:none;stroke-width:1px;stroke-linecap:butt;stroke-linejoin:miter;stroke-opacity:1"
     d="M 30,14 20,24 v 15 l -4,4 v 18 l 5,5 h 38 l 5,-5 V 43 L 60,39 V 24 L 50,14 Z m 4,8 h 12 l 6,6 V 38 H 28 V 28 Z m 6,19 8,8 h 3 v -7 h 4 l 4,4 v 15 h -4 v -3 l -4,-4 h -2 l -9,9 -9,-9 h -2 l -4,4 v 3 H 21 V 46 l 4,-4 h 4 v 7 h 3 z"
     inkscape:label="Icon" /></svg>
