<svg xmlns="http://www.w3.org/2000/svg" xmlns:svg="http://www.w3.org/2000/svg" id="svg2" width="80" height="80" version="1.1" viewBox="0 0 80 80" xml:space="preserve"><rect style="display:inline;fill:#1e1f29;fill-opacity:.699393;fill-rule:evenodd;stroke-width:2;stroke-linecap:square;stroke-linejoin:round;stroke-miterlimit:0" id="rect10-9" width="68" height="68" x="6" y="246" rx="16" ry="16" transform="translate(0,-240)"/><path id="path25943" style="display:inline;fill:#f8f8f2;fill-opacity:1;stroke:none;stroke-width:1px;stroke-linecap:butt;stroke-linejoin:miter;stroke-opacity:1" d="M 30,14 20,24 v 15 l -4,4 v 18 l 5,5 h 38 l 5,-5 V 43 L 60,39 V 24 L 50,14 Z m 4,8 h 12 l 6,6 V 38 H 28 V 28 Z m 6,19 8,8 h 3 v -7 h 4 l 4,4 v 15 h -4 v -3 l -4,-4 h -2 l -9,9 -9,-9 h -2 l -4,4 v 3 H 21 V 46 l 4,-4 h 4 v 7 h 3 z"/></svg>