<svg xmlns="http://www.w3.org/2000/svg" xmlns:svg="http://www.w3.org/2000/svg" xmlns:xlink="http://www.w3.org/1999/xlink" id="svg2" width="80" height="80" version="1.1" viewBox="0 0 80 80" xml:space="preserve"><defs id="defs6"><linearGradient id="linearGradient11" x1="40" x2="40" y1="240" y2="356" gradientUnits="userSpaceOnUse" xlink:href="#linearGradient6"/><linearGradient id="linearGradient6"><stop style="stop-color:#bd93f9;stop-opacity:1" id="stop7" offset="0"/><stop style="stop-color:#ff79c6;stop-opacity:1" id="stop8" offset="1"/></linearGradient></defs><g id="g6" transform="translate(0,-240)" style="display:inline"><rect style="display:inline;fill:url(#linearGradient11);fill-opacity:1;fill-rule:evenodd;stroke-width:2;stroke-linecap:square;stroke-linejoin:round;stroke-miterlimit:0" id="rect5" width="80" height="80" x="0" y="240" rx="20" ry="20"/><rect style="display:inline;fill:#3a3f63;fill-rule:evenodd;stroke-width:2;stroke-linecap:square;stroke-linejoin:round;stroke-miterlimit:0" id="rect6" width="68" height="68" x="6" y="246" rx="16" ry="16"/><g id="g2" transform="translate(11,252)" style="display:inline"><path style="fill:#f8f8f2;fill-rule:evenodd;stroke-width:.0677966;stroke-linecap:square;stroke-linejoin:round;stroke-miterlimit:0" id="path1-3" d="M 9,42 V 8 h 34 v 34 h 4 v 6 H 15 Z M 39,40 H 25 v 4 H 39 Z M 23,34 H 13 v 6 l 4,4 h 6 z M 39,33.98305 H 25 V 38 H 39 Z M 39,28 H 13 v 4 H 39 Z M 23,10 H 13 v 10 h 10 z m 16,6 H 26 v 4 h 13 z m 0,-6 H 26 v 4 h 13 z m 0,12 H 13 v 4 h 26 z"/><path style="fill:#f8f8f2;fill-rule:evenodd;stroke-width:.0677966;stroke-linecap:square;stroke-linejoin:round;stroke-miterlimit:0" id="path2-5" d="m 45,16 h 4 v 24 h -4 z"/></g></g></svg>