<?xml version="1.0" encoding="UTF-8" standalone="no"?>
<!-- Created with Inkscape (http://www.inkscape.org/) -->

<svg
   version="1.1"
   id="svg2"
   width="320"
   height="320"
   viewBox="0 0 320 320"
   sodipodi:docname="slot_frame.svg"
   xml:space="preserve"
   inkscape:version="1.3 (0e150ed6c4, 2023-07-21)"
   inkscape:export-filename="header_separator.png"
   inkscape:export-xdpi="96"
   inkscape:export-ydpi="96"
   xmlns:inkscape="http://www.inkscape.org/namespaces/inkscape"
   xmlns:sodipodi="http://sodipodi.sourceforge.net/DTD/sodipodi-0.dtd"
   xmlns:xlink="http://www.w3.org/1999/xlink"
   xmlns="http://www.w3.org/2000/svg"
   xmlns:svg="http://www.w3.org/2000/svg"><defs
     id="defs6"><linearGradient
       id="linearGradient2"
       inkscape:collect="always"><stop
         style="stop-color:#ff79c6;stop-opacity:1"
         offset="0"
         id="stop2" /><stop
         style="stop-color:#bd93f9;stop-opacity:1"
         offset="1"
         id="stop3" /></linearGradient><linearGradient
       inkscape:collect="always"
       xlink:href="#linearGradient2"
       id="linearGradient3"
       x1="164"
       y1="368"
       x2="164"
       y2="0"
       gradientUnits="userSpaceOnUse" /></defs><sodipodi:namedview
     id="namedview4"
     pagecolor="#505050"
     bordercolor="#eeeeee"
     borderopacity="1"
     inkscape:showpageshadow="0"
     inkscape:pageopacity="0"
     inkscape:pagecheckerboard="0"
     inkscape:deskcolor="#505050"
     showgrid="true"
     inkscape:zoom="1.6393277"
     inkscape:cx="141.21642"
     inkscape:cy="204.04706"
     inkscape:window-width="3470"
     inkscape:window-height="1440"
     inkscape:window-x="0"
     inkscape:window-y="0"
     inkscape:window-maximized="0"
     inkscape:current-layer="svg2"><inkscape:grid
       type="xygrid"
       id="grid793"
       snapvisiblegridlinesonly="true"
       originx="0"
       originy="0"
       spacingy="1"
       spacingx="1"
       units="px"
       visible="true"
       empspacing="4" /></sodipodi:namedview><path
     id="rect1"
     style="fill:url(#linearGradient3);fill-rule:evenodd;stroke-width:2;stroke-linecap:square;stroke-linejoin:round;stroke-miterlimit:0;fill-opacity:1"
     d="M 12 0 C 5.3520066 0 0 5.3520066 0 12 L 0 308 C 0 314.64799 5.3520066 320 12 320 L 308 320 C 314.64799 320 320 314.64799 320 308 L 320 12 C 320 5.3520066 314.64799 0 308 0 L 12 0 z M 20 8 L 300 8 C 306.64799 8 312 13.352007 312 20 L 312 300 C 312 306.64799 306.64799 312 300 312 L 20 312 C 13.352007 312 8 306.64799 8 300 L 8 20 C 8 13.352007 13.352007 8 20 8 z "
     inkscape:label="Frame" /></svg>
