<?xml version="1.0" encoding="UTF-8" standalone="no"?>
<!-- Created with Inkscape (http://www.inkscape.org/) -->

<svg
   version="1.1"
   id="svg2"
   width="320"
   height="320"
   viewBox="0 0 320 320"
   sodipodi:docname="slot_frame.svg"
   xml:space="preserve"
   inkscape:version="1.3.1 (91b66b0783, 2023-11-16, custom)"
   inkscape:export-filename="slot_frame.png"
   inkscape:export-xdpi="144"
   inkscape:export-ydpi="144"
   xmlns:inkscape="http://www.inkscape.org/namespaces/inkscape"
   xmlns:sodipodi="http://sodipodi.sourceforge.net/DTD/sodipodi-0.dtd"
   xmlns:xlink="http://www.w3.org/1999/xlink"
   xmlns="http://www.w3.org/2000/svg"
   xmlns:svg="http://www.w3.org/2000/svg"><defs
     id="defs6"><linearGradient
       id="linearGradient6"
       inkscape:collect="always"
       inkscape:label="Button Gradient"><stop
         style="stop-color:#bd93f9;stop-opacity:1"
         offset="0"
         id="stop8-2" /><stop
         style="stop-color:#f281d1;stop-opacity:1;"
         offset="1"
         id="stop7-1" /></linearGradient><linearGradient
       inkscape:collect="always"
       xlink:href="#linearGradient6"
       id="linearGradient5"
       x1="156"
       y1="0"
       x2="156"
       y2="320"
       gradientUnits="userSpaceOnUse" /></defs><sodipodi:namedview
     id="namedview4"
     pagecolor="#505050"
     bordercolor="#eeeeee"
     borderopacity="1"
     inkscape:showpageshadow="0"
     inkscape:pageopacity="0"
     inkscape:pagecheckerboard="0"
     inkscape:deskcolor="#505050"
     showgrid="true"
     inkscape:zoom="3.2786554"
     inkscape:cx="100.34601"
     inkscape:cy="184.83187"
     inkscape:window-width="3470"
     inkscape:window-height="1440"
     inkscape:window-x="0"
     inkscape:window-y="0"
     inkscape:window-maximized="0"
     inkscape:current-layer="svg2"><inkscape:grid
       type="xygrid"
       id="grid793"
       snapvisiblegridlinesonly="true"
       originx="0"
       originy="0"
       spacingy="1"
       spacingx="1"
       units="px"
       visible="true"
       empspacing="4" /></sodipodi:namedview><path
     id="rect1-2-9-3-1"
     style="display:inline;fill:#1e1f29;fill-rule:evenodd;stroke-width:2;stroke-linecap:square;stroke-linejoin:round;stroke-miterlimit:0"
     inkscape:label="Slot"
     d="M 13 0 C 5.7980072 0 1.6092667e-16 5.7980072 0 13 L 0 307 C 0 314.20199 5.7980072 320 13 320 L 307 320 C 314.20199 320 320 314.20199 320 307 L 320 13 C 320 5.7980072 314.20199 1.6092667e-16 307 0 L 13 0 z M 12 12 L 308 12 L 308 308 L 12 308 L 12 12 z " /><path
     id="rect4"
     style="display:inline;fill:url(#linearGradient5);fill-rule:evenodd;stroke-width:2;stroke-linecap:square;stroke-linejoin:round;stroke-miterlimit:0;fill-opacity:1"
     inkscape:label="Slot"
     d="M 14 0 C 6.2440078 0 0 6.2440078 0 14 L 0 306 C 0 313.75599 6.2440078 320 14 320 L 306 320 C 313.75599 320 320 313.75599 320 306 L 320 14 C 320 6.2440078 313.75599 0 306 0 L 14 0 z M 12 12 L 308 12 L 308 308 L 12 308 L 12 12 z " /></svg>
