<svg xmlns="http://www.w3.org/2000/svg" xmlns:svg="http://www.w3.org/2000/svg" id="svg2" width="80" height="80" version="1.1" viewBox="0 0 80 80" xml:space="preserve"><g id="g6" transform="translate(0,-240)" style="display:inline"><rect style="display:inline;fill:#282a36;fill-opacity:1;fill-rule:evenodd;stroke-width:2;stroke-linecap:square;stroke-linejoin:round;stroke-miterlimit:0" id="rect5" width="80" height="80" x="0" y="240" rx="20" ry="20"/><rect style="display:inline;fill:#3a3f63;fill-rule:evenodd;stroke-width:2;stroke-linecap:square;stroke-linejoin:round;stroke-miterlimit:0" id="rect6" width="68" height="68" x="6" y="246" rx="16" ry="16"/><path id="path25344" style="display:inline;fill:#f8f8f2;fill-opacity:1;stroke:none;stroke-width:1px;stroke-linecap:butt;stroke-linejoin:miter;stroke-opacity:1" d="m 30,252 -10,10 v 10 l 8,8 v -14 l 6,-6 h 12 l 6,6 v 18 H 21 l -5,5 v 14 l 5,5 h 38 l 5,-5 v -14 l -4,-4 V 262 L 50,252 Z m -9,36 h 11 v 4 h -6 l 5,5 h 3 l 6,-6 6,6 h 3 l 5,-5 h -6 v -4 h 11 v 8 l -8,8 H 29 l -8,-8 z" class="UnoptimicedTransforms"/></g></svg>